solid x stop
facet normal -0.9999999999999999 0.0 0.0
  outer loop
    vertex -47.890275824049176 3.9999999999999996 6.0
    vertex -47.890275824049176 -12.0 3.0
    vertex -47.890275824049176 -12.0 6.0
  endloop
endfacet
facet normal -0.9999999999999999 0.0 0.0
  outer loop
    vertex -47.890275824049176 -12.0 3.0
    vertex -47.890275824049176 3.9999999999999996 6.0
    vertex -47.890275824049176 3.9999999999999996 3.0
  endloop
endfacet
facet normal -0.0 1.0 -0.0
  outer loop
    vertex -47.890275824049176 3.9999999999999996 6.0
    vertex -41.890275824049176 3.9999999999999996 3.0
    vertex -47.890275824049176 3.9999999999999996 3.0
  endloop
endfacet
facet normal -0.0 1.0 -0.0
  outer loop
    vertex -41.890275824049176 3.9999999999999996 3.0
    vertex -47.890275824049176 3.9999999999999996 6.0
    vertex -41.890275824049176 3.9999999999999996 6.0
  endloop
endfacet
facet normal 0.0 -1.0 0.0
  outer loop
    vertex -41.890275824049176 -12.0 3.0000000000000004
    vertex -47.890275824049176 -12.0 6.0
    vertex -47.890275824049176 -12.0 3.0
  endloop
endfacet
facet normal 0.0 -1.0 0.0
  outer loop
    vertex -47.890275824049176 -12.0 6.0
    vertex -41.890275824049176 -12.0 3.0000000000000004
    vertex -41.890275824049176 -12.0 6.0
  endloop
endfacet
facet normal 1.0 -0.0 -0.0
  outer loop
    vertex -34.890275824049176 -0.9999999999999989 3.0
    vertex -34.890275824049176 -8.999999999999998 6.0
    vertex -34.890275824049176 -8.999999999999998 3.0000000000000004
  endloop
endfacet
facet normal 1.0 -0.0 -0.0
  outer loop
    vertex -34.890275824049176 -8.999999999999998 6.0
    vertex -34.890275824049176 -0.9999999999999989 3.0
    vertex -34.890275824049176 -0.9999999999999996 6.0
  endloop
endfacet
facet normal 1.0 0.0 0.0
  outer loop
    vertex -13.890275824049175 -1.999999999999999 2.9999999999999996
    vertex -13.890275824049175 0.0 7.999999999999999
    vertex -13.890275824049175 -1.9999999999999996 7.999999999999999
  endloop
endfacet
facet normal 1.0 0.0 0.0
  outer loop
    vertex -13.890275824049175 0.0 7.999999999999999
    vertex -13.890275824049175 -1.999999999999999 2.9999999999999996
    vertex -13.890275824049175 0.0 3.0
  endloop
endfacet
facet normal 0.39391929857916785 -0.9191450300180579 0.0
  outer loop
    vertex -34.890275824049176 -8.999999999999998 6.0
    vertex -41.890275824049176 -12.0 3.0000000000000004
    vertex -34.890275824049176 -8.999999999999998 3.0000000000000004
  endloop
endfacet
facet normal 0.39391929857916785 -0.9191450300180579 0.0
  outer loop
    vertex -41.890275824049176 -12.0 3.0000000000000004
    vertex -34.890275824049176 -8.999999999999998 6.0
    vertex -41.890275824049176 -12.0 6.0
  endloop
endfacet
facet normal 0.0 -1.0 -1.7624790515924362e-16
  outer loop
    vertex -13.890275824049175 -1.9999999999999996 7.999999999999999
    vertex -27.890275824049176 -1.999999999999999 2.9999999999999996
    vertex -13.890275824049175 -1.999999999999999 2.9999999999999996
  endloop
endfacet
facet normal 0.0 -1.0 -1.7624790515924362e-16
  outer loop
    vertex -27.890275824049176 -1.999999999999999 2.9999999999999996
    vertex -13.890275824049175 -1.9999999999999996 7.999999999999999
    vertex -27.890275824049176 -1.9999999999999996 7.999999999999999
  endloop
endfacet
facet normal -0.9999999999999999 0.0 -0.0
  outer loop
    vertex -27.890275824049176 -0.9999999999999996 7.999999999999999
    vertex -27.890275824049176 -1.999999999999999 2.9999999999999996
    vertex -27.890275824049176 -1.9999999999999996 7.999999999999999
  endloop
endfacet
facet normal -0.9999999999999999 0.0 -0.0
  outer loop
    vertex -27.890275824049176 -1.999999999999999 2.9999999999999996
    vertex -27.890275824049176 -0.9999999999999996 7.999999999999999
    vertex -27.890275824049176 -0.9999999999999989 3.0
  endloop
endfacet
facet normal -0.707106781186547 -0.0 0.707106781186548
  outer loop
    vertex -34.890275824049176 -0.9999999999999996 7.999999999999999
    vertex -36.890275824049176 1.8571428571428579 6.0
    vertex -36.890275824049176 -0.9999999999999996 6.0
  endloop
endfacet
facet normal -0.707106781186547 -0.0 0.707106781186548
  outer loop
    vertex -36.890275824049176 1.8571428571428579 6.0
    vertex -34.890275824049176 -0.9999999999999996 7.999999999999999
    vertex -34.890275824049176 0.9999999999999999 7.999999999999999
  endloop
endfacet
facet normal -0.0 -0.0 1.0
  outer loop
    vertex -47.890275824049176 -12.0 6.0
    vertex -46.39027582404917 -8.999999999999998 6.0
    vertex -47.890275824049176 3.9999999999999996 6.0
  endloop
endfacet
facet normal -0.0 -0.0 1.0
  outer loop
    vertex -46.39027582404917 -8.999999999999998 6.0
    vertex -47.890275824049176 -12.0 6.0
    vertex -46.33916456348277 -9.38822856765378 6.0
  endloop
endfacet
facet normal -0.0 -0.0 1.0
  outer loop
    vertex -46.33916456348277 -9.38822856765378 6.0
    vertex -47.890275824049176 -12.0 6.0
    vertex -46.18931392972583 -9.749999999999998 6.0
  endloop
endfacet
facet normal -0.0 -0.0 1.0
  outer loop
    vertex -46.18931392972583 -9.749999999999998 6.0
    vertex -47.890275824049176 -12.0 6.0
    vertex -45.95093599582899 -10.06066017177982 6.0
  endloop
endfacet
facet normal -0.0 -0.0 1.0
  outer loop
    vertex -45.95093599582899 -10.06066017177982 6.0
    vertex -47.890275824049176 -12.0 6.0
    vertex -45.64027582404917 -10.299038105676654 6.0
  endloop
endfacet
facet normal -0.0 -0.0 1.0
  outer loop
    vertex -45.64027582404917 -10.299038105676654 6.0
    vertex -47.890275824049176 -12.0 6.0
    vertex -41.890275824049176 -12.0 6.0
  endloop
endfacet
facet normal -0.0 -0.0 1.0
  outer loop
    vertex -45.64027582404917 -10.299038105676654 6.0
    vertex -41.890275824049176 -12.0 6.0
    vertex -45.27850439170295 -10.448888739433599 6.0
  endloop
endfacet
facet normal -0.0 -0.0 1.0
  outer loop
    vertex -45.27850439170295 -10.448888739433599 6.0
    vertex -41.890275824049176 -12.0 6.0
    vertex -44.890275824049176 -10.499999999999996 6.0
  endloop
endfacet
facet normal -0.0 -0.0 1.0
  outer loop
    vertex -44.890275824049176 -10.499999999999996 6.0
    vertex -41.890275824049176 -12.0 6.0
    vertex -44.50204725639539 -10.448888739433599 6.0
  endloop
endfacet
facet normal -0.0 -0.0 1.0
  outer loop
    vertex -44.50204725639539 -10.448888739433599 6.0
    vertex -41.890275824049176 -12.0 6.0
    vertex -44.140275824049176 -10.299038105676654 6.0
  endloop
endfacet
facet normal -0.0 -0.0 1.0
  outer loop
    vertex -44.140275824049176 -10.299038105676654 6.0
    vertex -41.890275824049176 -12.0 6.0
    vertex -43.829615652269354 -10.06066017177982 6.0
  endloop
endfacet
facet normal -0.0 -0.0 1.0
  outer loop
    vertex -43.829615652269354 -10.06066017177982 6.0
    vertex -41.890275824049176 -12.0 6.0
    vertex -43.59123771837252 -9.749999999999998 6.0
  endloop
endfacet
facet normal -0.0 -0.0 1.0
  outer loop
    vertex -43.59123771837252 -9.749999999999998 6.0
    vertex -41.890275824049176 -12.0 6.0
    vertex -43.44138708461557 -9.38822856765378 6.0
  endloop
endfacet
facet normal -0.0 -0.0 1.0
  outer loop
    vertex -43.44138708461557 -9.38822856765378 6.0
    vertex -41.890275824049176 -12.0 6.0
    vertex -43.390275824049176 -8.999999999999998 6.0
  endloop
endfacet
facet normal -0.0 -0.0 1.0
  outer loop
    vertex -43.390275824049176 -8.999999999999998 6.0
    vertex -41.890275824049176 -12.0 6.0
    vertex -43.390275824049176 0.9999999999999996 6.0
  endloop
endfacet
facet normal -0.0 -0.0 1.0
  outer loop
    vertex -46.339164563482775 -8.611771432346218 6.0
    vertex -46.39027582404917 0.9999999999999994 6.0
    vertex -46.39027582404917 -8.999999999999998 6.0
  endloop
endfacet
facet normal -0.0 -0.0 1.0
  outer loop
    vertex -46.39027582404917 0.9999999999999994 6.0
    vertex -46.339164563482775 -8.611771432346218 6.0
    vertex -46.33916456348277 0.6117714323462188 6.0
  endloop
endfacet
facet normal -0.0 -0.0 1.0
  outer loop
    vertex -46.33916456348277 0.6117714323462188 6.0
    vertex -46.339164563482775 -8.611771432346218 6.0
    vertex -46.18931392972583 -8.25 6.0
  endloop
endfacet
facet normal -0.0 -0.0 1.0
  outer loop
    vertex -46.33916456348277 0.6117714323462188 6.0
    vertex -46.18931392972583 -8.25 6.0
    vertex -46.18931392972583 0.25000000000000044 6.0
  endloop
endfacet
facet normal -0.0 -0.0 1.0
  outer loop
    vertex -46.18931392972583 0.25000000000000044 6.0
    vertex -46.18931392972583 -8.25 6.0
    vertex -45.95093599582899 -7.939339828220181 6.0
  endloop
endfacet
facet normal -0.0 -0.0 1.0
  outer loop
    vertex -46.18931392972583 0.25000000000000044 6.0
    vertex -45.95093599582899 -7.939339828220181 6.0
    vertex -45.95093599582899 -0.06066017177981977 6.0
  endloop
endfacet
facet normal -0.0 -0.0 1.0
  outer loop
    vertex -45.95093599582899 -0.06066017177981977 6.0
    vertex -45.95093599582899 -7.939339828220181 6.0
    vertex -45.64027582404917 -7.700961894323345 6.0
  endloop
endfacet
facet normal -0.0 -0.0 1.0
  outer loop
    vertex -45.95093599582899 -0.06066017177981977 6.0
    vertex -45.64027582404917 -7.700961894323345 6.0
    vertex -45.64027582404917 -0.2990381056766562 6.0
  endloop
endfacet
facet normal -0.0 -0.0 1.0
  outer loop
    vertex -45.64027582404917 -0.2990381056766562 6.0
    vertex -45.64027582404917 -7.700961894323345 6.0
    vertex -45.27850439170296 -7.551111260566399 6.0
  endloop
endfacet
facet normal -0.0 -0.0 1.0
  outer loop
    vertex -45.64027582404917 -0.2990381056766562 6.0
    vertex -45.27850439170296 -7.551111260566399 6.0
    vertex -45.27850439170295 -0.44888873943360025 6.0
  endloop
endfacet
facet normal -0.0 -0.0 1.0
  outer loop
    vertex -45.27850439170295 -0.44888873943360025 6.0
    vertex -45.27850439170296 -7.551111260566399 6.0
    vertex -44.890275824049176 -7.500000000000002 6.0
  endloop
endfacet
facet normal -0.0 -0.0 1.0
  outer loop
    vertex -45.27850439170295 -0.44888873943360025 6.0
    vertex -44.890275824049176 -7.500000000000002 6.0
    vertex -44.890275824049176 -0.49999999999999767 6.0
  endloop
endfacet
facet normal -0.0 -0.0 1.0
  outer loop
    vertex -44.890275824049176 -0.49999999999999767 6.0
    vertex -44.890275824049176 -7.500000000000002 6.0
    vertex -44.50204725639539 -7.551111260566399 6.0
  endloop
endfacet
facet normal -0.0 -0.0 1.0
  outer loop
    vertex -44.890275824049176 -0.49999999999999767 6.0
    vertex -44.50204725639539 -7.551111260566399 6.0
    vertex -44.50204725639539 -0.4488887394336 6.0
  endloop
endfacet
facet normal -0.0 -0.0 1.0
  outer loop
    vertex -44.50204725639539 -0.4488887394336 6.0
    vertex -44.50204725639539 -7.551111260566399 6.0
    vertex -44.140275824049176 -7.700961894323343 6.0
  endloop
endfacet
facet normal -0.0 -0.0 1.0
  outer loop
    vertex -44.50204725639539 -0.4488887394336 6.0
    vertex -44.140275824049176 -7.700961894323343 6.0
    vertex -44.140275824049176 -0.299038105676656 6.0
  endloop
endfacet
facet normal -0.0 -0.0 1.0
  outer loop
    vertex -44.140275824049176 -0.299038105676656 6.0
    vertex -44.140275824049176 -7.700961894323343 6.0
    vertex -43.829615652269354 -7.939339828220179 6.0
  endloop
endfacet
facet normal -0.0 -0.0 1.0
  outer loop
    vertex -44.140275824049176 -0.299038105676656 6.0
    vertex -43.829615652269354 -7.939339828220179 6.0
    vertex -43.829615652269354 -0.0606601717798196 6.0
  endloop
endfacet
facet normal -0.0 -0.0 1.0
  outer loop
    vertex -43.829615652269354 -0.0606601717798196 6.0
    vertex -43.829615652269354 -7.939339828220179 6.0
    vertex -43.59123771837252 -8.249999999999998 6.0
  endloop
endfacet
facet normal -0.0 -0.0 1.0
  outer loop
    vertex -43.829615652269354 -0.0606601717798196 6.0
    vertex -43.59123771837252 -8.249999999999998 6.0
    vertex -43.59123771837252 0.25000000000000105 6.0
  endloop
endfacet
facet normal -0.0 -0.0 1.0
  outer loop
    vertex -43.59123771837252 0.25000000000000105 6.0
    vertex -43.59123771837252 -8.249999999999998 6.0
    vertex -43.44138708461558 -8.611771432346218 6.0
  endloop
endfacet
facet normal -0.0 -0.0 1.0
  outer loop
    vertex -43.59123771837252 0.25000000000000105 6.0
    vertex -43.44138708461558 -8.611771432346218 6.0
    vertex -43.44138708461557 0.6117714323462191 6.0
  endloop
endfacet
facet normal -0.0 -0.0 1.0
  outer loop
    vertex -43.44138708461557 0.6117714323462191 6.0
    vertex -43.44138708461558 -8.611771432346218 6.0
    vertex -43.390275824049176 -8.999999999999998 6.0
  endloop
endfacet
facet normal -0.0 -0.0 1.0
  outer loop
    vertex -43.44138708461557 0.6117714323462191 6.0
    vertex -43.390275824049176 -8.999999999999998 6.0
    vertex -43.390275824049176 0.9999999999999996 6.0
  endloop
endfacet
facet normal -0.0 -0.0 1.0
  outer loop
    vertex -47.890275824049176 3.9999999999999996 6.0
    vertex -45.64027582404917 2.299038105676655 6.0
    vertex -41.890275824049176 3.9999999999999996 6.0
  endloop
endfacet
facet normal -0.0 -0.0 1.0
  outer loop
    vertex -45.64027582404917 2.299038105676655 6.0
    vertex -47.890275824049176 3.9999999999999996 6.0
    vertex -45.95093599582899 2.0606601717798188 6.0
  endloop
endfacet
facet normal -0.0 -0.0 1.0
  outer loop
    vertex -45.95093599582899 2.0606601717798188 6.0
    vertex -47.890275824049176 3.9999999999999996 6.0
    vertex -46.18931392972583 1.7499999999999978 6.0
  endloop
endfacet
facet normal -0.0 -0.0 1.0
  outer loop
    vertex -46.18931392972583 1.7499999999999978 6.0
    vertex -47.890275824049176 3.9999999999999996 6.0
    vertex -46.339164563482775 1.3882285676537796 6.0
  endloop
endfacet
facet normal -0.0 -0.0 1.0
  outer loop
    vertex -46.339164563482775 1.3882285676537796 6.0
    vertex -47.890275824049176 3.9999999999999996 6.0
    vertex -46.39027582404917 0.9999999999999994 6.0
  endloop
endfacet
facet normal -0.0 -0.0 1.0
  outer loop
    vertex -46.39027582404917 0.9999999999999994 6.0
    vertex -47.890275824049176 3.9999999999999996 6.0
    vertex -46.39027582404917 -8.999999999999998 6.0
  endloop
endfacet
facet normal -0.0 -0.0 1.0
  outer loop
    vertex -41.890275824049176 3.9999999999999996 6.0
    vertex -45.64027582404917 2.299038105676655 6.0
    vertex -45.27850439170296 2.4488887394335994 6.0
  endloop
endfacet
facet normal -0.0 -0.0 1.0
  outer loop
    vertex -41.890275824049176 3.9999999999999996 6.0
    vertex -45.27850439170296 2.4488887394335994 6.0
    vertex -44.890275824049176 2.499999999999997 6.0
  endloop
endfacet
facet normal -0.0 -0.0 1.0
  outer loop
    vertex -41.890275824049176 3.9999999999999996 6.0
    vertex -44.890275824049176 2.499999999999997 6.0
    vertex -44.50204725639539 2.4488887394335994 6.0
  endloop
endfacet
facet normal -0.0 -0.0 1.0
  outer loop
    vertex -41.890275824049176 3.9999999999999996 6.0
    vertex -44.50204725639539 2.4488887394335994 6.0
    vertex -44.140275824049176 2.2990381056766553 6.0
  endloop
endfacet
facet normal -0.0 -0.0 1.0
  outer loop
    vertex -41.890275824049176 3.9999999999999996 6.0
    vertex -44.140275824049176 2.2990381056766553 6.0
    vertex -43.829615652269354 2.060660171779819 6.0
  endloop
endfacet
facet normal -0.0 -0.0 1.0
  outer loop
    vertex -41.890275824049176 3.9999999999999996 6.0
    vertex -43.829615652269354 2.060660171779819 6.0
    vertex -43.59123771837252 1.749999999999999 6.0
  endloop
endfacet
facet normal -0.0 -0.0 1.0
  outer loop
    vertex -41.890275824049176 3.9999999999999996 6.0
    vertex -43.59123771837252 1.749999999999999 6.0
    vertex -43.44138708461558 1.3882285676537813 6.0
  endloop
endfacet
facet normal -0.0 -0.0 1.0
  outer loop
    vertex -41.890275824049176 3.9999999999999996 6.0
    vertex -43.44138708461558 1.3882285676537813 6.0
    vertex -43.390275824049176 0.9999999999999996 6.0
  endloop
endfacet
facet normal -0.0 -0.0 1.0
  outer loop
    vertex -41.890275824049176 3.9999999999999996 6.0
    vertex -43.390275824049176 0.9999999999999996 6.0
    vertex -41.890275824049176 -12.0 6.0
  endloop
endfacet
facet normal -0.0 -0.0 1.0
  outer loop
    vertex -41.890275824049176 3.9999999999999996 6.0
    vertex -41.890275824049176 -12.0 6.0
    vertex -34.890275824049176 -8.999999999999998 6.0
  endloop
endfacet
facet normal -0.0 -0.0 1.0
  outer loop
    vertex -41.890275824049176 3.9999999999999996 6.0
    vertex -34.890275824049176 -8.999999999999998 6.0
    vertex -36.890275824049176 -0.9999999999999996 6.0
  endloop
endfacet
facet normal -0.0 -0.0 1.0
  outer loop
    vertex -36.890275824049176 -0.9999999999999996 6.0
    vertex -34.890275824049176 -8.999999999999998 6.0
    vertex -34.890275824049176 -0.9999999999999996 6.0
  endloop
endfacet
facet normal -0.0 -0.0 1.0
  outer loop
    vertex -36.890275824049176 1.8571428571428579 6.0
    vertex -41.890275824049176 3.9999999999999996 6.0
    vertex -36.890275824049176 -0.9999999999999996 6.0
  endloop
endfacet
facet normal 2.1504574091620976e-17 -1.0 -1.4587269425482897e-16
  outer loop
    vertex -27.890275824049176 -0.9999999999999996 7.999999999999999
    vertex -34.890275824049176 -0.9999999999999989 3.0
    vertex -27.890275824049176 -0.9999999999999989 3.0
  endloop
endfacet
facet normal 2.1504574091620976e-17 -1.0 -1.4587269425482897e-16
  outer loop
    vertex -34.890275824049176 -0.9999999999999989 3.0
    vertex -27.890275824049176 -0.9999999999999996 7.999999999999999
    vertex -34.890275824049176 -0.9999999999999996 6.0
  endloop
endfacet
facet normal 2.1504574091620976e-17 -1.0 -1.4587269425482897e-16
  outer loop
    vertex -34.890275824049176 -0.9999999999999996 6.0
    vertex -27.890275824049176 -0.9999999999999996 7.999999999999999
    vertex -36.890275824049176 -0.9999999999999996 6.0
  endloop
endfacet
facet normal 2.1504574091620976e-17 -1.0 -1.4587269425482897e-16
  outer loop
    vertex -36.890275824049176 -0.9999999999999996 6.0
    vertex -27.890275824049176 -0.9999999999999996 7.999999999999999
    vertex -34.890275824049176 -0.9999999999999996 7.999999999999999
  endloop
endfacet
facet normal -6.10088902474305e-17 1.0 -6.762777699042816e-33
  outer loop
    vertex -34.890275824049176 0.9999999999999999 7.999999999999999
    vertex -27.890275824049176 1.0000000000000002 3.0000000000000044
    vertex -34.890275824049176 0.9999999999999999 3.0
  endloop
endfacet
facet normal -6.10088902474305e-17 1.0 -6.762777699042816e-33
  outer loop
    vertex -27.890275824049176 1.0000000000000002 3.0000000000000044
    vertex -34.890275824049176 0.9999999999999999 7.999999999999999
    vertex -27.890275824049176 1.0000000000000002 7.999999999999999
  endloop
endfacet
facet normal 0.39391929857916785 0.9191450300180579 -2.3360602872764685e-17
  outer loop
    vertex -34.890275824049176 0.9999999999999999 3.0
    vertex -36.890275824049176 1.8571428571428579 6.0
    vertex -34.890275824049176 0.9999999999999999 7.999999999999999
  endloop
endfacet
facet normal 0.39391929857916785 0.9191450300180579 -2.3360602872764685e-17
  outer loop
    vertex -36.890275824049176 1.8571428571428579 6.0
    vertex -34.890275824049176 0.9999999999999999 3.0
    vertex -41.890275824049176 3.9999999999999996 3.0
  endloop
endfacet
facet normal 0.39391929857916785 0.9191450300180579 -2.3360602872764685e-17
  outer loop
    vertex -36.890275824049176 1.8571428571428579 6.0
    vertex -41.890275824049176 3.9999999999999996 3.0
    vertex -41.890275824049176 3.9999999999999996 6.0
  endloop
endfacet
facet normal 3.494501016163742e-17 1.0 2.6396142084978804e-19
  outer loop
    vertex -26.89027582404918 4.556049392055356e-16 3.0
    vertex -13.890275824049175 0.0 7.999999999999999
    vertex -13.890275824049175 0.0 3.0
  endloop
endfacet
facet normal 3.494501016163742e-17 1.0 2.6396142084978804e-19
  outer loop
    vertex -13.890275824049175 0.0 7.999999999999999
    vertex -26.89027582404918 4.556049392055356e-16 3.0
    vertex -26.89027582404918 4.529653249970376e-16 7.999999999999999
  endloop
endfacet
facet normal -0.0 -0.0 1.0
  outer loop
    vertex -13.890275824049175 -1.9999999999999996 7.999999999999999
    vertex -27.890275824049176 -0.9999999999999996 7.999999999999999
    vertex -27.890275824049176 -1.9999999999999996 7.999999999999999
  endloop
endfacet
facet normal -0.0 -0.0 1.0
  outer loop
    vertex -27.890275824049176 -0.9999999999999996 7.999999999999999
    vertex -13.890275824049175 -1.9999999999999996 7.999999999999999
    vertex -26.89027582404918 4.529653249970376e-16 7.999999999999999
  endloop
endfacet
facet normal -0.0 -0.0 1.0
  outer loop
    vertex -27.890275824049176 -0.9999999999999996 7.999999999999999
    vertex -26.89027582404918 4.529653249970376e-16 7.999999999999999
    vertex -27.890275824049176 1.0000000000000002 7.999999999999999
  endloop
endfacet
facet normal -0.0 -0.0 1.0
  outer loop
    vertex -26.89027582404918 4.529653249970376e-16 7.999999999999999
    vertex -13.890275824049175 -1.9999999999999996 7.999999999999999
    vertex -13.890275824049175 0.0 7.999999999999999
  endloop
endfacet
facet normal -0.0 -0.0 1.0
  outer loop
    vertex -27.890275824049176 -0.9999999999999996 7.999999999999999
    vertex -34.890275824049176 0.9999999999999999 7.999999999999999
    vertex -34.890275824049176 -0.9999999999999996 7.999999999999999
  endloop
endfacet
facet normal -0.0 -0.0 1.0
  outer loop
    vertex -34.890275824049176 0.9999999999999999 7.999999999999999
    vertex -27.890275824049176 -0.9999999999999996 7.999999999999999
    vertex -27.890275824049176 1.0000000000000002 7.999999999999999
  endloop
endfacet
facet normal 0.7071067811865481 0.707106781186547 1.0628246694220083e-31
  outer loop
    vertex -26.89027582404918 4.556049392055356e-16 3.0
    vertex -27.890275824049176 1.0000000000000002 7.999999999999999
    vertex -26.89027582404918 4.529653249970376e-16 7.999999999999999
  endloop
endfacet
facet normal 0.7071067811865481 0.707106781186547 1.0628246694220083e-31
  outer loop
    vertex -27.890275824049176 1.0000000000000002 7.999999999999999
    vertex -26.89027582404918 4.556049392055356e-16 3.0
    vertex -27.890275824049176 1.0000000000000002 3.0000000000000044
  endloop
endfacet
facet normal 2.6999499540025755e-19 1.6992340886797975e-17 -1.0
  outer loop
    vertex -47.890275824049176 3.9999999999999996 3.0
    vertex -46.39027582404917 0.9999999999999994 3.0
    vertex -47.890275824049176 -12.0 3.0
  endloop
endfacet
facet normal 2.6999499540025755e-19 1.6992340886797975e-17 -1.0
  outer loop
    vertex -46.39027582404917 0.9999999999999994 3.0
    vertex -47.890275824049176 3.9999999999999996 3.0
    vertex -46.339164563482775 1.3882285676537796 3.0
  endloop
endfacet
facet normal 2.6999499540025755e-19 1.6992340886797975e-17 -1.0
  outer loop
    vertex -46.339164563482775 1.3882285676537796 3.0
    vertex -47.890275824049176 3.9999999999999996 3.0
    vertex -46.18931392972583 1.7499999999999978 3.0
  endloop
endfacet
facet normal 2.6999499540025755e-19 1.6992340886797975e-17 -1.0
  outer loop
    vertex -46.18931392972583 1.7499999999999978 3.0
    vertex -47.890275824049176 3.9999999999999996 3.0
    vertex -45.95093599582899 2.0606601717798188 3.0
  endloop
endfacet
facet normal 2.6999499540025755e-19 1.6992340886797975e-17 -1.0
  outer loop
    vertex -45.95093599582899 2.0606601717798188 3.0
    vertex -47.890275824049176 3.9999999999999996 3.0
    vertex -45.64027582404917 2.299038105676655 3.0
  endloop
endfacet
facet normal 2.6999499540025755e-19 1.6992340886797975e-17 -1.0
  outer loop
    vertex -45.64027582404917 2.299038105676655 3.0
    vertex -47.890275824049176 3.9999999999999996 3.0
    vertex -41.890275824049176 3.9999999999999996 3.0
  endloop
endfacet
facet normal 2.6999499540025755e-19 1.6992340886797975e-17 -1.0
  outer loop
    vertex -45.64027582404917 2.299038105676655 3.0
    vertex -41.890275824049176 3.9999999999999996 3.0
    vertex -45.27850439170296 2.4488887394335994 3.0
  endloop
endfacet
facet normal 2.6999499540025755e-19 1.6992340886797975e-17 -1.0
  outer loop
    vertex -45.27850439170296 2.4488887394335994 3.0
    vertex -41.890275824049176 3.9999999999999996 3.0
    vertex -44.890275824049176 2.499999999999997 3.0
  endloop
endfacet
facet normal 2.6999499540025755e-19 1.6992340886797975e-17 -1.0
  outer loop
    vertex -44.890275824049176 2.499999999999997 3.0
    vertex -41.890275824049176 3.9999999999999996 3.0
    vertex -44.50204725639539 2.4488887394335994 3.0
  endloop
endfacet
facet normal 2.6999499540025755e-19 1.6992340886797975e-17 -1.0
  outer loop
    vertex -44.50204725639539 2.4488887394335994 3.0
    vertex -41.890275824049176 3.9999999999999996 3.0
    vertex -44.140275824049176 2.2990381056766553 3.0
  endloop
endfacet
facet normal 2.6999499540025755e-19 1.6992340886797975e-17 -1.0
  outer loop
    vertex -44.140275824049176 2.2990381056766553 3.0
    vertex -41.890275824049176 3.9999999999999996 3.0
    vertex -43.829615652269354 2.060660171779819 3.0
  endloop
endfacet
facet normal 2.6999499540025755e-19 1.6992340886797975e-17 -1.0
  outer loop
    vertex -43.829615652269354 2.060660171779819 3.0
    vertex -41.890275824049176 3.9999999999999996 3.0
    vertex -43.59123771837252 1.749999999999999 3.0
  endloop
endfacet
facet normal 2.6999499540025755e-19 1.6992340886797975e-17 -1.0
  outer loop
    vertex -43.59123771837252 1.749999999999999 3.0
    vertex -41.890275824049176 3.9999999999999996 3.0
    vertex -43.44138708461558 1.3882285676537813 3.0
  endloop
endfacet
facet normal 2.6999499540025755e-19 1.6992340886797975e-17 -1.0
  outer loop
    vertex -43.44138708461558 1.3882285676537813 3.0
    vertex -41.890275824049176 3.9999999999999996 3.0
    vertex -43.390275824049176 0.9999999999999996 3.0
  endloop
endfacet
facet normal 2.6999499540025755e-19 1.6992340886797975e-17 -1.0
  outer loop
    vertex -43.390275824049176 0.9999999999999996 3.0
    vertex -41.890275824049176 3.9999999999999996 3.0
    vertex -43.390275824049176 -8.999999999999998 3.0
  endloop
endfacet
facet normal 2.6999499540025755e-19 1.6992340886797975e-17 -1.0
  outer loop
    vertex -27.890275824049176 1.0000000000000002 3.0000000000000044
    vertex -34.890275824049176 -0.9999999999999989 3.0
    vertex -34.890275824049176 0.9999999999999999 3.0
  endloop
endfacet
facet normal 2.6999499540025755e-19 1.6992340886797975e-17 -1.0
  outer loop
    vertex -34.890275824049176 -0.9999999999999989 3.0
    vertex -27.890275824049176 1.0000000000000002 3.0000000000000044
    vertex -27.890275824049176 -0.9999999999999989 3.0
  endloop
endfacet
facet normal 2.6999499540025755e-19 1.6992340886797975e-17 -1.0
  outer loop
    vertex -27.890275824049176 -0.9999999999999989 3.0
    vertex -27.890275824049176 1.0000000000000002 3.0000000000000044
    vertex -26.89027582404918 4.556049392055356e-16 3.0
  endloop
endfacet
facet normal 2.6999499540025755e-19 1.6992340886797975e-17 -1.0
  outer loop
    vertex -27.890275824049176 -0.9999999999999989 3.0
    vertex -26.89027582404918 4.556049392055356e-16 3.0
    vertex -27.890275824049176 -1.999999999999999 2.9999999999999996
  endloop
endfacet
facet normal 2.6999499540025755e-19 1.6992340886797975e-17 -1.0
  outer loop
    vertex -27.890275824049176 -1.999999999999999 2.9999999999999996
    vertex -26.89027582404918 4.556049392055356e-16 3.0
    vertex -13.890275824049175 -1.999999999999999 2.9999999999999996
  endloop
endfacet
facet normal 2.6999499540025755e-19 1.6992340886797975e-17 -1.0
  outer loop
    vertex -13.890275824049175 -1.999999999999999 2.9999999999999996
    vertex -26.89027582404918 4.556049392055356e-16 3.0
    vertex -13.890275824049175 0.0 3.0
  endloop
endfacet
facet normal 2.6999499540025755e-19 1.6992340886797975e-17 -1.0
  outer loop
    vertex -47.890275824049176 -12.0 3.0
    vertex -45.64027582404917 -10.299038105676654 3.0
    vertex -41.890275824049176 -12.0 3.0000000000000004
  endloop
endfacet
facet normal 2.6999499540025755e-19 1.6992340886797975e-17 -1.0
  outer loop
    vertex -45.64027582404917 -10.299038105676654 3.0
    vertex -47.890275824049176 -12.0 3.0
    vertex -45.95093599582899 -10.06066017177982 3.0
  endloop
endfacet
facet normal 2.6999499540025755e-19 1.6992340886797975e-17 -1.0
  outer loop
    vertex -45.95093599582899 -10.06066017177982 3.0
    vertex -47.890275824049176 -12.0 3.0
    vertex -46.18931392972583 -9.749999999999998 3.0
  endloop
endfacet
facet normal 2.6999499540025755e-19 1.6992340886797975e-17 -1.0
  outer loop
    vertex -46.18931392972583 -9.749999999999998 3.0
    vertex -47.890275824049176 -12.0 3.0
    vertex -46.33916456348277 -9.38822856765378 3.0
  endloop
endfacet
facet normal 2.6999499540025755e-19 1.6992340886797975e-17 -1.0
  outer loop
    vertex -46.33916456348277 -9.38822856765378 3.0
    vertex -47.890275824049176 -12.0 3.0
    vertex -46.39027582404917 -8.999999999999998 3.0
  endloop
endfacet
facet normal 2.6999499540025755e-19 1.6992340886797975e-17 -1.0
  outer loop
    vertex -46.39027582404917 -8.999999999999998 3.0
    vertex -47.890275824049176 -12.0 3.0
    vertex -46.39027582404917 0.9999999999999994 3.0
  endloop
endfacet
facet normal 2.6999499540025755e-19 1.6992340886797975e-17 -1.0
  outer loop
    vertex -41.890275824049176 -12.0 3.0000000000000004
    vertex -45.64027582404917 -10.299038105676654 3.0
    vertex -45.27850439170295 -10.448888739433599 3.0
  endloop
endfacet
facet normal 2.6999499540025755e-19 1.6992340886797975e-17 -1.0
  outer loop
    vertex -41.890275824049176 -12.0 3.0000000000000004
    vertex -45.27850439170295 -10.448888739433599 3.0
    vertex -44.890275824049176 -10.499999999999996 3.0
  endloop
endfacet
facet normal 2.6999499540025755e-19 1.6992340886797975e-17 -1.0
  outer loop
    vertex -41.890275824049176 -12.0 3.0000000000000004
    vertex -44.890275824049176 -10.499999999999996 3.0
    vertex -44.50204725639539 -10.448888739433599 3.0
  endloop
endfacet
facet normal 2.6999499540025755e-19 1.6992340886797975e-17 -1.0
  outer loop
    vertex -41.890275824049176 -12.0 3.0000000000000004
    vertex -44.50204725639539 -10.448888739433599 3.0
    vertex -44.140275824049176 -10.299038105676654 3.0
  endloop
endfacet
facet normal 2.6999499540025755e-19 1.6992340886797975e-17 -1.0
  outer loop
    vertex -41.890275824049176 -12.0 3.0000000000000004
    vertex -44.140275824049176 -10.299038105676654 3.0
    vertex -43.829615652269354 -10.06066017177982 3.0
  endloop
endfacet
facet normal 2.6999499540025755e-19 1.6992340886797975e-17 -1.0
  outer loop
    vertex -41.890275824049176 -12.0 3.0000000000000004
    vertex -43.829615652269354 -10.06066017177982 3.0
    vertex -43.59123771837252 -9.749999999999998 3.0
  endloop
endfacet
facet normal 2.6999499540025755e-19 1.6992340886797975e-17 -1.0
  outer loop
    vertex -41.890275824049176 -12.0 3.0000000000000004
    vertex -43.59123771837252 -9.749999999999998 3.0
    vertex -43.44138708461557 -9.38822856765378 3.0
  endloop
endfacet
facet normal 2.6999499540025755e-19 1.6992340886797975e-17 -1.0
  outer loop
    vertex -41.890275824049176 -12.0 3.0000000000000004
    vertex -43.44138708461557 -9.38822856765378 3.0
    vertex -43.390275824049176 -8.999999999999998 3.0
  endloop
endfacet
facet normal 2.6999499540025755e-19 1.6992340886797975e-17 -1.0
  outer loop
    vertex -41.890275824049176 -12.0 3.0000000000000004
    vertex -43.390275824049176 -8.999999999999998 3.0
    vertex -41.890275824049176 3.9999999999999996 3.0
  endloop
endfacet
facet normal 2.6999499540025755e-19 1.6992340886797975e-17 -1.0
  outer loop
    vertex -41.890275824049176 -12.0 3.0000000000000004
    vertex -41.890275824049176 3.9999999999999996 3.0
    vertex -34.890275824049176 0.9999999999999999 3.0
  endloop
endfacet
facet normal 2.6999499540025755e-19 1.6992340886797975e-17 -1.0
  outer loop
    vertex -41.890275824049176 -12.0 3.0000000000000004
    vertex -34.890275824049176 0.9999999999999999 3.0
    vertex -34.890275824049176 -8.999999999999998 3.0000000000000004
  endloop
endfacet
facet normal 2.6999499540025755e-19 1.6992340886797975e-17 -1.0
  outer loop
    vertex -34.890275824049176 -8.999999999999998 3.0000000000000004
    vertex -34.890275824049176 0.9999999999999999 3.0
    vertex -34.890275824049176 -0.9999999999999989 3.0
  endloop
endfacet
facet normal 2.6999499540025755e-19 1.6992340886797975e-17 -1.0
  outer loop
    vertex -46.33916456348277 0.6117714323462188 3.0
    vertex -46.39027582404917 -8.999999999999998 3.0
    vertex -46.39027582404917 0.9999999999999994 3.0
  endloop
endfacet
facet normal 2.6999499540025755e-19 1.6992340886797975e-17 -1.0
  outer loop
    vertex -46.39027582404917 -8.999999999999998 3.0
    vertex -46.33916456348277 0.6117714323462188 3.0
    vertex -46.339164563482775 -8.611771432346218 3.0
  endloop
endfacet
facet normal 2.6999499540025755e-19 1.6992340886797975e-17 -1.0
  outer loop
    vertex -46.339164563482775 -8.611771432346218 3.0
    vertex -46.33916456348277 0.6117714323462188 3.0
    vertex -46.18931392972583 -8.25 3.0
  endloop
endfacet
facet normal 2.6999499540025755e-19 1.6992340886797975e-17 -1.0
  outer loop
    vertex -46.18931392972583 -8.25 3.0
    vertex -46.33916456348277 0.6117714323462188 3.0
    vertex -46.18931392972583 0.25000000000000044 3.0
  endloop
endfacet
facet normal 2.6999499540025755e-19 1.6992340886797975e-17 -1.0
  outer loop
    vertex -46.18931392972583 -8.25 3.0
    vertex -46.18931392972583 0.25000000000000044 3.0
    vertex -45.95093599582899 -0.06066017177981977 3.0
  endloop
endfacet
facet normal 2.6999499540025755e-19 1.6992340886797975e-17 -1.0
  outer loop
    vertex -46.18931392972583 -8.25 3.0
    vertex -45.95093599582899 -0.06066017177981977 3.0
    vertex -45.95093599582899 -7.939339828220181 3.0
  endloop
endfacet
facet normal 2.6999499540025755e-19 1.6992340886797975e-17 -1.0
  outer loop
    vertex -45.95093599582899 -7.939339828220181 3.0
    vertex -45.95093599582899 -0.06066017177981977 3.0
    vertex -45.64027582404917 -0.2990381056766562 3.0
  endloop
endfacet
facet normal 2.6999499540025755e-19 1.6992340886797975e-17 -1.0
  outer loop
    vertex -45.95093599582899 -7.939339828220181 3.0
    vertex -45.64027582404917 -0.2990381056766562 3.0
    vertex -45.64027582404917 -7.700961894323345 3.0
  endloop
endfacet
facet normal 2.6999499540025755e-19 1.6992340886797975e-17 -1.0
  outer loop
    vertex -45.64027582404917 -7.700961894323345 3.0
    vertex -45.64027582404917 -0.2990381056766562 3.0
    vertex -45.27850439170295 -0.44888873943360025 3.0
  endloop
endfacet
facet normal 2.6999499540025755e-19 1.6992340886797975e-17 -1.0
  outer loop
    vertex -45.64027582404917 -7.700961894323345 3.0
    vertex -45.27850439170295 -0.44888873943360025 3.0
    vertex -45.27850439170296 -7.551111260566399 3.0
  endloop
endfacet
facet normal 2.6999499540025755e-19 1.6992340886797975e-17 -1.0
  outer loop
    vertex -45.27850439170296 -7.551111260566399 3.0
    vertex -45.27850439170295 -0.44888873943360025 3.0
    vertex -44.890275824049176 -7.500000000000002 3.0
  endloop
endfacet
facet normal 2.6999499540025755e-19 1.6992340886797975e-17 -1.0
  outer loop
    vertex -44.890275824049176 -7.500000000000002 3.0
    vertex -45.27850439170295 -0.44888873943360025 3.0
    vertex -44.890275824049176 -0.49999999999999767 3.0
  endloop
endfacet
facet normal 2.6999499540025755e-19 1.6992340886797975e-17 -1.0
  outer loop
    vertex -44.890275824049176 -7.500000000000002 3.0
    vertex -44.890275824049176 -0.49999999999999767 3.0
    vertex -44.50204725639539 -0.4488887394336 3.0
  endloop
endfacet
facet normal 2.6999499540025755e-19 1.6992340886797975e-17 -1.0
  outer loop
    vertex -44.890275824049176 -7.500000000000002 3.0
    vertex -44.50204725639539 -0.4488887394336 3.0
    vertex -44.50204725639539 -7.551111260566399 3.0
  endloop
endfacet
facet normal 2.6999499540025755e-19 1.6992340886797975e-17 -1.0
  outer loop
    vertex -44.50204725639539 -7.551111260566399 3.0
    vertex -44.50204725639539 -0.4488887394336 3.0
    vertex -44.140275824049176 -0.299038105676656 3.0
  endloop
endfacet
facet normal 2.6999499540025755e-19 1.6992340886797975e-17 -1.0
  outer loop
    vertex -44.50204725639539 -7.551111260566399 3.0
    vertex -44.140275824049176 -0.299038105676656 3.0
    vertex -44.140275824049176 -7.700961894323343 3.0
  endloop
endfacet
facet normal 2.6999499540025755e-19 1.6992340886797975e-17 -1.0
  outer loop
    vertex -44.140275824049176 -7.700961894323343 3.0
    vertex -44.140275824049176 -0.299038105676656 3.0
    vertex -43.829615652269354 -0.0606601717798196 3.0
  endloop
endfacet
facet normal 2.6999499540025755e-19 1.6992340886797975e-17 -1.0
  outer loop
    vertex -44.140275824049176 -7.700961894323343 3.0
    vertex -43.829615652269354 -0.0606601717798196 3.0
    vertex -43.829615652269354 -7.939339828220179 3.0
  endloop
endfacet
facet normal 2.6999499540025755e-19 1.6992340886797975e-17 -1.0
  outer loop
    vertex -43.829615652269354 -7.939339828220179 3.0
    vertex -43.829615652269354 -0.0606601717798196 3.0
    vertex -43.59123771837252 0.25000000000000105 3.0
  endloop
endfacet
facet normal 2.6999499540025755e-19 1.6992340886797975e-17 -1.0
  outer loop
    vertex -43.829615652269354 -7.939339828220179 3.0
    vertex -43.59123771837252 0.25000000000000105 3.0
    vertex -43.59123771837252 -8.249999999999998 3.0
  endloop
endfacet
facet normal 2.6999499540025755e-19 1.6992340886797975e-17 -1.0
  outer loop
    vertex -43.59123771837252 -8.249999999999998 3.0
    vertex -43.59123771837252 0.25000000000000105 3.0
    vertex -43.44138708461557 0.6117714323462191 3.0
  endloop
endfacet
facet normal 2.6999499540025755e-19 1.6992340886797975e-17 -1.0
  outer loop
    vertex -43.59123771837252 -8.249999999999998 3.0
    vertex -43.44138708461557 0.6117714323462191 3.0
    vertex -43.44138708461558 -8.611771432346218 3.0
  endloop
endfacet
facet normal 2.6999499540025755e-19 1.6992340886797975e-17 -1.0
  outer loop
    vertex -43.44138708461558 -8.611771432346218 3.0
    vertex -43.44138708461557 0.6117714323462191 3.0
    vertex -43.390275824049176 -8.999999999999998 3.0
  endloop
endfacet
facet normal 2.6999499540025755e-19 1.6992340886797975e-17 -1.0
  outer loop
    vertex -43.390275824049176 -8.999999999999998 3.0
    vertex -43.44138708461557 0.6117714323462191 3.0
    vertex -43.390275824049176 0.9999999999999996 3.0
  endloop
endfacet
facet normal -0.7071067811865465 -0.7071067811865486 5.206539164024677e-32
  outer loop
    vertex -43.829615652269354 -7.939339828220179 6.0
    vertex -44.140275824049176 -7.700961894323343 3.0
    vertex -43.829615652269354 -7.939339828220179 3.0
  endloop
endfacet
facet normal -0.4999999999999994 -0.8660254037844392 6.376682138838667e-32
  outer loop
    vertex -44.140275824049176 -7.700961894323343 3.0
    vertex -43.829615652269354 -7.939339828220179 6.0
    vertex -44.140275824049176 -7.700961894323343 6.0
  endloop
endfacet
facet normal -0.4999999999999994 -0.8660254037844392 6.376682138838667e-32
  outer loop
    vertex -44.140275824049176 -7.700961894323343 6.0
    vertex -44.50204725639539 -7.551111260566399 3.0
    vertex -44.140275824049176 -7.700961894323343 3.0
  endloop
endfacet
facet normal -0.2588190451025198 -0.9659258262890685 7.112264763856291e-32
  outer loop
    vertex -44.50204725639539 -7.551111260566399 3.0
    vertex -44.140275824049176 -7.700961894323343 6.0
    vertex -44.50204725639539 -7.551111260566399 6.0
  endloop
endfacet
facet normal -0.2588190451025198 -0.9659258262890685 7.112264763856291e-32
  outer loop
    vertex -44.50204725639539 -7.551111260566399 6.0
    vertex -44.890275824049176 -7.500000000000002 3.0
    vertex -44.50204725639539 -7.551111260566399 3.0
  endloop
endfacet
facet normal -9.44577648938572e-16 -1.0 7.363158298790362e-32
  outer loop
    vertex -44.890275824049176 -7.500000000000002 3.0
    vertex -44.50204725639539 -7.551111260566399 6.0
    vertex -44.890275824049176 -7.500000000000002 6.0
  endloop
endfacet
facet normal -9.44577648938572e-16 -1.0 7.363158298790362e-32
  outer loop
    vertex -44.890275824049176 -7.500000000000002 6.0
    vertex -45.27850439170296 -7.551111260566399 3.0
    vertex -44.890275824049176 -7.500000000000002 3.0
  endloop
endfacet
facet normal 0.2588190451025232 -0.9659258262890676 7.112264763856286e-32
  outer loop
    vertex -45.27850439170296 -7.551111260566399 3.0
    vertex -44.890275824049176 -7.500000000000002 6.0
    vertex -45.27850439170296 -7.551111260566399 6.0
  endloop
endfacet
facet normal 0.2588190451025232 -0.9659258262890676 7.112264763856286e-32
  outer loop
    vertex -45.27850439170296 -7.551111260566399 6.0
    vertex -45.64027582404917 -7.700961894323345 3.0
    vertex -45.27850439170296 -7.551111260566399 3.0
  endloop
endfacet
facet normal 0.5000000000000032 -0.8660254037844368 6.376682138838648e-32
  outer loop
    vertex -45.64027582404917 -7.700961894323345 3.0
    vertex -45.27850439170296 -7.551111260566399 6.0
    vertex -45.64027582404917 -7.700961894323345 6.0
  endloop
endfacet
facet normal 0.5000000000000032 -0.8660254037844368 6.376682138838648e-32
  outer loop
    vertex -45.64027582404917 -7.700961894323345 6.0
    vertex -45.95093599582899 -7.939339828220181 3.0
    vertex -45.64027582404917 -7.700961894323345 3.0
  endloop
endfacet
facet normal 0.7071067811865465 -0.7071067811865486 5.206539164024675e-32
  outer loop
    vertex -45.95093599582899 -7.939339828220181 3.0
    vertex -45.64027582404917 -7.700961894323345 6.0
    vertex -45.95093599582899 -7.939339828220181 6.0
  endloop
endfacet
facet normal 0.7071067811865465 -0.7071067811865486 5.206539164024675e-32
  outer loop
    vertex -45.95093599582899 -7.939339828220181 3.0
    vertex -46.18931392972583 -8.25 6.0
    vertex -46.18931392972583 -8.25 3.0
  endloop
endfacet
facet normal 0.8660254037844362 -0.500000000000004 3.681579149395209e-32
  outer loop
    vertex -46.18931392972583 -8.25 6.0
    vertex -45.95093599582899 -7.939339828220181 3.0
    vertex -45.95093599582899 -7.939339828220181 6.0
  endloop
endfacet
facet normal 0.8660254037844362 -0.500000000000004 3.681579149395209e-32
  outer loop
    vertex -46.18931392972583 -8.25 3.0
    vertex -46.339164563482775 -8.611771432346218 6.0
    vertex -46.339164563482775 -8.611771432346218 3.0
  endloop
endfacet
facet normal 0.9659258262890685 -0.25881904510251996 1.9057255998316155e-32
  outer loop
    vertex -46.339164563482775 -8.611771432346218 6.0
    vertex -46.18931392972583 -8.25 3.0
    vertex -46.18931392972583 -8.25 6.0
  endloop
endfacet
facet normal 0.9659258262890685 -0.25881904510251996 1.9057255998316155e-32
  outer loop
    vertex -46.339164563482775 -8.611771432346218 3.0
    vertex -46.39027582404917 -8.999999999999998 6.0
    vertex -46.39027582404917 -8.999999999999998 3.0
  endloop
endfacet
facet normal 1.0 6.9150212790219985e-15 -5.228284500235426e-46
  outer loop
    vertex -46.39027582404917 -8.999999999999998 6.0
    vertex -46.339164563482775 -8.611771432346218 3.0
    vertex -46.339164563482775 -8.611771432346218 6.0
  endloop
endfacet
facet normal 1.0 6.9150212790219985e-15 -5.228284500235426e-46
  outer loop
    vertex -46.39027582404917 -8.999999999999998 3.0
    vertex -46.33916456348277 -9.38822856765378 6.0
    vertex -46.33916456348277 -9.38822856765378 3.0
  endloop
endfacet
facet normal 0.9659258262890683 0.2588190451025209 -1.905725599831625e-32
  outer loop
    vertex -46.33916456348277 -9.38822856765378 6.0
    vertex -46.39027582404917 -8.999999999999998 3.0
    vertex -46.39027582404917 -8.999999999999998 6.0
  endloop
endfacet
facet normal 0.9659258262890683 0.2588190451025209 -1.905725599831625e-32
  outer loop
    vertex -46.33916456348277 -9.38822856765378 3.0
    vertex -46.18931392972583 -9.749999999999998 6.0
    vertex -46.18931392972583 -9.749999999999998 3.0
  endloop
endfacet
facet normal 0.8660254037844398 0.499999999999998 -3.6815791493951677e-32
  outer loop
    vertex -46.18931392972583 -9.749999999999998 6.0
    vertex -46.33916456348277 -9.38822856765378 3.0
    vertex -46.33916456348277 -9.38822856765378 6.0
  endloop
endfacet
facet normal 0.8660254037844398 0.499999999999998 -3.6815791493951677e-32
  outer loop
    vertex -46.18931392972583 -9.749999999999998 3.0
    vertex -45.95093599582899 -10.06066017177982 6.0
    vertex -45.95093599582899 -10.06066017177982 3.0
  endloop
endfacet
facet normal 0.7071067811865472 0.7071067811865478 -5.20653916402467e-32
  outer loop
    vertex -45.95093599582899 -10.06066017177982 6.0
    vertex -46.18931392972583 -9.749999999999998 3.0
    vertex -46.18931392972583 -9.749999999999998 6.0
  endloop
endfacet
facet normal 0.7071067811865472 0.7071067811865478 -5.20653916402467e-32
  outer loop
    vertex -45.95093599582899 -10.06066017177982 6.0
    vertex -45.64027582404917 -10.299038105676654 3.0
    vertex -45.95093599582899 -10.06066017177982 3.0
  endloop
endfacet
facet normal 0.4999999999999994 0.8660254037844392 -6.376682138838667e-32
  outer loop
    vertex -45.64027582404917 -10.299038105676654 3.0
    vertex -45.95093599582899 -10.06066017177982 6.0
    vertex -45.64027582404917 -10.299038105676654 6.0
  endloop
endfacet
facet normal 0.4999999999999994 0.8660254037844392 -6.376682138838667e-32
  outer loop
    vertex -45.64027582404917 -10.299038105676654 6.0
    vertex -45.27850439170295 -10.448888739433599 3.0
    vertex -45.64027582404917 -10.299038105676654 3.0
  endloop
endfacet
facet normal 0.2588190451025198 0.9659258262890685 -7.112264763856291e-32
  outer loop
    vertex -45.27850439170295 -10.448888739433599 3.0
    vertex -45.64027582404917 -10.299038105676654 6.0
    vertex -45.27850439170295 -10.448888739433599 6.0
  endloop
endfacet
facet normal 0.2588190451025198 0.9659258262890685 -7.112264763856291e-32
  outer loop
    vertex -45.27850439170295 -10.448888739433599 6.0
    vertex -44.890275824049176 -10.499999999999996 3.0
    vertex -45.27850439170295 -10.448888739433599 3.0
  endloop
endfacet
facet normal 0.0 1.0 -7.363158298790363e-32
  outer loop
    vertex -44.890275824049176 -10.499999999999996 3.0
    vertex -45.27850439170295 -10.448888739433599 6.0
    vertex -44.890275824049176 -10.499999999999996 6.0
  endloop
endfacet
facet normal 0.0 1.0 -7.363158298790363e-32
  outer loop
    vertex -44.890275824049176 -10.499999999999996 6.0
    vertex -44.50204725639539 -10.448888739433599 3.0
    vertex -44.890275824049176 -10.499999999999996 3.0
  endloop
endfacet
facet normal -0.2588190451025198 0.9659258262890685 -7.112264763856291e-32
  outer loop
    vertex -44.50204725639539 -10.448888739433599 3.0
    vertex -44.890275824049176 -10.499999999999996 6.0
    vertex -44.50204725639539 -10.448888739433599 6.0
  endloop
endfacet
facet normal -0.2588190451025198 0.9659258262890685 -7.112264763856291e-32
  outer loop
    vertex -44.50204725639539 -10.448888739433599 6.0
    vertex -44.140275824049176 -10.299038105676654 3.0
    vertex -44.50204725639539 -10.448888739433599 3.0
  endloop
endfacet
facet normal -0.4999999999999994 0.8660254037844392 -6.376682138838667e-32
  outer loop
    vertex -44.140275824049176 -10.299038105676654 3.0
    vertex -44.50204725639539 -10.448888739433599 6.0
    vertex -44.140275824049176 -10.299038105676654 6.0
  endloop
endfacet
facet normal -0.4999999999999994 0.8660254037844392 -6.376682138838667e-32
  outer loop
    vertex -44.140275824049176 -10.299038105676654 6.0
    vertex -43.829615652269354 -10.06066017177982 3.0
    vertex -44.140275824049176 -10.299038105676654 3.0
  endloop
endfacet
facet normal -0.7071067811865472 0.7071067811865478 -5.206539164024668e-32
  outer loop
    vertex -43.829615652269354 -10.06066017177982 3.0
    vertex -44.140275824049176 -10.299038105676654 6.0
    vertex -43.829615652269354 -10.06066017177982 6.0
  endloop
endfacet
facet normal -0.8660254037844367 0.5000000000000032 -3.6815791493952027e-32
  outer loop
    vertex -43.59123771837252 -9.749999999999998 6.0
    vertex -43.829615652269354 -10.06066017177982 3.0
    vertex -43.829615652269354 -10.06066017177982 6.0
  endloop
endfacet
facet normal -0.7071067811865472 0.7071067811865478 -5.206539164024668e-32
  outer loop
    vertex -43.829615652269354 -10.06066017177982 3.0
    vertex -43.59123771837252 -9.749999999999998 6.0
    vertex -43.59123771837252 -9.749999999999998 3.0
  endloop
endfacet
facet normal -0.9659258262890685 0.25881904510251996 -1.9057255998316155e-32
  outer loop
    vertex -43.44138708461557 -9.38822856765378 6.0
    vertex -43.59123771837252 -9.749999999999998 3.0
    vertex -43.59123771837252 -9.749999999999998 6.0
  endloop
endfacet
facet normal -0.8660254037844367 0.5000000000000032 -3.6815791493952027e-32
  outer loop
    vertex -43.59123771837252 -9.749999999999998 3.0
    vertex -43.44138708461557 -9.38822856765378 6.0
    vertex -43.44138708461557 -9.38822856765378 3.0
  endloop
endfacet
facet normal -1.0 -6.9150212790219985e-15 5.228284500235426e-46
  outer loop
    vertex -43.390275824049176 -8.999999999999998 6.0
    vertex -43.44138708461557 -9.38822856765378 3.0
    vertex -43.44138708461557 -9.38822856765378 6.0
  endloop
endfacet
facet normal -0.9659258262890685 0.25881904510251996 -1.9057255998316155e-32
  outer loop
    vertex -43.44138708461557 -9.38822856765378 3.0
    vertex -43.390275824049176 -8.999999999999998 6.0
    vertex -43.390275824049176 -8.999999999999998 3.0
  endloop
endfacet
facet normal -0.9659258262890685 -0.25881904510252024 1.9057255998316205e-32
  outer loop
    vertex -43.44138708461558 -8.611771432346218 6.0
    vertex -43.390275824049176 -8.999999999999998 3.0
    vertex -43.390275824049176 -8.999999999999998 6.0
  endloop
endfacet
facet normal -1.0 -6.9150212790219985e-15 5.228284500235426e-46
  outer loop
    vertex -43.390275824049176 -8.999999999999998 3.0
    vertex -43.44138708461558 -8.611771432346218 6.0
    vertex -43.44138708461558 -8.611771432346218 3.0
  endloop
endfacet
facet normal -0.8660254037844395 -0.4999999999999983 3.68157914939517e-32
  outer loop
    vertex -43.59123771837252 -8.249999999999998 6.0
    vertex -43.44138708461558 -8.611771432346218 3.0
    vertex -43.44138708461558 -8.611771432346218 6.0
  endloop
endfacet
facet normal -0.9659258262890685 -0.25881904510252024 1.9057255998316205e-32
  outer loop
    vertex -43.44138708461558 -8.611771432346218 3.0
    vertex -43.59123771837252 -8.249999999999998 6.0
    vertex -43.59123771837252 -8.249999999999998 3.0
  endloop
endfacet
facet normal -0.7071067811865465 -0.7071067811865486 5.206539164024677e-32
  outer loop
    vertex -43.829615652269354 -7.939339828220179 6.0
    vertex -43.59123771837252 -8.249999999999998 3.0
    vertex -43.59123771837252 -8.249999999999998 6.0
  endloop
endfacet
facet normal -0.8660254037844395 -0.4999999999999983 3.68157914939517e-32
  outer loop
    vertex -43.59123771837252 -8.249999999999998 3.0
    vertex -43.829615652269354 -7.939339828220179 6.0
    vertex -43.829615652269354 -7.939339828220179 3.0
  endloop
endfacet
facet normal -0.4999999999999997 -0.8660254037844387 -2.3912558020644994e-31
  outer loop
    vertex -44.140275824049176 2.2990381056766553 6.0
    vertex -44.50204725639539 2.4488887394335994 3.0
    vertex -44.140275824049176 2.2990381056766553 3.0
  endloop
endfacet
facet normal -0.25881904510251974 -0.9659258262890685 -2.6670992864461105e-31
  outer loop
    vertex -44.50204725639539 2.4488887394335994 3.0
    vertex -44.140275824049176 2.2990381056766553 6.0
    vertex -44.50204725639539 2.4488887394335994 6.0
  endloop
endfacet
facet normal -0.25881904510251974 -0.9659258262890685 -2.6670992864461105e-31
  outer loop
    vertex -44.50204725639539 2.4488887394335994 6.0
    vertex -44.890275824049176 2.499999999999997 3.0
    vertex -44.50204725639539 2.4488887394335994 3.0
  endloop
endfacet
facet normal -5.079332640518737e-16 -1.0 -2.761184362046386e-31
  outer loop
    vertex -44.890275824049176 2.499999999999997 3.0
    vertex -44.50204725639539 2.4488887394335994 6.0
    vertex -44.890275824049176 2.499999999999997 6.0
  endloop
endfacet
facet normal -5.079332640518737e-16 -1.0 -2.761184362046386e-31
  outer loop
    vertex -44.890275824049176 2.499999999999997 6.0
    vertex -45.27850439170296 2.4488887394335994 3.0
    vertex -44.890275824049176 2.499999999999997 3.0
  endloop
endfacet
facet normal 0.2588190451025224 -0.965925826289068 -2.6670992864461083e-31
  outer loop
    vertex -45.27850439170296 2.4488887394335994 3.0
    vertex -44.890275824049176 2.499999999999997 6.0
    vertex -45.27850439170296 2.4488887394335994 6.0
  endloop
endfacet
facet normal 0.2588190451025224 -0.965925826289068 -2.6670992864461083e-31
  outer loop
    vertex -45.27850439170296 2.4488887394335994 6.0
    vertex -45.64027582404917 2.299038105676655 3.0
    vertex -45.27850439170296 2.4488887394335994 3.0
  endloop
endfacet
facet normal 0.5000000000000026 -0.8660254037844372 -2.3912558020644946e-31
  outer loop
    vertex -45.64027582404917 2.299038105676655 3.0
    vertex -45.27850439170296 2.4488887394335994 6.0
    vertex -45.64027582404917 2.299038105676655 6.0
  endloop
endfacet
facet normal 0.5000000000000026 -0.8660254037844372 -2.3912558020644946e-31
  outer loop
    vertex -45.64027582404917 2.299038105676655 6.0
    vertex -45.95093599582899 2.0606601717798188 3.0
    vertex -45.64027582404917 2.299038105676655 3.0
  endloop
endfacet
facet normal 0.7071067811865472 -0.707106781186548 -1.9524521865092517e-31
  outer loop
    vertex -45.95093599582899 2.0606601717798188 3.0
    vertex -45.64027582404917 2.299038105676655 6.0
    vertex -45.95093599582899 2.0606601717798188 6.0
  endloop
endfacet
facet normal 0.7071067811865472 -0.707106781186548 -1.9524521865092517e-31
  outer loop
    vertex -45.95093599582899 2.0606601717798188 3.0
    vertex -46.18931392972583 1.7499999999999978 6.0
    vertex -46.18931392972583 1.7499999999999978 3.0
  endloop
endfacet
facet normal 0.8660254037844366 -0.5000000000000036 -1.3805921810232023e-31
  outer loop
    vertex -46.18931392972583 1.7499999999999978 6.0
    vertex -45.95093599582899 2.0606601717798188 3.0
    vertex -45.95093599582899 2.0606601717798188 6.0
  endloop
endfacet
facet normal 0.8660254037844366 -0.5000000000000036 -1.3805921810232023e-31
  outer loop
    vertex -46.18931392972583 1.7499999999999978 3.0
    vertex -46.339164563482775 1.3882285676537796 6.0
    vertex -46.339164563482775 1.3882285676537796 3.0
  endloop
endfacet
facet normal 0.9659258262890685 -0.2588190451025201 -7.146470999368563e-32
  outer loop
    vertex -46.339164563482775 1.3882285676537796 6.0
    vertex -46.18931392972583 1.7499999999999978 3.0
    vertex -46.18931392972583 1.7499999999999978 6.0
  endloop
endfacet
facet normal 0.9659258262890685 -0.2588190451025201 -7.146470999368563e-32
  outer loop
    vertex -46.339164563482775 1.3882285676537796 3.0
    vertex -46.39027582404917 0.9999999999999994 6.0
    vertex -46.39027582404917 0.9999999999999994 3.0
  endloop
endfacet
facet normal 1.0 7.0754212571436434e-15 2.0034434723591214e-45
  outer loop
    vertex -46.39027582404917 0.9999999999999994 6.0
    vertex -46.339164563482775 1.3882285676537796 3.0
    vertex -46.339164563482775 1.3882285676537796 6.0
  endloop
endfacet
facet normal 1.0 7.0754212571436434e-15 2.0034434723591214e-45
  outer loop
    vertex -46.39027582404917 0.9999999999999994 3.0
    vertex -46.33916456348277 0.6117714323462188 6.0
    vertex -46.33916456348277 0.6117714323462188 3.0
  endloop
endfacet
facet normal 0.9659258262890684 0.2588190451025205 7.146470999368583e-32
  outer loop
    vertex -46.33916456348277 0.6117714323462188 6.0
    vertex -46.39027582404917 0.9999999999999994 3.0
    vertex -46.39027582404917 0.9999999999999994 6.0
  endloop
endfacet
facet normal 0.9659258262890684 0.2588190451025205 7.146470999368583e-32
  outer loop
    vertex -46.33916456348277 0.6117714323462188 3.0
    vertex -46.18931392972583 0.25000000000000044 6.0
    vertex -46.18931392972583 0.25000000000000044 3.0
  endloop
endfacet
facet normal 0.8660254037844396 0.499999999999998 1.380592181023188e-31
  outer loop
    vertex -46.18931392972583 0.25000000000000044 6.0
    vertex -46.33916456348277 0.6117714323462188 3.0
    vertex -46.33916456348277 0.6117714323462188 6.0
  endloop
endfacet
facet normal 0.8660254037844396 0.499999999999998 1.380592181023188e-31
  outer loop
    vertex -46.18931392972583 0.25000000000000044 3.0
    vertex -45.95093599582899 -0.06066017177981977 6.0
    vertex -45.95093599582899 -0.06066017177981977 3.0
  endloop
endfacet
facet normal 0.707106781186547 0.7071067811865481 1.952452186509253e-31
  outer loop
    vertex -45.95093599582899 -0.06066017177981977 6.0
    vertex -46.18931392972583 0.25000000000000044 3.0
    vertex -46.18931392972583 0.25000000000000044 6.0
  endloop
endfacet
facet normal 0.707106781186547 0.7071067811865481 1.952452186509253e-31
  outer loop
    vertex -45.95093599582899 -0.06066017177981977 6.0
    vertex -45.64027582404917 -0.2990381056766562 3.0
    vertex -45.95093599582899 -0.06066017177981977 3.0
  endloop
endfacet
facet normal 0.5 0.8660254037844387 2.3912558020645e-31
  outer loop
    vertex -45.64027582404917 -0.2990381056766562 3.0
    vertex -45.95093599582899 -0.06066017177981977 6.0
    vertex -45.64027582404917 -0.2990381056766562 6.0
  endloop
endfacet
facet normal 0.5 0.8660254037844387 2.3912558020645e-31
  outer loop
    vertex -45.64027582404917 -0.2990381056766562 6.0
    vertex -45.27850439170295 -0.44888873943360025 3.0
    vertex -45.64027582404917 -0.2990381056766562 3.0
  endloop
endfacet
facet normal 0.25881904510251996 0.9659258262890684 2.66709928644611e-31
  outer loop
    vertex -45.27850439170295 -0.44888873943360025 3.0
    vertex -45.64027582404917 -0.2990381056766562 6.0
    vertex -45.27850439170295 -0.44888873943360025 6.0
  endloop
endfacet
facet normal 0.25881904510251996 0.9659258262890684 2.66709928644611e-31
  outer loop
    vertex -45.27850439170295 -0.44888873943360025 6.0
    vertex -44.890275824049176 -0.49999999999999767 3.0
    vertex -45.27850439170295 -0.44888873943360025 3.0
  endloop
endfacet
facet normal -2.227777473911727e-16 1.0 2.761184362046386e-31
  outer loop
    vertex -44.890275824049176 -0.49999999999999767 3.0
    vertex -45.27850439170295 -0.44888873943360025 6.0
    vertex -44.890275824049176 -0.49999999999999767 6.0
  endloop
endfacet
facet normal -2.227777473911727e-16 1.0 2.761184362046386e-31
  outer loop
    vertex -44.890275824049176 -0.49999999999999767 6.0
    vertex -44.50204725639539 -0.4488887394336 3.0
    vertex -44.890275824049176 -0.49999999999999767 3.0
  endloop
endfacet
facet normal -0.2588190451025202 0.9659258262890684 2.66709928644611e-31
  outer loop
    vertex -44.50204725639539 -0.4488887394336 3.0
    vertex -44.890275824049176 -0.49999999999999767 6.0
    vertex -44.50204725639539 -0.4488887394336 6.0
  endloop
endfacet
facet normal -0.2588190451025202 0.9659258262890684 2.66709928644611e-31
  outer loop
    vertex -44.50204725639539 -0.4488887394336 6.0
    vertex -44.140275824049176 -0.299038105676656 3.0
    vertex -44.50204725639539 -0.4488887394336 3.0
  endloop
endfacet
facet normal -0.5 0.8660254037844387 2.391255802064499e-31
  outer loop
    vertex -44.140275824049176 -0.299038105676656 3.0
    vertex -44.50204725639539 -0.4488887394336 6.0
    vertex -44.140275824049176 -0.299038105676656 6.0
  endloop
endfacet
facet normal -0.5 0.8660254037844387 2.391255802064499e-31
  outer loop
    vertex -44.140275824049176 -0.299038105676656 6.0
    vertex -43.829615652269354 -0.0606601717798196 3.0
    vertex -44.140275824049176 -0.299038105676656 3.0
  endloop
endfacet
facet normal -0.7071067811865472 0.7071067811865479 1.9524521865092513e-31
  outer loop
    vertex -43.829615652269354 -0.0606601717798196 3.0
    vertex -44.140275824049176 -0.299038105676656 6.0
    vertex -43.829615652269354 -0.0606601717798196 6.0
  endloop
endfacet
facet normal -0.8660254037844365 0.5000000000000038 1.3805921810232025e-31
  outer loop
    vertex -43.59123771837252 0.25000000000000105 6.0
    vertex -43.829615652269354 -0.0606601717798196 3.0
    vertex -43.829615652269354 -0.0606601717798196 6.0
  endloop
endfacet
facet normal -0.7071067811865472 0.7071067811865479 1.9524521865092513e-31
  outer loop
    vertex -43.829615652269354 -0.0606601717798196 3.0
    vertex -43.59123771837252 0.25000000000000105 6.0
    vertex -43.59123771837252 0.25000000000000105 3.0
  endloop
endfacet
facet normal -0.9659258262890685 0.2588190451025202 7.146470999368565e-32
  outer loop
    vertex -43.44138708461557 0.6117714323462191 6.0
    vertex -43.59123771837252 0.25000000000000105 3.0
    vertex -43.59123771837252 0.25000000000000105 6.0
  endloop
endfacet
facet normal -0.8660254037844365 0.5000000000000038 1.3805921810232025e-31
  outer loop
    vertex -43.59123771837252 0.25000000000000105 3.0
    vertex -43.44138708461557 0.6117714323462191 6.0
    vertex -43.44138708461557 0.6117714323462191 3.0
  endloop
endfacet
facet normal -1.0 -6.932843498813292e-15 -1.9682953412651015e-45
  outer loop
    vertex -43.390275824049176 0.9999999999999996 6.0
    vertex -43.44138708461557 0.6117714323462191 3.0
    vertex -43.44138708461557 0.6117714323462191 6.0
  endloop
endfacet
facet normal -0.9659258262890685 0.2588190451025202 7.146470999368565e-32
  outer loop
    vertex -43.44138708461557 0.6117714323462191 3.0
    vertex -43.390275824049176 0.9999999999999996 6.0
    vertex -43.390275824049176 0.9999999999999996 3.0
  endloop
endfacet
facet normal -0.9659258262890683 -0.2588190451025207 -7.14647099936859e-32
  outer loop
    vertex -43.44138708461558 1.3882285676537813 6.0
    vertex -43.390275824049176 0.9999999999999996 3.0
    vertex -43.390275824049176 0.9999999999999996 6.0
  endloop
endfacet
facet normal -1.0 -6.932843498813292e-15 -1.9682953412651015e-45
  outer loop
    vertex -43.390275824049176 0.9999999999999996 3.0
    vertex -43.44138708461558 1.3882285676537813 6.0
    vertex -43.44138708461558 1.3882285676537813 3.0
  endloop
endfacet
facet normal -0.8660254037844396 -0.4999999999999983 -1.3805921810231887e-31
  outer loop
    vertex -43.59123771837252 1.749999999999999 6.0
    vertex -43.44138708461558 1.3882285676537813 3.0
    vertex -43.44138708461558 1.3882285676537813 6.0
  endloop
endfacet
facet normal -0.9659258262890683 -0.2588190451025207 -7.14647099936859e-32
  outer loop
    vertex -43.44138708461558 1.3882285676537813 3.0
    vertex -43.59123771837252 1.749999999999999 6.0
    vertex -43.59123771837252 1.749999999999999 3.0
  endloop
endfacet
facet normal -0.707106781186547 -0.7071067811865482 -1.9524521865092535e-31
  outer loop
    vertex -43.829615652269354 2.060660171779819 6.0
    vertex -43.59123771837252 1.749999999999999 3.0
    vertex -43.59123771837252 1.749999999999999 6.0
  endloop
endfacet
facet normal -0.8660254037844396 -0.4999999999999983 -1.3805921810231887e-31
  outer loop
    vertex -43.59123771837252 1.749999999999999 3.0
    vertex -43.829615652269354 2.060660171779819 6.0
    vertex -43.829615652269354 2.060660171779819 3.0
  endloop
endfacet
facet normal -0.707106781186547 -0.7071067811865482 -1.9524521865092535e-31
  outer loop
    vertex -43.829615652269354 2.060660171779819 6.0
    vertex -44.140275824049176 2.2990381056766553 3.0
    vertex -43.829615652269354 2.060660171779819 3.0
  endloop
endfacet
facet normal -0.4999999999999997 -0.8660254037844387 -2.3912558020644994e-31
  outer loop
    vertex -44.140275824049176 2.2990381056766553 3.0
    vertex -43.829615652269354 2.060660171779819 6.0
    vertex -44.140275824049176 2.2990381056766553 6.0
  endloop
endfacet
endsolid x stop
