solid ascii
  facet normal 1.000000e+000 0.000000e+000 0.000000e+000
    outer loop
      vertex   6.512500e+001 -8.250000e+000 5.000000e+000
      vertex   6.512500e+001 -8.250000e+000 -5.000000e+000
      vertex   6.512500e+001 8.250000e+000 -5.000000e+000
    endloop
  endfacet
  facet normal 1.000000e+000 0.000000e+000 -0.000000e+000
    outer loop
      vertex   6.512500e+001 8.250000e+000 -5.000000e+000
      vertex   6.512500e+001 8.250000e+000 5.000000e+000
      vertex   6.512500e+001 -8.250000e+000 5.000000e+000
    endloop
  endfacet
  facet normal 0.000000e+000 1.000000e+000 0.000000e+000
    outer loop
      vertex   6.512500e+001 8.250000e+000 5.000000e+000
      vertex   6.512500e+001 8.250000e+000 -5.000000e+000
      vertex   -6.512500e+001 8.250000e+000 -5.000000e+000
    endloop
  endfacet
  facet normal 0.000000e+000 1.000000e+000 0.000000e+000
    outer loop
      vertex   -6.512500e+001 8.250000e+000 -5.000000e+000
      vertex   -6.512500e+001 8.250000e+000 5.000000e+000
      vertex   6.512500e+001 8.250000e+000 5.000000e+000
    endloop
  endfacet
  facet normal -1.000000e+000 0.000000e+000 -0.000000e+000
    outer loop
      vertex   -6.512500e+001 8.250000e+000 5.000000e+000
      vertex   -6.512500e+001 8.250000e+000 -5.000000e+000
      vertex   -6.512500e+001 -8.250000e+000 -5.000000e+000
    endloop
  endfacet
  facet normal -1.000000e+000 0.000000e+000 0.000000e+000
    outer loop
      vertex   -6.512500e+001 -8.250000e+000 -5.000000e+000
      vertex   -6.512500e+001 -8.250000e+000 5.000000e+000
      vertex   -6.512500e+001 8.250000e+000 5.000000e+000
    endloop
  endfacet
  facet normal 0.000000e+000 -1.000000e+000 0.000000e+000
    outer loop
      vertex   -6.512500e+001 -8.250000e+000 5.000000e+000
      vertex   -6.512500e+001 -8.250000e+000 -5.000000e+000
      vertex   6.512500e+001 -8.250000e+000 -5.000000e+000
    endloop
  endfacet
  facet normal 0.000000e+000 -1.000000e+000 0.000000e+000
    outer loop
      vertex   6.512500e+001 -8.250000e+000 -5.000000e+000
      vertex   6.512500e+001 -8.250000e+000 5.000000e+000
      vertex   -6.512500e+001 -8.250000e+000 5.000000e+000
    endloop
  endfacet
  facet normal 0.000000e+000 0.000000e+000 -1.000000e+000
    outer loop
      vertex   -6.512500e+001 8.250000e+000 -5.000000e+000
      vertex   6.512500e+001 8.250000e+000 -5.000000e+000
      vertex   6.512500e+001 -8.250000e+000 -5.000000e+000
    endloop
  endfacet
  facet normal 0.000000e+000 0.000000e+000 -1.000000e+000
    outer loop
      vertex   6.512500e+001 -8.250000e+000 -5.000000e+000
      vertex   -6.512500e+001 -8.250000e+000 -5.000000e+000
      vertex   -6.512500e+001 8.250000e+000 -5.000000e+000
    endloop
  endfacet
  facet normal 0.000000e+000 0.000000e+000 1.000000e+000
    outer loop
      vertex   -6.512500e+001 8.250000e+000 5.000000e+000
      vertex   -6.512500e+001 -8.250000e+000 5.000000e+000
      vertex   -6.012500e+001 -3.250000e+000 5.000000e+000
    endloop
  endfacet
  facet normal 0.000000e+000 -0.000000e+000 1.000000e+000
    outer loop
      vertex   -6.012500e+001 -3.250000e+000 5.000000e+000
      vertex   -6.012500e+001 3.250000e+000 5.000000e+000
      vertex   -6.512500e+001 8.250000e+000 5.000000e+000
    endloop
  endfacet
  facet normal 0.000000e+000 0.000000e+000 1.000000e+000
    outer loop
      vertex   -6.512500e+001 -8.250000e+000 5.000000e+000
      vertex   6.512500e+001 -8.250000e+000 5.000000e+000
      vertex   6.012500e+001 -3.250000e+000 5.000000e+000
    endloop
  endfacet
  facet normal 0.000000e+000 0.000000e+000 1.000000e+000
    outer loop
      vertex   6.012500e+001 -3.250000e+000 5.000000e+000
      vertex   -6.012500e+001 -3.250000e+000 5.000000e+000
      vertex   -6.512500e+001 -8.250000e+000 5.000000e+000
    endloop
  endfacet
  facet normal 0.000000e+000 -0.000000e+000 1.000000e+000
    outer loop
      vertex   6.512500e+001 -8.250000e+000 5.000000e+000
      vertex   6.512500e+001 8.250000e+000 5.000000e+000
      vertex   6.012500e+001 3.250000e+000 5.000000e+000
    endloop
  endfacet
  facet normal 0.000000e+000 0.000000e+000 1.000000e+000
    outer loop
      vertex   6.012500e+001 3.250000e+000 5.000000e+000
      vertex   6.012500e+001 -3.250000e+000 5.000000e+000
      vertex   6.512500e+001 -8.250000e+000 5.000000e+000
    endloop
  endfacet
  facet normal 0.000000e+000 -0.000000e+000 1.000000e+000
    outer loop
      vertex   -6.012500e+001 3.250000e+000 5.000000e+000
      vertex   6.012500e+001 3.250000e+000 5.000000e+000
      vertex   -6.512500e+001 8.250000e+000 5.000000e+000
    endloop
  endfacet
  facet normal 0.000000e+000 -0.000000e+000 1.000000e+000
    outer loop
      vertex   6.012500e+001 3.250000e+000 5.000000e+000
      vertex   6.512500e+001 8.250000e+000 5.000000e+000
      vertex   -6.512500e+001 8.250000e+000 5.000000e+000
    endloop
  endfacet
  facet normal 0.000000e+000 -1.000000e+000 0.000000e+000
    outer loop
      vertex   -6.012500e+001 3.250000e+000 5.000000e+000
      vertex   -6.012500e+001 3.250000e+000 0.000000e+000
      vertex   6.012500e+001 3.250000e+000 0.000000e+000
    endloop
  endfacet
  facet normal 0.000000e+000 -1.000000e+000 0.000000e+000
    outer loop
      vertex   6.012500e+001 3.250000e+000 0.000000e+000
      vertex   6.012500e+001 3.250000e+000 5.000000e+000
      vertex   -6.012500e+001 3.250000e+000 5.000000e+000
    endloop
  endfacet
  facet normal -1.000000e+000 0.000000e+000 -0.000000e+000
    outer loop
      vertex   6.012500e+001 3.250000e+000 5.000000e+000
      vertex   6.012500e+001 3.250000e+000 0.000000e+000
      vertex   6.012500e+001 -3.250000e+000 0.000000e+000
    endloop
  endfacet
  facet normal -1.000000e+000 0.000000e+000 0.000000e+000
    outer loop
      vertex   6.012500e+001 -3.250000e+000 0.000000e+000
      vertex   6.012500e+001 -3.250000e+000 5.000000e+000
      vertex   6.012500e+001 3.250000e+000 5.000000e+000
    endloop
  endfacet
  facet normal 6.131039e-017 1.000000e+000 0.000000e+000
    outer loop
      vertex   6.012500e+001 -3.250000e+000 5.000000e+000
      vertex   6.012500e+001 -3.250000e+000 0.000000e+000
      vertex   -6.012500e+001 -3.250000e+000 0.000000e+000
    endloop
  endfacet
  facet normal 0.000000e+000 1.000000e+000 1.474515e-015
    outer loop
      vertex   -6.012500e+001 -3.250000e+000 0.000000e+000
      vertex   -6.012500e+001 -3.250000e+000 5.000000e+000
      vertex   6.012500e+001 -3.250000e+000 5.000000e+000
    endloop
  endfacet
  facet normal 1.000000e+000 0.000000e+000 0.000000e+000
    outer loop
      vertex   -6.012500e+001 3.250000e+000 5.000000e+000
      vertex   -6.012500e+001 -3.250000e+000 5.000000e+000
      vertex   -6.012500e+001 -3.250000e+000 0.000000e+000
    endloop
  endfacet
  facet normal 1.000000e+000 0.000000e+000 0.000000e+000
    outer loop
      vertex   -6.012500e+001 -3.250000e+000 0.000000e+000
      vertex   -6.012500e+001 3.250000e+000 0.000000e+000
      vertex   -6.012500e+001 3.250000e+000 5.000000e+000
    endloop
  endfacet
  facet normal 0.000000e+000 0.000000e+000 1.000000e+000
    outer loop
      vertex   6.012500e+001 3.250000e+000 0.000000e+000
      vertex   -6.012500e+001 3.250000e+000 0.000000e+000
      vertex   -6.012500e+001 -3.250000e+000 0.000000e+000
    endloop
  endfacet
  facet normal -0.000000e+000 0.000000e+000 1.000000e+000
    outer loop
      vertex   -6.012500e+001 -3.250000e+000 0.000000e+000
      vertex   6.012500e+001 -3.250000e+000 0.000000e+000
      vertex   6.012500e+001 3.250000e+000 0.000000e+000
    endloop
  endfacet
endsolid
