solid ascii
  facet normal 1.000000e+000 0.000000e+000 0.000000e+000
    outer loop
      vertex   1.000000e+001 1.200000e+001 5.000000e+000
      vertex   1.000000e+001 0.000000e+000 5.000000e+000
      vertex   1.000000e+001 0.000000e+000 -3.000000e+000
    endloop
  endfacet
  facet normal 1.000000e+000 0.000000e+000 0.000000e+000
    outer loop
      vertex   1.000000e+001 0.000000e+000 -3.000000e+000
      vertex   1.000000e+001 1.200000e+001 -3.000000e+000
      vertex   1.000000e+001 1.200000e+001 5.000000e+000
    endloop
  endfacet
  facet normal 0.000000e+000 -0.000000e+000 -1.000000e+000
    outer loop
      vertex   1.000000e+001 1.200000e+001 -3.000000e+000
      vertex   1.000000e+001 0.000000e+000 -3.000000e+000
      vertex   -1.000000e+001 0.000000e+000 -3.000000e+000
    endloop
  endfacet
  facet normal 0.000000e+000 0.000000e+000 -1.000000e+000
    outer loop
      vertex   -1.000000e+001 0.000000e+000 -3.000000e+000
      vertex   -1.000000e+001 1.200000e+001 -3.000000e+000
      vertex   1.000000e+001 1.200000e+001 -3.000000e+000
    endloop
  endfacet
  facet normal -1.000000e+000 0.000000e+000 0.000000e+000
    outer loop
      vertex   -1.000000e+001 1.200000e+001 -3.000000e+000
      vertex   -1.000000e+001 0.000000e+000 -3.000000e+000
      vertex   -1.000000e+001 0.000000e+000 5.000000e+000
    endloop
  endfacet
  facet normal -1.000000e+000 0.000000e+000 0.000000e+000
    outer loop
      vertex   -1.000000e+001 0.000000e+000 5.000000e+000
      vertex   -1.000000e+001 1.200000e+001 5.000000e+000
      vertex   -1.000000e+001 1.200000e+001 -3.000000e+000
    endloop
  endfacet
  facet normal 0.000000e+000 -1.000000e+000 0.000000e+000
    outer loop
      vertex   -1.000000e+001 0.000000e+000 -3.000000e+000
      vertex   1.000000e+001 0.000000e+000 -3.000000e+000
      vertex   3.139526e-001 0.000000e+000 9.866358e-003
    endloop
  endfacet
  facet normal 0.000000e+000 -1.000000e+000 0.000000e+000
    outer loop
      vertex   -1.000000e+001 0.000000e+000 -3.000000e+000
      vertex   -2.679134e+000 0.000000e+000 7.783604e-001
      vertex   -3.187120e+000 0.000000e+000 1.147434e+000
    endloop
  endfacet
  facet normal -0.000000e+000 -1.000000e+000 0.000000e+000
    outer loop
      vertex   3.139526e-001 0.000000e+000 9.866358e-003
      vertex   -3.139526e-001 0.000000e+000 9.866358e-003
      vertex   -1.000000e+001 0.000000e+000 -3.000000e+000
    endloop
  endfacet
  facet normal 0.000000e+000 -1.000000e+000 0.000000e+000
    outer loop
      vertex   -1.000000e+001 0.000000e+000 -3.000000e+000
      vertex   -3.644843e+000 0.000000e+000 1.577264e+000
      vertex   -4.045085e+000 0.000000e+000 2.061074e+000
    endloop
  endfacet
  facet normal 0.000000e+000 -1.000000e+000 0.000000e+000
    outer loop
      vertex   -1.000000e+001 0.000000e+000 -3.000000e+000
      vertex   -2.128896e+000 0.000000e+000 4.758647e-001
      vertex   -2.679134e+000 0.000000e+000 7.783604e-001
    endloop
  endfacet
  facet normal 0.000000e+000 -1.000000e+000 0.000000e+000
    outer loop
      vertex   1.000000e+001 0.000000e+000 -3.000000e+000
      vertex   9.369066e-001 0.000000e+000 8.856375e-002
      vertex   3.139526e-001 0.000000e+000 9.866358e-003
    endloop
  endfacet
  facet normal -0.000000e+000 -1.000000e+000 0.000000e+000
    outer loop
      vertex   -3.187120e+000 0.000000e+000 1.147434e+000
      vertex   -3.644843e+000 0.000000e+000 1.577264e+000
      vertex   -1.000000e+001 0.000000e+000 -3.000000e+000
    endloop
  endfacet
  facet normal -0.000000e+000 -1.000000e+000 0.000000e+000
    outer loop
      vertex   -3.139526e-001 0.000000e+000 9.866358e-003
      vertex   -9.369066e-001 0.000000e+000 8.856375e-002
      vertex   -1.000000e+001 0.000000e+000 -3.000000e+000
    endloop
  endfacet
  facet normal 0.000000e+000 -1.000000e+000 0.000000e+000
    outer loop
      vertex   1.000000e+001 0.000000e+000 -3.000000e+000
      vertex   2.128896e+000 0.000000e+000 4.758647e-001
      vertex   1.545085e+000 0.000000e+000 2.447174e-001
    endloop
  endfacet
  facet normal 0.000000e+000 -1.000000e+000 0.000000e+000
    outer loop
      vertex   1.000000e+001 0.000000e+000 -3.000000e+000
      vertex   4.381533e+000 0.000000e+000 2.591232e+000
      vertex   4.045085e+000 0.000000e+000 2.061074e+000
    endloop
  endfacet
  facet normal 0.000000e+000 -1.000000e+000 0.000000e+000
    outer loop
      vertex   1.000000e+001 0.000000e+000 -3.000000e+000
      vertex   1.000000e+001 0.000000e+000 5.000000e+000
      vertex   4.842916e+000 0.000000e+000 3.756551e+000
    endloop
  endfacet
  facet normal 0.000000e+000 -1.000000e+000 0.000000e+000
    outer loop
      vertex   -1.000000e+001 0.000000e+000 -3.000000e+000
      vertex   -1.545085e+000 0.000000e+000 2.447174e-001
      vertex   -2.128896e+000 0.000000e+000 4.758647e-001
    endloop
  endfacet
  facet normal 0.000000e+000 -1.000000e+000 -0.000000e+000
    outer loop
      vertex   1.545085e+000 0.000000e+000 2.447174e-001
      vertex   9.369066e-001 0.000000e+000 8.856375e-002
      vertex   1.000000e+001 0.000000e+000 -3.000000e+000
    endloop
  endfacet
  facet normal 0.000000e+000 -1.000000e+000 0.000000e+000
    outer loop
      vertex   1.000000e+001 0.000000e+000 -3.000000e+000
      vertex   3.644843e+000 0.000000e+000 1.577264e+000
      vertex   3.187120e+000 0.000000e+000 1.147434e+000
    endloop
  endfacet
  facet normal 0.000000e+000 -1.000000e+000 0.000000e+000
    outer loop
      vertex   1.000000e+001 0.000000e+000 -3.000000e+000
      vertex   4.648882e+000 0.000000e+000 3.159377e+000
      vertex   4.381533e+000 0.000000e+000 2.591232e+000
    endloop
  endfacet
  facet normal 0.000000e+000 -1.000000e+000 0.000000e+000
    outer loop
      vertex   1.000000e+001 0.000000e+000 5.000000e+000
      vertex   4.960574e+000 0.000000e+000 4.373334e+000
      vertex   4.842916e+000 0.000000e+000 3.756551e+000
    endloop
  endfacet
  facet normal 0.000000e+000 -1.000000e+000 0.000000e+000
    outer loop
      vertex   -1.000000e+001 0.000000e+000 -3.000000e+000
      vertex   -4.648882e+000 0.000000e+000 3.159377e+000
      vertex   -4.842916e+000 0.000000e+000 3.756551e+000
    endloop
  endfacet
  facet normal -0.000000e+000 -1.000000e+000 0.000000e+000
    outer loop
      vertex   -9.369066e-001 0.000000e+000 8.856375e-002
      vertex   -1.545085e+000 0.000000e+000 2.447174e-001
      vertex   -1.000000e+001 0.000000e+000 -3.000000e+000
    endloop
  endfacet
  facet normal 0.000000e+000 -1.000000e+000 -0.000000e+000
    outer loop
      vertex   3.187120e+000 0.000000e+000 1.147434e+000
      vertex   2.679134e+000 0.000000e+000 7.783604e-001
      vertex   1.000000e+001 0.000000e+000 -3.000000e+000
    endloop
  endfacet
  facet normal 0.000000e+000 -1.000000e+000 -0.000000e+000
    outer loop
      vertex   4.842916e+000 0.000000e+000 3.756551e+000
      vertex   4.648882e+000 0.000000e+000 3.159377e+000
      vertex   1.000000e+001 0.000000e+000 -3.000000e+000
    endloop
  endfacet
  facet normal 0.000000e+000 -1.000000e+000 0.000000e+000
    outer loop
      vertex   -1.000000e+001 0.000000e+000 5.000000e+000
      vertex   -4.842916e+000 0.000000e+000 3.756551e+000
      vertex   -4.960574e+000 0.000000e+000 4.373334e+000
    endloop
  endfacet
  facet normal 0.000000e+000 -1.000000e+000 0.000000e+000
    outer loop
      vertex   -1.000000e+001 0.000000e+000 -3.000000e+000
      vertex   -4.381533e+000 0.000000e+000 2.591232e+000
      vertex   -4.648882e+000 0.000000e+000 3.159377e+000
    endloop
  endfacet
  facet normal 0.000000e+000 -1.000000e+000 -0.000000e+000
    outer loop
      vertex   2.679134e+000 0.000000e+000 7.783604e-001
      vertex   2.128896e+000 0.000000e+000 4.758647e-001
      vertex   1.000000e+001 0.000000e+000 -3.000000e+000
    endloop
  endfacet
  facet normal 0.000000e+000 -1.000000e+000 0.000000e+000
    outer loop
      vertex   1.000000e+001 0.000000e+000 5.000000e+000
      vertex   5.000000e+000 0.000000e+000 5.000000e+000
      vertex   4.960574e+000 0.000000e+000 4.373334e+000
    endloop
  endfacet
  facet normal -0.000000e+000 -1.000000e+000 0.000000e+000
    outer loop
      vertex   -4.842916e+000 0.000000e+000 3.756551e+000
      vertex   -1.000000e+001 0.000000e+000 5.000000e+000
      vertex   -1.000000e+001 0.000000e+000 -3.000000e+000
    endloop
  endfacet
  facet normal 0.000000e+000 -1.000000e+000 -0.000000e+000
    outer loop
      vertex   4.045085e+000 0.000000e+000 2.061074e+000
      vertex   3.644843e+000 0.000000e+000 1.577264e+000
      vertex   1.000000e+001 0.000000e+000 -3.000000e+000
    endloop
  endfacet
  facet normal -0.000000e+000 -1.000000e+000 0.000000e+000
    outer loop
      vertex   -4.045085e+000 0.000000e+000 2.061074e+000
      vertex   -4.381533e+000 0.000000e+000 2.591232e+000
      vertex   -1.000000e+001 0.000000e+000 -3.000000e+000
    endloop
  endfacet
  facet normal 0.000000e+000 -1.000000e+000 0.000000e+000
    outer loop
      vertex   -4.960574e+000 0.000000e+000 4.373334e+000
      vertex   -5.000000e+000 0.000000e+000 5.000000e+000
      vertex   -1.000000e+001 0.000000e+000 5.000000e+000
    endloop
  endfacet
  facet normal 0.000000e+000 1.000000e+000 0.000000e+000
    outer loop
      vertex   1.000000e+001 1.200000e+001 -3.000000e+000
      vertex   3.668845e+000 1.200000e+001 3.406396e+000
      vertex   3.851669e+000 1.200000e+001 3.920813e+000
    endloop
  endfacet
  facet normal 0.000000e+000 1.000000e+000 0.000000e+000
    outer loop
      vertex   1.000000e+001 1.200000e+001 -3.000000e+000
      vertex   3.417678e+000 1.200000e+001 2.921664e+000
      vertex   3.668845e+000 1.200000e+001 3.406396e+000
    endloop
  endfacet
  facet normal -0.000000e+000 1.000000e+000 0.000000e+000
    outer loop
      vertex   3.851669e+000 1.200000e+001 3.920813e+000
      vertex   1.000000e+001 1.200000e+001 5.000000e+000
      vertex   1.000000e+001 1.200000e+001 -3.000000e+000
    endloop
  endfacet
  facet normal 0.000000e+000 1.000000e+000 0.000000e+000
    outer loop
      vertex   1.000000e+001 1.200000e+001 -3.000000e+000
      vertex   -1.000000e+001 1.200000e+001 -3.000000e+000
      vertex   -2.729697e-001 1.200000e+001 1.009325e+000
    endloop
  endfacet
  facet normal 0.000000e+000 1.000000e+000 0.000000e+000
    outer loop
      vertex   -1.000000e+001 1.200000e+001 -3.000000e+000
      vertex   -2.306721e+000 1.200000e+001 1.732120e+000
      vertex   -1.840260e+000 1.200000e+001 1.448459e+000
    endloop
  endfacet
  facet normal 0.000000e+000 1.000000e+000 0.000000e+000
    outer loop
      vertex   -1.000000e+001 1.200000e+001 -3.000000e+000
      vertex   -3.102845e+000 1.200000e+001 2.475648e+000
      vertex   -2.730213e+000 1.200000e+001 2.076656e+000
    endloop
  endfacet
  facet normal 0.000000e+000 1.000000e+000 0.000000e+000
    outer loop
      vertex   3.851669e+000 1.200000e+001 3.920813e+000
      vertex   3.962744e+000 1.200000e+001 4.455333e+000
      vertex   1.000000e+001 1.200000e+001 5.000000e+000
    endloop
  endfacet
  facet normal -0.000000e+000 1.000000e+000 0.000000e+000
    outer loop
      vertex   -2.729697e-001 1.200000e+001 1.009325e+000
      vertex   2.729697e-001 1.200000e+001 1.009325e+000
      vertex   1.000000e+001 1.200000e+001 -3.000000e+000
    endloop
  endfacet
  facet normal 0.000000e+000 1.000000e+000 0.000000e+000
    outer loop
      vertex   -1.000000e+001 1.200000e+001 -3.000000e+000
      vertex   -1.339518e+000 1.200000e+001 1.230956e+000
      vertex   -8.138241e-001 1.200000e+001 1.083664e+000
    endloop
  endfacet
  facet normal 0.000000e+000 1.000000e+000 0.000000e+000
    outer loop
      vertex   -2.730213e+000 1.200000e+001 2.076656e+000
      vertex   -2.306721e+000 1.200000e+001 1.732120e+000
      vertex   -1.000000e+001 1.200000e+001 -3.000000e+000
    endloop
  endfacet
  facet normal 0.000000e+000 1.000000e+000 0.000000e+000
    outer loop
      vertex   -1.000000e+001 1.200000e+001 -3.000000e+000
      vertex   -3.668845e+000 1.200000e+001 3.406396e+000
      vertex   -3.417678e+000 1.200000e+001 2.921664e+000
    endloop
  endfacet
  facet normal 0.000000e+000 1.000000e+000 0.000000e+000
    outer loop
      vertex   -1.000000e+001 1.200000e+001 -3.000000e+000
      vertex   -1.000000e+001 1.200000e+001 5.000000e+000
      vertex   -3.851669e+000 1.200000e+001 3.920813e+000
    endloop
  endfacet
  facet normal 0.000000e+000 1.000000e+000 0.000000e+000
    outer loop
      vertex   1.000000e+001 1.200000e+001 -3.000000e+000
      vertex   3.102845e+000 1.200000e+001 2.475648e+000
      vertex   3.417678e+000 1.200000e+001 2.921664e+000
    endloop
  endfacet
  facet normal 0.000000e+000 1.000000e+000 0.000000e+000
    outer loop
      vertex   1.000000e+001 1.200000e+001 -3.000000e+000
      vertex   2.306721e+000 1.200000e+001 1.732120e+000
      vertex   2.730213e+000 1.200000e+001 2.076656e+000
    endloop
  endfacet
  facet normal 0.000000e+000 1.000000e+000 0.000000e+000
    outer loop
      vertex   1.000000e+001 1.200000e+001 -3.000000e+000
      vertex   8.138241e-001 1.200000e+001 1.083664e+000
      vertex   1.339518e+000 1.200000e+001 1.230956e+000
    endloop
  endfacet
  facet normal 0.000000e+000 1.000000e+000 0.000000e+000
    outer loop
      vertex   -8.138241e-001 1.200000e+001 1.083664e+000
      vertex   -2.729697e-001 1.200000e+001 1.009325e+000
      vertex   -1.000000e+001 1.200000e+001 -3.000000e+000
    endloop
  endfacet
  facet normal 0.000000e+000 1.000000e+000 0.000000e+000
    outer loop
      vertex   -3.417678e+000 1.200000e+001 2.921664e+000
      vertex   -3.102845e+000 1.200000e+001 2.475648e+000
      vertex   -1.000000e+001 1.200000e+001 -3.000000e+000
    endloop
  endfacet
  facet normal 0.000000e+000 1.000000e+000 0.000000e+000
    outer loop
      vertex   -1.000000e+001 1.200000e+001 5.000000e+000
      vertex   -3.962744e+000 1.200000e+001 4.455333e+000
      vertex   -3.851669e+000 1.200000e+001 3.920813e+000
    endloop
  endfacet
  facet normal -0.000000e+000 1.000000e+000 0.000000e+000
    outer loop
      vertex   2.730213e+000 1.200000e+001 2.076656e+000
      vertex   3.102845e+000 1.200000e+001 2.475648e+000
      vertex   1.000000e+001 1.200000e+001 -3.000000e+000
    endloop
  endfacet
  facet normal -0.000000e+000 1.000000e+000 0.000000e+000
    outer loop
      vertex   1.339518e+000 1.200000e+001 1.230956e+000
      vertex   1.840260e+000 1.200000e+001 1.448459e+000
      vertex   1.000000e+001 1.200000e+001 -3.000000e+000
    endloop
  endfacet
  facet normal 0.000000e+000 1.000000e+000 0.000000e+000
    outer loop
      vertex   -1.840260e+000 1.200000e+001 1.448459e+000
      vertex   -1.339518e+000 1.200000e+001 1.230956e+000
      vertex   -1.000000e+001 1.200000e+001 -3.000000e+000
    endloop
  endfacet
  facet normal -0.000000e+000 1.000000e+000 0.000000e+000
    outer loop
      vertex   -1.000000e+001 1.200000e+001 5.000000e+000
      vertex   -4.000000e+000 1.200000e+001 5.000000e+000
      vertex   -3.962744e+000 1.200000e+001 4.455333e+000
    endloop
  endfacet
  facet normal -0.000000e+000 1.000000e+000 0.000000e+000
    outer loop
      vertex   1.840260e+000 1.200000e+001 1.448459e+000
      vertex   2.306721e+000 1.200000e+001 1.732120e+000
      vertex   1.000000e+001 1.200000e+001 -3.000000e+000
    endloop
  endfacet
  facet normal 0.000000e+000 1.000000e+000 0.000000e+000
    outer loop
      vertex   -3.851669e+000 1.200000e+001 3.920813e+000
      vertex   -3.668845e+000 1.200000e+001 3.406396e+000
      vertex   -1.000000e+001 1.200000e+001 -3.000000e+000
    endloop
  endfacet
  facet normal -0.000000e+000 1.000000e+000 0.000000e+000
    outer loop
      vertex   2.729697e-001 1.200000e+001 1.009325e+000
      vertex   8.138241e-001 1.200000e+001 1.083664e+000
      vertex   1.000000e+001 1.200000e+001 -3.000000e+000
    endloop
  endfacet
  facet normal 0.000000e+000 1.000000e+000 0.000000e+000
    outer loop
      vertex   3.962744e+000 1.200000e+001 4.455333e+000
      vertex   4.000000e+000 1.200000e+001 5.000000e+000
      vertex   1.000000e+001 1.200000e+001 5.000000e+000
    endloop
  endfacet
  facet normal -9.976688e-001 0.000000e+000 6.824241e-002
    outer loop
      vertex   3.962744e+000 8.000000e+000 4.455333e+000
      vertex   4.000000e+000 8.000000e+000 5.000000e+000
      vertex   4.000000e+000 1.200000e+001 5.000000e+000
    endloop
  endfacet
  facet normal -9.790841e-001 0.000000e+000 2.034560e-001
    outer loop
      vertex   3.851669e+000 8.000000e+000 3.920813e+000
      vertex   3.962744e+000 8.000000e+000 4.455333e+000
      vertex   3.962744e+000 1.200000e+001 4.455333e+000
    endloop
  endfacet
  facet normal -9.422609e-001 0.000000e+000 3.348796e-001
    outer loop
      vertex   3.668845e+000 8.000000e+000 3.406396e+000
      vertex   3.851669e+000 8.000000e+000 3.920813e+000
      vertex   3.851669e+000 1.200000e+001 3.920813e+000
    endloop
  endfacet
  facet normal -8.878852e-001 0.000000e+000 4.600650e-001
    outer loop
      vertex   3.417678e+000 8.000000e+000 2.921664e+000
      vertex   3.668845e+000 8.000000e+000 3.406396e+000
      vertex   3.668845e+000 1.200000e+001 3.406396e+000
    endloop
  endfacet
  facet normal -8.169699e-001 0.000000e+000 5.766803e-001
    outer loop
      vertex   3.102845e+000 8.000000e+000 2.475648e+000
      vertex   3.417678e+000 8.000000e+000 2.921664e+000
      vertex   3.417678e+000 1.200000e+001 2.921664e+000
    endloop
  endfacet
  facet normal -7.308360e-001 0.000000e+000 6.825531e-001
    outer loop
      vertex   2.730213e+000 8.000000e+000 2.076656e+000
      vertex   3.102845e+000 8.000000e+000 2.475648e+000
      vertex   3.102845e+000 1.200000e+001 2.475648e+000
    endloop
  endfacet
  facet normal -6.310879e-001 0.000000e+000 7.757113e-001
    outer loop
      vertex   2.306721e+000 8.000000e+000 1.732120e+000
      vertex   2.730213e+000 8.000000e+000 2.076656e+000
      vertex   2.730213e+000 1.200000e+001 2.076656e+000
    endloop
  endfacet
  facet normal -5.195840e-001 0.000000e+000 8.544194e-001
    outer loop
      vertex   1.840260e+000 8.000000e+000 1.448459e+000
      vertex   2.306721e+000 8.000000e+000 1.732120e+000
      vertex   2.306721e+000 1.200000e+001 1.732120e+000
    endloop
  endfacet
  facet normal -3.984011e-001 0.000000e+000 9.172113e-001
    outer loop
      vertex   1.339518e+000 8.000000e+000 1.230956e+000
      vertex   1.840260e+000 8.000000e+000 1.448459e+000
      vertex   1.840260e+000 1.200000e+001 1.448459e+000
    endloop
  endfacet
  facet normal -2.697968e-001 0.000000e+000 9.629173e-001
    outer loop
      vertex   8.138241e-001 8.000000e+000 1.083664e+000
      vertex   1.339518e+000 8.000000e+000 1.230956e+000
      vertex   1.339518e+000 1.200000e+001 1.230956e+000
    endloop
  endfacet
  facet normal -1.361666e-001 0.000000e+000 9.906859e-001
    outer loop
      vertex   2.729697e-001 8.000000e+000 1.009325e+000
      vertex   8.138241e-001 8.000000e+000 1.083664e+000
      vertex   8.138241e-001 1.200000e+001 1.083664e+000
    endloop
  endfacet
  facet normal 0.000000e+000 0.000000e+000 1.000000e+000
    outer loop
      vertex   -2.729697e-001 8.000000e+000 1.009325e+000
      vertex   2.729697e-001 8.000000e+000 1.009325e+000
      vertex   2.729697e-001 1.200000e+001 1.009325e+000
    endloop
  endfacet
  facet normal 1.361666e-001 0.000000e+000 9.906859e-001
    outer loop
      vertex   -8.138241e-001 8.000000e+000 1.083664e+000
      vertex   -2.729697e-001 8.000000e+000 1.009325e+000
      vertex   -2.729697e-001 1.200000e+001 1.009325e+000
    endloop
  endfacet
  facet normal 2.697968e-001 0.000000e+000 9.629173e-001
    outer loop
      vertex   -1.339518e+000 8.000000e+000 1.230956e+000
      vertex   -8.138241e-001 8.000000e+000 1.083664e+000
      vertex   -8.138241e-001 1.200000e+001 1.083664e+000
    endloop
  endfacet
  facet normal 3.984011e-001 0.000000e+000 9.172113e-001
    outer loop
      vertex   -1.840260e+000 8.000000e+000 1.448459e+000
      vertex   -1.339518e+000 8.000000e+000 1.230956e+000
      vertex   -1.339518e+000 1.200000e+001 1.230956e+000
    endloop
  endfacet
  facet normal 5.195840e-001 0.000000e+000 8.544194e-001
    outer loop
      vertex   -2.306721e+000 8.000000e+000 1.732120e+000
      vertex   -1.840260e+000 8.000000e+000 1.448459e+000
      vertex   -1.840260e+000 1.200000e+001 1.448459e+000
    endloop
  endfacet
  facet normal 6.310879e-001 0.000000e+000 7.757113e-001
    outer loop
      vertex   -2.730213e+000 8.000000e+000 2.076656e+000
      vertex   -2.306721e+000 8.000000e+000 1.732120e+000
      vertex   -2.306721e+000 1.200000e+001 1.732120e+000
    endloop
  endfacet
  facet normal 7.308360e-001 0.000000e+000 6.825531e-001
    outer loop
      vertex   -3.102845e+000 8.000000e+000 2.475648e+000
      vertex   -2.730213e+000 8.000000e+000 2.076656e+000
      vertex   -2.730213e+000 1.200000e+001 2.076656e+000
    endloop
  endfacet
  facet normal 8.169699e-001 0.000000e+000 5.766803e-001
    outer loop
      vertex   -3.417678e+000 8.000000e+000 2.921664e+000
      vertex   -3.102845e+000 8.000000e+000 2.475648e+000
      vertex   -3.102845e+000 1.200000e+001 2.475648e+000
    endloop
  endfacet
  facet normal 8.878852e-001 0.000000e+000 4.600650e-001
    outer loop
      vertex   -3.668845e+000 8.000000e+000 3.406396e+000
      vertex   -3.417678e+000 8.000000e+000 2.921664e+000
      vertex   -3.417678e+000 1.200000e+001 2.921664e+000
    endloop
  endfacet
  facet normal 9.422609e-001 0.000000e+000 3.348796e-001
    outer loop
      vertex   -3.851669e+000 8.000000e+000 3.920813e+000
      vertex   -3.668845e+000 8.000000e+000 3.406396e+000
      vertex   -3.668845e+000 1.200000e+001 3.406396e+000
    endloop
  endfacet
  facet normal 9.790841e-001 0.000000e+000 2.034560e-001
    outer loop
      vertex   -3.962744e+000 8.000000e+000 4.455333e+000
      vertex   -3.851669e+000 8.000000e+000 3.920813e+000
      vertex   -3.851669e+000 1.200000e+001 3.920813e+000
    endloop
  endfacet
  facet normal 9.976688e-001 0.000000e+000 6.824241e-002
    outer loop
      vertex   -4.000000e+000 8.000000e+000 5.000000e+000
      vertex   -3.962744e+000 8.000000e+000 4.455333e+000
      vertex   -3.962744e+000 1.200000e+001 4.455333e+000
    endloop
  endfacet
  facet normal 9.976688e-001 0.000000e+000 6.824241e-002
    outer loop
      vertex   -3.962744e+000 1.200000e+001 4.455333e+000
      vertex   -4.000000e+000 1.200000e+001 5.000000e+000
      vertex   -4.000000e+000 8.000000e+000 5.000000e+000
    endloop
  endfacet
  facet normal 9.790841e-001 0.000000e+000 2.034560e-001
    outer loop
      vertex   -3.851669e+000 1.200000e+001 3.920813e+000
      vertex   -3.962744e+000 1.200000e+001 4.455333e+000
      vertex   -3.962744e+000 8.000000e+000 4.455333e+000
    endloop
  endfacet
  facet normal 9.422609e-001 0.000000e+000 3.348796e-001
    outer loop
      vertex   -3.668845e+000 1.200000e+001 3.406396e+000
      vertex   -3.851669e+000 1.200000e+001 3.920813e+000
      vertex   -3.851669e+000 8.000000e+000 3.920813e+000
    endloop
  endfacet
  facet normal 8.878852e-001 0.000000e+000 4.600650e-001
    outer loop
      vertex   -3.417678e+000 1.200000e+001 2.921664e+000
      vertex   -3.668845e+000 1.200000e+001 3.406396e+000
      vertex   -3.668845e+000 8.000000e+000 3.406396e+000
    endloop
  endfacet
  facet normal 8.169699e-001 0.000000e+000 5.766803e-001
    outer loop
      vertex   -3.102845e+000 1.200000e+001 2.475648e+000
      vertex   -3.417678e+000 1.200000e+001 2.921664e+000
      vertex   -3.417678e+000 8.000000e+000 2.921664e+000
    endloop
  endfacet
  facet normal 7.308360e-001 0.000000e+000 6.825531e-001
    outer loop
      vertex   -2.730213e+000 1.200000e+001 2.076656e+000
      vertex   -3.102845e+000 1.200000e+001 2.475648e+000
      vertex   -3.102845e+000 8.000000e+000 2.475648e+000
    endloop
  endfacet
  facet normal 6.310879e-001 0.000000e+000 7.757113e-001
    outer loop
      vertex   -2.306721e+000 1.200000e+001 1.732120e+000
      vertex   -2.730213e+000 1.200000e+001 2.076656e+000
      vertex   -2.730213e+000 8.000000e+000 2.076656e+000
    endloop
  endfacet
  facet normal 5.195840e-001 0.000000e+000 8.544194e-001
    outer loop
      vertex   -1.840260e+000 1.200000e+001 1.448459e+000
      vertex   -2.306721e+000 1.200000e+001 1.732120e+000
      vertex   -2.306721e+000 8.000000e+000 1.732120e+000
    endloop
  endfacet
  facet normal 3.984011e-001 0.000000e+000 9.172113e-001
    outer loop
      vertex   -1.339518e+000 1.200000e+001 1.230956e+000
      vertex   -1.840260e+000 1.200000e+001 1.448459e+000
      vertex   -1.840260e+000 8.000000e+000 1.448459e+000
    endloop
  endfacet
  facet normal 2.697968e-001 0.000000e+000 9.629173e-001
    outer loop
      vertex   -8.138241e-001 1.200000e+001 1.083664e+000
      vertex   -1.339518e+000 1.200000e+001 1.230956e+000
      vertex   -1.339518e+000 8.000000e+000 1.230956e+000
    endloop
  endfacet
  facet normal 1.361666e-001 0.000000e+000 9.906859e-001
    outer loop
      vertex   -2.729697e-001 1.200000e+001 1.009325e+000
      vertex   -8.138241e-001 1.200000e+001 1.083664e+000
      vertex   -8.138241e-001 8.000000e+000 1.083664e+000
    endloop
  endfacet
  facet normal 0.000000e+000 0.000000e+000 1.000000e+000
    outer loop
      vertex   2.729697e-001 1.200000e+001 1.009325e+000
      vertex   -2.729697e-001 1.200000e+001 1.009325e+000
      vertex   -2.729697e-001 8.000000e+000 1.009325e+000
    endloop
  endfacet
  facet normal -1.361666e-001 0.000000e+000 9.906859e-001
    outer loop
      vertex   8.138241e-001 1.200000e+001 1.083664e+000
      vertex   2.729697e-001 1.200000e+001 1.009325e+000
      vertex   2.729697e-001 8.000000e+000 1.009325e+000
    endloop
  endfacet
  facet normal -2.697968e-001 0.000000e+000 9.629173e-001
    outer loop
      vertex   1.339518e+000 1.200000e+001 1.230956e+000
      vertex   8.138241e-001 1.200000e+001 1.083664e+000
      vertex   8.138241e-001 8.000000e+000 1.083664e+000
    endloop
  endfacet
  facet normal -3.984011e-001 0.000000e+000 9.172113e-001
    outer loop
      vertex   1.840260e+000 1.200000e+001 1.448459e+000
      vertex   1.339518e+000 1.200000e+001 1.230956e+000
      vertex   1.339518e+000 8.000000e+000 1.230956e+000
    endloop
  endfacet
  facet normal -5.195840e-001 0.000000e+000 8.544194e-001
    outer loop
      vertex   2.306721e+000 1.200000e+001 1.732120e+000
      vertex   1.840260e+000 1.200000e+001 1.448459e+000
      vertex   1.840260e+000 8.000000e+000 1.448459e+000
    endloop
  endfacet
  facet normal -6.310879e-001 0.000000e+000 7.757113e-001
    outer loop
      vertex   2.730213e+000 1.200000e+001 2.076656e+000
      vertex   2.306721e+000 1.200000e+001 1.732120e+000
      vertex   2.306721e+000 8.000000e+000 1.732120e+000
    endloop
  endfacet
  facet normal -7.308360e-001 0.000000e+000 6.825531e-001
    outer loop
      vertex   3.102845e+000 1.200000e+001 2.475648e+000
      vertex   2.730213e+000 1.200000e+001 2.076656e+000
      vertex   2.730213e+000 8.000000e+000 2.076656e+000
    endloop
  endfacet
  facet normal -8.169699e-001 0.000000e+000 5.766803e-001
    outer loop
      vertex   3.417678e+000 1.200000e+001 2.921664e+000
      vertex   3.102845e+000 1.200000e+001 2.475648e+000
      vertex   3.102845e+000 8.000000e+000 2.475648e+000
    endloop
  endfacet
  facet normal -8.878852e-001 0.000000e+000 4.600650e-001
    outer loop
      vertex   3.668845e+000 1.200000e+001 3.406396e+000
      vertex   3.417678e+000 1.200000e+001 2.921664e+000
      vertex   3.417678e+000 8.000000e+000 2.921664e+000
    endloop
  endfacet
  facet normal -9.422609e-001 0.000000e+000 3.348796e-001
    outer loop
      vertex   3.851669e+000 1.200000e+001 3.920813e+000
      vertex   3.668845e+000 1.200000e+001 3.406396e+000
      vertex   3.668845e+000 8.000000e+000 3.406396e+000
    endloop
  endfacet
  facet normal -9.790841e-001 0.000000e+000 2.034560e-001
    outer loop
      vertex   3.962744e+000 1.200000e+001 4.455333e+000
      vertex   3.851669e+000 1.200000e+001 3.920813e+000
      vertex   3.851669e+000 8.000000e+000 3.920813e+000
    endloop
  endfacet
  facet normal -9.976688e-001 0.000000e+000 6.824241e-002
    outer loop
      vertex   4.000000e+000 1.200000e+001 5.000000e+000
      vertex   3.962744e+000 1.200000e+001 4.455333e+000
      vertex   3.962744e+000 8.000000e+000 4.455333e+000
    endloop
  endfacet
  facet normal 0.000000e+000 -1.000000e+000 0.000000e+000
    outer loop
      vertex   -5.663119e+000 8.000000e+000 8.855032e-001
      vertex   -3.102845e+000 8.000000e+000 2.475648e+000
      vertex   -3.417678e+000 8.000000e+000 2.921664e+000
    endloop
  endfacet
  facet normal 0.000000e+000 -1.000000e+000 0.000000e+000
    outer loop
      vertex   -6.847033e+000 8.000000e+000 3.544618e+000
      vertex   -3.851669e+000 8.000000e+000 3.920813e+000
      vertex   -3.962744e+000 8.000000e+000 4.455333e+000
    endloop
  endfacet
  facet normal 0.000000e+000 -1.000000e+000 0.000000e+000
    outer loop
      vertex   -6.062178e+000 8.000000e+000 1.500000e+000
      vertex   -3.417678e+000 8.000000e+000 2.921664e+000
      vertex   -3.668845e+000 8.000000e+000 3.406396e+000
    endloop
  endfacet
  facet normal 0.000000e+000 -1.000000e+000 0.000000e+000
    outer loop
      vertex   -3.417678e+000 8.000000e+000 2.921664e+000
      vertex   -6.062178e+000 8.000000e+000 1.500000e+000
      vertex   -5.663119e+000 8.000000e+000 8.855032e-001
    endloop
  endfacet
  facet normal 0.000000e+000 -1.000000e+000 0.000000e+000
    outer loop
      vertex   -5.202014e+000 8.000000e+000 3.160858e-001
      vertex   -4.683914e+000 8.000000e+000 -2.020138e-001
      vertex   -2.730213e+000 8.000000e+000 2.076656e+000
    endloop
  endfacet
  facet normal 0.000000e+000 -1.000000e+000 0.000000e+000
    outer loop
      vertex   -4.683914e+000 8.000000e+000 -2.020138e-001
      vertex   -4.114497e+000 8.000000e+000 -6.631190e-001
      vertex   -2.306721e+000 8.000000e+000 1.732120e+000
    endloop
  endfacet
  facet normal 0.000000e+000 -1.000000e+000 0.000000e+000
    outer loop
      vertex   -2.847157e+000 8.000000e+000 -1.394818e+000
      vertex   -2.163119e+000 8.000000e+000 -1.657396e+000
      vertex   -1.339518e+000 8.000000e+000 1.230956e+000
    endloop
  endfacet
  facet normal 0.000000e+000 -1.000000e+000 0.000000e+000
    outer loop
      vertex   -3.962744e+000 8.000000e+000 4.455333e+000
      vertex   -6.961653e+000 8.000000e+000 4.268301e+000
      vertex   -6.847033e+000 8.000000e+000 3.544618e+000
    endloop
  endfacet
  facet normal 0.000000e+000 -1.000000e+000 0.000000e+000
    outer loop
      vertex   -6.657396e+000 8.000000e+000 2.836881e+000
      vertex   -6.394818e+000 8.000000e+000 2.152843e+000
      vertex   -3.668845e+000 8.000000e+000 3.406396e+000
    endloop
  endfacet
  facet normal 0.000000e+000 -1.000000e+000 0.000000e+000
    outer loop
      vertex   -5.663119e+000 8.000000e+000 8.855032e-001
      vertex   -5.202014e+000 8.000000e+000 3.160858e-001
      vertex   -3.102845e+000 8.000000e+000 2.475648e+000
    endloop
  endfacet
  facet normal -0.000000e+000 -1.000000e+000 0.000000e+000
    outer loop
      vertex   -2.306721e+000 8.000000e+000 1.732120e+000
      vertex   -2.730213e+000 8.000000e+000 2.076656e+000
      vertex   -4.683914e+000 8.000000e+000 -2.020138e-001
    endloop
  endfacet
  facet normal 0.000000e+000 -1.000000e+000 0.000000e+000
    outer loop
      vertex   -3.500000e+000 8.000000e+000 -1.062178e+000
      vertex   -1.840260e+000 8.000000e+000 1.448459e+000
      vertex   -2.306721e+000 8.000000e+000 1.732120e+000
    endloop
  endfacet
  facet normal 0.000000e+000 -1.000000e+000 0.000000e+000
    outer loop
      vertex   -1.840260e+000 8.000000e+000 1.448459e+000
      vertex   -3.500000e+000 8.000000e+000 -1.062178e+000
      vertex   -2.847157e+000 8.000000e+000 -1.394818e+000
    endloop
  endfacet
  facet normal 0.000000e+000 -1.000000e+000 0.000000e+000
    outer loop
      vertex   4.683914e+000 8.000000e+000 -2.020138e-001
      vertex   2.730213e+000 8.000000e+000 2.076656e+000
      vertex   2.306721e+000 8.000000e+000 1.732120e+000
    endloop
  endfacet
  facet normal 0.000000e+000 -1.000000e+000 0.000000e+000
    outer loop
      vertex   5.202014e+000 8.000000e+000 3.160858e-001
      vertex   3.102845e+000 8.000000e+000 2.475648e+000
      vertex   2.730213e+000 8.000000e+000 2.076656e+000
    endloop
  endfacet
  facet normal 0.000000e+000 -1.000000e+000 0.000000e+000
    outer loop
      vertex   5.663119e+000 8.000000e+000 8.855032e-001
      vertex   6.062178e+000 8.000000e+000 1.500000e+000
      vertex   3.417678e+000 8.000000e+000 2.921664e+000
    endloop
  endfacet
  facet normal 0.000000e+000 -1.000000e+000 0.000000e+000
    outer loop
      vertex   6.062178e+000 8.000000e+000 1.500000e+000
      vertex   6.394818e+000 8.000000e+000 2.152843e+000
      vertex   3.668845e+000 8.000000e+000 3.406396e+000
    endloop
  endfacet
  facet normal 0.000000e+000 -1.000000e+000 0.000000e+000
    outer loop
      vertex   6.657396e+000 8.000000e+000 2.836881e+000
      vertex   3.851669e+000 8.000000e+000 3.920813e+000
      vertex   3.668845e+000 8.000000e+000 3.406396e+000
    endloop
  endfacet
  facet normal 0.000000e+000 -1.000000e+000 0.000000e+000
    outer loop
      vertex   6.847033e+000 8.000000e+000 3.544618e+000
      vertex   6.961653e+000 8.000000e+000 4.268301e+000
      vertex   3.962744e+000 8.000000e+000 4.455333e+000
    endloop
  endfacet
  facet normal 0.000000e+000 -1.000000e+000 0.000000e+000
    outer loop
      vertex   -6.961653e+000 8.000000e+000 4.268301e+000
      vertex   -3.962744e+000 8.000000e+000 4.455333e+000
      vertex   -4.000000e+000 8.000000e+000 5.000000e+000
    endloop
  endfacet
  facet normal -0.000000e+000 -1.000000e+000 0.000000e+000
    outer loop
      vertex   -3.668845e+000 8.000000e+000 3.406396e+000
      vertex   -3.851669e+000 8.000000e+000 3.920813e+000
      vertex   -6.657396e+000 8.000000e+000 2.836881e+000
    endloop
  endfacet
  facet normal -0.000000e+000 -1.000000e+000 0.000000e+000
    outer loop
      vertex   -2.730213e+000 8.000000e+000 2.076656e+000
      vertex   -3.102845e+000 8.000000e+000 2.475648e+000
      vertex   -5.202014e+000 8.000000e+000 3.160858e-001
    endloop
  endfacet
  facet normal -0.000000e+000 -1.000000e+000 0.000000e+000
    outer loop
      vertex   -1.339518e+000 8.000000e+000 1.230956e+000
      vertex   -1.840260e+000 8.000000e+000 1.448459e+000
      vertex   -2.847157e+000 8.000000e+000 -1.394818e+000
    endloop
  endfacet
  facet normal 0.000000e+000 -1.000000e+000 0.000000e+000
    outer loop
      vertex   2.847157e+000 8.000000e+000 -1.394818e+000
      vertex   1.840260e+000 8.000000e+000 1.448459e+000
      vertex   1.339518e+000 8.000000e+000 1.230956e+000
    endloop
  endfacet
  facet normal 0.000000e+000 -1.000000e+000 0.000000e+000
    outer loop
      vertex   2.730213e+000 8.000000e+000 2.076656e+000
      vertex   4.683914e+000 8.000000e+000 -2.020138e-001
      vertex   5.202014e+000 8.000000e+000 3.160858e-001
    endloop
  endfacet
  facet normal 0.000000e+000 -1.000000e+000 0.000000e+000
    outer loop
      vertex   3.102845e+000 8.000000e+000 2.475648e+000
      vertex   5.202014e+000 8.000000e+000 3.160858e-001
      vertex   5.663119e+000 8.000000e+000 8.855032e-001
    endloop
  endfacet
  facet normal 0.000000e+000 -1.000000e+000 0.000000e+000
    outer loop
      vertex   3.668845e+000 8.000000e+000 3.406396e+000
      vertex   6.394818e+000 8.000000e+000 2.152843e+000
      vertex   6.657396e+000 8.000000e+000 2.836881e+000
    endloop
  endfacet
  facet normal 0.000000e+000 -1.000000e+000 0.000000e+000
    outer loop
      vertex   3.851669e+000 8.000000e+000 3.920813e+000
      vertex   6.657396e+000 8.000000e+000 2.836881e+000
      vertex   6.847033e+000 8.000000e+000 3.544618e+000
    endloop
  endfacet
  facet normal 0.000000e+000 -1.000000e+000 0.000000e+000
    outer loop
      vertex   -6.847033e+000 8.000000e+000 3.544618e+000
      vertex   -6.657396e+000 8.000000e+000 2.836881e+000
      vertex   -3.851669e+000 8.000000e+000 3.920813e+000
    endloop
  endfacet
  facet normal 0.000000e+000 -1.000000e+000 0.000000e+000
    outer loop
      vertex   -2.306721e+000 8.000000e+000 1.732120e+000
      vertex   -4.114497e+000 8.000000e+000 -6.631190e-001
      vertex   -3.500000e+000 8.000000e+000 -1.062178e+000
    endloop
  endfacet
  facet normal 0.000000e+000 -1.000000e+000 0.000000e+000
    outer loop
      vertex   -2.163119e+000 8.000000e+000 -1.657396e+000
      vertex   -1.455382e+000 8.000000e+000 -1.847033e+000
      vertex   -8.138241e-001 8.000000e+000 1.083664e+000
    endloop
  endfacet
  facet normal 0.000000e+000 -1.000000e+000 0.000000e+000
    outer loop
      vertex   -7.316992e-001 8.000000e+000 -1.961653e+000
      vertex   -2.729697e-001 8.000000e+000 1.009325e+000
      vertex   -8.138241e-001 8.000000e+000 1.083664e+000
    endloop
  endfacet
  facet normal 0.000000e+000 -1.000000e+000 0.000000e+000
    outer loop
      vertex   -1.714506e-015 8.000000e+000 -2.000000e+000
      vertex   2.729697e-001 8.000000e+000 1.009325e+000
      vertex   -2.729697e-001 8.000000e+000 1.009325e+000
    endloop
  endfacet
  facet normal 0.000000e+000 -1.000000e+000 0.000000e+000
    outer loop
      vertex   2.163119e+000 8.000000e+000 -1.657396e+000
      vertex   1.339518e+000 8.000000e+000 1.230956e+000
      vertex   8.138241e-001 8.000000e+000 1.083664e+000
    endloop
  endfacet
  facet normal 0.000000e+000 -1.000000e+000 0.000000e+000
    outer loop
      vertex   1.339518e+000 8.000000e+000 1.230956e+000
      vertex   2.163119e+000 8.000000e+000 -1.657396e+000
      vertex   2.847157e+000 8.000000e+000 -1.394818e+000
    endloop
  endfacet
  facet normal 0.000000e+000 -1.000000e+000 -0.000000e+000
    outer loop
      vertex   3.417678e+000 8.000000e+000 2.921664e+000
      vertex   3.102845e+000 8.000000e+000 2.475648e+000
      vertex   5.663119e+000 8.000000e+000 8.855032e-001
    endloop
  endfacet
  facet normal 0.000000e+000 -1.000000e+000 -0.000000e+000
    outer loop
      vertex   3.962744e+000 8.000000e+000 4.455333e+000
      vertex   3.851669e+000 8.000000e+000 3.920813e+000
      vertex   6.847033e+000 8.000000e+000 3.544618e+000
    endloop
  endfacet
  facet normal 0.000000e+000 -1.000000e+000 0.000000e+000
    outer loop
      vertex   -3.668845e+000 8.000000e+000 3.406396e+000
      vertex   -6.394818e+000 8.000000e+000 2.152843e+000
      vertex   -6.062178e+000 8.000000e+000 1.500000e+000
    endloop
  endfacet
  facet normal 0.000000e+000 -1.000000e+000 -0.000000e+000
    outer loop
      vertex   -8.138241e-001 8.000000e+000 1.083664e+000
      vertex   -1.455382e+000 8.000000e+000 -1.847033e+000
      vertex   -7.316992e-001 8.000000e+000 -1.961653e+000
    endloop
  endfacet
  facet normal 0.000000e+000 -1.000000e+000 -0.000000e+000
    outer loop
      vertex   -2.729697e-001 8.000000e+000 1.009325e+000
      vertex   -7.316992e-001 8.000000e+000 -1.961653e+000
      vertex   -1.714506e-015 8.000000e+000 -2.000000e+000
    endloop
  endfacet
  facet normal 0.000000e+000 -1.000000e+000 0.000000e+000
    outer loop
      vertex   7.316992e-001 8.000000e+000 -1.961653e+000
      vertex   1.455382e+000 8.000000e+000 -1.847033e+000
      vertex   8.138241e-001 8.000000e+000 1.083664e+000
    endloop
  endfacet
  facet normal 0.000000e+000 -1.000000e+000 0.000000e+000
    outer loop
      vertex   2.847157e+000 8.000000e+000 -1.394818e+000
      vertex   3.500000e+000 8.000000e+000 -1.062178e+000
      vertex   1.840260e+000 8.000000e+000 1.448459e+000
    endloop
  endfacet
  facet normal 0.000000e+000 -1.000000e+000 0.000000e+000
    outer loop
      vertex   3.500000e+000 8.000000e+000 -1.062178e+000
      vertex   4.114497e+000 8.000000e+000 -6.631190e-001
      vertex   2.306721e+000 8.000000e+000 1.732120e+000
    endloop
  endfacet
  facet normal 0.000000e+000 -1.000000e+000 -0.000000e+000
    outer loop
      vertex   3.668845e+000 8.000000e+000 3.406396e+000
      vertex   3.417678e+000 8.000000e+000 2.921664e+000
      vertex   6.062178e+000 8.000000e+000 1.500000e+000
    endloop
  endfacet
  facet normal 0.000000e+000 -1.000000e+000 0.000000e+000
    outer loop
      vertex   6.961653e+000 8.000000e+000 4.268301e+000
      vertex   7.000000e+000 8.000000e+000 5.000000e+000
      vertex   4.000000e+000 8.000000e+000 5.000000e+000
    endloop
  endfacet
  facet normal -0.000000e+000 -1.000000e+000 0.000000e+000
    outer loop
      vertex   -8.138241e-001 8.000000e+000 1.083664e+000
      vertex   -1.339518e+000 8.000000e+000 1.230956e+000
      vertex   -2.163119e+000 8.000000e+000 -1.657396e+000
    endloop
  endfacet
  facet normal 0.000000e+000 -1.000000e+000 0.000000e+000
    outer loop
      vertex   8.138241e-001 8.000000e+000 1.083664e+000
      vertex   2.729697e-001 8.000000e+000 1.009325e+000
      vertex   7.316992e-001 8.000000e+000 -1.961653e+000
    endloop
  endfacet
  facet normal 0.000000e+000 -1.000000e+000 -0.000000e+000
    outer loop
      vertex   2.306721e+000 8.000000e+000 1.732120e+000
      vertex   1.840260e+000 8.000000e+000 1.448459e+000
      vertex   3.500000e+000 8.000000e+000 -1.062178e+000
    endloop
  endfacet
  facet normal 0.000000e+000 -1.000000e+000 -0.000000e+000
    outer loop
      vertex   4.000000e+000 8.000000e+000 5.000000e+000
      vertex   3.962744e+000 8.000000e+000 4.455333e+000
      vertex   6.961653e+000 8.000000e+000 4.268301e+000
    endloop
  endfacet
  facet normal 0.000000e+000 -1.000000e+000 0.000000e+000
    outer loop
      vertex   -1.714506e-015 8.000000e+000 -2.000000e+000
      vertex   7.316992e-001 8.000000e+000 -1.961653e+000
      vertex   2.729697e-001 8.000000e+000 1.009325e+000
    endloop
  endfacet
  facet normal 0.000000e+000 -1.000000e+000 0.000000e+000
    outer loop
      vertex   2.306721e+000 8.000000e+000 1.732120e+000
      vertex   4.114497e+000 8.000000e+000 -6.631190e-001
      vertex   4.683914e+000 8.000000e+000 -2.020138e-001
    endloop
  endfacet
  facet normal 0.000000e+000 -1.000000e+000 0.000000e+000
    outer loop
      vertex   8.138241e-001 8.000000e+000 1.083664e+000
      vertex   1.455382e+000 8.000000e+000 -1.847033e+000
      vertex   2.163119e+000 8.000000e+000 -1.657396e+000
    endloop
  endfacet
  facet normal 0.000000e+000 -1.000000e+000 0.000000e+000
    outer loop
      vertex   -4.000000e+000 8.000000e+000 5.000000e+000
      vertex   -7.000000e+000 8.000000e+000 5.000000e+000
      vertex   -6.961653e+000 8.000000e+000 4.268301e+000
    endloop
  endfacet
  facet normal -1.734723e-016 1.734723e-016 1.000000e+000
    outer loop
      vertex   5.000000e+000 0.000000e+000 5.000000e+000
      vertex   1.000000e+001 0.000000e+000 5.000000e+000
      vertex   7.000000e+000 7.000000e+000 5.000000e+000
    endloop
  endfacet
  facet normal -5.782412e-016 0.000000e+000 1.000000e+000
    outer loop
      vertex   1.000000e+001 1.200000e+001 5.000000e+000
      vertex   7.000000e+000 8.000000e+000 5.000000e+000
      vertex   7.000000e+000 7.000000e+000 5.000000e+000
    endloop
  endfacet
  facet normal -5.782412e-016 0.000000e+000 1.000000e+000
    outer loop
      vertex   7.000000e+000 7.000000e+000 5.000000e+000
      vertex   1.000000e+001 0.000000e+000 5.000000e+000
      vertex   1.000000e+001 1.200000e+001 5.000000e+000
    endloop
  endfacet
  facet normal 5.782412e-016 0.000000e+000 1.000000e+000
    outer loop
      vertex   4.000000e+000 1.200000e+001 5.000000e+000
      vertex   4.000000e+000 8.000000e+000 5.000000e+000
      vertex   7.000000e+000 8.000000e+000 5.000000e+000
    endloop
  endfacet
  facet normal 0.000000e+000 -4.336809e-016 1.000000e+000
    outer loop
      vertex   7.000000e+000 8.000000e+000 5.000000e+000
      vertex   1.000000e+001 1.200000e+001 5.000000e+000
      vertex   4.000000e+000 1.200000e+001 5.000000e+000
    endloop
  endfacet
  facet normal 4.336809e-016 0.000000e+000 1.000000e+000
    outer loop
      vertex   7.000000e+000 7.000000e+000 5.000000e+000
      vertex   5.000000e+000 7.000000e+000 5.000000e+000
      vertex   5.000000e+000 0.000000e+000 5.000000e+000
    endloop
  endfacet
  facet normal 0.000000e+000 -2.168404e-016 1.000000e+000
    outer loop
      vertex   -4.000000e+000 1.200000e+001 5.000000e+000
      vertex   -1.000000e+001 1.200000e+001 5.000000e+000
      vertex   -7.000000e+000 8.000000e+000 5.000000e+000
    endloop
  endfacet
  facet normal 2.891206e-016 0.000000e+000 1.000000e+000
    outer loop
      vertex   -1.000000e+001 1.200000e+001 5.000000e+000
      vertex   -1.000000e+001 0.000000e+000 5.000000e+000
      vertex   -7.000000e+000 7.000000e+000 5.000000e+000
    endloop
  endfacet
  facet normal 2.891206e-016 -0.000000e+000 1.000000e+000
    outer loop
      vertex   -7.000000e+000 7.000000e+000 5.000000e+000
      vertex   -7.000000e+000 8.000000e+000 5.000000e+000
      vertex   -1.000000e+001 1.200000e+001 5.000000e+000
    endloop
  endfacet
  facet normal 0.000000e+000 -0.000000e+000 1.000000e+000
    outer loop
      vertex   -5.000000e+000 0.000000e+000 5.000000e+000
      vertex   -5.000000e+000 7.000000e+000 5.000000e+000
      vertex   -7.000000e+000 7.000000e+000 5.000000e+000
    endloop
  endfacet
  facet normal 1.734723e-016 4.956353e-017 1.000000e+000
    outer loop
      vertex   -7.000000e+000 7.000000e+000 5.000000e+000
      vertex   -1.000000e+001 0.000000e+000 5.000000e+000
      vertex   -5.000000e+000 0.000000e+000 5.000000e+000
    endloop
  endfacet
  facet normal -2.891206e-016 0.000000e+000 1.000000e+000
    outer loop
      vertex   -7.000000e+000 8.000000e+000 5.000000e+000
      vertex   -4.000000e+000 8.000000e+000 5.000000e+000
      vertex   -4.000000e+000 1.200000e+001 5.000000e+000
    endloop
  endfacet
  facet normal -9.986295e-001 0.000000e+000 5.233596e-002
    outer loop
      vertex   6.961653e+000 7.000000e+000 4.268301e+000
      vertex   7.000000e+000 7.000000e+000 5.000000e+000
      vertex   7.000000e+000 8.000000e+000 5.000000e+000
    endloop
  endfacet
  facet normal -9.876883e-001 0.000000e+000 1.564345e-001
    outer loop
      vertex   6.847033e+000 7.000000e+000 3.544618e+000
      vertex   6.961653e+000 7.000000e+000 4.268301e+000
      vertex   6.961653e+000 8.000000e+000 4.268301e+000
    endloop
  endfacet
  facet normal -9.659258e-001 0.000000e+000 2.588190e-001
    outer loop
      vertex   6.657396e+000 7.000000e+000 2.836881e+000
      vertex   6.847033e+000 7.000000e+000 3.544618e+000
      vertex   6.847033e+000 8.000000e+000 3.544618e+000
    endloop
  endfacet
  facet normal -9.335804e-001 0.000000e+000 3.583679e-001
    outer loop
      vertex   6.394818e+000 7.000000e+000 2.152843e+000
      vertex   6.657396e+000 7.000000e+000 2.836881e+000
      vertex   6.657396e+000 8.000000e+000 2.836881e+000
    endloop
  endfacet
  facet normal -8.910065e-001 0.000000e+000 4.539905e-001
    outer loop
      vertex   6.062178e+000 7.000000e+000 1.500000e+000
      vertex   6.394818e+000 7.000000e+000 2.152843e+000
      vertex   6.394818e+000 8.000000e+000 2.152843e+000
    endloop
  endfacet
  facet normal -8.386706e-001 0.000000e+000 5.446390e-001
    outer loop
      vertex   5.663119e+000 7.000000e+000 8.855032e-001
      vertex   6.062178e+000 7.000000e+000 1.500000e+000
      vertex   6.062178e+000 8.000000e+000 1.500000e+000
    endloop
  endfacet
  facet normal -7.771460e-001 0.000000e+000 6.293204e-001
    outer loop
      vertex   5.202014e+000 7.000000e+000 3.160858e-001
      vertex   5.663119e+000 7.000000e+000 8.855032e-001
      vertex   5.663119e+000 8.000000e+000 8.855032e-001
    endloop
  endfacet
  facet normal -7.071068e-001 0.000000e+000 7.071068e-001
    outer loop
      vertex   4.683914e+000 7.000000e+000 -2.020138e-001
      vertex   5.202014e+000 7.000000e+000 3.160858e-001
      vertex   5.202014e+000 8.000000e+000 3.160858e-001
    endloop
  endfacet
  facet normal -6.293204e-001 0.000000e+000 7.771460e-001
    outer loop
      vertex   4.114497e+000 7.000000e+000 -6.631190e-001
      vertex   4.683914e+000 7.000000e+000 -2.020138e-001
      vertex   4.683914e+000 8.000000e+000 -2.020138e-001
    endloop
  endfacet
  facet normal -5.446390e-001 0.000000e+000 8.386706e-001
    outer loop
      vertex   3.500000e+000 7.000000e+000 -1.062178e+000
      vertex   4.114497e+000 7.000000e+000 -6.631190e-001
      vertex   4.114497e+000 8.000000e+000 -6.631190e-001
    endloop
  endfacet
  facet normal -4.539905e-001 0.000000e+000 8.910065e-001
    outer loop
      vertex   2.847157e+000 7.000000e+000 -1.394818e+000
      vertex   3.500000e+000 7.000000e+000 -1.062178e+000
      vertex   3.500000e+000 8.000000e+000 -1.062178e+000
    endloop
  endfacet
  facet normal -3.583679e-001 0.000000e+000 9.335804e-001
    outer loop
      vertex   2.163119e+000 7.000000e+000 -1.657396e+000
      vertex   2.847157e+000 7.000000e+000 -1.394818e+000
      vertex   2.847157e+000 8.000000e+000 -1.394818e+000
    endloop
  endfacet
  facet normal -2.588190e-001 0.000000e+000 9.659258e-001
    outer loop
      vertex   1.455382e+000 7.000000e+000 -1.847033e+000
      vertex   2.163119e+000 7.000000e+000 -1.657396e+000
      vertex   2.163119e+000 8.000000e+000 -1.657396e+000
    endloop
  endfacet
  facet normal -1.564345e-001 0.000000e+000 9.876883e-001
    outer loop
      vertex   7.316992e-001 7.000000e+000 -1.961653e+000
      vertex   1.455382e+000 7.000000e+000 -1.847033e+000
      vertex   1.455382e+000 8.000000e+000 -1.847033e+000
    endloop
  endfacet
  facet normal -5.233596e-002 0.000000e+000 9.986295e-001
    outer loop
      vertex   -1.714506e-015 7.000000e+000 -2.000000e+000
      vertex   7.316992e-001 7.000000e+000 -1.961653e+000
      vertex   7.316992e-001 8.000000e+000 -1.961653e+000
    endloop
  endfacet
  facet normal 5.233596e-002 0.000000e+000 9.986295e-001
    outer loop
      vertex   -7.316992e-001 7.000000e+000 -1.961653e+000
      vertex   -1.714506e-015 7.000000e+000 -2.000000e+000
      vertex   -1.714506e-015 8.000000e+000 -2.000000e+000
    endloop
  endfacet
  facet normal 1.564345e-001 0.000000e+000 9.876883e-001
    outer loop
      vertex   -1.455382e+000 7.000000e+000 -1.847033e+000
      vertex   -7.316992e-001 7.000000e+000 -1.961653e+000
      vertex   -7.316992e-001 8.000000e+000 -1.961653e+000
    endloop
  endfacet
  facet normal 2.588190e-001 0.000000e+000 9.659258e-001
    outer loop
      vertex   -2.163119e+000 7.000000e+000 -1.657396e+000
      vertex   -1.455382e+000 7.000000e+000 -1.847033e+000
      vertex   -1.455382e+000 8.000000e+000 -1.847033e+000
    endloop
  endfacet
  facet normal 3.583679e-001 0.000000e+000 9.335804e-001
    outer loop
      vertex   -2.847157e+000 7.000000e+000 -1.394818e+000
      vertex   -2.163119e+000 7.000000e+000 -1.657396e+000
      vertex   -2.163119e+000 8.000000e+000 -1.657396e+000
    endloop
  endfacet
  facet normal 4.539905e-001 0.000000e+000 8.910065e-001
    outer loop
      vertex   -3.500000e+000 7.000000e+000 -1.062178e+000
      vertex   -2.847157e+000 7.000000e+000 -1.394818e+000
      vertex   -2.847157e+000 8.000000e+000 -1.394818e+000
    endloop
  endfacet
  facet normal 5.446390e-001 0.000000e+000 8.386706e-001
    outer loop
      vertex   -4.114497e+000 7.000000e+000 -6.631190e-001
      vertex   -3.500000e+000 7.000000e+000 -1.062178e+000
      vertex   -3.500000e+000 8.000000e+000 -1.062178e+000
    endloop
  endfacet
  facet normal 6.293204e-001 0.000000e+000 7.771460e-001
    outer loop
      vertex   -4.683914e+000 7.000000e+000 -2.020138e-001
      vertex   -4.114497e+000 7.000000e+000 -6.631190e-001
      vertex   -4.114497e+000 8.000000e+000 -6.631190e-001
    endloop
  endfacet
  facet normal 7.071068e-001 0.000000e+000 7.071068e-001
    outer loop
      vertex   -5.202014e+000 7.000000e+000 3.160858e-001
      vertex   -4.683914e+000 7.000000e+000 -2.020138e-001
      vertex   -4.683914e+000 8.000000e+000 -2.020138e-001
    endloop
  endfacet
  facet normal 7.771460e-001 0.000000e+000 6.293204e-001
    outer loop
      vertex   -5.663119e+000 7.000000e+000 8.855032e-001
      vertex   -5.202014e+000 7.000000e+000 3.160858e-001
      vertex   -5.202014e+000 8.000000e+000 3.160858e-001
    endloop
  endfacet
  facet normal 8.386706e-001 0.000000e+000 5.446390e-001
    outer loop
      vertex   -6.062178e+000 7.000000e+000 1.500000e+000
      vertex   -5.663119e+000 7.000000e+000 8.855032e-001
      vertex   -5.663119e+000 8.000000e+000 8.855032e-001
    endloop
  endfacet
  facet normal 8.910065e-001 0.000000e+000 4.539905e-001
    outer loop
      vertex   -6.394818e+000 7.000000e+000 2.152843e+000
      vertex   -6.062178e+000 7.000000e+000 1.500000e+000
      vertex   -6.062178e+000 8.000000e+000 1.500000e+000
    endloop
  endfacet
  facet normal 9.335804e-001 0.000000e+000 3.583679e-001
    outer loop
      vertex   -6.657396e+000 7.000000e+000 2.836881e+000
      vertex   -6.394818e+000 7.000000e+000 2.152843e+000
      vertex   -6.394818e+000 8.000000e+000 2.152843e+000
    endloop
  endfacet
  facet normal 9.659258e-001 0.000000e+000 2.588190e-001
    outer loop
      vertex   -6.847033e+000 7.000000e+000 3.544618e+000
      vertex   -6.657396e+000 7.000000e+000 2.836881e+000
      vertex   -6.657396e+000 8.000000e+000 2.836881e+000
    endloop
  endfacet
  facet normal 9.876883e-001 0.000000e+000 1.564345e-001
    outer loop
      vertex   -6.961653e+000 7.000000e+000 4.268301e+000
      vertex   -6.847033e+000 7.000000e+000 3.544618e+000
      vertex   -6.847033e+000 8.000000e+000 3.544618e+000
    endloop
  endfacet
  facet normal 9.986295e-001 0.000000e+000 5.233596e-002
    outer loop
      vertex   -7.000000e+000 7.000000e+000 5.000000e+000
      vertex   -6.961653e+000 7.000000e+000 4.268301e+000
      vertex   -6.961653e+000 8.000000e+000 4.268301e+000
    endloop
  endfacet
  facet normal 9.986295e-001 0.000000e+000 5.233596e-002
    outer loop
      vertex   -6.961653e+000 8.000000e+000 4.268301e+000
      vertex   -7.000000e+000 8.000000e+000 5.000000e+000
      vertex   -7.000000e+000 7.000000e+000 5.000000e+000
    endloop
  endfacet
  facet normal 9.876883e-001 0.000000e+000 1.564345e-001
    outer loop
      vertex   -6.847033e+000 8.000000e+000 3.544618e+000
      vertex   -6.961653e+000 8.000000e+000 4.268301e+000
      vertex   -6.961653e+000 7.000000e+000 4.268301e+000
    endloop
  endfacet
  facet normal 9.659258e-001 0.000000e+000 2.588190e-001
    outer loop
      vertex   -6.657396e+000 8.000000e+000 2.836881e+000
      vertex   -6.847033e+000 8.000000e+000 3.544618e+000
      vertex   -6.847033e+000 7.000000e+000 3.544618e+000
    endloop
  endfacet
  facet normal 9.335804e-001 0.000000e+000 3.583679e-001
    outer loop
      vertex   -6.394818e+000 8.000000e+000 2.152843e+000
      vertex   -6.657396e+000 8.000000e+000 2.836881e+000
      vertex   -6.657396e+000 7.000000e+000 2.836881e+000
    endloop
  endfacet
  facet normal 8.910065e-001 0.000000e+000 4.539905e-001
    outer loop
      vertex   -6.062178e+000 8.000000e+000 1.500000e+000
      vertex   -6.394818e+000 8.000000e+000 2.152843e+000
      vertex   -6.394818e+000 7.000000e+000 2.152843e+000
    endloop
  endfacet
  facet normal 8.386706e-001 0.000000e+000 5.446390e-001
    outer loop
      vertex   -5.663119e+000 8.000000e+000 8.855032e-001
      vertex   -6.062178e+000 8.000000e+000 1.500000e+000
      vertex   -6.062178e+000 7.000000e+000 1.500000e+000
    endloop
  endfacet
  facet normal 7.771460e-001 0.000000e+000 6.293204e-001
    outer loop
      vertex   -5.202014e+000 8.000000e+000 3.160858e-001
      vertex   -5.663119e+000 8.000000e+000 8.855032e-001
      vertex   -5.663119e+000 7.000000e+000 8.855032e-001
    endloop
  endfacet
  facet normal 7.071068e-001 0.000000e+000 7.071068e-001
    outer loop
      vertex   -4.683914e+000 8.000000e+000 -2.020138e-001
      vertex   -5.202014e+000 8.000000e+000 3.160858e-001
      vertex   -5.202014e+000 7.000000e+000 3.160858e-001
    endloop
  endfacet
  facet normal 6.293204e-001 0.000000e+000 7.771460e-001
    outer loop
      vertex   -4.114497e+000 8.000000e+000 -6.631190e-001
      vertex   -4.683914e+000 8.000000e+000 -2.020138e-001
      vertex   -4.683914e+000 7.000000e+000 -2.020138e-001
    endloop
  endfacet
  facet normal 5.446390e-001 0.000000e+000 8.386706e-001
    outer loop
      vertex   -3.500000e+000 8.000000e+000 -1.062178e+000
      vertex   -4.114497e+000 8.000000e+000 -6.631190e-001
      vertex   -4.114497e+000 7.000000e+000 -6.631190e-001
    endloop
  endfacet
  facet normal 4.539905e-001 0.000000e+000 8.910065e-001
    outer loop
      vertex   -2.847157e+000 8.000000e+000 -1.394818e+000
      vertex   -3.500000e+000 8.000000e+000 -1.062178e+000
      vertex   -3.500000e+000 7.000000e+000 -1.062178e+000
    endloop
  endfacet
  facet normal 3.583679e-001 0.000000e+000 9.335804e-001
    outer loop
      vertex   -2.163119e+000 8.000000e+000 -1.657396e+000
      vertex   -2.847157e+000 8.000000e+000 -1.394818e+000
      vertex   -2.847157e+000 7.000000e+000 -1.394818e+000
    endloop
  endfacet
  facet normal 2.588190e-001 0.000000e+000 9.659258e-001
    outer loop
      vertex   -1.455382e+000 8.000000e+000 -1.847033e+000
      vertex   -2.163119e+000 8.000000e+000 -1.657396e+000
      vertex   -2.163119e+000 7.000000e+000 -1.657396e+000
    endloop
  endfacet
  facet normal 1.564345e-001 0.000000e+000 9.876883e-001
    outer loop
      vertex   -7.316992e-001 8.000000e+000 -1.961653e+000
      vertex   -1.455382e+000 8.000000e+000 -1.847033e+000
      vertex   -1.455382e+000 7.000000e+000 -1.847033e+000
    endloop
  endfacet
  facet normal 5.233596e-002 0.000000e+000 9.986295e-001
    outer loop
      vertex   -1.714506e-015 8.000000e+000 -2.000000e+000
      vertex   -7.316992e-001 8.000000e+000 -1.961653e+000
      vertex   -7.316992e-001 7.000000e+000 -1.961653e+000
    endloop
  endfacet
  facet normal -5.233596e-002 0.000000e+000 9.986295e-001
    outer loop
      vertex   7.316992e-001 8.000000e+000 -1.961653e+000
      vertex   -1.714506e-015 8.000000e+000 -2.000000e+000
      vertex   -1.714506e-015 7.000000e+000 -2.000000e+000
    endloop
  endfacet
  facet normal -1.564345e-001 0.000000e+000 9.876883e-001
    outer loop
      vertex   1.455382e+000 8.000000e+000 -1.847033e+000
      vertex   7.316992e-001 8.000000e+000 -1.961653e+000
      vertex   7.316992e-001 7.000000e+000 -1.961653e+000
    endloop
  endfacet
  facet normal -2.588190e-001 0.000000e+000 9.659258e-001
    outer loop
      vertex   2.163119e+000 8.000000e+000 -1.657396e+000
      vertex   1.455382e+000 8.000000e+000 -1.847033e+000
      vertex   1.455382e+000 7.000000e+000 -1.847033e+000
    endloop
  endfacet
  facet normal -3.583679e-001 0.000000e+000 9.335804e-001
    outer loop
      vertex   2.847157e+000 8.000000e+000 -1.394818e+000
      vertex   2.163119e+000 8.000000e+000 -1.657396e+000
      vertex   2.163119e+000 7.000000e+000 -1.657396e+000
    endloop
  endfacet
  facet normal -4.539905e-001 0.000000e+000 8.910065e-001
    outer loop
      vertex   3.500000e+000 8.000000e+000 -1.062178e+000
      vertex   2.847157e+000 8.000000e+000 -1.394818e+000
      vertex   2.847157e+000 7.000000e+000 -1.394818e+000
    endloop
  endfacet
  facet normal -5.446390e-001 0.000000e+000 8.386706e-001
    outer loop
      vertex   4.114497e+000 8.000000e+000 -6.631190e-001
      vertex   3.500000e+000 8.000000e+000 -1.062178e+000
      vertex   3.500000e+000 7.000000e+000 -1.062178e+000
    endloop
  endfacet
  facet normal -6.293204e-001 0.000000e+000 7.771460e-001
    outer loop
      vertex   4.683914e+000 8.000000e+000 -2.020138e-001
      vertex   4.114497e+000 8.000000e+000 -6.631190e-001
      vertex   4.114497e+000 7.000000e+000 -6.631190e-001
    endloop
  endfacet
  facet normal -7.071068e-001 0.000000e+000 7.071068e-001
    outer loop
      vertex   5.202014e+000 8.000000e+000 3.160858e-001
      vertex   4.683914e+000 8.000000e+000 -2.020138e-001
      vertex   4.683914e+000 7.000000e+000 -2.020138e-001
    endloop
  endfacet
  facet normal -7.771460e-001 0.000000e+000 6.293204e-001
    outer loop
      vertex   5.663119e+000 8.000000e+000 8.855032e-001
      vertex   5.202014e+000 8.000000e+000 3.160858e-001
      vertex   5.202014e+000 7.000000e+000 3.160858e-001
    endloop
  endfacet
  facet normal -8.386706e-001 0.000000e+000 5.446390e-001
    outer loop
      vertex   6.062178e+000 8.000000e+000 1.500000e+000
      vertex   5.663119e+000 8.000000e+000 8.855032e-001
      vertex   5.663119e+000 7.000000e+000 8.855032e-001
    endloop
  endfacet
  facet normal -8.910065e-001 0.000000e+000 4.539905e-001
    outer loop
      vertex   6.394818e+000 8.000000e+000 2.152843e+000
      vertex   6.062178e+000 8.000000e+000 1.500000e+000
      vertex   6.062178e+000 7.000000e+000 1.500000e+000
    endloop
  endfacet
  facet normal -9.335804e-001 0.000000e+000 3.583679e-001
    outer loop
      vertex   6.657396e+000 8.000000e+000 2.836881e+000
      vertex   6.394818e+000 8.000000e+000 2.152843e+000
      vertex   6.394818e+000 7.000000e+000 2.152843e+000
    endloop
  endfacet
  facet normal -9.659258e-001 0.000000e+000 2.588190e-001
    outer loop
      vertex   6.847033e+000 8.000000e+000 3.544618e+000
      vertex   6.657396e+000 8.000000e+000 2.836881e+000
      vertex   6.657396e+000 7.000000e+000 2.836881e+000
    endloop
  endfacet
  facet normal -9.876883e-001 0.000000e+000 1.564345e-001
    outer loop
      vertex   6.961653e+000 8.000000e+000 4.268301e+000
      vertex   6.847033e+000 8.000000e+000 3.544618e+000
      vertex   6.847033e+000 7.000000e+000 3.544618e+000
    endloop
  endfacet
  facet normal -9.986295e-001 0.000000e+000 5.233596e-002
    outer loop
      vertex   7.000000e+000 8.000000e+000 5.000000e+000
      vertex   6.961653e+000 8.000000e+000 4.268301e+000
      vertex   6.961653e+000 7.000000e+000 4.268301e+000
    endloop
  endfacet
  facet normal -9.980267e-001 0.000000e+000 6.279052e-002
    outer loop
      vertex   4.960574e+000 0.000000e+000 4.373334e+000
      vertex   5.000000e+000 0.000000e+000 5.000000e+000
      vertex   5.000000e+000 7.000000e+000 5.000000e+000
    endloop
  endfacet
  facet normal -9.822873e-001 0.000000e+000 1.873813e-001
    outer loop
      vertex   4.842916e+000 0.000000e+000 3.756551e+000
      vertex   4.960574e+000 0.000000e+000 4.373334e+000
      vertex   4.960574e+000 7.000000e+000 4.373334e+000
    endloop
  endfacet
  facet normal -9.510565e-001 0.000000e+000 3.090170e-001
    outer loop
      vertex   4.648882e+000 0.000000e+000 3.159377e+000
      vertex   4.842916e+000 0.000000e+000 3.756551e+000
      vertex   4.842916e+000 7.000000e+000 3.756551e+000
    endloop
  endfacet
  facet normal -9.048271e-001 0.000000e+000 4.257793e-001
    outer loop
      vertex   4.381533e+000 0.000000e+000 2.591232e+000
      vertex   4.648882e+000 0.000000e+000 3.159377e+000
      vertex   4.648882e+000 7.000000e+000 3.159377e+000
    endloop
  endfacet
  facet normal -8.443279e-001 0.000000e+000 5.358268e-001
    outer loop
      vertex   4.045085e+000 0.000000e+000 2.061074e+000
      vertex   4.381533e+000 0.000000e+000 2.591232e+000
      vertex   4.381533e+000 7.000000e+000 2.591232e+000
    endloop
  endfacet
  facet normal -7.705132e-001 0.000000e+000 6.374240e-001
    outer loop
      vertex   3.644843e+000 0.000000e+000 1.577264e+000
      vertex   4.045085e+000 0.000000e+000 2.061074e+000
      vertex   4.045085e+000 7.000000e+000 2.061074e+000
    endloop
  endfacet
  facet normal -6.845471e-001 0.000000e+000 7.289686e-001
    outer loop
      vertex   3.187120e+000 0.000000e+000 1.147434e+000
      vertex   3.644843e+000 0.000000e+000 1.577264e+000
      vertex   3.644843e+000 7.000000e+000 1.577264e+000
    endloop
  endfacet
  facet normal -5.877853e-001 0.000000e+000 8.090170e-001
    outer loop
      vertex   2.679134e+000 0.000000e+000 7.783604e-001
      vertex   3.187120e+000 0.000000e+000 1.147434e+000
      vertex   3.187120e+000 7.000000e+000 1.147434e+000
    endloop
  endfacet
  facet normal -4.817537e-001 0.000000e+000 8.763067e-001
    outer loop
      vertex   2.128896e+000 0.000000e+000 4.758647e-001
      vertex   2.679134e+000 0.000000e+000 7.783604e-001
      vertex   2.679134e+000 7.000000e+000 7.783604e-001
    endloop
  endfacet
  facet normal -3.681246e-001 0.000000e+000 9.297765e-001
    outer loop
      vertex   1.545085e+000 0.000000e+000 2.447174e-001
      vertex   2.128896e+000 0.000000e+000 4.758647e-001
      vertex   2.128896e+000 7.000000e+000 4.758647e-001
    endloop
  endfacet
  facet normal -2.486899e-001 0.000000e+000 9.685832e-001
    outer loop
      vertex   9.369066e-001 0.000000e+000 8.856375e-002
      vertex   1.545085e+000 0.000000e+000 2.447174e-001
      vertex   1.545085e+000 7.000000e+000 2.447174e-001
    endloop
  endfacet
  facet normal -1.253332e-001 0.000000e+000 9.921147e-001
    outer loop
      vertex   3.139526e-001 0.000000e+000 9.866358e-003
      vertex   9.369066e-001 0.000000e+000 8.856375e-002
      vertex   9.369066e-001 7.000000e+000 8.856375e-002
    endloop
  endfacet
  facet normal 0.000000e+000 0.000000e+000 1.000000e+000
    outer loop
      vertex   -3.139526e-001 0.000000e+000 9.866358e-003
      vertex   3.139526e-001 0.000000e+000 9.866358e-003
      vertex   3.139526e-001 7.000000e+000 9.866358e-003
    endloop
  endfacet
  facet normal 1.253332e-001 0.000000e+000 9.921147e-001
    outer loop
      vertex   -9.369066e-001 0.000000e+000 8.856375e-002
      vertex   -3.139526e-001 0.000000e+000 9.866358e-003
      vertex   -3.139526e-001 7.000000e+000 9.866358e-003
    endloop
  endfacet
  facet normal 2.486899e-001 0.000000e+000 9.685832e-001
    outer loop
      vertex   -1.545085e+000 0.000000e+000 2.447174e-001
      vertex   -9.369066e-001 0.000000e+000 8.856375e-002
      vertex   -9.369066e-001 7.000000e+000 8.856375e-002
    endloop
  endfacet
  facet normal 3.681246e-001 0.000000e+000 9.297765e-001
    outer loop
      vertex   -2.128896e+000 0.000000e+000 4.758647e-001
      vertex   -1.545085e+000 0.000000e+000 2.447174e-001
      vertex   -1.545085e+000 7.000000e+000 2.447174e-001
    endloop
  endfacet
  facet normal 4.817537e-001 0.000000e+000 8.763067e-001
    outer loop
      vertex   -2.679134e+000 0.000000e+000 7.783604e-001
      vertex   -2.128896e+000 0.000000e+000 4.758647e-001
      vertex   -2.128896e+000 7.000000e+000 4.758647e-001
    endloop
  endfacet
  facet normal 5.877853e-001 0.000000e+000 8.090170e-001
    outer loop
      vertex   -3.187120e+000 0.000000e+000 1.147434e+000
      vertex   -2.679134e+000 0.000000e+000 7.783604e-001
      vertex   -2.679134e+000 7.000000e+000 7.783604e-001
    endloop
  endfacet
  facet normal 6.845471e-001 0.000000e+000 7.289686e-001
    outer loop
      vertex   -3.644843e+000 0.000000e+000 1.577264e+000
      vertex   -3.187120e+000 0.000000e+000 1.147434e+000
      vertex   -3.187120e+000 7.000000e+000 1.147434e+000
    endloop
  endfacet
  facet normal 7.705132e-001 0.000000e+000 6.374240e-001
    outer loop
      vertex   -4.045085e+000 0.000000e+000 2.061074e+000
      vertex   -3.644843e+000 0.000000e+000 1.577264e+000
      vertex   -3.644843e+000 7.000000e+000 1.577264e+000
    endloop
  endfacet
  facet normal 8.443279e-001 0.000000e+000 5.358268e-001
    outer loop
      vertex   -4.381533e+000 0.000000e+000 2.591232e+000
      vertex   -4.045085e+000 0.000000e+000 2.061074e+000
      vertex   -4.045085e+000 7.000000e+000 2.061074e+000
    endloop
  endfacet
  facet normal 9.048271e-001 0.000000e+000 4.257793e-001
    outer loop
      vertex   -4.648882e+000 0.000000e+000 3.159377e+000
      vertex   -4.381533e+000 0.000000e+000 2.591232e+000
      vertex   -4.381533e+000 7.000000e+000 2.591232e+000
    endloop
  endfacet
  facet normal 9.510565e-001 0.000000e+000 3.090170e-001
    outer loop
      vertex   -4.842916e+000 0.000000e+000 3.756551e+000
      vertex   -4.648882e+000 0.000000e+000 3.159377e+000
      vertex   -4.648882e+000 7.000000e+000 3.159377e+000
    endloop
  endfacet
  facet normal 9.822873e-001 0.000000e+000 1.873813e-001
    outer loop
      vertex   -4.960574e+000 0.000000e+000 4.373334e+000
      vertex   -4.842916e+000 0.000000e+000 3.756551e+000
      vertex   -4.842916e+000 7.000000e+000 3.756551e+000
    endloop
  endfacet
  facet normal 9.980267e-001 0.000000e+000 6.279052e-002
    outer loop
      vertex   -5.000000e+000 0.000000e+000 5.000000e+000
      vertex   -4.960574e+000 0.000000e+000 4.373334e+000
      vertex   -4.960574e+000 7.000000e+000 4.373334e+000
    endloop
  endfacet
  facet normal 9.980267e-001 0.000000e+000 6.279052e-002
    outer loop
      vertex   -4.960574e+000 7.000000e+000 4.373334e+000
      vertex   -5.000000e+000 7.000000e+000 5.000000e+000
      vertex   -5.000000e+000 0.000000e+000 5.000000e+000
    endloop
  endfacet
  facet normal 9.822873e-001 0.000000e+000 1.873813e-001
    outer loop
      vertex   -4.842916e+000 7.000000e+000 3.756551e+000
      vertex   -4.960574e+000 7.000000e+000 4.373334e+000
      vertex   -4.960574e+000 0.000000e+000 4.373334e+000
    endloop
  endfacet
  facet normal 9.510565e-001 0.000000e+000 3.090170e-001
    outer loop
      vertex   -4.648882e+000 7.000000e+000 3.159377e+000
      vertex   -4.842916e+000 7.000000e+000 3.756551e+000
      vertex   -4.842916e+000 0.000000e+000 3.756551e+000
    endloop
  endfacet
  facet normal 9.048271e-001 0.000000e+000 4.257793e-001
    outer loop
      vertex   -4.381533e+000 7.000000e+000 2.591232e+000
      vertex   -4.648882e+000 7.000000e+000 3.159377e+000
      vertex   -4.648882e+000 0.000000e+000 3.159377e+000
    endloop
  endfacet
  facet normal 8.443279e-001 0.000000e+000 5.358268e-001
    outer loop
      vertex   -4.045085e+000 7.000000e+000 2.061074e+000
      vertex   -4.381533e+000 7.000000e+000 2.591232e+000
      vertex   -4.381533e+000 0.000000e+000 2.591232e+000
    endloop
  endfacet
  facet normal 7.705132e-001 0.000000e+000 6.374240e-001
    outer loop
      vertex   -3.644843e+000 7.000000e+000 1.577264e+000
      vertex   -4.045085e+000 7.000000e+000 2.061074e+000
      vertex   -4.045085e+000 0.000000e+000 2.061074e+000
    endloop
  endfacet
  facet normal 6.845471e-001 0.000000e+000 7.289686e-001
    outer loop
      vertex   -3.187120e+000 7.000000e+000 1.147434e+000
      vertex   -3.644843e+000 7.000000e+000 1.577264e+000
      vertex   -3.644843e+000 0.000000e+000 1.577264e+000
    endloop
  endfacet
  facet normal 5.877853e-001 0.000000e+000 8.090170e-001
    outer loop
      vertex   -2.679134e+000 7.000000e+000 7.783604e-001
      vertex   -3.187120e+000 7.000000e+000 1.147434e+000
      vertex   -3.187120e+000 0.000000e+000 1.147434e+000
    endloop
  endfacet
  facet normal 4.817537e-001 0.000000e+000 8.763067e-001
    outer loop
      vertex   -2.128896e+000 7.000000e+000 4.758647e-001
      vertex   -2.679134e+000 7.000000e+000 7.783604e-001
      vertex   -2.679134e+000 0.000000e+000 7.783604e-001
    endloop
  endfacet
  facet normal 3.681246e-001 0.000000e+000 9.297765e-001
    outer loop
      vertex   -1.545085e+000 7.000000e+000 2.447174e-001
      vertex   -2.128896e+000 7.000000e+000 4.758647e-001
      vertex   -2.128896e+000 0.000000e+000 4.758647e-001
    endloop
  endfacet
  facet normal 2.486899e-001 0.000000e+000 9.685832e-001
    outer loop
      vertex   -9.369066e-001 7.000000e+000 8.856375e-002
      vertex   -1.545085e+000 7.000000e+000 2.447174e-001
      vertex   -1.545085e+000 0.000000e+000 2.447174e-001
    endloop
  endfacet
  facet normal 1.253332e-001 0.000000e+000 9.921147e-001
    outer loop
      vertex   -3.139526e-001 7.000000e+000 9.866358e-003
      vertex   -9.369066e-001 7.000000e+000 8.856375e-002
      vertex   -9.369066e-001 0.000000e+000 8.856375e-002
    endloop
  endfacet
  facet normal 0.000000e+000 0.000000e+000 1.000000e+000
    outer loop
      vertex   3.139526e-001 7.000000e+000 9.866358e-003
      vertex   -3.139526e-001 7.000000e+000 9.866358e-003
      vertex   -3.139526e-001 0.000000e+000 9.866358e-003
    endloop
  endfacet
  facet normal -1.253332e-001 0.000000e+000 9.921147e-001
    outer loop
      vertex   9.369066e-001 7.000000e+000 8.856375e-002
      vertex   3.139526e-001 7.000000e+000 9.866358e-003
      vertex   3.139526e-001 0.000000e+000 9.866358e-003
    endloop
  endfacet
  facet normal -2.486899e-001 0.000000e+000 9.685832e-001
    outer loop
      vertex   1.545085e+000 7.000000e+000 2.447174e-001
      vertex   9.369066e-001 7.000000e+000 8.856375e-002
      vertex   9.369066e-001 0.000000e+000 8.856375e-002
    endloop
  endfacet
  facet normal -3.681246e-001 0.000000e+000 9.297765e-001
    outer loop
      vertex   2.128896e+000 7.000000e+000 4.758647e-001
      vertex   1.545085e+000 7.000000e+000 2.447174e-001
      vertex   1.545085e+000 0.000000e+000 2.447174e-001
    endloop
  endfacet
  facet normal -4.817537e-001 0.000000e+000 8.763067e-001
    outer loop
      vertex   2.679134e+000 7.000000e+000 7.783604e-001
      vertex   2.128896e+000 7.000000e+000 4.758647e-001
      vertex   2.128896e+000 0.000000e+000 4.758647e-001
    endloop
  endfacet
  facet normal -5.877853e-001 0.000000e+000 8.090170e-001
    outer loop
      vertex   3.187120e+000 7.000000e+000 1.147434e+000
      vertex   2.679134e+000 7.000000e+000 7.783604e-001
      vertex   2.679134e+000 0.000000e+000 7.783604e-001
    endloop
  endfacet
  facet normal -6.845471e-001 0.000000e+000 7.289686e-001
    outer loop
      vertex   3.644843e+000 7.000000e+000 1.577264e+000
      vertex   3.187120e+000 7.000000e+000 1.147434e+000
      vertex   3.187120e+000 0.000000e+000 1.147434e+000
    endloop
  endfacet
  facet normal -7.705132e-001 0.000000e+000 6.374240e-001
    outer loop
      vertex   4.045085e+000 7.000000e+000 2.061074e+000
      vertex   3.644843e+000 7.000000e+000 1.577264e+000
      vertex   3.644843e+000 0.000000e+000 1.577264e+000
    endloop
  endfacet
  facet normal -8.443279e-001 0.000000e+000 5.358268e-001
    outer loop
      vertex   4.381533e+000 7.000000e+000 2.591232e+000
      vertex   4.045085e+000 7.000000e+000 2.061074e+000
      vertex   4.045085e+000 0.000000e+000 2.061074e+000
    endloop
  endfacet
  facet normal -9.048271e-001 0.000000e+000 4.257793e-001
    outer loop
      vertex   4.648882e+000 7.000000e+000 3.159377e+000
      vertex   4.381533e+000 7.000000e+000 2.591232e+000
      vertex   4.381533e+000 0.000000e+000 2.591232e+000
    endloop
  endfacet
  facet normal -9.510565e-001 0.000000e+000 3.090170e-001
    outer loop
      vertex   4.842916e+000 7.000000e+000 3.756551e+000
      vertex   4.648882e+000 7.000000e+000 3.159377e+000
      vertex   4.648882e+000 0.000000e+000 3.159377e+000
    endloop
  endfacet
  facet normal -9.822873e-001 0.000000e+000 1.873813e-001
    outer loop
      vertex   4.960574e+000 7.000000e+000 4.373334e+000
      vertex   4.842916e+000 7.000000e+000 3.756551e+000
      vertex   4.842916e+000 0.000000e+000 3.756551e+000
    endloop
  endfacet
  facet normal -9.980267e-001 0.000000e+000 6.279052e-002
    outer loop
      vertex   5.000000e+000 7.000000e+000 5.000000e+000
      vertex   4.960574e+000 7.000000e+000 4.373334e+000
      vertex   4.960574e+000 0.000000e+000 4.373334e+000
    endloop
  endfacet
  facet normal 0.000000e+000 1.000000e+000 0.000000e+000
    outer loop
      vertex   -1.714506e-015 7.000000e+000 -2.000000e+000
      vertex   -7.316992e-001 7.000000e+000 -1.961653e+000
      vertex   -3.139526e-001 7.000000e+000 9.866358e-003
    endloop
  endfacet
  facet normal 0.000000e+000 1.000000e+000 -0.000000e+000
    outer loop
      vertex   7.316992e-001 7.000000e+000 -1.961653e+000
      vertex   3.139526e-001 7.000000e+000 9.866358e-003
      vertex   9.369066e-001 7.000000e+000 8.856375e-002
    endloop
  endfacet
  facet normal 0.000000e+000 1.000000e+000 0.000000e+000
    outer loop
      vertex   3.139526e-001 7.000000e+000 9.866358e-003
      vertex   7.316992e-001 7.000000e+000 -1.961653e+000
      vertex   -1.714506e-015 7.000000e+000 -2.000000e+000
    endloop
  endfacet
  facet normal 0.000000e+000 1.000000e+000 0.000000e+000
    outer loop
      vertex   4.114497e+000 7.000000e+000 -6.631190e-001
      vertex   2.679134e+000 7.000000e+000 7.783604e-001
      vertex   3.187120e+000 7.000000e+000 1.147434e+000
    endloop
  endfacet
  facet normal 0.000000e+000 1.000000e+000 0.000000e+000
    outer loop
      vertex   2.847157e+000 7.000000e+000 -1.394818e+000
      vertex   2.163119e+000 7.000000e+000 -1.657396e+000
      vertex   1.545085e+000 7.000000e+000 2.447174e-001
    endloop
  endfacet
  facet normal 0.000000e+000 1.000000e+000 -0.000000e+000
    outer loop
      vertex   1.455382e+000 7.000000e+000 -1.847033e+000
      vertex   9.369066e-001 7.000000e+000 8.856375e-002
      vertex   1.545085e+000 7.000000e+000 2.447174e-001
    endloop
  endfacet
  facet normal -0.000000e+000 1.000000e+000 0.000000e+000
    outer loop
      vertex   -3.139526e-001 7.000000e+000 9.866358e-003
      vertex   3.139526e-001 7.000000e+000 9.866358e-003
      vertex   -1.714506e-015 7.000000e+000 -2.000000e+000
    endloop
  endfacet
  facet normal 0.000000e+000 1.000000e+000 0.000000e+000
    outer loop
      vertex   -7.316992e-001 7.000000e+000 -1.961653e+000
      vertex   -1.455382e+000 7.000000e+000 -1.847033e+000
      vertex   -9.369066e-001 7.000000e+000 8.856375e-002
    endloop
  endfacet
  facet normal 0.000000e+000 1.000000e+000 0.000000e+000
    outer loop
      vertex   4.683914e+000 7.000000e+000 -2.020138e-001
      vertex   3.187120e+000 7.000000e+000 1.147434e+000
      vertex   3.644843e+000 7.000000e+000 1.577264e+000
    endloop
  endfacet
  facet normal 0.000000e+000 1.000000e+000 0.000000e+000
    outer loop
      vertex   3.187120e+000 7.000000e+000 1.147434e+000
      vertex   4.683914e+000 7.000000e+000 -2.020138e-001
      vertex   4.114497e+000 7.000000e+000 -6.631190e-001
    endloop
  endfacet
  facet normal 0.000000e+000 1.000000e+000 0.000000e+000
    outer loop
      vertex   1.545085e+000 7.000000e+000 2.447174e-001
      vertex   2.163119e+000 7.000000e+000 -1.657396e+000
      vertex   1.455382e+000 7.000000e+000 -1.847033e+000
    endloop
  endfacet
  facet normal 0.000000e+000 1.000000e+000 0.000000e+000
    outer loop
      vertex   -9.369066e-001 7.000000e+000 8.856375e-002
      vertex   -3.139526e-001 7.000000e+000 9.866358e-003
      vertex   -7.316992e-001 7.000000e+000 -1.961653e+000
    endloop
  endfacet
  facet normal 0.000000e+000 1.000000e+000 0.000000e+000
    outer loop
      vertex   4.114497e+000 7.000000e+000 -6.631190e-001
      vertex   3.500000e+000 7.000000e+000 -1.062178e+000
      vertex   2.679134e+000 7.000000e+000 7.783604e-001
    endloop
  endfacet
  facet normal 0.000000e+000 1.000000e+000 0.000000e+000
    outer loop
      vertex   3.500000e+000 7.000000e+000 -1.062178e+000
      vertex   2.847157e+000 7.000000e+000 -1.394818e+000
      vertex   2.128896e+000 7.000000e+000 4.758647e-001
    endloop
  endfacet
  facet normal 0.000000e+000 1.000000e+000 0.000000e+000
    outer loop
      vertex   9.369066e-001 7.000000e+000 8.856375e-002
      vertex   1.455382e+000 7.000000e+000 -1.847033e+000
      vertex   7.316992e-001 7.000000e+000 -1.961653e+000
    endloop
  endfacet
  facet normal 0.000000e+000 1.000000e+000 0.000000e+000
    outer loop
      vertex   -1.455382e+000 7.000000e+000 -1.847033e+000
      vertex   -2.163119e+000 7.000000e+000 -1.657396e+000
      vertex   -1.545085e+000 7.000000e+000 2.447174e-001
    endloop
  endfacet
  facet normal 0.000000e+000 1.000000e+000 -0.000000e+000
    outer loop
      vertex   -4.114497e+000 7.000000e+000 -6.631190e-001
      vertex   -4.683914e+000 7.000000e+000 -2.020138e-001
      vertex   -3.187120e+000 7.000000e+000 1.147434e+000
    endloop
  endfacet
  facet normal 0.000000e+000 1.000000e+000 0.000000e+000
    outer loop
      vertex   6.657396e+000 7.000000e+000 2.836881e+000
      vertex   6.394818e+000 7.000000e+000 2.152843e+000
      vertex   4.648882e+000 7.000000e+000 3.159377e+000
    endloop
  endfacet
  facet normal -0.000000e+000 1.000000e+000 0.000000e+000
    outer loop
      vertex   2.128896e+000 7.000000e+000 4.758647e-001
      vertex   2.679134e+000 7.000000e+000 7.783604e-001
      vertex   3.500000e+000 7.000000e+000 -1.062178e+000
    endloop
  endfacet
  facet normal 0.000000e+000 1.000000e+000 0.000000e+000
    outer loop
      vertex   -1.545085e+000 7.000000e+000 2.447174e-001
      vertex   -9.369066e-001 7.000000e+000 8.856375e-002
      vertex   -1.455382e+000 7.000000e+000 -1.847033e+000
    endloop
  endfacet
  facet normal 0.000000e+000 1.000000e+000 0.000000e+000
    outer loop
      vertex   -3.500000e+000 7.000000e+000 -1.062178e+000
      vertex   -2.679134e+000 7.000000e+000 7.783604e-001
      vertex   -2.128896e+000 7.000000e+000 4.758647e-001
    endloop
  endfacet
  facet normal 0.000000e+000 1.000000e+000 0.000000e+000
    outer loop
      vertex   -2.679134e+000 7.000000e+000 7.783604e-001
      vertex   -3.500000e+000 7.000000e+000 -1.062178e+000
      vertex   -4.114497e+000 7.000000e+000 -6.631190e-001
    endloop
  endfacet
  facet normal 0.000000e+000 1.000000e+000 0.000000e+000
    outer loop
      vertex   6.847033e+000 7.000000e+000 3.544618e+000
      vertex   4.842916e+000 7.000000e+000 3.756551e+000
      vertex   4.960574e+000 7.000000e+000 4.373334e+000
    endloop
  endfacet
  facet normal 0.000000e+000 1.000000e+000 0.000000e+000
    outer loop
      vertex   4.842916e+000 7.000000e+000 3.756551e+000
      vertex   6.847033e+000 7.000000e+000 3.544618e+000
      vertex   6.657396e+000 7.000000e+000 2.836881e+000
    endloop
  endfacet
  facet normal 0.000000e+000 1.000000e+000 0.000000e+000
    outer loop
      vertex   6.394818e+000 7.000000e+000 2.152843e+000
      vertex   6.062178e+000 7.000000e+000 1.500000e+000
      vertex   4.381533e+000 7.000000e+000 2.591232e+000
    endloop
  endfacet
  facet normal 0.000000e+000 1.000000e+000 0.000000e+000
    outer loop
      vertex   6.062178e+000 7.000000e+000 1.500000e+000
      vertex   5.663119e+000 7.000000e+000 8.855032e-001
      vertex   4.045085e+000 7.000000e+000 2.061074e+000
    endloop
  endfacet
  facet normal -0.000000e+000 1.000000e+000 0.000000e+000
    outer loop
      vertex   1.545085e+000 7.000000e+000 2.447174e-001
      vertex   2.128896e+000 7.000000e+000 4.758647e-001
      vertex   2.847157e+000 7.000000e+000 -1.394818e+000
    endloop
  endfacet
  facet normal 0.000000e+000 1.000000e+000 0.000000e+000
    outer loop
      vertex   -2.847157e+000 7.000000e+000 -1.394818e+000
      vertex   -2.128896e+000 7.000000e+000 4.758647e-001
      vertex   -1.545085e+000 7.000000e+000 2.447174e-001
    endloop
  endfacet
  facet normal 0.000000e+000 1.000000e+000 0.000000e+000
    outer loop
      vertex   -3.187120e+000 7.000000e+000 1.147434e+000
      vertex   -2.679134e+000 7.000000e+000 7.783604e-001
      vertex   -4.114497e+000 7.000000e+000 -6.631190e-001
    endloop
  endfacet
  facet normal 0.000000e+000 1.000000e+000 -0.000000e+000
    outer loop
      vertex   -4.683914e+000 7.000000e+000 -2.020138e-001
      vertex   -5.202014e+000 7.000000e+000 3.160858e-001
      vertex   -3.644843e+000 7.000000e+000 1.577264e+000
    endloop
  endfacet
  facet normal 0.000000e+000 1.000000e+000 0.000000e+000
    outer loop
      vertex   6.961653e+000 7.000000e+000 4.268301e+000
      vertex   4.960574e+000 7.000000e+000 4.373334e+000
      vertex   5.000000e+000 7.000000e+000 5.000000e+000
    endloop
  endfacet
  facet normal -0.000000e+000 1.000000e+000 0.000000e+000
    outer loop
      vertex   4.648882e+000 7.000000e+000 3.159377e+000
      vertex   4.842916e+000 7.000000e+000 3.756551e+000
      vertex   6.657396e+000 7.000000e+000 2.836881e+000
    endloop
  endfacet
  facet normal -0.000000e+000 1.000000e+000 0.000000e+000
    outer loop
      vertex   4.045085e+000 7.000000e+000 2.061074e+000
      vertex   4.381533e+000 7.000000e+000 2.591232e+000
      vertex   6.062178e+000 7.000000e+000 1.500000e+000
    endloop
  endfacet
  facet normal 0.000000e+000 1.000000e+000 0.000000e+000
    outer loop
      vertex   5.202014e+000 7.000000e+000 3.160858e-001
      vertex   3.644843e+000 7.000000e+000 1.577264e+000
      vertex   4.045085e+000 7.000000e+000 2.061074e+000
    endloop
  endfacet
  facet normal 0.000000e+000 1.000000e+000 0.000000e+000
    outer loop
      vertex   -1.545085e+000 7.000000e+000 2.447174e-001
      vertex   -2.163119e+000 7.000000e+000 -1.657396e+000
      vertex   -2.847157e+000 7.000000e+000 -1.394818e+000
    endloop
  endfacet
  facet normal 0.000000e+000 1.000000e+000 0.000000e+000
    outer loop
      vertex   -3.644843e+000 7.000000e+000 1.577264e+000
      vertex   -3.187120e+000 7.000000e+000 1.147434e+000
      vertex   -4.683914e+000 7.000000e+000 -2.020138e-001
    endloop
  endfacet
  facet normal 0.000000e+000 1.000000e+000 -0.000000e+000
    outer loop
      vertex   -5.202014e+000 7.000000e+000 3.160858e-001
      vertex   -5.663119e+000 7.000000e+000 8.855032e-001
      vertex   -4.045085e+000 7.000000e+000 2.061074e+000
    endloop
  endfacet
  facet normal 0.000000e+000 1.000000e+000 0.000000e+000
    outer loop
      vertex   -6.062178e+000 7.000000e+000 1.500000e+000
      vertex   -4.381533e+000 7.000000e+000 2.591232e+000
      vertex   -4.045085e+000 7.000000e+000 2.061074e+000
    endloop
  endfacet
  facet normal 0.000000e+000 1.000000e+000 -0.000000e+000
    outer loop
      vertex   -6.657396e+000 7.000000e+000 2.836881e+000
      vertex   -6.847033e+000 7.000000e+000 3.544618e+000
      vertex   -4.842916e+000 7.000000e+000 3.756551e+000
    endloop
  endfacet
  facet normal 0.000000e+000 1.000000e+000 0.000000e+000
    outer loop
      vertex   4.960574e+000 7.000000e+000 4.373334e+000
      vertex   6.961653e+000 7.000000e+000 4.268301e+000
      vertex   6.847033e+000 7.000000e+000 3.544618e+000
    endloop
  endfacet
  facet normal 0.000000e+000 1.000000e+000 0.000000e+000
    outer loop
      vertex   4.045085e+000 7.000000e+000 2.061074e+000
      vertex   5.663119e+000 7.000000e+000 8.855032e-001
      vertex   5.202014e+000 7.000000e+000 3.160858e-001
    endloop
  endfacet
  facet normal 0.000000e+000 1.000000e+000 0.000000e+000
    outer loop
      vertex   -2.128896e+000 7.000000e+000 4.758647e-001
      vertex   -2.847157e+000 7.000000e+000 -1.394818e+000
      vertex   -3.500000e+000 7.000000e+000 -1.062178e+000
    endloop
  endfacet
  facet normal 0.000000e+000 1.000000e+000 0.000000e+000
    outer loop
      vertex   -4.045085e+000 7.000000e+000 2.061074e+000
      vertex   -5.663119e+000 7.000000e+000 8.855032e-001
      vertex   -6.062178e+000 7.000000e+000 1.500000e+000
    endloop
  endfacet
  facet normal 0.000000e+000 1.000000e+000 0.000000e+000
    outer loop
      vertex   -6.394818e+000 7.000000e+000 2.152843e+000
      vertex   -4.648882e+000 7.000000e+000 3.159377e+000
      vertex   -4.381533e+000 7.000000e+000 2.591232e+000
    endloop
  endfacet
  facet normal 0.000000e+000 1.000000e+000 0.000000e+000
    outer loop
      vertex   -4.648882e+000 7.000000e+000 3.159377e+000
      vertex   -6.394818e+000 7.000000e+000 2.152843e+000
      vertex   -6.657396e+000 7.000000e+000 2.836881e+000
    endloop
  endfacet
  facet normal 0.000000e+000 1.000000e+000 -0.000000e+000
    outer loop
      vertex   -6.847033e+000 7.000000e+000 3.544618e+000
      vertex   -6.961653e+000 7.000000e+000 4.268301e+000
      vertex   -4.960574e+000 7.000000e+000 4.373334e+000
    endloop
  endfacet
  facet normal 0.000000e+000 1.000000e+000 -0.000000e+000
    outer loop
      vertex   -6.961653e+000 7.000000e+000 4.268301e+000
      vertex   -7.000000e+000 7.000000e+000 5.000000e+000
      vertex   -5.000000e+000 7.000000e+000 5.000000e+000
    endloop
  endfacet
  facet normal -0.000000e+000 1.000000e+000 0.000000e+000
    outer loop
      vertex   4.381533e+000 7.000000e+000 2.591232e+000
      vertex   4.648882e+000 7.000000e+000 3.159377e+000
      vertex   6.394818e+000 7.000000e+000 2.152843e+000
    endloop
  endfacet
  facet normal 0.000000e+000 1.000000e+000 0.000000e+000
    outer loop
      vertex   -4.045085e+000 7.000000e+000 2.061074e+000
      vertex   -3.644843e+000 7.000000e+000 1.577264e+000
      vertex   -5.202014e+000 7.000000e+000 3.160858e-001
    endloop
  endfacet
  facet normal 0.000000e+000 1.000000e+000 0.000000e+000
    outer loop
      vertex   -4.842916e+000 7.000000e+000 3.756551e+000
      vertex   -4.648882e+000 7.000000e+000 3.159377e+000
      vertex   -6.657396e+000 7.000000e+000 2.836881e+000
    endloop
  endfacet
  facet normal 0.000000e+000 1.000000e+000 0.000000e+000
    outer loop
      vertex   -5.000000e+000 7.000000e+000 5.000000e+000
      vertex   -4.960574e+000 7.000000e+000 4.373334e+000
      vertex   -6.961653e+000 7.000000e+000 4.268301e+000
    endloop
  endfacet
  facet normal 0.000000e+000 1.000000e+000 0.000000e+000
    outer loop
      vertex   3.644843e+000 7.000000e+000 1.577264e+000
      vertex   5.202014e+000 7.000000e+000 3.160858e-001
      vertex   4.683914e+000 7.000000e+000 -2.020138e-001
    endloop
  endfacet
  facet normal 0.000000e+000 1.000000e+000 0.000000e+000
    outer loop
      vertex   -4.960574e+000 7.000000e+000 4.373334e+000
      vertex   -4.842916e+000 7.000000e+000 3.756551e+000
      vertex   -6.847033e+000 7.000000e+000 3.544618e+000
    endloop
  endfacet
  facet normal 0.000000e+000 1.000000e+000 0.000000e+000
    outer loop
      vertex   -4.381533e+000 7.000000e+000 2.591232e+000
      vertex   -6.062178e+000 7.000000e+000 1.500000e+000
      vertex   -6.394818e+000 7.000000e+000 2.152843e+000
    endloop
  endfacet
  facet normal 0.000000e+000 1.000000e+000 0.000000e+000
    outer loop
      vertex   5.000000e+000 7.000000e+000 5.000000e+000
      vertex   7.000000e+000 7.000000e+000 5.000000e+000
      vertex   6.961653e+000 7.000000e+000 4.268301e+000
    endloop
  endfacet
endsolid
