solid OpenSCAD_Model
  facet normal -1 0 0
    outer loop
      vertex -67.5 -57.5 1.38778e-17
      vertex -67.5 -57.5 0.2
      vertex -67.5 57.5 1.38778e-17
    endloop
  endfacet
  facet normal -1 0 0
    outer loop
      vertex -67.5 57.5 1.38778e-17
      vertex -67.5 -57.5 0.2
      vertex -67.5 57.5 0.2
    endloop
  endfacet
  facet normal 0 -1 0
    outer loop
      vertex -67.5 -57.5 0.2
      vertex -67.5 -57.5 1.38778e-17
      vertex 67.5 -57.5 1.38778e-17
    endloop
  endfacet
  facet normal 0 -1 0
    outer loop
      vertex 67.5 -57.5 0.2
      vertex -67.5 -57.5 0.2
      vertex 67.5 -57.5 1.38778e-17
    endloop
  endfacet
  facet normal 0 0 -1
    outer loop
      vertex -0.5 56.5 1.38778e-17
      vertex -67.5 57.5 1.38778e-17
      vertex 67.5 57.5 1.38778e-17
    endloop
  endfacet
  facet normal 0 0 -1
    outer loop
      vertex -67.5 -57.5 1.38778e-17
      vertex -67.5 57.5 1.38778e-17
      vertex -66.5 -0.5 1.38778e-17
    endloop
  endfacet
  facet normal 0 0 -1
    outer loop
      vertex 0.5 -56.5 1.38778e-17
      vertex -0.5 -0.5 1.38778e-17
      vertex 0.5 -0.5 1.38778e-17
    endloop
  endfacet
  facet normal 0 0 -1
    outer loop
      vertex -67.5 -57.5 1.38778e-17
      vertex -66.5 -0.5 1.38778e-17
      vertex -66.5 -56.5 1.38778e-17
    endloop
  endfacet
  facet normal 0 0 -1
    outer loop
      vertex -67.5 -57.5 1.38778e-17
      vertex -66.5 -56.5 1.38778e-17
      vertex 67.5 -57.5 1.38778e-17
    endloop
  endfacet
  facet normal 0 0 -1
    outer loop
      vertex -66.5 -56.5 1.38778e-17
      vertex -0.5 -56.5 1.38778e-17
      vertex 67.5 -57.5 1.38778e-17
    endloop
  endfacet
  facet normal 0 0 -1
    outer loop
      vertex -0.5 0.5 1.38778e-17
      vertex -0.5 -0.5 1.38778e-17
      vertex -66.5 0.5 1.38778e-17
    endloop
  endfacet
  facet normal 0 0 -1
    outer loop
      vertex -66.5 56.5 1.38778e-17
      vertex -67.5 57.5 1.38778e-17
      vertex -0.5 56.5 1.38778e-17
    endloop
  endfacet
  facet normal 0 0 -1
    outer loop
      vertex -66.5 -0.5 1.38778e-17
      vertex -67.5 57.5 1.38778e-17
      vertex -66.5 0.5 1.38778e-17
    endloop
  endfacet
  facet normal 0 0 -1
    outer loop
      vertex 0.5 56.5 1.38778e-17
      vertex 67.5 57.5 1.38778e-17
      vertex 66.5 56.5 1.38778e-17
    endloop
  endfacet
  facet normal 0 0 -1
    outer loop
      vertex -67.5 57.5 1.38778e-17
      vertex -66.5 56.5 1.38778e-17
      vertex -66.5 0.5 1.38778e-17
    endloop
  endfacet
  facet normal 0 0 -1
    outer loop
      vertex -66.5 -0.5 1.38778e-17
      vertex -66.5 0.5 1.38778e-17
      vertex -0.5 -0.5 1.38778e-17
    endloop
  endfacet
  facet normal 0 0 -1
    outer loop
      vertex 0.5 56.5 1.38778e-17
      vertex -0.5 56.5 1.38778e-17
      vertex 67.5 57.5 1.38778e-17
    endloop
  endfacet
  facet normal 0 0 -1
    outer loop
      vertex -0.5 0.5 1.38778e-17
      vertex 0.5 -0.5 1.38778e-17
      vertex -0.5 -0.5 1.38778e-17
    endloop
  endfacet
  facet normal 0 0 -1
    outer loop
      vertex -0.5 -56.5 1.38778e-17
      vertex 0.5 -56.5 1.38778e-17
      vertex 67.5 -57.5 1.38778e-17
    endloop
  endfacet
  facet normal 0 0 -1
    outer loop
      vertex 67.5 -57.5 1.38778e-17
      vertex 66.5 -56.5 1.38778e-17
      vertex 67.5 57.5 1.38778e-17
    endloop
  endfacet
  facet normal 0 0 -1
    outer loop
      vertex 66.5 -56.5 1.38778e-17
      vertex 66.5 -0.5 1.38778e-17
      vertex 67.5 57.5 1.38778e-17
    endloop
  endfacet
  facet normal 0 0 -1
    outer loop
      vertex -0.5 0.5 1.38778e-17
      vertex -0.5 56.5 1.38778e-17
      vertex 0.5 56.5 1.38778e-17
    endloop
  endfacet
  facet normal 0 0 -1
    outer loop
      vertex 0.5 0.5 1.38778e-17
      vertex -0.5 0.5 1.38778e-17
      vertex 0.5 56.5 1.38778e-17
    endloop
  endfacet
  facet normal 0 0 -1
    outer loop
      vertex 66.5 -0.5 1.38778e-17
      vertex -0.5 0.5 1.38778e-17
      vertex 0.5 0.5 1.38778e-17
    endloop
  endfacet
  facet normal 0 0 -1
    outer loop
      vertex 66.5 -0.5 1.38778e-17
      vertex 0.5 0.5 1.38778e-17
      vertex 66.5 0.5 1.38778e-17
    endloop
  endfacet
  facet normal 0 0 -1
    outer loop
      vertex 66.5 -0.5 1.38778e-17
      vertex 66.5 0.5 1.38778e-17
      vertex 67.5 57.5 1.38778e-17
    endloop
  endfacet
  facet normal 0 0 -1
    outer loop
      vertex 66.5 0.5 1.38778e-17
      vertex 66.5 56.5 1.38778e-17
      vertex 67.5 57.5 1.38778e-17
    endloop
  endfacet
  facet normal 0 0 -1
    outer loop
      vertex 66.5 -56.5 1.38778e-17
      vertex 67.5 -57.5 1.38778e-17
      vertex 0.5 -56.5 1.38778e-17
    endloop
  endfacet
  facet normal 0 0 -1
    outer loop
      vertex -0.5 -0.5 1.38778e-17
      vertex 0.5 -56.5 1.38778e-17
      vertex -0.5 -56.5 1.38778e-17
    endloop
  endfacet
  facet normal 0 0 -1
    outer loop
      vertex 0.5 -0.5 1.38778e-17
      vertex -0.5 0.5 1.38778e-17
      vertex 66.5 -0.5 1.38778e-17
    endloop
  endfacet
  facet normal 0 1 0
    outer loop
      vertex -67.5 57.5 1.38778e-17
      vertex -67.5 57.5 0.2
      vertex 67.5 57.5 1.38778e-17
    endloop
  endfacet
  facet normal 0 1 0
    outer loop
      vertex 67.5 57.5 1.38778e-17
      vertex -67.5 57.5 0.2
      vertex 67.5 57.5 0.2
    endloop
  endfacet
  facet normal 0 0 1
    outer loop
      vertex -66.5 -56.5 0.2
      vertex -67.5 -57.5 0.2
      vertex 67.5 -57.5 0.2
    endloop
  endfacet
  facet normal 0 0 1
    outer loop
      vertex 0.5 -0.5 0.2
      vertex 66.5 -0.5 0.2
      vertex 0.5 0.5 0.2
    endloop
  endfacet
  facet normal 0 0 1
    outer loop
      vertex -0.5 -56.5 0.2
      vertex -66.5 -56.5 0.2
      vertex 67.5 -57.5 0.2
    endloop
  endfacet
  facet normal 0 0 1
    outer loop
      vertex -67.5 57.5 0.2
      vertex -67.5 -57.5 0.2
      vertex -66.5 -56.5 0.2
    endloop
  endfacet
  facet normal 0 0 1
    outer loop
      vertex 0.5 -0.5 0.2
      vertex 0.5 0.5 0.2
      vertex -0.5 0.5 0.2
    endloop
  endfacet
  facet normal 0 0 1
    outer loop
      vertex -67.5 57.5 0.2
      vertex -66.5 -56.5 0.2
      vertex -66.5 -0.5 0.2
    endloop
  endfacet
  facet normal 0 0 1
    outer loop
      vertex -66.5 0.5 0.2
      vertex -66.5 -0.5 0.2
      vertex -0.5 -0.5 0.2
    endloop
  endfacet
  facet normal 0 0 1
    outer loop
      vertex 0.5 -56.5 0.2
      vertex -0.5 -56.5 0.2
      vertex 67.5 -57.5 0.2
    endloop
  endfacet
  facet normal 0 0 1
    outer loop
      vertex -67.5 57.5 0.2
      vertex -66.5 -0.5 0.2
      vertex -66.5 0.5 0.2
    endloop
  endfacet
  facet normal 0 0 1
    outer loop
      vertex -66.5 56.5 0.2
      vertex -0.5 56.5 0.2
      vertex -67.5 57.5 0.2
    endloop
  endfacet
  facet normal 0 0 1
    outer loop
      vertex -67.5 57.5 0.2
      vertex -66.5 0.5 0.2
      vertex -66.5 56.5 0.2
    endloop
  endfacet
  facet normal 0 0 1
    outer loop
      vertex 0.5 0.5 0.2
      vertex 0.5 56.5 0.2
      vertex -0.5 56.5 0.2
    endloop
  endfacet
  facet normal 0 0 1
    outer loop
      vertex 67.5 57.5 0.2
      vertex -67.5 57.5 0.2
      vertex -0.5 56.5 0.2
    endloop
  endfacet
  facet normal 0 0 1
    outer loop
      vertex 0.5 -56.5 0.2
      vertex 0.5 -0.5 0.2
      vertex -0.5 -0.5 0.2
    endloop
  endfacet
  facet normal 0 0 1
    outer loop
      vertex 66.5 -56.5 0.2
      vertex 0.5 -56.5 0.2
      vertex 67.5 -57.5 0.2
    endloop
  endfacet
  facet normal 0 0 1
    outer loop
      vertex 67.5 57.5 0.2
      vertex 66.5 -0.5 0.2
      vertex 67.5 -57.5 0.2
    endloop
  endfacet
  facet normal 0 0 1
    outer loop
      vertex 66.5 0.5 0.2
      vertex 0.5 0.5 0.2
      vertex 66.5 -0.5 0.2
    endloop
  endfacet
  facet normal 0 0 1
    outer loop
      vertex -0.5 56.5 0.2
      vertex -0.5 0.5 0.2
      vertex 0.5 0.5 0.2
    endloop
  endfacet
  facet normal 0 0 1
    outer loop
      vertex 67.5 57.5 0.2
      vertex -0.5 56.5 0.2
      vertex 0.5 56.5 0.2
    endloop
  endfacet
  facet normal 0 0 1
    outer loop
      vertex 67.5 57.5 0.2
      vertex 0.5 56.5 0.2
      vertex 66.5 56.5 0.2
    endloop
  endfacet
  facet normal 0 0 1
    outer loop
      vertex 67.5 57.5 0.2
      vertex 66.5 0.5 0.2
      vertex 66.5 -0.5 0.2
    endloop
  endfacet
  facet normal 0 0 1
    outer loop
      vertex 67.5 57.5 0.2
      vertex 66.5 56.5 0.2
      vertex 66.5 0.5 0.2
    endloop
  endfacet
  facet normal 0 0 1
    outer loop
      vertex 66.5 -0.5 0.2
      vertex 66.5 -56.5 0.2
      vertex 67.5 -57.5 0.2
    endloop
  endfacet
  facet normal 0 0 1
    outer loop
      vertex -0.5 -0.5 0.2
      vertex -0.5 -56.5 0.2
      vertex 0.5 -56.5 0.2
    endloop
  endfacet
  facet normal 0 0 1
    outer loop
      vertex -0.5 0.5 0.2
      vertex -0.5 -0.5 0.2
      vertex 0.5 -0.5 0.2
    endloop
  endfacet
  facet normal 0 0 1
    outer loop
      vertex -0.5 0.5 0.2
      vertex -66.5 0.5 0.2
      vertex -0.5 -0.5 0.2
    endloop
  endfacet
  facet normal 1 0 0
    outer loop
      vertex 67.5 -57.5 0.2
      vertex 67.5 -57.5 1.38778e-17
      vertex 67.5 57.5 1.38778e-17
    endloop
  endfacet
  facet normal 1 0 0
    outer loop
      vertex 67.5 57.5 0.2
      vertex 67.5 -57.5 0.2
      vertex 67.5 57.5 1.38778e-17
    endloop
  endfacet
  facet normal 1 0 0
    outer loop
      vertex -66.5 -0.5 1.38778e-17
      vertex -66.5 -0.5 0.2
      vertex -66.5 -56.5 0.2
    endloop
  endfacet
  facet normal 1 0 0
    outer loop
      vertex -66.5 -56.5 1.38778e-17
      vertex -66.5 -0.5 1.38778e-17
      vertex -66.5 -56.5 0.2
    endloop
  endfacet
  facet normal 0 -1 0
    outer loop
      vertex -66.5 -0.5 0.2
      vertex -66.5 -0.5 1.38778e-17
      vertex -0.5 -0.5 1.38778e-17
    endloop
  endfacet
  facet normal 0 -1 0
    outer loop
      vertex -0.5 -0.5 0.2
      vertex -66.5 -0.5 0.2
      vertex -0.5 -0.5 1.38778e-17
    endloop
  endfacet
  facet normal -1 0 0
    outer loop
      vertex -0.5 -56.5 1.38778e-17
      vertex -0.5 -56.5 0.2
      vertex -0.5 -0.5 1.38778e-17
    endloop
  endfacet
  facet normal -1 0 0
    outer loop
      vertex -0.5 -0.5 1.38778e-17
      vertex -0.5 -56.5 0.2
      vertex -0.5 -0.5 0.2
    endloop
  endfacet
  facet normal 0 1 0
    outer loop
      vertex -0.5 -56.5 0.2
      vertex -0.5 -56.5 1.38778e-17
      vertex -66.5 -56.5 0.2
    endloop
  endfacet
  facet normal 0 1 0
    outer loop
      vertex -66.5 -56.5 0.2
      vertex -0.5 -56.5 1.38778e-17
      vertex -66.5 -56.5 1.38778e-17
    endloop
  endfacet
  facet normal 1 0 0
    outer loop
      vertex -66.5 56.5 1.38778e-17
      vertex -66.5 56.5 0.2
      vertex -66.5 0.5 0.2
    endloop
  endfacet
  facet normal 1 0 0
    outer loop
      vertex -66.5 0.5 1.38778e-17
      vertex -66.5 56.5 1.38778e-17
      vertex -66.5 0.5 0.2
    endloop
  endfacet
  facet normal 0 -1 0
    outer loop
      vertex -0.5 56.5 1.38778e-17
      vertex -0.5 56.5 0.2
      vertex -66.5 56.5 0.2
    endloop
  endfacet
  facet normal 0 -1 0
    outer loop
      vertex -66.5 56.5 1.38778e-17
      vertex -0.5 56.5 1.38778e-17
      vertex -66.5 56.5 0.2
    endloop
  endfacet
  facet normal -1 0 0
    outer loop
      vertex -0.5 0.5 1.38778e-17
      vertex -0.5 0.5 0.2
      vertex -0.5 56.5 1.38778e-17
    endloop
  endfacet
  facet normal -1 0 0
    outer loop
      vertex -0.5 56.5 1.38778e-17
      vertex -0.5 0.5 0.2
      vertex -0.5 56.5 0.2
    endloop
  endfacet
  facet normal 0 1 0
    outer loop
      vertex -66.5 0.5 1.38778e-17
      vertex -66.5 0.5 0.2
      vertex -0.5 0.5 1.38778e-17
    endloop
  endfacet
  facet normal 0 1 0
    outer loop
      vertex -0.5 0.5 1.38778e-17
      vertex -66.5 0.5 0.2
      vertex -0.5 0.5 0.2
    endloop
  endfacet
  facet normal 1 0 0
    outer loop
      vertex 0.5 -56.5 0.2
      vertex 0.5 -56.5 1.38778e-17
      vertex 0.5 -0.5 1.38778e-17
    endloop
  endfacet
  facet normal 1 0 0
    outer loop
      vertex 0.5 -0.5 0.2
      vertex 0.5 -56.5 0.2
      vertex 0.5 -0.5 1.38778e-17
    endloop
  endfacet
  facet normal 0 -1 0
    outer loop
      vertex 0.5 -0.5 0.2
      vertex 0.5 -0.5 1.38778e-17
      vertex 66.5 -0.5 1.38778e-17
    endloop
  endfacet
  facet normal 0 -1 0
    outer loop
      vertex 66.5 -0.5 0.2
      vertex 0.5 -0.5 0.2
      vertex 66.5 -0.5 1.38778e-17
    endloop
  endfacet
  facet normal -1 0 0
    outer loop
      vertex 66.5 -0.5 0.2
      vertex 66.5 -0.5 1.38778e-17
      vertex 66.5 -56.5 0.2
    endloop
  endfacet
  facet normal -1 0 0
    outer loop
      vertex 66.5 -56.5 0.2
      vertex 66.5 -0.5 1.38778e-17
      vertex 66.5 -56.5 1.38778e-17
    endloop
  endfacet
  facet normal 0 1 0
    outer loop
      vertex 66.5 -56.5 0.2
      vertex 66.5 -56.5 1.38778e-17
      vertex 0.5 -56.5 0.2
    endloop
  endfacet
  facet normal 0 1 0
    outer loop
      vertex 0.5 -56.5 0.2
      vertex 66.5 -56.5 1.38778e-17
      vertex 0.5 -56.5 1.38778e-17
    endloop
  endfacet
  facet normal 1 0 0
    outer loop
      vertex 0.5 0.5 0.2
      vertex 0.5 0.5 1.38778e-17
      vertex 0.5 56.5 1.38778e-17
    endloop
  endfacet
  facet normal 1 0 0
    outer loop
      vertex 0.5 56.5 0.2
      vertex 0.5 0.5 0.2
      vertex 0.5 56.5 1.38778e-17
    endloop
  endfacet
  facet normal 0 -1 0
    outer loop
      vertex 66.5 56.5 1.38778e-17
      vertex 66.5 56.5 0.2
      vertex 0.5 56.5 0.2
    endloop
  endfacet
  facet normal 0 -1 0
    outer loop
      vertex 0.5 56.5 1.38778e-17
      vertex 66.5 56.5 1.38778e-17
      vertex 0.5 56.5 0.2
    endloop
  endfacet
  facet normal -1 0 0
    outer loop
      vertex 66.5 56.5 0.2
      vertex 66.5 56.5 1.38778e-17
      vertex 66.5 0.5 0.2
    endloop
  endfacet
  facet normal -1 0 0
    outer loop
      vertex 66.5 0.5 0.2
      vertex 66.5 56.5 1.38778e-17
      vertex 66.5 0.5 1.38778e-17
    endloop
  endfacet
  facet normal 0 1 0
    outer loop
      vertex 0.5 0.5 1.38778e-17
      vertex 0.5 0.5 0.2
      vertex 66.5 0.5 1.38778e-17
    endloop
  endfacet
  facet normal 0 1 0
    outer loop
      vertex 66.5 0.5 1.38778e-17
      vertex 0.5 0.5 0.2
      vertex 66.5 0.5 0.2
    endloop
  endfacet
endsolid OpenSCAD_Model
