solid ascii
  facet normal 1.045285e-001 0.000000e+000 9.945219e-001
    outer loop
      vertex   -1.136385e+001 -8.000000e+000 -1.711758e+000
      vertex   -1.100000e+001 -8.000000e+000 -1.750000e+000
      vertex   -1.100000e+001 8.000000e+000 -1.750000e+000
    endloop
  endfacet
  facet normal 3.090170e-001 0.000000e+000 9.510565e-001
    outer loop
      vertex   -1.171179e+001 -8.000000e+000 -1.598705e+000
      vertex   -1.136385e+001 -8.000000e+000 -1.711758e+000
      vertex   -1.136385e+001 8.000000e+000 -1.711758e+000
    endloop
  endfacet
  facet normal 5.000000e-001 0.000000e+000 8.660254e-001
    outer loop
      vertex   -1.202862e+001 -8.000000e+000 -1.415780e+000
      vertex   -1.171179e+001 -8.000000e+000 -1.598705e+000
      vertex   -1.171179e+001 8.000000e+000 -1.598705e+000
    endloop
  endfacet
  facet normal 6.691306e-001 0.000000e+000 7.431448e-001
    outer loop
      vertex   -1.230050e+001 -8.000000e+000 -1.170979e+000
      vertex   -1.202862e+001 -8.000000e+000 -1.415780e+000
      vertex   -1.202862e+001 8.000000e+000 -1.415780e+000
    endloop
  endfacet
  facet normal 8.090170e-001 0.000000e+000 5.877853e-001
    outer loop
      vertex   -1.251554e+001 -8.000000e+000 -8.750000e-001
      vertex   -1.230050e+001 -8.000000e+000 -1.170979e+000
      vertex   -1.230050e+001 8.000000e+000 -1.170979e+000
    endloop
  endfacet
  facet normal 9.135455e-001 0.000000e+000 4.067366e-001
    outer loop
      vertex   -1.266435e+001 -8.000000e+000 -5.407797e-001
      vertex   -1.251554e+001 -8.000000e+000 -8.750000e-001
      vertex   -1.251554e+001 8.000000e+000 -8.750000e-001
    endloop
  endfacet
  facet normal 9.781476e-001 0.000000e+000 2.079117e-001
    outer loop
      vertex   -1.274041e+001 -8.000000e+000 -1.829248e-001
      vertex   -1.266435e+001 -8.000000e+000 -5.407797e-001
      vertex   -1.266435e+001 8.000000e+000 -5.407797e-001
    endloop
  endfacet
  facet normal 1.000000e+000 0.000000e+000 -4.741630e-015
    outer loop
      vertex   -1.274041e+001 -8.000000e+000 1.829248e-001
      vertex   -1.274041e+001 -8.000000e+000 -1.829248e-001
      vertex   -1.274041e+001 8.000000e+000 -1.829248e-001
    endloop
  endfacet
  facet normal 9.781476e-001 0.000000e+000 -2.079117e-001
    outer loop
      vertex   -1.266435e+001 -8.000000e+000 5.407797e-001
      vertex   -1.274041e+001 -8.000000e+000 1.829248e-001
      vertex   -1.274041e+001 8.000000e+000 1.829248e-001
    endloop
  endfacet
  facet normal 9.135455e-001 0.000000e+000 -4.067366e-001
    outer loop
      vertex   -1.251554e+001 -8.000000e+000 8.750000e-001
      vertex   -1.266435e+001 -8.000000e+000 5.407797e-001
      vertex   -1.266435e+001 8.000000e+000 5.407797e-001
    endloop
  endfacet
  facet normal 8.090170e-001 0.000000e+000 -5.877853e-001
    outer loop
      vertex   -1.230050e+001 -8.000000e+000 1.170979e+000
      vertex   -1.251554e+001 -8.000000e+000 8.750000e-001
      vertex   -1.251554e+001 8.000000e+000 8.750000e-001
    endloop
  endfacet
  facet normal 6.691306e-001 0.000000e+000 -7.431448e-001
    outer loop
      vertex   -1.202862e+001 -8.000000e+000 1.415780e+000
      vertex   -1.230050e+001 -8.000000e+000 1.170979e+000
      vertex   -1.230050e+001 8.000000e+000 1.170979e+000
    endloop
  endfacet
  facet normal 5.000000e-001 0.000000e+000 -8.660254e-001
    outer loop
      vertex   -1.171179e+001 -8.000000e+000 1.598705e+000
      vertex   -1.202862e+001 -8.000000e+000 1.415780e+000
      vertex   -1.202862e+001 8.000000e+000 1.415780e+000
    endloop
  endfacet
  facet normal 3.090170e-001 0.000000e+000 -9.510565e-001
    outer loop
      vertex   -1.136385e+001 -8.000000e+000 1.711758e+000
      vertex   -1.171179e+001 -8.000000e+000 1.598705e+000
      vertex   -1.171179e+001 8.000000e+000 1.598705e+000
    endloop
  endfacet
  facet normal 1.045285e-001 0.000000e+000 -9.945219e-001
    outer loop
      vertex   -1.100000e+001 -8.000000e+000 1.750000e+000
      vertex   -1.136385e+001 -8.000000e+000 1.711758e+000
      vertex   -1.136385e+001 8.000000e+000 1.711758e+000
    endloop
  endfacet
  facet normal -1.045285e-001 0.000000e+000 -9.945219e-001
    outer loop
      vertex   -1.063615e+001 -8.000000e+000 1.711758e+000
      vertex   -1.100000e+001 -8.000000e+000 1.750000e+000
      vertex   -1.100000e+001 8.000000e+000 1.750000e+000
    endloop
  endfacet
  facet normal -3.090170e-001 0.000000e+000 -9.510565e-001
    outer loop
      vertex   -1.028821e+001 -8.000000e+000 1.598705e+000
      vertex   -1.063615e+001 -8.000000e+000 1.711758e+000
      vertex   -1.063615e+001 8.000000e+000 1.711758e+000
    endloop
  endfacet
  facet normal -5.000000e-001 0.000000e+000 -8.660254e-001
    outer loop
      vertex   -9.971376e+000 -8.000000e+000 1.415780e+000
      vertex   -1.028821e+001 -8.000000e+000 1.598705e+000
      vertex   -1.028821e+001 8.000000e+000 1.598705e+000
    endloop
  endfacet
  facet normal -6.691306e-001 0.000000e+000 -7.431448e-001
    outer loop
      vertex   -9.699497e+000 -8.000000e+000 1.170979e+000
      vertex   -9.971376e+000 -8.000000e+000 1.415780e+000
      vertex   -9.971376e+000 8.000000e+000 1.415780e+000
    endloop
  endfacet
  facet normal -8.090170e-001 0.000000e+000 -5.877853e-001
    outer loop
      vertex   -9.484456e+000 -8.000000e+000 8.750000e-001
      vertex   -9.699497e+000 -8.000000e+000 1.170979e+000
      vertex   -9.699497e+000 8.000000e+000 1.170979e+000
    endloop
  endfacet
  facet normal -9.135455e-001 0.000000e+000 -4.067366e-001
    outer loop
      vertex   -9.335651e+000 -8.000000e+000 5.407797e-001
      vertex   -9.484456e+000 -8.000000e+000 8.750000e-001
      vertex   -9.484456e+000 8.000000e+000 8.750000e-001
    endloop
  endfacet
  facet normal -9.781476e-001 0.000000e+000 -2.079117e-001
    outer loop
      vertex   -9.259587e+000 -8.000000e+000 1.829248e-001
      vertex   -9.335651e+000 -8.000000e+000 5.407797e-001
      vertex   -9.335651e+000 8.000000e+000 5.407797e-001
    endloop
  endfacet
  facet normal -9.986295e-001 0.000000e+000 5.233596e-002
    outer loop
      vertex   -9.259587e+000 8.000000e+000 -1.829248e-001
      vertex   -9.259587e+000 -8.000000e+000 -1.829248e-001
      vertex   -9.250000e+000 -8.000000e+000 -1.021021e-016
    endloop
  endfacet
  facet normal -9.999998e-001 -5.991676e-004 4.743546e-015
    outer loop
      vertex   -9.250000e+000 -8.000000e+000 -1.021021e-016
      vertex   -9.259587e+000 8.000000e+000 1.829248e-001
      vertex   -9.259587e+000 8.000000e+000 -1.829248e-001
    endloop
  endfacet
  facet normal -9.781476e-001 0.000000e+000 2.079117e-001
    outer loop
      vertex   -9.335651e+000 -8.000000e+000 -5.407797e-001
      vertex   -9.259587e+000 -8.000000e+000 -1.829248e-001
      vertex   -9.259587e+000 8.000000e+000 -1.829248e-001
    endloop
  endfacet
  facet normal -9.135455e-001 0.000000e+000 4.067366e-001
    outer loop
      vertex   -9.484456e+000 -8.000000e+000 -8.750000e-001
      vertex   -9.335651e+000 -8.000000e+000 -5.407797e-001
      vertex   -9.335651e+000 8.000000e+000 -5.407797e-001
    endloop
  endfacet
  facet normal -8.090170e-001 0.000000e+000 5.877853e-001
    outer loop
      vertex   -9.699497e+000 -8.000000e+000 -1.170979e+000
      vertex   -9.484456e+000 -8.000000e+000 -8.750000e-001
      vertex   -9.484456e+000 8.000000e+000 -8.750000e-001
    endloop
  endfacet
  facet normal -6.691306e-001 0.000000e+000 7.431448e-001
    outer loop
      vertex   -9.971376e+000 -8.000000e+000 -1.415780e+000
      vertex   -9.699497e+000 -8.000000e+000 -1.170979e+000
      vertex   -9.699497e+000 8.000000e+000 -1.170979e+000
    endloop
  endfacet
  facet normal -5.000000e-001 0.000000e+000 8.660254e-001
    outer loop
      vertex   -1.028821e+001 -8.000000e+000 -1.598705e+000
      vertex   -9.971376e+000 -8.000000e+000 -1.415780e+000
      vertex   -9.971376e+000 8.000000e+000 -1.415780e+000
    endloop
  endfacet
  facet normal -3.090170e-001 0.000000e+000 9.510565e-001
    outer loop
      vertex   -1.063615e+001 -8.000000e+000 -1.711758e+000
      vertex   -1.028821e+001 -8.000000e+000 -1.598705e+000
      vertex   -1.028821e+001 8.000000e+000 -1.598705e+000
    endloop
  endfacet
  facet normal -1.045285e-001 0.000000e+000 9.945219e-001
    outer loop
      vertex   -1.100000e+001 -8.000000e+000 -1.750000e+000
      vertex   -1.063615e+001 -8.000000e+000 -1.711758e+000
      vertex   -1.063615e+001 8.000000e+000 -1.711758e+000
    endloop
  endfacet
  facet normal -1.045285e-001 0.000000e+000 9.945219e-001
    outer loop
      vertex   -1.063615e+001 8.000000e+000 -1.711758e+000
      vertex   -1.100000e+001 8.000000e+000 -1.750000e+000
      vertex   -1.100000e+001 -8.000000e+000 -1.750000e+000
    endloop
  endfacet
  facet normal -3.090170e-001 0.000000e+000 9.510565e-001
    outer loop
      vertex   -1.028821e+001 8.000000e+000 -1.598705e+000
      vertex   -1.063615e+001 8.000000e+000 -1.711758e+000
      vertex   -1.063615e+001 -8.000000e+000 -1.711758e+000
    endloop
  endfacet
  facet normal -5.000000e-001 0.000000e+000 8.660254e-001
    outer loop
      vertex   -9.971376e+000 8.000000e+000 -1.415780e+000
      vertex   -1.028821e+001 8.000000e+000 -1.598705e+000
      vertex   -1.028821e+001 -8.000000e+000 -1.598705e+000
    endloop
  endfacet
  facet normal -6.691306e-001 0.000000e+000 7.431448e-001
    outer loop
      vertex   -9.699497e+000 8.000000e+000 -1.170979e+000
      vertex   -9.971376e+000 8.000000e+000 -1.415780e+000
      vertex   -9.971376e+000 -8.000000e+000 -1.415780e+000
    endloop
  endfacet
  facet normal -8.090170e-001 0.000000e+000 5.877853e-001
    outer loop
      vertex   -9.484456e+000 8.000000e+000 -8.750000e-001
      vertex   -9.699497e+000 8.000000e+000 -1.170979e+000
      vertex   -9.699497e+000 -8.000000e+000 -1.170979e+000
    endloop
  endfacet
  facet normal -9.135455e-001 0.000000e+000 4.067366e-001
    outer loop
      vertex   -9.335651e+000 8.000000e+000 -5.407797e-001
      vertex   -9.484456e+000 8.000000e+000 -8.750000e-001
      vertex   -9.484456e+000 -8.000000e+000 -8.750000e-001
    endloop
  endfacet
  facet normal -9.781476e-001 0.000000e+000 2.079117e-001
    outer loop
      vertex   -9.259587e+000 8.000000e+000 -1.829248e-001
      vertex   -9.335651e+000 8.000000e+000 -5.407797e-001
      vertex   -9.335651e+000 -8.000000e+000 -5.407797e-001
    endloop
  endfacet
  facet normal -9.986295e-001 0.000000e+000 -5.233596e-002
    outer loop
      vertex   -9.250000e+000 -8.000000e+000 -1.021021e-016
      vertex   -9.259587e+000 -8.000000e+000 1.829248e-001
      vertex   -9.259587e+000 8.000000e+000 1.829248e-001
    endloop
  endfacet
  facet normal -9.781476e-001 0.000000e+000 -2.079117e-001
    outer loop
      vertex   -9.335651e+000 8.000000e+000 5.407797e-001
      vertex   -9.259587e+000 8.000000e+000 1.829248e-001
      vertex   -9.259587e+000 -8.000000e+000 1.829248e-001
    endloop
  endfacet
  facet normal -9.135455e-001 0.000000e+000 -4.067366e-001
    outer loop
      vertex   -9.484456e+000 8.000000e+000 8.750000e-001
      vertex   -9.335651e+000 8.000000e+000 5.407797e-001
      vertex   -9.335651e+000 -8.000000e+000 5.407797e-001
    endloop
  endfacet
  facet normal -8.090170e-001 0.000000e+000 -5.877853e-001
    outer loop
      vertex   -9.699497e+000 8.000000e+000 1.170979e+000
      vertex   -9.484456e+000 8.000000e+000 8.750000e-001
      vertex   -9.484456e+000 -8.000000e+000 8.750000e-001
    endloop
  endfacet
  facet normal -6.691306e-001 0.000000e+000 -7.431448e-001
    outer loop
      vertex   -9.971376e+000 8.000000e+000 1.415780e+000
      vertex   -9.699497e+000 8.000000e+000 1.170979e+000
      vertex   -9.699497e+000 -8.000000e+000 1.170979e+000
    endloop
  endfacet
  facet normal -5.000000e-001 0.000000e+000 -8.660254e-001
    outer loop
      vertex   -1.028821e+001 8.000000e+000 1.598705e+000
      vertex   -9.971376e+000 8.000000e+000 1.415780e+000
      vertex   -9.971376e+000 -8.000000e+000 1.415780e+000
    endloop
  endfacet
  facet normal -3.090170e-001 0.000000e+000 -9.510565e-001
    outer loop
      vertex   -1.063615e+001 8.000000e+000 1.711758e+000
      vertex   -1.028821e+001 8.000000e+000 1.598705e+000
      vertex   -1.028821e+001 -8.000000e+000 1.598705e+000
    endloop
  endfacet
  facet normal -1.045285e-001 0.000000e+000 -9.945219e-001
    outer loop
      vertex   -1.100000e+001 8.000000e+000 1.750000e+000
      vertex   -1.063615e+001 8.000000e+000 1.711758e+000
      vertex   -1.063615e+001 -8.000000e+000 1.711758e+000
    endloop
  endfacet
  facet normal 1.045285e-001 0.000000e+000 -9.945219e-001
    outer loop
      vertex   -1.136385e+001 8.000000e+000 1.711758e+000
      vertex   -1.100000e+001 8.000000e+000 1.750000e+000
      vertex   -1.100000e+001 -8.000000e+000 1.750000e+000
    endloop
  endfacet
  facet normal 3.090170e-001 0.000000e+000 -9.510565e-001
    outer loop
      vertex   -1.171179e+001 8.000000e+000 1.598705e+000
      vertex   -1.136385e+001 8.000000e+000 1.711758e+000
      vertex   -1.136385e+001 -8.000000e+000 1.711758e+000
    endloop
  endfacet
  facet normal 5.000000e-001 0.000000e+000 -8.660254e-001
    outer loop
      vertex   -1.202862e+001 8.000000e+000 1.415780e+000
      vertex   -1.171179e+001 8.000000e+000 1.598705e+000
      vertex   -1.171179e+001 -8.000000e+000 1.598705e+000
    endloop
  endfacet
  facet normal 6.691306e-001 0.000000e+000 -7.431448e-001
    outer loop
      vertex   -1.230050e+001 8.000000e+000 1.170979e+000
      vertex   -1.202862e+001 8.000000e+000 1.415780e+000
      vertex   -1.202862e+001 -8.000000e+000 1.415780e+000
    endloop
  endfacet
  facet normal 8.090170e-001 0.000000e+000 -5.877853e-001
    outer loop
      vertex   -1.251554e+001 8.000000e+000 8.750000e-001
      vertex   -1.230050e+001 8.000000e+000 1.170979e+000
      vertex   -1.230050e+001 -8.000000e+000 1.170979e+000
    endloop
  endfacet
  facet normal 9.135455e-001 0.000000e+000 -4.067366e-001
    outer loop
      vertex   -1.266435e+001 8.000000e+000 5.407797e-001
      vertex   -1.251554e+001 8.000000e+000 8.750000e-001
      vertex   -1.251554e+001 -8.000000e+000 8.750000e-001
    endloop
  endfacet
  facet normal 9.781476e-001 0.000000e+000 -2.079117e-001
    outer loop
      vertex   -1.274041e+001 8.000000e+000 1.829248e-001
      vertex   -1.266435e+001 8.000000e+000 5.407797e-001
      vertex   -1.266435e+001 -8.000000e+000 5.407797e-001
    endloop
  endfacet
  facet normal 1.000000e+000 0.000000e+000 -4.741630e-015
    outer loop
      vertex   -1.274041e+001 8.000000e+000 -1.829248e-001
      vertex   -1.274041e+001 8.000000e+000 1.829248e-001
      vertex   -1.274041e+001 -8.000000e+000 1.829248e-001
    endloop
  endfacet
  facet normal 9.781476e-001 0.000000e+000 2.079117e-001
    outer loop
      vertex   -1.266435e+001 8.000000e+000 -5.407797e-001
      vertex   -1.274041e+001 8.000000e+000 -1.829248e-001
      vertex   -1.274041e+001 -8.000000e+000 -1.829248e-001
    endloop
  endfacet
  facet normal 9.135455e-001 0.000000e+000 4.067366e-001
    outer loop
      vertex   -1.251554e+001 8.000000e+000 -8.750000e-001
      vertex   -1.266435e+001 8.000000e+000 -5.407797e-001
      vertex   -1.266435e+001 -8.000000e+000 -5.407797e-001
    endloop
  endfacet
  facet normal 8.090170e-001 0.000000e+000 5.877853e-001
    outer loop
      vertex   -1.230050e+001 8.000000e+000 -1.170979e+000
      vertex   -1.251554e+001 8.000000e+000 -8.750000e-001
      vertex   -1.251554e+001 -8.000000e+000 -8.750000e-001
    endloop
  endfacet
  facet normal 6.691306e-001 0.000000e+000 7.431448e-001
    outer loop
      vertex   -1.202862e+001 8.000000e+000 -1.415780e+000
      vertex   -1.230050e+001 8.000000e+000 -1.170979e+000
      vertex   -1.230050e+001 -8.000000e+000 -1.170979e+000
    endloop
  endfacet
  facet normal 5.000000e-001 0.000000e+000 8.660254e-001
    outer loop
      vertex   -1.171179e+001 8.000000e+000 -1.598705e+000
      vertex   -1.202862e+001 8.000000e+000 -1.415780e+000
      vertex   -1.202862e+001 -8.000000e+000 -1.415780e+000
    endloop
  endfacet
  facet normal 3.090170e-001 0.000000e+000 9.510565e-001
    outer loop
      vertex   -1.136385e+001 8.000000e+000 -1.711758e+000
      vertex   -1.171179e+001 8.000000e+000 -1.598705e+000
      vertex   -1.171179e+001 -8.000000e+000 -1.598705e+000
    endloop
  endfacet
  facet normal 1.045285e-001 0.000000e+000 9.945219e-001
    outer loop
      vertex   -1.100000e+001 8.000000e+000 -1.750000e+000
      vertex   -1.136385e+001 8.000000e+000 -1.711758e+000
      vertex   -1.136385e+001 -8.000000e+000 -1.711758e+000
    endloop
  endfacet
  facet normal 0.000000e+000 1.000000e+000 0.000000e+000
    outer loop
      vertex   -4.000000e+000 8.000000e+000 -4.000000e+000
      vertex   -1.063615e+001 8.000000e+000 -1.711758e+000
      vertex   -1.028821e+001 8.000000e+000 -1.598705e+000
    endloop
  endfacet
  facet normal 0.000000e+000 1.000000e+000 0.000000e+000
    outer loop
      vertex   -2.500000e+001 8.000000e+000 -4.000000e+000
      vertex   -1.202862e+001 8.000000e+000 -1.415780e+000
      vertex   -1.171179e+001 8.000000e+000 -1.598705e+000
    endloop
  endfacet
  facet normal 0.000000e+000 1.000000e+000 0.000000e+000
    outer loop
      vertex   -4.000000e+000 8.000000e+000 -4.000000e+000
      vertex   -9.971376e+000 8.000000e+000 -1.415780e+000
      vertex   -9.699497e+000 8.000000e+000 -1.170979e+000
    endloop
  endfacet
  facet normal 0.000000e+000 1.000000e+000 0.000000e+000
    outer loop
      vertex   -4.000000e+000 8.000000e+000 -4.000000e+000
      vertex   -1.100000e+001 8.000000e+000 -1.750000e+000
      vertex   -1.063615e+001 8.000000e+000 -1.711758e+000
    endloop
  endfacet
  facet normal 0.000000e+000 1.000000e+000 0.000000e+000
    outer loop
      vertex   -2.500000e+001 8.000000e+000 -4.000000e+000
      vertex   -1.136385e+001 8.000000e+000 -1.711758e+000
      vertex   -1.100000e+001 8.000000e+000 -1.750000e+000
    endloop
  endfacet
  facet normal 0.000000e+000 1.000000e+000 0.000000e+000
    outer loop
      vertex   -2.500000e+001 8.000000e+000 -4.000000e+000
      vertex   -1.230050e+001 8.000000e+000 -1.170979e+000
      vertex   -1.202862e+001 8.000000e+000 -1.415780e+000
    endloop
  endfacet
  facet normal 0.000000e+000 1.000000e+000 0.000000e+000
    outer loop
      vertex   -2.500000e+001 8.000000e+000 4.000000e+000
      vertex   -1.274041e+001 8.000000e+000 1.829248e-001
      vertex   -1.274041e+001 8.000000e+000 -1.829248e-001
    endloop
  endfacet
  facet normal 0.000000e+000 1.000000e+000 0.000000e+000
    outer loop
      vertex   -4.000000e+000 8.000000e+000 -4.000000e+000
      vertex   -9.259587e+000 8.000000e+000 -1.829248e-001
      vertex   -9.259587e+000 8.000000e+000 1.829248e-001
    endloop
  endfacet
  facet normal -0.000000e+000 1.000000e+000 0.000000e+000
    outer loop
      vertex   -1.028821e+001 8.000000e+000 -1.598705e+000
      vertex   -9.971376e+000 8.000000e+000 -1.415780e+000
      vertex   -4.000000e+000 8.000000e+000 -4.000000e+000
    endloop
  endfacet
  facet normal 0.000000e+000 1.000000e+000 0.000000e+000
    outer loop
      vertex   -1.171179e+001 8.000000e+000 -1.598705e+000
      vertex   -1.136385e+001 8.000000e+000 -1.711758e+000
      vertex   -2.500000e+001 8.000000e+000 -4.000000e+000
    endloop
  endfacet
  facet normal 0.000000e+000 1.000000e+000 0.000000e+000
    outer loop
      vertex   -2.500000e+001 8.000000e+000 -4.000000e+000
      vertex   -1.274041e+001 8.000000e+000 -1.829248e-001
      vertex   -1.266435e+001 8.000000e+000 -5.407797e-001
    endloop
  endfacet
  facet normal 0.000000e+000 1.000000e+000 0.000000e+000
    outer loop
      vertex   -2.500000e+001 8.000000e+000 4.000000e+000
      vertex   -1.266435e+001 8.000000e+000 5.407797e-001
      vertex   -1.274041e+001 8.000000e+000 1.829248e-001
    endloop
  endfacet
  facet normal -0.000000e+000 1.000000e+000 0.000000e+000
    outer loop
      vertex   -2.500000e+001 8.000000e+000 4.000000e+000
      vertex   -4.000000e+000 8.000000e+000 4.000000e+000
      vertex   -1.100000e+001 8.000000e+000 1.750000e+000
    endloop
  endfacet
  facet normal 0.000000e+000 1.000000e+000 0.000000e+000
    outer loop
      vertex   -4.000000e+000 8.000000e+000 4.000000e+000
      vertex   -9.971376e+000 8.000000e+000 1.415780e+000
      vertex   -1.028821e+001 8.000000e+000 1.598705e+000
    endloop
  endfacet
  facet normal 0.000000e+000 1.000000e+000 0.000000e+000
    outer loop
      vertex   -4.000000e+000 8.000000e+000 -4.000000e+000
      vertex   -9.335651e+000 8.000000e+000 -5.407797e-001
      vertex   -9.259587e+000 8.000000e+000 -1.829248e-001
    endloop
  endfacet
  facet normal 0.000000e+000 1.000000e+000 0.000000e+000
    outer loop
      vertex   -1.100000e+001 8.000000e+000 -1.750000e+000
      vertex   -4.000000e+000 8.000000e+000 -4.000000e+000
      vertex   -2.500000e+001 8.000000e+000 -4.000000e+000
    endloop
  endfacet
  facet normal 0.000000e+000 1.000000e+000 0.000000e+000
    outer loop
      vertex   -1.266435e+001 8.000000e+000 -5.407797e-001
      vertex   -1.251554e+001 8.000000e+000 -8.750000e-001
      vertex   -2.500000e+001 8.000000e+000 -4.000000e+000
    endloop
  endfacet
  facet normal 0.000000e+000 1.000000e+000 0.000000e+000
    outer loop
      vertex   -2.500000e+001 8.000000e+000 4.000000e+000
      vertex   -1.251554e+001 8.000000e+000 8.750000e-001
      vertex   -1.266435e+001 8.000000e+000 5.407797e-001
    endloop
  endfacet
  facet normal 0.000000e+000 1.000000e+000 0.000000e+000
    outer loop
      vertex   -2.500000e+001 8.000000e+000 4.000000e+000
      vertex   -1.202862e+001 8.000000e+000 1.415780e+000
      vertex   -1.230050e+001 8.000000e+000 1.170979e+000
    endloop
  endfacet
  facet normal 0.000000e+000 1.000000e+000 0.000000e+000
    outer loop
      vertex   -1.100000e+001 8.000000e+000 1.750000e+000
      vertex   -1.136385e+001 8.000000e+000 1.711758e+000
      vertex   -2.500000e+001 8.000000e+000 4.000000e+000
    endloop
  endfacet
  facet normal 0.000000e+000 1.000000e+000 -0.000000e+000
    outer loop
      vertex   -1.028821e+001 8.000000e+000 1.598705e+000
      vertex   -1.063615e+001 8.000000e+000 1.711758e+000
      vertex   -4.000000e+000 8.000000e+000 4.000000e+000
    endloop
  endfacet
  facet normal 0.000000e+000 1.000000e+000 0.000000e+000
    outer loop
      vertex   -4.000000e+000 8.000000e+000 4.000000e+000
      vertex   -9.484456e+000 8.000000e+000 8.750000e-001
      vertex   -9.699497e+000 8.000000e+000 1.170979e+000
    endloop
  endfacet
  facet normal 0.000000e+000 1.000000e+000 0.000000e+000
    outer loop
      vertex   -4.000000e+000 8.000000e+000 -4.000000e+000
      vertex   -9.484456e+000 8.000000e+000 -8.750000e-001
      vertex   -9.335651e+000 8.000000e+000 -5.407797e-001
    endloop
  endfacet
  facet normal 0.000000e+000 1.000000e+000 0.000000e+000
    outer loop
      vertex   -1.251554e+001 8.000000e+000 -8.750000e-001
      vertex   -1.230050e+001 8.000000e+000 -1.170979e+000
      vertex   -2.500000e+001 8.000000e+000 -4.000000e+000
    endloop
  endfacet
  facet normal 0.000000e+000 1.000000e+000 0.000000e+000
    outer loop
      vertex   -1.230050e+001 8.000000e+000 1.170979e+000
      vertex   -1.251554e+001 8.000000e+000 8.750000e-001
      vertex   -2.500000e+001 8.000000e+000 4.000000e+000
    endloop
  endfacet
  facet normal 0.000000e+000 1.000000e+000 0.000000e+000
    outer loop
      vertex   -1.136385e+001 8.000000e+000 1.711758e+000
      vertex   -1.171179e+001 8.000000e+000 1.598705e+000
      vertex   -2.500000e+001 8.000000e+000 4.000000e+000
    endloop
  endfacet
  facet normal 0.000000e+000 1.000000e+000 -0.000000e+000
    outer loop
      vertex   -9.699497e+000 8.000000e+000 1.170979e+000
      vertex   -9.971376e+000 8.000000e+000 1.415780e+000
      vertex   -4.000000e+000 8.000000e+000 4.000000e+000
    endloop
  endfacet
  facet normal 0.000000e+000 1.000000e+000 0.000000e+000
    outer loop
      vertex   -4.000000e+000 8.000000e+000 4.000000e+000
      vertex   -9.259587e+000 8.000000e+000 1.829248e-001
      vertex   -9.335651e+000 8.000000e+000 5.407797e-001
    endloop
  endfacet
  facet normal -0.000000e+000 1.000000e+000 0.000000e+000
    outer loop
      vertex   -9.699497e+000 8.000000e+000 -1.170979e+000
      vertex   -9.484456e+000 8.000000e+000 -8.750000e-001
      vertex   -4.000000e+000 8.000000e+000 -4.000000e+000
    endloop
  endfacet
  facet normal 0.000000e+000 1.000000e+000 0.000000e+000
    outer loop
      vertex   -1.171179e+001 8.000000e+000 1.598705e+000
      vertex   -1.202862e+001 8.000000e+000 1.415780e+000
      vertex   -2.500000e+001 8.000000e+000 4.000000e+000
    endloop
  endfacet
  facet normal 0.000000e+000 1.000000e+000 -0.000000e+000
    outer loop
      vertex   -9.335651e+000 8.000000e+000 5.407797e-001
      vertex   -9.484456e+000 8.000000e+000 8.750000e-001
      vertex   -4.000000e+000 8.000000e+000 4.000000e+000
    endloop
  endfacet
  facet normal 0.000000e+000 1.000000e+000 0.000000e+000
    outer loop
      vertex   -1.274041e+001 8.000000e+000 -1.829248e-001
      vertex   -2.500000e+001 8.000000e+000 -4.000000e+000
      vertex   -2.500000e+001 8.000000e+000 4.000000e+000
    endloop
  endfacet
  facet normal -0.000000e+000 1.000000e+000 0.000000e+000
    outer loop
      vertex   -9.259587e+000 8.000000e+000 1.829248e-001
      vertex   -4.000000e+000 8.000000e+000 4.000000e+000
      vertex   -4.000000e+000 8.000000e+000 -4.000000e+000
    endloop
  endfacet
  facet normal 0.000000e+000 1.000000e+000 -0.000000e+000
    outer loop
      vertex   -1.063615e+001 8.000000e+000 1.711758e+000
      vertex   -1.100000e+001 8.000000e+000 1.750000e+000
      vertex   -4.000000e+000 8.000000e+000 4.000000e+000
    endloop
  endfacet
  facet normal -1.000000e+000 0.000000e+000 0.000000e+000
    outer loop
      vertex   -2.500000e+001 -8.000000e+000 4.000000e+000
      vertex   -2.500000e+001 8.000000e+000 4.000000e+000
      vertex   -2.500000e+001 8.000000e+000 -4.000000e+000
    endloop
  endfacet
  facet normal -1.000000e+000 0.000000e+000 0.000000e+000
    outer loop
      vertex   -2.500000e+001 8.000000e+000 -4.000000e+000
      vertex   -2.500000e+001 -8.000000e+000 -4.000000e+000
      vertex   -2.500000e+001 -8.000000e+000 4.000000e+000
    endloop
  endfacet
  facet normal -9.976688e-001 6.824241e-002 0.000000e+000
    outer loop
      vertex   3.962744e+000 7.455333e+000 4.000000e+000
      vertex   4.000000e+000 8.000000e+000 4.000000e+000
      vertex   4.000000e+000 8.000000e+000 -4.000000e+000
    endloop
  endfacet
  facet normal -9.790841e-001 2.034560e-001 0.000000e+000
    outer loop
      vertex   3.851669e+000 6.920813e+000 4.000000e+000
      vertex   3.962744e+000 7.455333e+000 4.000000e+000
      vertex   3.962744e+000 7.455333e+000 -4.000000e+000
    endloop
  endfacet
  facet normal -9.422609e-001 3.348796e-001 0.000000e+000
    outer loop
      vertex   3.668845e+000 6.406396e+000 4.000000e+000
      vertex   3.851669e+000 6.920813e+000 4.000000e+000
      vertex   3.851669e+000 6.920813e+000 -4.000000e+000
    endloop
  endfacet
  facet normal -8.878852e-001 4.600650e-001 0.000000e+000
    outer loop
      vertex   3.417678e+000 5.921664e+000 4.000000e+000
      vertex   3.668845e+000 6.406396e+000 4.000000e+000
      vertex   3.668845e+000 6.406396e+000 -4.000000e+000
    endloop
  endfacet
  facet normal -8.169699e-001 5.766803e-001 0.000000e+000
    outer loop
      vertex   3.102845e+000 5.475648e+000 4.000000e+000
      vertex   3.417678e+000 5.921664e+000 4.000000e+000
      vertex   3.417678e+000 5.921664e+000 -4.000000e+000
    endloop
  endfacet
  facet normal -7.308360e-001 6.825531e-001 0.000000e+000
    outer loop
      vertex   2.730213e+000 5.076656e+000 4.000000e+000
      vertex   3.102845e+000 5.475648e+000 4.000000e+000
      vertex   3.102845e+000 5.475648e+000 -4.000000e+000
    endloop
  endfacet
  facet normal -6.310879e-001 7.757113e-001 0.000000e+000
    outer loop
      vertex   2.306721e+000 4.732120e+000 4.000000e+000
      vertex   2.730213e+000 5.076656e+000 4.000000e+000
      vertex   2.730213e+000 5.076656e+000 -4.000000e+000
    endloop
  endfacet
  facet normal -5.195840e-001 8.544194e-001 0.000000e+000
    outer loop
      vertex   1.840260e+000 4.448459e+000 4.000000e+000
      vertex   2.306721e+000 4.732120e+000 4.000000e+000
      vertex   2.306721e+000 4.732120e+000 -4.000000e+000
    endloop
  endfacet
  facet normal -3.984011e-001 9.172113e-001 0.000000e+000
    outer loop
      vertex   1.339518e+000 4.230956e+000 4.000000e+000
      vertex   1.840260e+000 4.448459e+000 4.000000e+000
      vertex   1.840260e+000 4.448459e+000 -4.000000e+000
    endloop
  endfacet
  facet normal -2.697968e-001 9.629173e-001 0.000000e+000
    outer loop
      vertex   8.138241e-001 4.083664e+000 4.000000e+000
      vertex   1.339518e+000 4.230956e+000 4.000000e+000
      vertex   1.339518e+000 4.230956e+000 -4.000000e+000
    endloop
  endfacet
  facet normal -1.361666e-001 9.906859e-001 0.000000e+000
    outer loop
      vertex   2.729697e-001 4.009325e+000 4.000000e+000
      vertex   8.138241e-001 4.083664e+000 4.000000e+000
      vertex   8.138241e-001 4.083664e+000 -4.000000e+000
    endloop
  endfacet
  facet normal -0.000000e+000 1.000000e+000 0.000000e+000
    outer loop
      vertex   -2.729697e-001 4.009325e+000 4.000000e+000
      vertex   2.729697e-001 4.009325e+000 4.000000e+000
      vertex   2.729697e-001 4.009325e+000 -4.000000e+000
    endloop
  endfacet
  facet normal 1.361666e-001 9.906859e-001 0.000000e+000
    outer loop
      vertex   -8.138241e-001 4.083664e+000 4.000000e+000
      vertex   -2.729697e-001 4.009325e+000 4.000000e+000
      vertex   -2.729697e-001 4.009325e+000 -4.000000e+000
    endloop
  endfacet
  facet normal 2.697968e-001 9.629173e-001 0.000000e+000
    outer loop
      vertex   -1.339518e+000 4.230956e+000 4.000000e+000
      vertex   -8.138241e-001 4.083664e+000 4.000000e+000
      vertex   -8.138241e-001 4.083664e+000 -4.000000e+000
    endloop
  endfacet
  facet normal 3.984011e-001 9.172113e-001 0.000000e+000
    outer loop
      vertex   -1.840260e+000 4.448459e+000 4.000000e+000
      vertex   -1.339518e+000 4.230956e+000 4.000000e+000
      vertex   -1.339518e+000 4.230956e+000 -4.000000e+000
    endloop
  endfacet
  facet normal 5.195840e-001 8.544194e-001 0.000000e+000
    outer loop
      vertex   -2.306721e+000 4.732120e+000 4.000000e+000
      vertex   -1.840260e+000 4.448459e+000 4.000000e+000
      vertex   -1.840260e+000 4.448459e+000 -4.000000e+000
    endloop
  endfacet
  facet normal 6.310879e-001 7.757113e-001 0.000000e+000
    outer loop
      vertex   -2.730213e+000 5.076656e+000 4.000000e+000
      vertex   -2.306721e+000 4.732120e+000 4.000000e+000
      vertex   -2.306721e+000 4.732120e+000 -4.000000e+000
    endloop
  endfacet
  facet normal 7.308360e-001 6.825531e-001 0.000000e+000
    outer loop
      vertex   -3.102845e+000 5.475648e+000 4.000000e+000
      vertex   -2.730213e+000 5.076656e+000 4.000000e+000
      vertex   -2.730213e+000 5.076656e+000 -4.000000e+000
    endloop
  endfacet
  facet normal 8.169699e-001 5.766803e-001 0.000000e+000
    outer loop
      vertex   -3.417678e+000 5.921664e+000 4.000000e+000
      vertex   -3.102845e+000 5.475648e+000 4.000000e+000
      vertex   -3.102845e+000 5.475648e+000 -4.000000e+000
    endloop
  endfacet
  facet normal 8.878852e-001 4.600650e-001 0.000000e+000
    outer loop
      vertex   -3.668845e+000 6.406396e+000 4.000000e+000
      vertex   -3.417678e+000 5.921664e+000 4.000000e+000
      vertex   -3.417678e+000 5.921664e+000 -4.000000e+000
    endloop
  endfacet
  facet normal 9.422609e-001 3.348796e-001 0.000000e+000
    outer loop
      vertex   -3.851669e+000 6.920813e+000 4.000000e+000
      vertex   -3.668845e+000 6.406396e+000 4.000000e+000
      vertex   -3.668845e+000 6.406396e+000 -4.000000e+000
    endloop
  endfacet
  facet normal 9.790841e-001 2.034560e-001 0.000000e+000
    outer loop
      vertex   -3.962744e+000 7.455333e+000 4.000000e+000
      vertex   -3.851669e+000 6.920813e+000 4.000000e+000
      vertex   -3.851669e+000 6.920813e+000 -4.000000e+000
    endloop
  endfacet
  facet normal 9.976688e-001 6.824241e-002 0.000000e+000
    outer loop
      vertex   -4.000000e+000 8.000000e+000 4.000000e+000
      vertex   -3.962744e+000 7.455333e+000 4.000000e+000
      vertex   -3.962744e+000 7.455333e+000 -4.000000e+000
    endloop
  endfacet
  facet normal 9.976688e-001 6.824241e-002 0.000000e+000
    outer loop
      vertex   -3.962744e+000 7.455333e+000 -4.000000e+000
      vertex   -4.000000e+000 8.000000e+000 -4.000000e+000
      vertex   -4.000000e+000 8.000000e+000 4.000000e+000
    endloop
  endfacet
  facet normal 9.790841e-001 2.034560e-001 0.000000e+000
    outer loop
      vertex   -3.851669e+000 6.920813e+000 -4.000000e+000
      vertex   -3.962744e+000 7.455333e+000 -4.000000e+000
      vertex   -3.962744e+000 7.455333e+000 4.000000e+000
    endloop
  endfacet
  facet normal 9.422609e-001 3.348796e-001 0.000000e+000
    outer loop
      vertex   -3.668845e+000 6.406396e+000 -4.000000e+000
      vertex   -3.851669e+000 6.920813e+000 -4.000000e+000
      vertex   -3.851669e+000 6.920813e+000 4.000000e+000
    endloop
  endfacet
  facet normal 8.878852e-001 4.600650e-001 0.000000e+000
    outer loop
      vertex   -3.417678e+000 5.921664e+000 -4.000000e+000
      vertex   -3.668845e+000 6.406396e+000 -4.000000e+000
      vertex   -3.668845e+000 6.406396e+000 4.000000e+000
    endloop
  endfacet
  facet normal 8.169699e-001 5.766803e-001 0.000000e+000
    outer loop
      vertex   -3.102845e+000 5.475648e+000 -4.000000e+000
      vertex   -3.417678e+000 5.921664e+000 -4.000000e+000
      vertex   -3.417678e+000 5.921664e+000 4.000000e+000
    endloop
  endfacet
  facet normal 7.308360e-001 6.825531e-001 0.000000e+000
    outer loop
      vertex   -2.730213e+000 5.076656e+000 -4.000000e+000
      vertex   -3.102845e+000 5.475648e+000 -4.000000e+000
      vertex   -3.102845e+000 5.475648e+000 4.000000e+000
    endloop
  endfacet
  facet normal 6.310879e-001 7.757113e-001 0.000000e+000
    outer loop
      vertex   -2.306721e+000 4.732120e+000 -4.000000e+000
      vertex   -2.730213e+000 5.076656e+000 -4.000000e+000
      vertex   -2.730213e+000 5.076656e+000 4.000000e+000
    endloop
  endfacet
  facet normal 5.195840e-001 8.544194e-001 0.000000e+000
    outer loop
      vertex   -1.840260e+000 4.448459e+000 -4.000000e+000
      vertex   -2.306721e+000 4.732120e+000 -4.000000e+000
      vertex   -2.306721e+000 4.732120e+000 4.000000e+000
    endloop
  endfacet
  facet normal 3.984011e-001 9.172113e-001 0.000000e+000
    outer loop
      vertex   -1.339518e+000 4.230956e+000 -4.000000e+000
      vertex   -1.840260e+000 4.448459e+000 -4.000000e+000
      vertex   -1.840260e+000 4.448459e+000 4.000000e+000
    endloop
  endfacet
  facet normal 2.697968e-001 9.629173e-001 0.000000e+000
    outer loop
      vertex   -8.138241e-001 4.083664e+000 -4.000000e+000
      vertex   -1.339518e+000 4.230956e+000 -4.000000e+000
      vertex   -1.339518e+000 4.230956e+000 4.000000e+000
    endloop
  endfacet
  facet normal 1.361666e-001 9.906859e-001 0.000000e+000
    outer loop
      vertex   -2.729697e-001 4.009325e+000 -4.000000e+000
      vertex   -8.138241e-001 4.083664e+000 -4.000000e+000
      vertex   -8.138241e-001 4.083664e+000 4.000000e+000
    endloop
  endfacet
  facet normal 0.000000e+000 1.000000e+000 0.000000e+000
    outer loop
      vertex   2.729697e-001 4.009325e+000 -4.000000e+000
      vertex   -2.729697e-001 4.009325e+000 -4.000000e+000
      vertex   -2.729697e-001 4.009325e+000 4.000000e+000
    endloop
  endfacet
  facet normal -1.361666e-001 9.906859e-001 0.000000e+000
    outer loop
      vertex   8.138241e-001 4.083664e+000 -4.000000e+000
      vertex   2.729697e-001 4.009325e+000 -4.000000e+000
      vertex   2.729697e-001 4.009325e+000 4.000000e+000
    endloop
  endfacet
  facet normal -2.697968e-001 9.629173e-001 0.000000e+000
    outer loop
      vertex   1.339518e+000 4.230956e+000 -4.000000e+000
      vertex   8.138241e-001 4.083664e+000 -4.000000e+000
      vertex   8.138241e-001 4.083664e+000 4.000000e+000
    endloop
  endfacet
  facet normal -3.984011e-001 9.172113e-001 0.000000e+000
    outer loop
      vertex   1.840260e+000 4.448459e+000 -4.000000e+000
      vertex   1.339518e+000 4.230956e+000 -4.000000e+000
      vertex   1.339518e+000 4.230956e+000 4.000000e+000
    endloop
  endfacet
  facet normal -5.195840e-001 8.544194e-001 0.000000e+000
    outer loop
      vertex   2.306721e+000 4.732120e+000 -4.000000e+000
      vertex   1.840260e+000 4.448459e+000 -4.000000e+000
      vertex   1.840260e+000 4.448459e+000 4.000000e+000
    endloop
  endfacet
  facet normal -6.310879e-001 7.757113e-001 0.000000e+000
    outer loop
      vertex   2.730213e+000 5.076656e+000 -4.000000e+000
      vertex   2.306721e+000 4.732120e+000 -4.000000e+000
      vertex   2.306721e+000 4.732120e+000 4.000000e+000
    endloop
  endfacet
  facet normal -7.308360e-001 6.825531e-001 0.000000e+000
    outer loop
      vertex   3.102845e+000 5.475648e+000 -4.000000e+000
      vertex   2.730213e+000 5.076656e+000 -4.000000e+000
      vertex   2.730213e+000 5.076656e+000 4.000000e+000
    endloop
  endfacet
  facet normal -8.169699e-001 5.766803e-001 0.000000e+000
    outer loop
      vertex   3.417678e+000 5.921664e+000 -4.000000e+000
      vertex   3.102845e+000 5.475648e+000 -4.000000e+000
      vertex   3.102845e+000 5.475648e+000 4.000000e+000
    endloop
  endfacet
  facet normal -8.878852e-001 4.600650e-001 0.000000e+000
    outer loop
      vertex   3.668845e+000 6.406396e+000 -4.000000e+000
      vertex   3.417678e+000 5.921664e+000 -4.000000e+000
      vertex   3.417678e+000 5.921664e+000 4.000000e+000
    endloop
  endfacet
  facet normal -9.422609e-001 3.348796e-001 0.000000e+000
    outer loop
      vertex   3.851669e+000 6.920813e+000 -4.000000e+000
      vertex   3.668845e+000 6.406396e+000 -4.000000e+000
      vertex   3.668845e+000 6.406396e+000 4.000000e+000
    endloop
  endfacet
  facet normal -9.790841e-001 2.034560e-001 0.000000e+000
    outer loop
      vertex   3.962744e+000 7.455333e+000 -4.000000e+000
      vertex   3.851669e+000 6.920813e+000 -4.000000e+000
      vertex   3.851669e+000 6.920813e+000 4.000000e+000
    endloop
  endfacet
  facet normal -9.976688e-001 6.824241e-002 0.000000e+000
    outer loop
      vertex   4.000000e+000 8.000000e+000 -4.000000e+000
      vertex   3.962744e+000 7.455333e+000 -4.000000e+000
      vertex   3.962744e+000 7.455333e+000 4.000000e+000
    endloop
  endfacet
  facet normal 0.000000e+000 -2.888961e-016 1.000000e+000
    outer loop
      vertex   -2.500000e+001 -8.000000e+000 4.000000e+000
      vertex   2.500000e+001 -8.000000e+000 4.000000e+000
      vertex   2.729697e-001 4.009325e+000 4.000000e+000
    endloop
  endfacet
  facet normal 0.000000e+000 -2.888961e-016 1.000000e+000
    outer loop
      vertex   2.729697e-001 4.009325e+000 4.000000e+000
      vertex   -2.729697e-001 4.009325e+000 4.000000e+000
      vertex   -2.500000e+001 -8.000000e+000 4.000000e+000
    endloop
  endfacet
  facet normal -6.695322e-017 -1.541418e-016 1.000000e+000
    outer loop
      vertex   -2.500000e+001 -8.000000e+000 4.000000e+000
      vertex   -1.339518e+000 4.230956e+000 4.000000e+000
      vertex   -1.840260e+000 4.448459e+000 4.000000e+000
    endloop
  endfacet
  facet normal 3.094920e-017 -2.251721e-016 1.000000e+000
    outer loop
      vertex   2.500000e+001 -8.000000e+000 4.000000e+000
      vertex   8.138241e-001 4.083664e+000 4.000000e+000
      vertex   2.729697e-001 4.009325e+000 4.000000e+000
    endloop
  endfacet
  facet normal 1.640530e-016 -0.000000e+000 1.000000e+000
    outer loop
      vertex   2.500000e+001 -8.000000e+000 4.000000e+000
      vertex   2.500000e+001 8.000000e+000 4.000000e+000
      vertex   3.851669e+000 6.920813e+000 4.000000e+000
    endloop
  endfacet
  facet normal -7.951910e-017 -1.307636e-016 1.000000e+000
    outer loop
      vertex   -1.840260e+000 4.448459e+000 4.000000e+000
      vertex   -2.306721e+000 4.732120e+000 4.000000e+000
      vertex   -2.500000e+001 -8.000000e+000 4.000000e+000
    endloop
  endfacet
  facet normal 5.154175e-017 -1.839549e-016 1.000000e+000
    outer loop
      vertex   2.500000e+001 -8.000000e+000 4.000000e+000
      vertex   1.339518e+000 4.230956e+000 4.000000e+000
      vertex   8.138241e-001 4.083664e+000 4.000000e+000
    endloop
  endfacet
  facet normal 7.951910e-017 -1.307636e-016 1.000000e+000
    outer loop
      vertex   2.500000e+001 -8.000000e+000 4.000000e+000
      vertex   2.306721e+000 4.732120e+000 4.000000e+000
      vertex   1.840260e+000 4.448459e+000 4.000000e+000
    endloop
  endfacet
  facet normal 1.104592e-016 -7.797062e-017 1.000000e+000
    outer loop
      vertex   2.500000e+001 -8.000000e+000 4.000000e+000
      vertex   3.417678e+000 5.921664e+000 4.000000e+000
      vertex   3.102845e+000 5.475648e+000 4.000000e+000
    endloop
  endfacet
  facet normal 1.658113e-016 -3.445598e-017 1.000000e+000
    outer loop
      vertex   2.500000e+001 8.000000e+000 4.000000e+000
      vertex   3.962744e+000 7.455333e+000 4.000000e+000
      vertex   3.851669e+000 6.920813e+000 4.000000e+000
    endloop
  endfacet
  facet normal -1.006146e-016 -9.396750e-017 1.000000e+000
    outer loop
      vertex   -2.500000e+001 -8.000000e+000 4.000000e+000
      vertex   -2.730213e+000 5.076656e+000 4.000000e+000
      vertex   -3.102845e+000 5.475648e+000 4.000000e+000
    endloop
  endfacet
  facet normal -5.154175e-017 -1.839549e-016 1.000000e+000
    outer loop
      vertex   -2.500000e+001 -8.000000e+000 4.000000e+000
      vertex   -8.138241e-001 4.083664e+000 4.000000e+000
      vertex   -1.339518e+000 4.230956e+000 4.000000e+000
    endloop
  endfacet
  facet normal 6.695322e-017 -1.541418e-016 1.000000e+000
    outer loop
      vertex   1.840260e+000 4.448459e+000 4.000000e+000
      vertex   1.339518e+000 4.230956e+000 4.000000e+000
      vertex   2.500000e+001 -8.000000e+000 4.000000e+000
    endloop
  endfacet
  facet normal 1.006146e-016 -9.396750e-017 1.000000e+000
    outer loop
      vertex   3.102845e+000 5.475648e+000 4.000000e+000
      vertex   2.730213e+000 5.076656e+000 4.000000e+000
      vertex   2.500000e+001 -8.000000e+000 4.000000e+000
    endloop
  endfacet
  facet normal 1.311641e-016 -4.661574e-017 1.000000e+000
    outer loop
      vertex   3.851669e+000 6.920813e+000 4.000000e+000
      vertex   3.668845e+000 6.406396e+000 4.000000e+000
      vertex   2.500000e+001 -8.000000e+000 4.000000e+000
    endloop
  endfacet
  facet normal -1.311641e-016 -4.661574e-017 1.000000e+000
    outer loop
      vertex   -2.500000e+001 -8.000000e+000 4.000000e+000
      vertex   -3.668845e+000 6.406396e+000 4.000000e+000
      vertex   -3.851669e+000 6.920813e+000 4.000000e+000
    endloop
  endfacet
  facet normal -1.104592e-016 -7.797062e-017 1.000000e+000
    outer loop
      vertex   -3.102845e+000 5.475648e+000 4.000000e+000
      vertex   -3.417678e+000 5.921664e+000 4.000000e+000
      vertex   -2.500000e+001 -8.000000e+000 4.000000e+000
    endloop
  endfacet
  facet normal -3.094920e-017 -2.251721e-016 1.000000e+000
    outer loop
      vertex   -2.729697e-001 4.009325e+000 4.000000e+000
      vertex   -8.138241e-001 4.083664e+000 4.000000e+000
      vertex   -2.500000e+001 -8.000000e+000 4.000000e+000
    endloop
  endfacet
  facet normal 1.204839e-016 -6.242971e-017 1.000000e+000
    outer loop
      vertex   3.668845e+000 6.406396e+000 4.000000e+000
      vertex   3.417678e+000 5.921664e+000 4.000000e+000
      vertex   2.500000e+001 -8.000000e+000 4.000000e+000
    endloop
  endfacet
  facet normal -1.640530e-016 0.000000e+000 1.000000e+000
    outer loop
      vertex   -3.851669e+000 6.920813e+000 4.000000e+000
      vertex   -2.500000e+001 8.000000e+000 4.000000e+000
      vertex   -2.500000e+001 -8.000000e+000 4.000000e+000
    endloop
  endfacet
  facet normal -9.048412e-017 -1.112199e-016 1.000000e+000
    outer loop
      vertex   -2.306721e+000 4.732120e+000 4.000000e+000
      vertex   -2.730213e+000 5.076656e+000 4.000000e+000
      vertex   -2.500000e+001 -8.000000e+000 4.000000e+000
    endloop
  endfacet
  facet normal 0.000000e+000 6.369854e-015 1.000000e+000
    outer loop
      vertex   2.500000e+001 8.000000e+000 4.000000e+000
      vertex   4.000000e+000 8.000000e+000 4.000000e+000
      vertex   3.962744e+000 7.455333e+000 4.000000e+000
    endloop
  endfacet
  facet normal -1.658113e-016 -3.445598e-017 1.000000e+000
    outer loop
      vertex   -3.851669e+000 6.920813e+000 4.000000e+000
      vertex   -3.962744e+000 7.455333e+000 4.000000e+000
      vertex   -2.500000e+001 8.000000e+000 4.000000e+000
    endloop
  endfacet
  facet normal 9.048412e-017 -1.112199e-016 1.000000e+000
    outer loop
      vertex   2.730213e+000 5.076656e+000 4.000000e+000
      vertex   2.306721e+000 4.732120e+000 4.000000e+000
      vertex   2.500000e+001 -8.000000e+000 4.000000e+000
    endloop
  endfacet
  facet normal -1.204839e-016 -6.242971e-017 1.000000e+000
    outer loop
      vertex   -3.417678e+000 5.921664e+000 4.000000e+000
      vertex   -3.668845e+000 6.406396e+000 4.000000e+000
      vertex   -2.500000e+001 -8.000000e+000 4.000000e+000
    endloop
  endfacet
  facet normal 0.000000e+000 6.369854e-015 1.000000e+000
    outer loop
      vertex   -3.962744e+000 7.455333e+000 4.000000e+000
      vertex   -4.000000e+000 8.000000e+000 4.000000e+000
      vertex   -2.500000e+001 8.000000e+000 4.000000e+000
    endloop
  endfacet
  facet normal -0.000000e+000 -2.888961e-016 -1.000000e+000
    outer loop
      vertex   2.500000e+001 -8.000000e+000 -4.000000e+000
      vertex   -2.500000e+001 -8.000000e+000 -4.000000e+000
      vertex   -2.729697e-001 4.009325e+000 -4.000000e+000
    endloop
  endfacet
  facet normal -3.094920e-017 -2.251721e-016 -1.000000e+000
    outer loop
      vertex   -2.500000e+001 -8.000000e+000 -4.000000e+000
      vertex   -8.138241e-001 4.083664e+000 -4.000000e+000
      vertex   -2.729697e-001 4.009325e+000 -4.000000e+000
    endloop
  endfacet
  facet normal 0.000000e+000 -2.888961e-016 -1.000000e+000
    outer loop
      vertex   -2.729697e-001 4.009325e+000 -4.000000e+000
      vertex   2.729697e-001 4.009325e+000 -4.000000e+000
      vertex   2.500000e+001 -8.000000e+000 -4.000000e+000
    endloop
  endfacet
  facet normal -7.951910e-017 -1.307636e-016 -1.000000e+000
    outer loop
      vertex   -2.500000e+001 -8.000000e+000 -4.000000e+000
      vertex   -2.306721e+000 4.732120e+000 -4.000000e+000
      vertex   -1.840260e+000 4.448459e+000 -4.000000e+000
    endloop
  endfacet
  facet normal 1.311641e-016 -4.661574e-017 -1.000000e+000
    outer loop
      vertex   2.500000e+001 -8.000000e+000 -4.000000e+000
      vertex   3.668845e+000 6.406396e+000 -4.000000e+000
      vertex   3.851669e+000 6.920813e+000 -4.000000e+000
    endloop
  endfacet
  facet normal 6.695322e-017 -1.541418e-016 -1.000000e+000
    outer loop
      vertex   2.500000e+001 -8.000000e+000 -4.000000e+000
      vertex   1.339518e+000 4.230956e+000 -4.000000e+000
      vertex   1.840260e+000 4.448459e+000 -4.000000e+000
    endloop
  endfacet
  facet normal 3.094920e-017 -2.251721e-016 -1.000000e+000
    outer loop
      vertex   2.729697e-001 4.009325e+000 -4.000000e+000
      vertex   8.138241e-001 4.083664e+000 -4.000000e+000
      vertex   2.500000e+001 -8.000000e+000 -4.000000e+000
    endloop
  endfacet
  facet normal -6.695322e-017 -1.541418e-016 -1.000000e+000
    outer loop
      vertex   -1.840260e+000 4.448459e+000 -4.000000e+000
      vertex   -1.339518e+000 4.230956e+000 -4.000000e+000
      vertex   -2.500000e+001 -8.000000e+000 -4.000000e+000
    endloop
  endfacet
  facet normal 1.640530e-016 0.000000e+000 -1.000000e+000
    outer loop
      vertex   3.851669e+000 6.920813e+000 -4.000000e+000
      vertex   2.500000e+001 8.000000e+000 -4.000000e+000
      vertex   2.500000e+001 -8.000000e+000 -4.000000e+000
    endloop
  endfacet
  facet normal 1.006146e-016 -9.396750e-017 -1.000000e+000
    outer loop
      vertex   2.500000e+001 -8.000000e+000 -4.000000e+000
      vertex   2.730213e+000 5.076656e+000 -4.000000e+000
      vertex   3.102845e+000 5.475648e+000 -4.000000e+000
    endloop
  endfacet
  facet normal 5.154175e-017 -1.839549e-016 -1.000000e+000
    outer loop
      vertex   8.138241e-001 4.083664e+000 -4.000000e+000
      vertex   1.339518e+000 4.230956e+000 -4.000000e+000
      vertex   2.500000e+001 -8.000000e+000 -4.000000e+000
    endloop
  endfacet
  facet normal -9.048412e-017 -1.112199e-016 -1.000000e+000
    outer loop
      vertex   -2.500000e+001 -8.000000e+000 -4.000000e+000
      vertex   -2.730213e+000 5.076656e+000 -4.000000e+000
      vertex   -2.306721e+000 4.732120e+000 -4.000000e+000
    endloop
  endfacet
  facet normal -1.104592e-016 -7.797062e-017 -1.000000e+000
    outer loop
      vertex   -2.500000e+001 -8.000000e+000 -4.000000e+000
      vertex   -3.417678e+000 5.921664e+000 -4.000000e+000
      vertex   -3.102845e+000 5.475648e+000 -4.000000e+000
    endloop
  endfacet
  facet normal 1.204839e-016 -6.242971e-017 -1.000000e+000
    outer loop
      vertex   2.500000e+001 -8.000000e+000 -4.000000e+000
      vertex   3.417678e+000 5.921664e+000 -4.000000e+000
      vertex   3.668845e+000 6.406396e+000 -4.000000e+000
    endloop
  endfacet
  facet normal 9.048412e-017 -1.112199e-016 -1.000000e+000
    outer loop
      vertex   2.500000e+001 -8.000000e+000 -4.000000e+000
      vertex   2.306721e+000 4.732120e+000 -4.000000e+000
      vertex   2.730213e+000 5.076656e+000 -4.000000e+000
    endloop
  endfacet
  facet normal -5.154175e-017 -1.839549e-016 -1.000000e+000
    outer loop
      vertex   -1.339518e+000 4.230956e+000 -4.000000e+000
      vertex   -8.138241e-001 4.083664e+000 -4.000000e+000
      vertex   -2.500000e+001 -8.000000e+000 -4.000000e+000
    endloop
  endfacet
  facet normal -1.204839e-016 -6.242971e-017 -1.000000e+000
    outer loop
      vertex   -2.500000e+001 -8.000000e+000 -4.000000e+000
      vertex   -3.668845e+000 6.406396e+000 -4.000000e+000
      vertex   -3.417678e+000 5.921664e+000 -4.000000e+000
    endloop
  endfacet
  facet normal 1.104592e-016 -7.797062e-017 -1.000000e+000
    outer loop
      vertex   3.102845e+000 5.475648e+000 -4.000000e+000
      vertex   3.417678e+000 5.921664e+000 -4.000000e+000
      vertex   2.500000e+001 -8.000000e+000 -4.000000e+000
    endloop
  endfacet
  facet normal -1.006146e-016 -9.396750e-017 -1.000000e+000
    outer loop
      vertex   -3.102845e+000 5.475648e+000 -4.000000e+000
      vertex   -2.730213e+000 5.076656e+000 -4.000000e+000
      vertex   -2.500000e+001 -8.000000e+000 -4.000000e+000
    endloop
  endfacet
  facet normal -1.640530e-016 0.000000e+000 -1.000000e+000
    outer loop
      vertex   -2.500000e+001 -8.000000e+000 -4.000000e+000
      vertex   -2.500000e+001 8.000000e+000 -4.000000e+000
      vertex   -3.851669e+000 6.920813e+000 -4.000000e+000
    endloop
  endfacet
  facet normal 7.951910e-017 -1.307636e-016 -1.000000e+000
    outer loop
      vertex   1.840260e+000 4.448459e+000 -4.000000e+000
      vertex   2.306721e+000 4.732120e+000 -4.000000e+000
      vertex   2.500000e+001 -8.000000e+000 -4.000000e+000
    endloop
  endfacet
  facet normal -1.658113e-016 -3.445598e-017 -1.000000e+000
    outer loop
      vertex   -2.500000e+001 8.000000e+000 -4.000000e+000
      vertex   -3.962744e+000 7.455333e+000 -4.000000e+000
      vertex   -3.851669e+000 6.920813e+000 -4.000000e+000
    endloop
  endfacet
  facet normal 1.658113e-016 -3.445598e-017 -1.000000e+000
    outer loop
      vertex   3.851669e+000 6.920813e+000 -4.000000e+000
      vertex   3.962744e+000 7.455333e+000 -4.000000e+000
      vertex   2.500000e+001 8.000000e+000 -4.000000e+000
    endloop
  endfacet
  facet normal 0.000000e+000 6.369854e-015 -1.000000e+000
    outer loop
      vertex   -2.500000e+001 8.000000e+000 -4.000000e+000
      vertex   -4.000000e+000 8.000000e+000 -4.000000e+000
      vertex   -3.962744e+000 7.455333e+000 -4.000000e+000
    endloop
  endfacet
  facet normal -1.311641e-016 -4.661574e-017 -1.000000e+000
    outer loop
      vertex   -3.851669e+000 6.920813e+000 -4.000000e+000
      vertex   -3.668845e+000 6.406396e+000 -4.000000e+000
      vertex   -2.500000e+001 -8.000000e+000 -4.000000e+000
    endloop
  endfacet
  facet normal 0.000000e+000 6.369854e-015 -1.000000e+000
    outer loop
      vertex   3.962744e+000 7.455333e+000 -4.000000e+000
      vertex   4.000000e+000 8.000000e+000 -4.000000e+000
      vertex   2.500000e+001 8.000000e+000 -4.000000e+000
    endloop
  endfacet
  facet normal 1.000000e+000 0.000000e+000 0.000000e+000
    outer loop
      vertex   2.500000e+001 -8.000000e+000 -4.000000e+000
      vertex   2.500000e+001 8.000000e+000 -4.000000e+000
      vertex   2.500000e+001 8.000000e+000 4.000000e+000
    endloop
  endfacet
  facet normal 1.000000e+000 0.000000e+000 0.000000e+000
    outer loop
      vertex   2.500000e+001 8.000000e+000 4.000000e+000
      vertex   2.500000e+001 -8.000000e+000 4.000000e+000
      vertex   2.500000e+001 -8.000000e+000 -4.000000e+000
    endloop
  endfacet
  facet normal 0.000000e+000 -1.000000e+000 0.000000e+000
    outer loop
      vertex   -9.259587e+000 -8.000000e+000 1.829248e-001
      vertex   -9.250000e+000 -8.000000e+000 -1.021021e-016
      vertex   9.250000e+000 -8.000000e+000 1.183777e-015
    endloop
  endfacet
  facet normal 0.000000e+000 -1.000000e+000 0.000000e+000
    outer loop
      vertex   9.259587e+000 -8.000000e+000 -1.829248e-001
      vertex   9.250000e+000 -8.000000e+000 1.183777e-015
      vertex   -9.250000e+000 -8.000000e+000 -1.021021e-016
    endloop
  endfacet
  facet normal 0.000000e+000 -1.000000e+000 -0.000000e+000
    outer loop
      vertex   -9.250000e+000 -8.000000e+000 -1.021021e-016
      vertex   -9.259587e+000 -8.000000e+000 -1.829248e-001
      vertex   9.259587e+000 -8.000000e+000 -1.829248e-001
    endloop
  endfacet
  facet normal 0.000000e+000 -1.000000e+000 0.000000e+000
    outer loop
      vertex   9.250000e+000 -8.000000e+000 1.183777e-015
      vertex   9.259587e+000 -8.000000e+000 1.829248e-001
      vertex   -9.259587e+000 -8.000000e+000 1.829248e-001
    endloop
  endfacet
  facet normal 0.000000e+000 -1.000000e+000 -0.000000e+000
    outer loop
      vertex   -9.259587e+000 -8.000000e+000 -1.829248e-001
      vertex   -9.335651e+000 -8.000000e+000 -5.407797e-001
      vertex   9.259587e+000 -8.000000e+000 -1.829248e-001
    endloop
  endfacet
  facet normal 0.000000e+000 -1.000000e+000 0.000000e+000
    outer loop
      vertex   -9.335651e+000 -8.000000e+000 -5.407797e-001
      vertex   9.335651e+000 -8.000000e+000 -5.407797e-001
      vertex   9.259587e+000 -8.000000e+000 -1.829248e-001
    endloop
  endfacet
  facet normal 0.000000e+000 -1.000000e+000 0.000000e+000
    outer loop
      vertex   9.335651e+000 -8.000000e+000 5.407797e-001
      vertex   -9.335651e+000 -8.000000e+000 5.407797e-001
      vertex   -9.259587e+000 -8.000000e+000 1.829248e-001
    endloop
  endfacet
  facet normal -0.000000e+000 -1.000000e+000 0.000000e+000
    outer loop
      vertex   9.335651e+000 -8.000000e+000 5.407797e-001
      vertex   -9.484456e+000 -8.000000e+000 8.750000e-001
      vertex   -9.335651e+000 -8.000000e+000 5.407797e-001
    endloop
  endfacet
  facet normal 0.000000e+000 -1.000000e+000 0.000000e+000
    outer loop
      vertex   -9.335651e+000 -8.000000e+000 -5.407797e-001
      vertex   9.484456e+000 -8.000000e+000 -8.750000e-001
      vertex   9.335651e+000 -8.000000e+000 -5.407797e-001
    endloop
  endfacet
  facet normal 0.000000e+000 -1.000000e+000 0.000000e+000
    outer loop
      vertex   2.500000e+001 -8.000000e+000 4.000000e+000
      vertex   1.063615e+001 -8.000000e+000 1.711758e+000
      vertex   1.100000e+001 -8.000000e+000 1.750000e+000
    endloop
  endfacet
  facet normal 0.000000e+000 -1.000000e+000 0.000000e+000
    outer loop
      vertex   -9.484456e+000 -8.000000e+000 8.750000e-001
      vertex   1.028821e+001 -8.000000e+000 1.598705e+000
      vertex   1.063615e+001 -8.000000e+000 1.711758e+000
    endloop
  endfacet
  facet normal -0.000000e+000 -1.000000e+000 0.000000e+000
    outer loop
      vertex   9.259587e+000 -8.000000e+000 1.829248e-001
      vertex   9.335651e+000 -8.000000e+000 5.407797e-001
      vertex   -9.259587e+000 -8.000000e+000 1.829248e-001
    endloop
  endfacet
  facet normal -0.000000e+000 -1.000000e+000 0.000000e+000
    outer loop
      vertex   1.063615e+001 -8.000000e+000 1.711758e+000
      vertex   2.500000e+001 -8.000000e+000 4.000000e+000
      vertex   -9.484456e+000 -8.000000e+000 8.750000e-001
    endloop
  endfacet
  facet normal 0.000000e+000 -1.000000e+000 0.000000e+000
    outer loop
      vertex   1.100000e+001 -8.000000e+000 1.750000e+000
      vertex   1.136385e+001 -8.000000e+000 1.711758e+000
      vertex   2.500000e+001 -8.000000e+000 4.000000e+000
    endloop
  endfacet
  facet normal 0.000000e+000 -1.000000e+000 0.000000e+000
    outer loop
      vertex   -9.484456e+000 -8.000000e+000 -8.750000e-001
      vertex   9.699497e+000 -8.000000e+000 -1.170979e+000
      vertex   9.484456e+000 -8.000000e+000 -8.750000e-001
    endloop
  endfacet
  facet normal 0.000000e+000 -1.000000e+000 0.000000e+000
    outer loop
      vertex   2.500000e+001 -8.000000e+000 4.000000e+000
      vertex   1.136385e+001 -8.000000e+000 1.711758e+000
      vertex   1.171179e+001 -8.000000e+000 1.598705e+000
    endloop
  endfacet
  facet normal 0.000000e+000 -1.000000e+000 0.000000e+000
    outer loop
      vertex   -9.484456e+000 -8.000000e+000 8.750000e-001
      vertex   9.971376e+000 -8.000000e+000 1.415780e+000
      vertex   1.028821e+001 -8.000000e+000 1.598705e+000
    endloop
  endfacet
  facet normal 0.000000e+000 -1.000000e+000 0.000000e+000
    outer loop
      vertex   -9.484456e+000 -8.000000e+000 8.750000e-001
      vertex   9.484456e+000 -8.000000e+000 8.750000e-001
      vertex   9.699497e+000 -8.000000e+000 1.170979e+000
    endloop
  endfacet
  facet normal 0.000000e+000 -1.000000e+000 -0.000000e+000
    outer loop
      vertex   -9.335651e+000 -8.000000e+000 -5.407797e-001
      vertex   -9.484456e+000 -8.000000e+000 -8.750000e-001
      vertex   9.484456e+000 -8.000000e+000 -8.750000e-001
    endloop
  endfacet
  facet normal 0.000000e+000 -1.000000e+000 0.000000e+000
    outer loop
      vertex   -9.484456e+000 -8.000000e+000 -8.750000e-001
      vertex   1.063615e+001 -8.000000e+000 -1.711758e+000
      vertex   1.028821e+001 -8.000000e+000 -1.598705e+000
    endloop
  endfacet
  facet normal -0.000000e+000 -1.000000e+000 0.000000e+000
    outer loop
      vertex   2.500000e+001 -8.000000e+000 4.000000e+000
      vertex   -2.500000e+001 -8.000000e+000 4.000000e+000
      vertex   -1.100000e+001 -8.000000e+000 1.750000e+000
    endloop
  endfacet
  facet normal 0.000000e+000 -1.000000e+000 0.000000e+000
    outer loop
      vertex   2.500000e+001 -8.000000e+000 -4.000000e+000
      vertex   -1.028821e+001 -8.000000e+000 -1.598705e+000
      vertex   -1.063615e+001 -8.000000e+000 -1.711758e+000
    endloop
  endfacet
  facet normal 0.000000e+000 -1.000000e+000 0.000000e+000
    outer loop
      vertex   9.335651e+000 -8.000000e+000 5.407797e-001
      vertex   9.484456e+000 -8.000000e+000 8.750000e-001
      vertex   -9.484456e+000 -8.000000e+000 8.750000e-001
    endloop
  endfacet
  facet normal 0.000000e+000 -1.000000e+000 0.000000e+000
    outer loop
      vertex   1.028821e+001 -8.000000e+000 -1.598705e+000
      vertex   9.971376e+000 -8.000000e+000 -1.415780e+000
      vertex   -9.484456e+000 -8.000000e+000 -8.750000e-001
    endloop
  endfacet
  facet normal 0.000000e+000 -1.000000e+000 0.000000e+000
    outer loop
      vertex   -9.484456e+000 -8.000000e+000 -8.750000e-001
      vertex   2.500000e+001 -8.000000e+000 -4.000000e+000
      vertex   1.100000e+001 -8.000000e+000 -1.750000e+000
    endloop
  endfacet
  facet normal 0.000000e+000 -1.000000e+000 0.000000e+000
    outer loop
      vertex   -2.500000e+001 -8.000000e+000 4.000000e+000
      vertex   -1.136385e+001 -8.000000e+000 1.711758e+000
      vertex   -1.100000e+001 -8.000000e+000 1.750000e+000
    endloop
  endfacet
  facet normal 0.000000e+000 -1.000000e+000 0.000000e+000
    outer loop
      vertex   -2.500000e+001 -8.000000e+000 4.000000e+000
      vertex   -2.500000e+001 -8.000000e+000 -4.000000e+000
      vertex   -1.274041e+001 -8.000000e+000 -1.829248e-001
    endloop
  endfacet
  facet normal 0.000000e+000 -1.000000e+000 -0.000000e+000
    outer loop
      vertex   -1.063615e+001 -8.000000e+000 -1.711758e+000
      vertex   -2.500000e+001 -8.000000e+000 -4.000000e+000
      vertex   2.500000e+001 -8.000000e+000 -4.000000e+000
    endloop
  endfacet
  facet normal 0.000000e+000 -1.000000e+000 0.000000e+000
    outer loop
      vertex   -1.063615e+001 -8.000000e+000 -1.711758e+000
      vertex   -1.100000e+001 -8.000000e+000 -1.750000e+000
      vertex   -2.500000e+001 -8.000000e+000 -4.000000e+000
    endloop
  endfacet
  facet normal -0.000000e+000 -1.000000e+000 0.000000e+000
    outer loop
      vertex   9.699497e+000 -8.000000e+000 1.170979e+000
      vertex   9.971376e+000 -8.000000e+000 1.415780e+000
      vertex   -9.484456e+000 -8.000000e+000 8.750000e-001
    endloop
  endfacet
  facet normal 0.000000e+000 -1.000000e+000 0.000000e+000
    outer loop
      vertex   1.100000e+001 -8.000000e+000 -1.750000e+000
      vertex   1.063615e+001 -8.000000e+000 -1.711758e+000
      vertex   -9.484456e+000 -8.000000e+000 -8.750000e-001
    endloop
  endfacet
  facet normal 0.000000e+000 -1.000000e+000 0.000000e+000
    outer loop
      vertex   -2.500000e+001 -8.000000e+000 4.000000e+000
      vertex   -1.171179e+001 -8.000000e+000 1.598705e+000
      vertex   -1.136385e+001 -8.000000e+000 1.711758e+000
    endloop
  endfacet
  facet normal 0.000000e+000 -1.000000e+000 0.000000e+000
    outer loop
      vertex   -1.274041e+001 -8.000000e+000 -1.829248e-001
      vertex   -1.274041e+001 -8.000000e+000 1.829248e-001
      vertex   -2.500000e+001 -8.000000e+000 4.000000e+000
    endloop
  endfacet
  facet normal 0.000000e+000 -1.000000e+000 0.000000e+000
    outer loop
      vertex   2.500000e+001 -8.000000e+000 -4.000000e+000
      vertex   -9.971376e+000 -8.000000e+000 -1.415780e+000
      vertex   -1.028821e+001 -8.000000e+000 -1.598705e+000
    endloop
  endfacet
  facet normal 0.000000e+000 -1.000000e+000 0.000000e+000
    outer loop
      vertex   2.500000e+001 -8.000000e+000 -4.000000e+000
      vertex   -9.484456e+000 -8.000000e+000 -8.750000e-001
      vertex   -9.699497e+000 -8.000000e+000 -1.170979e+000
    endloop
  endfacet
  facet normal 0.000000e+000 -1.000000e+000 0.000000e+000
    outer loop
      vertex   2.500000e+001 -8.000000e+000 4.000000e+000
      vertex   1.202862e+001 -8.000000e+000 1.415780e+000
      vertex   1.230050e+001 -8.000000e+000 1.170979e+000
    endloop
  endfacet
  facet normal 0.000000e+000 -1.000000e+000 0.000000e+000
    outer loop
      vertex   9.971376e+000 -8.000000e+000 -1.415780e+000
      vertex   9.699497e+000 -8.000000e+000 -1.170979e+000
      vertex   -9.484456e+000 -8.000000e+000 -8.750000e-001
    endloop
  endfacet
  facet normal 0.000000e+000 -1.000000e+000 0.000000e+000
    outer loop
      vertex   2.500000e+001 -8.000000e+000 4.000000e+000
      vertex   -1.063615e+001 -8.000000e+000 1.711758e+000
      vertex   -1.028821e+001 -8.000000e+000 1.598705e+000
    endloop
  endfacet
  facet normal 0.000000e+000 -1.000000e+000 0.000000e+000
    outer loop
      vertex   -2.500000e+001 -8.000000e+000 4.000000e+000
      vertex   -1.202862e+001 -8.000000e+000 1.415780e+000
      vertex   -1.171179e+001 -8.000000e+000 1.598705e+000
    endloop
  endfacet
  facet normal 0.000000e+000 -1.000000e+000 0.000000e+000
    outer loop
      vertex   -2.500000e+001 -8.000000e+000 4.000000e+000
      vertex   -1.251554e+001 -8.000000e+000 8.750000e-001
      vertex   -1.230050e+001 -8.000000e+000 1.170979e+000
    endloop
  endfacet
  facet normal 0.000000e+000 -1.000000e+000 0.000000e+000
    outer loop
      vertex   -1.274041e+001 -8.000000e+000 1.829248e-001
      vertex   -1.266435e+001 -8.000000e+000 5.407797e-001
      vertex   -2.500000e+001 -8.000000e+000 4.000000e+000
    endloop
  endfacet
  facet normal 0.000000e+000 -1.000000e+000 -0.000000e+000
    outer loop
      vertex   -9.699497e+000 -8.000000e+000 -1.170979e+000
      vertex   -9.971376e+000 -8.000000e+000 -1.415780e+000
      vertex   2.500000e+001 -8.000000e+000 -4.000000e+000
    endloop
  endfacet
  facet normal 0.000000e+000 -1.000000e+000 0.000000e+000
    outer loop
      vertex   1.171179e+001 -8.000000e+000 1.598705e+000
      vertex   1.202862e+001 -8.000000e+000 1.415780e+000
      vertex   2.500000e+001 -8.000000e+000 4.000000e+000
    endloop
  endfacet
  facet normal 0.000000e+000 -1.000000e+000 0.000000e+000
    outer loop
      vertex   -1.100000e+001 -8.000000e+000 1.750000e+000
      vertex   -1.063615e+001 -8.000000e+000 1.711758e+000
      vertex   2.500000e+001 -8.000000e+000 4.000000e+000
    endloop
  endfacet
  facet normal 0.000000e+000 -1.000000e+000 0.000000e+000
    outer loop
      vertex   -1.266435e+001 -8.000000e+000 5.407797e-001
      vertex   -1.251554e+001 -8.000000e+000 8.750000e-001
      vertex   -2.500000e+001 -8.000000e+000 4.000000e+000
    endloop
  endfacet
  facet normal 0.000000e+000 -1.000000e+000 0.000000e+000
    outer loop
      vertex   -2.500000e+001 -8.000000e+000 -4.000000e+000
      vertex   -1.136385e+001 -8.000000e+000 -1.711758e+000
      vertex   -1.171179e+001 -8.000000e+000 -1.598705e+000
    endloop
  endfacet
  facet normal 0.000000e+000 -1.000000e+000 0.000000e+000
    outer loop
      vertex   2.500000e+001 -8.000000e+000 -4.000000e+000
      vertex   1.171179e+001 -8.000000e+000 -1.598705e+000
      vertex   1.136385e+001 -8.000000e+000 -1.711758e+000
    endloop
  endfacet
  facet normal 0.000000e+000 -1.000000e+000 0.000000e+000
    outer loop
      vertex   2.500000e+001 -8.000000e+000 -4.000000e+000
      vertex   2.500000e+001 -8.000000e+000 4.000000e+000
      vertex   1.274041e+001 -8.000000e+000 1.829248e-001
    endloop
  endfacet
  facet normal 0.000000e+000 -1.000000e+000 0.000000e+000
    outer loop
      vertex   2.500000e+001 -8.000000e+000 4.000000e+000
      vertex   1.251554e+001 -8.000000e+000 8.750000e-001
      vertex   1.266435e+001 -8.000000e+000 5.407797e-001
    endloop
  endfacet
  facet normal 0.000000e+000 -1.000000e+000 0.000000e+000
    outer loop
      vertex   1.230050e+001 -8.000000e+000 1.170979e+000
      vertex   1.251554e+001 -8.000000e+000 8.750000e-001
      vertex   2.500000e+001 -8.000000e+000 4.000000e+000
    endloop
  endfacet
  facet normal 0.000000e+000 -1.000000e+000 0.000000e+000
    outer loop
      vertex   2.500000e+001 -8.000000e+000 4.000000e+000
      vertex   -9.971376e+000 -8.000000e+000 1.415780e+000
      vertex   -9.699497e+000 -8.000000e+000 1.170979e+000
    endloop
  endfacet
  facet normal 0.000000e+000 -1.000000e+000 0.000000e+000
    outer loop
      vertex   -1.230050e+001 -8.000000e+000 1.170979e+000
      vertex   -1.202862e+001 -8.000000e+000 1.415780e+000
      vertex   -2.500000e+001 -8.000000e+000 4.000000e+000
    endloop
  endfacet
  facet normal 0.000000e+000 -1.000000e+000 0.000000e+000
    outer loop
      vertex   -2.500000e+001 -8.000000e+000 -4.000000e+000
      vertex   -1.251554e+001 -8.000000e+000 -8.750000e-001
      vertex   -1.266435e+001 -8.000000e+000 -5.407797e-001
    endloop
  endfacet
  facet normal -0.000000e+000 -1.000000e+000 0.000000e+000
    outer loop
      vertex   -1.171179e+001 -8.000000e+000 -1.598705e+000
      vertex   -1.202862e+001 -8.000000e+000 -1.415780e+000
      vertex   -2.500000e+001 -8.000000e+000 -4.000000e+000
    endloop
  endfacet
  facet normal 0.000000e+000 -1.000000e+000 0.000000e+000
    outer loop
      vertex   2.500000e+001 -8.000000e+000 -4.000000e+000
      vertex   1.202862e+001 -8.000000e+000 -1.415780e+000
      vertex   1.171179e+001 -8.000000e+000 -1.598705e+000
    endloop
  endfacet
  facet normal 0.000000e+000 -1.000000e+000 0.000000e+000
    outer loop
      vertex   2.500000e+001 -8.000000e+000 -4.000000e+000
      vertex   1.251554e+001 -8.000000e+000 -8.750000e-001
      vertex   1.230050e+001 -8.000000e+000 -1.170979e+000
    endloop
  endfacet
  facet normal 0.000000e+000 -1.000000e+000 -0.000000e+000
    outer loop
      vertex   1.274041e+001 -8.000000e+000 1.829248e-001
      vertex   1.274041e+001 -8.000000e+000 -1.829248e-001
      vertex   2.500000e+001 -8.000000e+000 -4.000000e+000
    endloop
  endfacet
  facet normal 0.000000e+000 -1.000000e+000 0.000000e+000
    outer loop
      vertex   -1.028821e+001 -8.000000e+000 1.598705e+000
      vertex   -9.971376e+000 -8.000000e+000 1.415780e+000
      vertex   2.500000e+001 -8.000000e+000 4.000000e+000
    endloop
  endfacet
  facet normal 0.000000e+000 -1.000000e+000 0.000000e+000
    outer loop
      vertex   -2.500000e+001 -8.000000e+000 -4.000000e+000
      vertex   -1.230050e+001 -8.000000e+000 -1.170979e+000
      vertex   -1.251554e+001 -8.000000e+000 -8.750000e-001
    endloop
  endfacet
  facet normal 0.000000e+000 -1.000000e+000 0.000000e+000
    outer loop
      vertex   -2.500000e+001 -8.000000e+000 -4.000000e+000
      vertex   -1.100000e+001 -8.000000e+000 -1.750000e+000
      vertex   -1.136385e+001 -8.000000e+000 -1.711758e+000
    endloop
  endfacet
  facet normal 0.000000e+000 -1.000000e+000 -0.000000e+000
    outer loop
      vertex   1.230050e+001 -8.000000e+000 -1.170979e+000
      vertex   1.202862e+001 -8.000000e+000 -1.415780e+000
      vertex   2.500000e+001 -8.000000e+000 -4.000000e+000
    endloop
  endfacet
  facet normal 0.000000e+000 -1.000000e+000 -0.000000e+000
    outer loop
      vertex   1.274041e+001 -8.000000e+000 -1.829248e-001
      vertex   1.266435e+001 -8.000000e+000 -5.407797e-001
      vertex   2.500000e+001 -8.000000e+000 -4.000000e+000
    endloop
  endfacet
  facet normal 0.000000e+000 -1.000000e+000 0.000000e+000
    outer loop
      vertex   -9.699497e+000 -8.000000e+000 1.170979e+000
      vertex   -9.484456e+000 -8.000000e+000 8.750000e-001
      vertex   2.500000e+001 -8.000000e+000 4.000000e+000
    endloop
  endfacet
  facet normal -0.000000e+000 -1.000000e+000 0.000000e+000
    outer loop
      vertex   -1.202862e+001 -8.000000e+000 -1.415780e+000
      vertex   -1.230050e+001 -8.000000e+000 -1.170979e+000
      vertex   -2.500000e+001 -8.000000e+000 -4.000000e+000
    endloop
  endfacet
  facet normal 0.000000e+000 -1.000000e+000 -0.000000e+000
    outer loop
      vertex   1.266435e+001 -8.000000e+000 -5.407797e-001
      vertex   1.251554e+001 -8.000000e+000 -8.750000e-001
      vertex   2.500000e+001 -8.000000e+000 -4.000000e+000
    endloop
  endfacet
  facet normal -0.000000e+000 -1.000000e+000 0.000000e+000
    outer loop
      vertex   -1.266435e+001 -8.000000e+000 -5.407797e-001
      vertex   -1.274041e+001 -8.000000e+000 -1.829248e-001
      vertex   -2.500000e+001 -8.000000e+000 -4.000000e+000
    endloop
  endfacet
  facet normal 0.000000e+000 -1.000000e+000 0.000000e+000
    outer loop
      vertex   1.266435e+001 -8.000000e+000 5.407797e-001
      vertex   1.274041e+001 -8.000000e+000 1.829248e-001
      vertex   2.500000e+001 -8.000000e+000 4.000000e+000
    endloop
  endfacet
  facet normal 0.000000e+000 -1.000000e+000 -0.000000e+000
    outer loop
      vertex   1.136385e+001 -8.000000e+000 -1.711758e+000
      vertex   1.100000e+001 -8.000000e+000 -1.750000e+000
      vertex   2.500000e+001 -8.000000e+000 -4.000000e+000
    endloop
  endfacet
  facet normal 0.000000e+000 1.000000e+000 0.000000e+000
    outer loop
      vertex   2.500000e+001 8.000000e+000 -4.000000e+000
      vertex   1.136385e+001 8.000000e+000 -1.711758e+000
      vertex   1.171179e+001 8.000000e+000 -1.598705e+000
    endloop
  endfacet
  facet normal 0.000000e+000 1.000000e+000 0.000000e+000
    outer loop
      vertex   2.500000e+001 8.000000e+000 -4.000000e+000
      vertex   4.000000e+000 8.000000e+000 -4.000000e+000
      vertex   1.100000e+001 8.000000e+000 -1.750000e+000
    endloop
  endfacet
  facet normal 0.000000e+000 1.000000e+000 0.000000e+000
    outer loop
      vertex   4.000000e+000 8.000000e+000 -4.000000e+000
      vertex   9.971376e+000 8.000000e+000 -1.415780e+000
      vertex   1.028821e+001 8.000000e+000 -1.598705e+000
    endloop
  endfacet
  facet normal 0.000000e+000 1.000000e+000 0.000000e+000
    outer loop
      vertex   2.500000e+001 8.000000e+000 -4.000000e+000
      vertex   1.202862e+001 8.000000e+000 -1.415780e+000
      vertex   1.230050e+001 8.000000e+000 -1.170979e+000
    endloop
  endfacet
  facet normal -0.000000e+000 1.000000e+000 0.000000e+000
    outer loop
      vertex   1.100000e+001 8.000000e+000 -1.750000e+000
      vertex   1.136385e+001 8.000000e+000 -1.711758e+000
      vertex   2.500000e+001 8.000000e+000 -4.000000e+000
    endloop
  endfacet
  facet normal 0.000000e+000 1.000000e+000 0.000000e+000
    outer loop
      vertex   4.000000e+000 8.000000e+000 -4.000000e+000
      vertex   9.699497e+000 8.000000e+000 -1.170979e+000
      vertex   9.971376e+000 8.000000e+000 -1.415780e+000
    endloop
  endfacet
  facet normal 0.000000e+000 1.000000e+000 0.000000e+000
    outer loop
      vertex   4.000000e+000 8.000000e+000 4.000000e+000
      vertex   9.259587e+000 8.000000e+000 1.829248e-001
      vertex   9.259587e+000 8.000000e+000 -1.829248e-001
    endloop
  endfacet
  facet normal 0.000000e+000 1.000000e+000 0.000000e+000
    outer loop
      vertex   2.500000e+001 8.000000e+000 -4.000000e+000
      vertex   1.274041e+001 8.000000e+000 -1.829248e-001
      vertex   1.274041e+001 8.000000e+000 1.829248e-001
    endloop
  endfacet
  facet normal -0.000000e+000 1.000000e+000 0.000000e+000
    outer loop
      vertex   1.171179e+001 8.000000e+000 -1.598705e+000
      vertex   1.202862e+001 8.000000e+000 -1.415780e+000
      vertex   2.500000e+001 8.000000e+000 -4.000000e+000
    endloop
  endfacet
  facet normal 0.000000e+000 1.000000e+000 0.000000e+000
    outer loop
      vertex   1.028821e+001 8.000000e+000 -1.598705e+000
      vertex   1.063615e+001 8.000000e+000 -1.711758e+000
      vertex   4.000000e+000 8.000000e+000 -4.000000e+000
    endloop
  endfacet
  facet normal 0.000000e+000 1.000000e+000 0.000000e+000
    outer loop
      vertex   4.000000e+000 8.000000e+000 -4.000000e+000
      vertex   9.259587e+000 8.000000e+000 -1.829248e-001
      vertex   9.335651e+000 8.000000e+000 -5.407797e-001
    endloop
  endfacet
  facet normal 0.000000e+000 1.000000e+000 0.000000e+000
    outer loop
      vertex   4.000000e+000 8.000000e+000 4.000000e+000
      vertex   9.335651e+000 8.000000e+000 5.407797e-001
      vertex   9.259587e+000 8.000000e+000 1.829248e-001
    endloop
  endfacet
  facet normal 0.000000e+000 1.000000e+000 0.000000e+000
    outer loop
      vertex   2.500000e+001 8.000000e+000 4.000000e+000
      vertex   1.136385e+001 8.000000e+000 1.711758e+000
      vertex   1.100000e+001 8.000000e+000 1.750000e+000
    endloop
  endfacet
  facet normal 0.000000e+000 1.000000e+000 0.000000e+000
    outer loop
      vertex   2.500000e+001 8.000000e+000 4.000000e+000
      vertex   1.202862e+001 8.000000e+000 1.415780e+000
      vertex   1.171179e+001 8.000000e+000 1.598705e+000
    endloop
  endfacet
  facet normal 0.000000e+000 1.000000e+000 0.000000e+000
    outer loop
      vertex   2.500000e+001 8.000000e+000 -4.000000e+000
      vertex   1.266435e+001 8.000000e+000 -5.407797e-001
      vertex   1.274041e+001 8.000000e+000 -1.829248e-001
    endloop
  endfacet
  facet normal 0.000000e+000 1.000000e+000 0.000000e+000
    outer loop
      vertex   1.063615e+001 8.000000e+000 -1.711758e+000
      vertex   1.100000e+001 8.000000e+000 -1.750000e+000
      vertex   4.000000e+000 8.000000e+000 -4.000000e+000
    endloop
  endfacet
  facet normal 0.000000e+000 1.000000e+000 0.000000e+000
    outer loop
      vertex   9.335651e+000 8.000000e+000 -5.407797e-001
      vertex   9.484456e+000 8.000000e+000 -8.750000e-001
      vertex   4.000000e+000 8.000000e+000 -4.000000e+000
    endloop
  endfacet
  facet normal 0.000000e+000 1.000000e+000 0.000000e+000
    outer loop
      vertex   4.000000e+000 8.000000e+000 4.000000e+000
      vertex   9.484456e+000 8.000000e+000 8.750000e-001
      vertex   9.335651e+000 8.000000e+000 5.407797e-001
    endloop
  endfacet
  facet normal 0.000000e+000 1.000000e+000 0.000000e+000
    outer loop
      vertex   4.000000e+000 8.000000e+000 4.000000e+000
      vertex   9.971376e+000 8.000000e+000 1.415780e+000
      vertex   9.699497e+000 8.000000e+000 1.170979e+000
    endloop
  endfacet
  facet normal 0.000000e+000 1.000000e+000 0.000000e+000
    outer loop
      vertex   4.000000e+000 8.000000e+000 4.000000e+000
      vertex   1.100000e+001 8.000000e+000 1.750000e+000
      vertex   1.063615e+001 8.000000e+000 1.711758e+000
    endloop
  endfacet
  facet normal 0.000000e+000 1.000000e+000 -0.000000e+000
    outer loop
      vertex   1.171179e+001 8.000000e+000 1.598705e+000
      vertex   1.136385e+001 8.000000e+000 1.711758e+000
      vertex   2.500000e+001 8.000000e+000 4.000000e+000
    endloop
  endfacet
  facet normal 0.000000e+000 1.000000e+000 0.000000e+000
    outer loop
      vertex   2.500000e+001 8.000000e+000 4.000000e+000
      vertex   1.251554e+001 8.000000e+000 8.750000e-001
      vertex   1.230050e+001 8.000000e+000 1.170979e+000
    endloop
  endfacet
  facet normal 0.000000e+000 1.000000e+000 0.000000e+000
    outer loop
      vertex   2.500000e+001 8.000000e+000 -4.000000e+000
      vertex   1.251554e+001 8.000000e+000 -8.750000e-001
      vertex   1.266435e+001 8.000000e+000 -5.407797e-001
    endloop
  endfacet
  facet normal 0.000000e+000 1.000000e+000 0.000000e+000
    outer loop
      vertex   9.484456e+000 8.000000e+000 -8.750000e-001
      vertex   9.699497e+000 8.000000e+000 -1.170979e+000
      vertex   4.000000e+000 8.000000e+000 -4.000000e+000
    endloop
  endfacet
  facet normal 0.000000e+000 1.000000e+000 0.000000e+000
    outer loop
      vertex   9.699497e+000 8.000000e+000 1.170979e+000
      vertex   9.484456e+000 8.000000e+000 8.750000e-001
      vertex   4.000000e+000 8.000000e+000 4.000000e+000
    endloop
  endfacet
  facet normal 0.000000e+000 1.000000e+000 0.000000e+000
    outer loop
      vertex   1.063615e+001 8.000000e+000 1.711758e+000
      vertex   1.028821e+001 8.000000e+000 1.598705e+000
      vertex   4.000000e+000 8.000000e+000 4.000000e+000
    endloop
  endfacet
  facet normal 0.000000e+000 1.000000e+000 -0.000000e+000
    outer loop
      vertex   1.230050e+001 8.000000e+000 1.170979e+000
      vertex   1.202862e+001 8.000000e+000 1.415780e+000
      vertex   2.500000e+001 8.000000e+000 4.000000e+000
    endloop
  endfacet
  facet normal 0.000000e+000 1.000000e+000 0.000000e+000
    outer loop
      vertex   2.500000e+001 8.000000e+000 4.000000e+000
      vertex   1.274041e+001 8.000000e+000 1.829248e-001
      vertex   1.266435e+001 8.000000e+000 5.407797e-001
    endloop
  endfacet
  facet normal -0.000000e+000 1.000000e+000 0.000000e+000
    outer loop
      vertex   1.230050e+001 8.000000e+000 -1.170979e+000
      vertex   1.251554e+001 8.000000e+000 -8.750000e-001
      vertex   2.500000e+001 8.000000e+000 -4.000000e+000
    endloop
  endfacet
  facet normal 0.000000e+000 1.000000e+000 0.000000e+000
    outer loop
      vertex   1.028821e+001 8.000000e+000 1.598705e+000
      vertex   9.971376e+000 8.000000e+000 1.415780e+000
      vertex   4.000000e+000 8.000000e+000 4.000000e+000
    endloop
  endfacet
  facet normal 0.000000e+000 1.000000e+000 -0.000000e+000
    outer loop
      vertex   1.266435e+001 8.000000e+000 5.407797e-001
      vertex   1.251554e+001 8.000000e+000 8.750000e-001
      vertex   2.500000e+001 8.000000e+000 4.000000e+000
    endloop
  endfacet
  facet normal 0.000000e+000 1.000000e+000 0.000000e+000
    outer loop
      vertex   9.259587e+000 8.000000e+000 -1.829248e-001
      vertex   4.000000e+000 8.000000e+000 -4.000000e+000
      vertex   4.000000e+000 8.000000e+000 4.000000e+000
    endloop
  endfacet
  facet normal -0.000000e+000 1.000000e+000 0.000000e+000
    outer loop
      vertex   1.274041e+001 8.000000e+000 1.829248e-001
      vertex   2.500000e+001 8.000000e+000 4.000000e+000
      vertex   2.500000e+001 8.000000e+000 -4.000000e+000
    endloop
  endfacet
  facet normal 0.000000e+000 1.000000e+000 -0.000000e+000
    outer loop
      vertex   1.100000e+001 8.000000e+000 1.750000e+000
      vertex   4.000000e+000 8.000000e+000 4.000000e+000
      vertex   2.500000e+001 8.000000e+000 4.000000e+000
    endloop
  endfacet
  facet normal 1.045285e-001 0.000000e+000 9.945219e-001
    outer loop
      vertex   1.063615e+001 -8.000000e+000 -1.711758e+000
      vertex   1.100000e+001 -8.000000e+000 -1.750000e+000
      vertex   1.100000e+001 8.000000e+000 -1.750000e+000
    endloop
  endfacet
  facet normal 3.090170e-001 0.000000e+000 9.510565e-001
    outer loop
      vertex   1.028821e+001 -8.000000e+000 -1.598705e+000
      vertex   1.063615e+001 -8.000000e+000 -1.711758e+000
      vertex   1.063615e+001 8.000000e+000 -1.711758e+000
    endloop
  endfacet
  facet normal 5.000000e-001 0.000000e+000 8.660254e-001
    outer loop
      vertex   9.971376e+000 -8.000000e+000 -1.415780e+000
      vertex   1.028821e+001 -8.000000e+000 -1.598705e+000
      vertex   1.028821e+001 8.000000e+000 -1.598705e+000
    endloop
  endfacet
  facet normal 6.691306e-001 0.000000e+000 7.431448e-001
    outer loop
      vertex   9.699497e+000 -8.000000e+000 -1.170979e+000
      vertex   9.971376e+000 -8.000000e+000 -1.415780e+000
      vertex   9.971376e+000 8.000000e+000 -1.415780e+000
    endloop
  endfacet
  facet normal 8.090170e-001 0.000000e+000 5.877853e-001
    outer loop
      vertex   9.484456e+000 -8.000000e+000 -8.750000e-001
      vertex   9.699497e+000 -8.000000e+000 -1.170979e+000
      vertex   9.699497e+000 8.000000e+000 -1.170979e+000
    endloop
  endfacet
  facet normal 9.135455e-001 0.000000e+000 4.067366e-001
    outer loop
      vertex   9.335651e+000 -8.000000e+000 -5.407797e-001
      vertex   9.484456e+000 -8.000000e+000 -8.750000e-001
      vertex   9.484456e+000 8.000000e+000 -8.750000e-001
    endloop
  endfacet
  facet normal 9.781476e-001 0.000000e+000 2.079117e-001
    outer loop
      vertex   9.259587e+000 -8.000000e+000 -1.829248e-001
      vertex   9.335651e+000 -8.000000e+000 -5.407797e-001
      vertex   9.335651e+000 8.000000e+000 -5.407797e-001
    endloop
  endfacet
  facet normal 9.986295e-001 0.000000e+000 -5.233596e-002
    outer loop
      vertex   9.259587e+000 8.000000e+000 1.829248e-001
      vertex   9.259587e+000 -8.000000e+000 1.829248e-001
      vertex   9.250000e+000 -8.000000e+000 1.183777e-015
    endloop
  endfacet
  facet normal 9.999998e-001 -5.991676e-004 -4.743546e-015
    outer loop
      vertex   9.250000e+000 -8.000000e+000 1.183777e-015
      vertex   9.259587e+000 8.000000e+000 -1.829248e-001
      vertex   9.259587e+000 8.000000e+000 1.829248e-001
    endloop
  endfacet
  facet normal 9.781476e-001 0.000000e+000 -2.079117e-001
    outer loop
      vertex   9.335651e+000 -8.000000e+000 5.407797e-001
      vertex   9.259587e+000 -8.000000e+000 1.829248e-001
      vertex   9.259587e+000 8.000000e+000 1.829248e-001
    endloop
  endfacet
  facet normal 9.135455e-001 0.000000e+000 -4.067366e-001
    outer loop
      vertex   9.484456e+000 -8.000000e+000 8.750000e-001
      vertex   9.335651e+000 -8.000000e+000 5.407797e-001
      vertex   9.335651e+000 8.000000e+000 5.407797e-001
    endloop
  endfacet
  facet normal 8.090170e-001 0.000000e+000 -5.877853e-001
    outer loop
      vertex   9.699497e+000 -8.000000e+000 1.170979e+000
      vertex   9.484456e+000 -8.000000e+000 8.750000e-001
      vertex   9.484456e+000 8.000000e+000 8.750000e-001
    endloop
  endfacet
  facet normal 6.691306e-001 0.000000e+000 -7.431448e-001
    outer loop
      vertex   9.971376e+000 -8.000000e+000 1.415780e+000
      vertex   9.699497e+000 -8.000000e+000 1.170979e+000
      vertex   9.699497e+000 8.000000e+000 1.170979e+000
    endloop
  endfacet
  facet normal 5.000000e-001 0.000000e+000 -8.660254e-001
    outer loop
      vertex   1.028821e+001 -8.000000e+000 1.598705e+000
      vertex   9.971376e+000 -8.000000e+000 1.415780e+000
      vertex   9.971376e+000 8.000000e+000 1.415780e+000
    endloop
  endfacet
  facet normal 3.090170e-001 0.000000e+000 -9.510565e-001
    outer loop
      vertex   1.063615e+001 -8.000000e+000 1.711758e+000
      vertex   1.028821e+001 -8.000000e+000 1.598705e+000
      vertex   1.028821e+001 8.000000e+000 1.598705e+000
    endloop
  endfacet
  facet normal 1.045285e-001 0.000000e+000 -9.945219e-001
    outer loop
      vertex   1.100000e+001 -8.000000e+000 1.750000e+000
      vertex   1.063615e+001 -8.000000e+000 1.711758e+000
      vertex   1.063615e+001 8.000000e+000 1.711758e+000
    endloop
  endfacet
  facet normal -1.045285e-001 0.000000e+000 -9.945219e-001
    outer loop
      vertex   1.136385e+001 -8.000000e+000 1.711758e+000
      vertex   1.100000e+001 -8.000000e+000 1.750000e+000
      vertex   1.100000e+001 8.000000e+000 1.750000e+000
    endloop
  endfacet
  facet normal -3.090170e-001 0.000000e+000 -9.510565e-001
    outer loop
      vertex   1.171179e+001 -8.000000e+000 1.598705e+000
      vertex   1.136385e+001 -8.000000e+000 1.711758e+000
      vertex   1.136385e+001 8.000000e+000 1.711758e+000
    endloop
  endfacet
  facet normal -5.000000e-001 0.000000e+000 -8.660254e-001
    outer loop
      vertex   1.202862e+001 -8.000000e+000 1.415780e+000
      vertex   1.171179e+001 -8.000000e+000 1.598705e+000
      vertex   1.171179e+001 8.000000e+000 1.598705e+000
    endloop
  endfacet
  facet normal -6.691306e-001 0.000000e+000 -7.431448e-001
    outer loop
      vertex   1.230050e+001 -8.000000e+000 1.170979e+000
      vertex   1.202862e+001 -8.000000e+000 1.415780e+000
      vertex   1.202862e+001 8.000000e+000 1.415780e+000
    endloop
  endfacet
  facet normal -8.090170e-001 0.000000e+000 -5.877853e-001
    outer loop
      vertex   1.251554e+001 -8.000000e+000 8.750000e-001
      vertex   1.230050e+001 -8.000000e+000 1.170979e+000
      vertex   1.230050e+001 8.000000e+000 1.170979e+000
    endloop
  endfacet
  facet normal -9.135455e-001 0.000000e+000 -4.067366e-001
    outer loop
      vertex   1.266435e+001 -8.000000e+000 5.407797e-001
      vertex   1.251554e+001 -8.000000e+000 8.750000e-001
      vertex   1.251554e+001 8.000000e+000 8.750000e-001
    endloop
  endfacet
  facet normal -9.781476e-001 0.000000e+000 -2.079117e-001
    outer loop
      vertex   1.274041e+001 -8.000000e+000 1.829248e-001
      vertex   1.266435e+001 -8.000000e+000 5.407797e-001
      vertex   1.266435e+001 8.000000e+000 5.407797e-001
    endloop
  endfacet
  facet normal -1.000000e+000 0.000000e+000 4.741630e-015
    outer loop
      vertex   1.274041e+001 -8.000000e+000 -1.829248e-001
      vertex   1.274041e+001 -8.000000e+000 1.829248e-001
      vertex   1.274041e+001 8.000000e+000 1.829248e-001
    endloop
  endfacet
  facet normal -9.781476e-001 0.000000e+000 2.079117e-001
    outer loop
      vertex   1.266435e+001 -8.000000e+000 -5.407797e-001
      vertex   1.274041e+001 -8.000000e+000 -1.829248e-001
      vertex   1.274041e+001 8.000000e+000 -1.829248e-001
    endloop
  endfacet
  facet normal -9.135455e-001 0.000000e+000 4.067366e-001
    outer loop
      vertex   1.251554e+001 -8.000000e+000 -8.750000e-001
      vertex   1.266435e+001 -8.000000e+000 -5.407797e-001
      vertex   1.266435e+001 8.000000e+000 -5.407797e-001
    endloop
  endfacet
  facet normal -8.090170e-001 0.000000e+000 5.877853e-001
    outer loop
      vertex   1.230050e+001 -8.000000e+000 -1.170979e+000
      vertex   1.251554e+001 -8.000000e+000 -8.750000e-001
      vertex   1.251554e+001 8.000000e+000 -8.750000e-001
    endloop
  endfacet
  facet normal -6.691306e-001 0.000000e+000 7.431448e-001
    outer loop
      vertex   1.202862e+001 -8.000000e+000 -1.415780e+000
      vertex   1.230050e+001 -8.000000e+000 -1.170979e+000
      vertex   1.230050e+001 8.000000e+000 -1.170979e+000
    endloop
  endfacet
  facet normal -5.000000e-001 0.000000e+000 8.660254e-001
    outer loop
      vertex   1.171179e+001 -8.000000e+000 -1.598705e+000
      vertex   1.202862e+001 -8.000000e+000 -1.415780e+000
      vertex   1.202862e+001 8.000000e+000 -1.415780e+000
    endloop
  endfacet
  facet normal -3.090170e-001 0.000000e+000 9.510565e-001
    outer loop
      vertex   1.136385e+001 -8.000000e+000 -1.711758e+000
      vertex   1.171179e+001 -8.000000e+000 -1.598705e+000
      vertex   1.171179e+001 8.000000e+000 -1.598705e+000
    endloop
  endfacet
  facet normal -1.045285e-001 0.000000e+000 9.945219e-001
    outer loop
      vertex   1.100000e+001 -8.000000e+000 -1.750000e+000
      vertex   1.136385e+001 -8.000000e+000 -1.711758e+000
      vertex   1.136385e+001 8.000000e+000 -1.711758e+000
    endloop
  endfacet
  facet normal -1.045285e-001 0.000000e+000 9.945219e-001
    outer loop
      vertex   1.136385e+001 8.000000e+000 -1.711758e+000
      vertex   1.100000e+001 8.000000e+000 -1.750000e+000
      vertex   1.100000e+001 -8.000000e+000 -1.750000e+000
    endloop
  endfacet
  facet normal -3.090170e-001 0.000000e+000 9.510565e-001
    outer loop
      vertex   1.171179e+001 8.000000e+000 -1.598705e+000
      vertex   1.136385e+001 8.000000e+000 -1.711758e+000
      vertex   1.136385e+001 -8.000000e+000 -1.711758e+000
    endloop
  endfacet
  facet normal -5.000000e-001 0.000000e+000 8.660254e-001
    outer loop
      vertex   1.202862e+001 8.000000e+000 -1.415780e+000
      vertex   1.171179e+001 8.000000e+000 -1.598705e+000
      vertex   1.171179e+001 -8.000000e+000 -1.598705e+000
    endloop
  endfacet
  facet normal -6.691306e-001 0.000000e+000 7.431448e-001
    outer loop
      vertex   1.230050e+001 8.000000e+000 -1.170979e+000
      vertex   1.202862e+001 8.000000e+000 -1.415780e+000
      vertex   1.202862e+001 -8.000000e+000 -1.415780e+000
    endloop
  endfacet
  facet normal -8.090170e-001 0.000000e+000 5.877853e-001
    outer loop
      vertex   1.251554e+001 8.000000e+000 -8.750000e-001
      vertex   1.230050e+001 8.000000e+000 -1.170979e+000
      vertex   1.230050e+001 -8.000000e+000 -1.170979e+000
    endloop
  endfacet
  facet normal -9.135455e-001 0.000000e+000 4.067366e-001
    outer loop
      vertex   1.266435e+001 8.000000e+000 -5.407797e-001
      vertex   1.251554e+001 8.000000e+000 -8.750000e-001
      vertex   1.251554e+001 -8.000000e+000 -8.750000e-001
    endloop
  endfacet
  facet normal -9.781476e-001 0.000000e+000 2.079117e-001
    outer loop
      vertex   1.274041e+001 8.000000e+000 -1.829248e-001
      vertex   1.266435e+001 8.000000e+000 -5.407797e-001
      vertex   1.266435e+001 -8.000000e+000 -5.407797e-001
    endloop
  endfacet
  facet normal -1.000000e+000 0.000000e+000 4.741630e-015
    outer loop
      vertex   1.274041e+001 8.000000e+000 1.829248e-001
      vertex   1.274041e+001 8.000000e+000 -1.829248e-001
      vertex   1.274041e+001 -8.000000e+000 -1.829248e-001
    endloop
  endfacet
  facet normal -9.781476e-001 0.000000e+000 -2.079117e-001
    outer loop
      vertex   1.266435e+001 8.000000e+000 5.407797e-001
      vertex   1.274041e+001 8.000000e+000 1.829248e-001
      vertex   1.274041e+001 -8.000000e+000 1.829248e-001
    endloop
  endfacet
  facet normal -9.135455e-001 0.000000e+000 -4.067366e-001
    outer loop
      vertex   1.251554e+001 8.000000e+000 8.750000e-001
      vertex   1.266435e+001 8.000000e+000 5.407797e-001
      vertex   1.266435e+001 -8.000000e+000 5.407797e-001
    endloop
  endfacet
  facet normal -8.090170e-001 0.000000e+000 -5.877853e-001
    outer loop
      vertex   1.230050e+001 8.000000e+000 1.170979e+000
      vertex   1.251554e+001 8.000000e+000 8.750000e-001
      vertex   1.251554e+001 -8.000000e+000 8.750000e-001
    endloop
  endfacet
  facet normal -6.691306e-001 0.000000e+000 -7.431448e-001
    outer loop
      vertex   1.202862e+001 8.000000e+000 1.415780e+000
      vertex   1.230050e+001 8.000000e+000 1.170979e+000
      vertex   1.230050e+001 -8.000000e+000 1.170979e+000
    endloop
  endfacet
  facet normal -5.000000e-001 0.000000e+000 -8.660254e-001
    outer loop
      vertex   1.171179e+001 8.000000e+000 1.598705e+000
      vertex   1.202862e+001 8.000000e+000 1.415780e+000
      vertex   1.202862e+001 -8.000000e+000 1.415780e+000
    endloop
  endfacet
  facet normal -3.090170e-001 0.000000e+000 -9.510565e-001
    outer loop
      vertex   1.136385e+001 8.000000e+000 1.711758e+000
      vertex   1.171179e+001 8.000000e+000 1.598705e+000
      vertex   1.171179e+001 -8.000000e+000 1.598705e+000
    endloop
  endfacet
  facet normal -1.045285e-001 0.000000e+000 -9.945219e-001
    outer loop
      vertex   1.100000e+001 8.000000e+000 1.750000e+000
      vertex   1.136385e+001 8.000000e+000 1.711758e+000
      vertex   1.136385e+001 -8.000000e+000 1.711758e+000
    endloop
  endfacet
  facet normal 1.045285e-001 0.000000e+000 -9.945219e-001
    outer loop
      vertex   1.063615e+001 8.000000e+000 1.711758e+000
      vertex   1.100000e+001 8.000000e+000 1.750000e+000
      vertex   1.100000e+001 -8.000000e+000 1.750000e+000
    endloop
  endfacet
  facet normal 3.090170e-001 0.000000e+000 -9.510565e-001
    outer loop
      vertex   1.028821e+001 8.000000e+000 1.598705e+000
      vertex   1.063615e+001 8.000000e+000 1.711758e+000
      vertex   1.063615e+001 -8.000000e+000 1.711758e+000
    endloop
  endfacet
  facet normal 5.000000e-001 0.000000e+000 -8.660254e-001
    outer loop
      vertex   9.971376e+000 8.000000e+000 1.415780e+000
      vertex   1.028821e+001 8.000000e+000 1.598705e+000
      vertex   1.028821e+001 -8.000000e+000 1.598705e+000
    endloop
  endfacet
  facet normal 6.691306e-001 0.000000e+000 -7.431448e-001
    outer loop
      vertex   9.699497e+000 8.000000e+000 1.170979e+000
      vertex   9.971376e+000 8.000000e+000 1.415780e+000
      vertex   9.971376e+000 -8.000000e+000 1.415780e+000
    endloop
  endfacet
  facet normal 8.090170e-001 0.000000e+000 -5.877853e-001
    outer loop
      vertex   9.484456e+000 8.000000e+000 8.750000e-001
      vertex   9.699497e+000 8.000000e+000 1.170979e+000
      vertex   9.699497e+000 -8.000000e+000 1.170979e+000
    endloop
  endfacet
  facet normal 9.135455e-001 0.000000e+000 -4.067366e-001
    outer loop
      vertex   9.335651e+000 8.000000e+000 5.407797e-001
      vertex   9.484456e+000 8.000000e+000 8.750000e-001
      vertex   9.484456e+000 -8.000000e+000 8.750000e-001
    endloop
  endfacet
  facet normal 9.781476e-001 0.000000e+000 -2.079117e-001
    outer loop
      vertex   9.259587e+000 8.000000e+000 1.829248e-001
      vertex   9.335651e+000 8.000000e+000 5.407797e-001
      vertex   9.335651e+000 -8.000000e+000 5.407797e-001
    endloop
  endfacet
  facet normal 9.986295e-001 0.000000e+000 5.233596e-002
    outer loop
      vertex   9.250000e+000 -8.000000e+000 1.183777e-015
      vertex   9.259587e+000 -8.000000e+000 -1.829248e-001
      vertex   9.259587e+000 8.000000e+000 -1.829248e-001
    endloop
  endfacet
  facet normal 9.781476e-001 0.000000e+000 2.079117e-001
    outer loop
      vertex   9.335651e+000 8.000000e+000 -5.407797e-001
      vertex   9.259587e+000 8.000000e+000 -1.829248e-001
      vertex   9.259587e+000 -8.000000e+000 -1.829248e-001
    endloop
  endfacet
  facet normal 9.135455e-001 0.000000e+000 4.067366e-001
    outer loop
      vertex   9.484456e+000 8.000000e+000 -8.750000e-001
      vertex   9.335651e+000 8.000000e+000 -5.407797e-001
      vertex   9.335651e+000 -8.000000e+000 -5.407797e-001
    endloop
  endfacet
  facet normal 8.090170e-001 0.000000e+000 5.877853e-001
    outer loop
      vertex   9.699497e+000 8.000000e+000 -1.170979e+000
      vertex   9.484456e+000 8.000000e+000 -8.750000e-001
      vertex   9.484456e+000 -8.000000e+000 -8.750000e-001
    endloop
  endfacet
  facet normal 6.691306e-001 0.000000e+000 7.431448e-001
    outer loop
      vertex   9.971376e+000 8.000000e+000 -1.415780e+000
      vertex   9.699497e+000 8.000000e+000 -1.170979e+000
      vertex   9.699497e+000 -8.000000e+000 -1.170979e+000
    endloop
  endfacet
  facet normal 5.000000e-001 0.000000e+000 8.660254e-001
    outer loop
      vertex   1.028821e+001 8.000000e+000 -1.598705e+000
      vertex   9.971376e+000 8.000000e+000 -1.415780e+000
      vertex   9.971376e+000 -8.000000e+000 -1.415780e+000
    endloop
  endfacet
  facet normal 3.090170e-001 0.000000e+000 9.510565e-001
    outer loop
      vertex   1.063615e+001 8.000000e+000 -1.711758e+000
      vertex   1.028821e+001 8.000000e+000 -1.598705e+000
      vertex   1.028821e+001 -8.000000e+000 -1.598705e+000
    endloop
  endfacet
  facet normal 1.045285e-001 0.000000e+000 9.945219e-001
    outer loop
      vertex   1.100000e+001 8.000000e+000 -1.750000e+000
      vertex   1.063615e+001 8.000000e+000 -1.711758e+000
      vertex   1.063615e+001 -8.000000e+000 -1.711758e+000
    endloop
  endfacet
endsolid
