solid OpenSCAD_Model
  facet normal -1 0 0
    outer loop
      vertex 0 0 0
      vertex 0 0 5
      vertex 0 50 0
    endloop
  endfacet
  facet normal -1 0 0
    outer loop
      vertex 0 50 0
      vertex 0 0 5
      vertex 0 50 5
    endloop
  endfacet
  facet normal 0 -1 0
    outer loop
      vertex 0 0 5
      vertex 0 0 0
      vertex 50 0 0
    endloop
  endfacet
  facet normal 0 -1 0
    outer loop
      vertex 50 0 5
      vertex 0 0 5
      vertex 50 0 0
    endloop
  endfacet
  facet normal 0 0 -1
    outer loop
      vertex 0 0 0
      vertex 0 50 0
      vertex 50 0 0
    endloop
  endfacet
  facet normal 0 0 -1
    outer loop
      vertex 50 0 0
      vertex 0 50 0
      vertex 50 50 0
    endloop
  endfacet
  facet normal 0 1 0
    outer loop
      vertex 0 50 0
      vertex 0 50 5
      vertex 50 50 0
    endloop
  endfacet
  facet normal 0 1 0
    outer loop
      vertex 50 50 0
      vertex 0 50 5
      vertex 50 50 5
    endloop
  endfacet
  facet normal 0 0 1
    outer loop
      vertex 2 2 5
      vertex 0 0 5
      vertex 50 0 5
    endloop
  endfacet
  facet normal 0 0 1
    outer loop
      vertex 2 48 5
      vertex 0 50 5
      vertex 2 2 5
    endloop
  endfacet
  facet normal 0 0 1
    outer loop
      vertex 48 2 5
      vertex 2 2 5
      vertex 50 0 5
    endloop
  endfacet
  facet normal 0 0 1
    outer loop
      vertex 0 50 5
      vertex 0 0 5
      vertex 2 2 5
    endloop
  endfacet
  facet normal 0 0 1
    outer loop
      vertex 50 50 5
      vertex 0 50 5
      vertex 2 48 5
    endloop
  endfacet
  facet normal 0 0 1
    outer loop
      vertex 50 50 5
      vertex 48 48 5
      vertex 50 0 5
    endloop
  endfacet
  facet normal 0 0 1
    outer loop
      vertex 50 50 5
      vertex 2 48 5
      vertex 48 48 5
    endloop
  endfacet
  facet normal 0 0 1
    outer loop
      vertex 48 48 5
      vertex 48 2 5
      vertex 50 0 5
    endloop
  endfacet
  facet normal 1 0 0
    outer loop
      vertex 50 0 5
      vertex 50 0 0
      vertex 50 50 0
    endloop
  endfacet
  facet normal 1 0 0
    outer loop
      vertex 50 50 5
      vertex 50 0 5
      vertex 50 50 0
    endloop
  endfacet
  facet normal 1 0 0
    outer loop
      vertex 2 48 2
      vertex 2 48 5
      vertex 2 2 5
    endloop
  endfacet
  facet normal 1 0 0
    outer loop
      vertex 2 2 2
      vertex 2 48 2
      vertex 2 2 5
    endloop
  endfacet
  facet normal 0 1 0
    outer loop
      vertex 48 2 5
      vertex 48 2 2
      vertex 2 2 5
    endloop
  endfacet
  facet normal 0 1 0
    outer loop
      vertex 2 2 5
      vertex 48 2 2
      vertex 2 2 2
    endloop
  endfacet
  facet normal -1 0 0
    outer loop
      vertex 48 48 5
      vertex 48 48 2
      vertex 48 2 5
    endloop
  endfacet
  facet normal -1 0 0
    outer loop
      vertex 48 2 5
      vertex 48 48 2
      vertex 48 2 2
    endloop
  endfacet
  facet normal 0 -1 0
    outer loop
      vertex 48 48 2
      vertex 48 48 5
      vertex 2 48 5
    endloop
  endfacet
  facet normal 0 -1 0
    outer loop
      vertex 2 48 2
      vertex 48 48 2
      vertex 2 48 5
    endloop
  endfacet
  facet normal 0 0 1
    outer loop
      vertex 48 2 2
      vertex 48 48 2
      vertex 2 48 2
    endloop
  endfacet
  facet normal 0 0 1
    outer loop
      vertex 2 2 2
      vertex 48 2 2
      vertex 2 48 2
    endloop
  endfacet
endsolid OpenSCAD_Model
