solid ascii
  facet normal -1.000000e+000 1.156482e-016 0.000000e+000
    outer loop
      vertex   -2.000000e+001 1.500000e+001 1.000000e+000
      vertex   -2.000000e+001 1.500000e+001 0.000000e+000
      vertex   -2.000000e+001 -1.500000e+001 0.000000e+000
    endloop
  endfacet
  facet normal -1.000000e+000 1.156482e-016 0.000000e+000
    outer loop
      vertex   -2.000000e+001 -1.500000e+001 0.000000e+000
      vertex   -2.000000e+001 -1.500000e+001 1.000000e+000
      vertex   -2.000000e+001 1.500000e+001 1.000000e+000
    endloop
  endfacet
  facet normal -1.301043e-016 -1.000000e+000 -0.000000e+000
    outer loop
      vertex   -2.000000e+001 -1.500000e+001 1.000000e+000
      vertex   -2.000000e+001 -1.500000e+001 0.000000e+000
      vertex   2.000000e+001 -1.500000e+001 0.000000e+000
    endloop
  endfacet
  facet normal -1.301043e-016 -1.000000e+000 0.000000e+000
    outer loop
      vertex   2.000000e+001 -1.500000e+001 0.000000e+000
      vertex   2.000000e+001 -1.500000e+001 1.000000e+000
      vertex   -2.000000e+001 -1.500000e+001 1.000000e+000
    endloop
  endfacet
  facet normal 1.000000e+000 -1.156482e-016 0.000000e+000
    outer loop
      vertex   2.000000e+001 -1.500000e+001 1.000000e+000
      vertex   2.000000e+001 -1.500000e+001 0.000000e+000
      vertex   2.000000e+001 1.500000e+001 0.000000e+000
    endloop
  endfacet
  facet normal 1.000000e+000 -1.156482e-016 0.000000e+000
    outer loop
      vertex   2.000000e+001 1.500000e+001 0.000000e+000
      vertex   2.000000e+001 1.500000e+001 1.000000e+000
      vertex   2.000000e+001 -1.500000e+001 1.000000e+000
    endloop
  endfacet
  facet normal 1.301043e-016 1.000000e+000 0.000000e+000
    outer loop
      vertex   2.000000e+001 1.500000e+001 1.000000e+000
      vertex   2.000000e+001 1.500000e+001 0.000000e+000
      vertex   -2.000000e+001 1.500000e+001 0.000000e+000
    endloop
  endfacet
  facet normal 1.301043e-016 1.000000e+000 -0.000000e+000
    outer loop
      vertex   -2.000000e+001 1.500000e+001 0.000000e+000
      vertex   -2.000000e+001 1.500000e+001 1.000000e+000
      vertex   2.000000e+001 1.500000e+001 1.000000e+000
    endloop
  endfacet
  facet normal 0.000000e+000 0.000000e+000 1.000000e+000
    outer loop
      vertex   -9.605259e+000 -1.600000e+000 1.000000e+000
      vertex   -9.211336e+000 -1.930541e+000 1.000000e+000
      vertex   -9.258848e+000 -1.800000e+000 1.000000e+000
    endloop
  endfacet
  facet normal 0.000000e+000 0.000000e+000 1.000000e+000
    outer loop
      vertex   9.211336e+000 -1.930541e+000 1.000000e+000
      vertex   9.605259e+000 -1.600000e+000 1.000000e+000
      vertex   9.468451e+000 -1.624123e+000 1.000000e+000
    endloop
  endfacet
  facet normal 0.000000e+000 0.000000e+000 1.000000e+000
    outer loop
      vertex   -9.258848e+000 -1.800000e+000 1.000000e+000
      vertex   -9.348144e+000 -1.693582e+000 1.000000e+000
      vertex   -9.605259e+000 -1.600000e+000 1.000000e+000
    endloop
  endfacet
  facet normal -0.000000e+000 0.000000e+000 1.000000e+000
    outer loop
      vertex   -2.000000e+001 -1.500000e+001 1.000000e+000
      vertex   2.000000e+001 -1.500000e+001 1.000000e+000
      vertex   7.204119e+000 -5.700000e+000 1.000000e+000
    endloop
  endfacet
  facet normal 0.000000e+000 0.000000e+000 1.000000e+000
    outer loop
      vertex   9.468451e+000 -1.624123e+000 1.000000e+000
      vertex   9.348144e+000 -1.693582e+000 1.000000e+000
      vertex   9.211336e+000 -1.930541e+000 1.000000e+000
    endloop
  endfacet
  facet normal 0.000000e+000 0.000000e+000 1.000000e+000
    outer loop
      vertex   -8.779811e+000 -4.377837e+000 1.000000e+000
      vertex   -9.605259e+000 -1.600000e+000 1.000000e+000
      vertex   -1.250000e+001 -1.600000e+000 1.000000e+000
    endloop
  endfacet
  facet normal 0.000000e+000 0.000000e+000 1.000000e+000
    outer loop
      vertex   -9.605259e+000 -1.600000e+000 1.000000e+000
      vertex   -8.779811e+000 -4.377837e+000 1.000000e+000
      vertex   -9.211336e+000 -1.930541e+000 1.000000e+000
    endloop
  endfacet
  facet normal 0.000000e+000 0.000000e+000 1.000000e+000
    outer loop
      vertex   2.000000e+001 -1.500000e+001 1.000000e+000
      vertex   7.521153e+000 -5.668276e+000 1.000000e+000
      vertex   7.204119e+000 -5.700000e+000 1.000000e+000
    endloop
  endfacet
  facet normal 0.000000e+000 0.000000e+000 1.000000e+000
    outer loop
      vertex   2.000000e+001 -1.500000e+001 1.000000e+000
      vertex   8.349506e+000 -5.217179e+000 1.000000e+000
      vertex   8.105431e+000 -5.421982e+000 1.000000e+000
    endloop
  endfacet
  facet normal 0.000000e+000 0.000000e+000 1.000000e+000
    outer loop
      vertex   1.250000e+001 -1.600000e+000 1.000000e+000
      vertex   9.211336e+000 -1.930541e+000 1.000000e+000
      vertex   8.779811e+000 -4.377837e+000 1.000000e+000
    endloop
  endfacet
  facet normal 0.000000e+000 0.000000e+000 1.000000e+000
    outer loop
      vertex   9.211336e+000 -1.930541e+000 1.000000e+000
      vertex   1.250000e+001 -1.600000e+000 1.000000e+000
      vertex   9.605259e+000 -1.600000e+000 1.000000e+000
    endloop
  endfacet
  facet normal 0.000000e+000 0.000000e+000 1.000000e+000
    outer loop
      vertex   -9.348144e+000 -1.693582e+000 1.000000e+000
      vertex   -9.468451e+000 -1.624123e+000 1.000000e+000
      vertex   -9.605259e+000 -1.600000e+000 1.000000e+000
    endloop
  endfacet
  facet normal 0.000000e+000 0.000000e+000 1.000000e+000
    outer loop
      vertex   7.204119e+000 -5.700000e+000 1.000000e+000
      vertex   -7.204119e+000 -5.700000e+000 1.000000e+000
      vertex   -2.000000e+001 -1.500000e+001 1.000000e+000
    endloop
  endfacet
  facet normal 0.000000e+000 0.000000e+000 1.000000e+000
    outer loop
      vertex   8.105431e+000 -5.421982e+000 1.000000e+000
      vertex   7.825614e+000 -5.574362e+000 1.000000e+000
      vertex   2.000000e+001 -1.500000e+001 1.000000e+000
    endloop
  endfacet
  facet normal 0.000000e+000 0.000000e+000 1.000000e+000
    outer loop
      vertex   9.348144e+000 -1.693582e+000 1.000000e+000
      vertex   9.258848e+000 -1.800000e+000 1.000000e+000
      vertex   9.211336e+000 -1.930541e+000 1.000000e+000
    endloop
  endfacet
  facet normal 0.000000e+000 0.000000e+000 1.000000e+000
    outer loop
      vertex   9.924196e+000 1.896472e+000 1.000000e+000
      vertex   1.000415e+001 1.742885e+000 1.000000e+000
      vertex   1.014152e+001 1.637477e+000 1.000000e+000
    endloop
  endfacet
  facet normal 0.000000e+000 0.000000e+000 1.000000e+000
    outer loop
      vertex   -2.000000e+001 -1.500000e+001 1.000000e+000
      vertex   -8.693517e+000 -4.684546e+000 1.000000e+000
      vertex   -8.779811e+000 -4.377837e+000 1.000000e+000
    endloop
  endfacet
  facet normal 0.000000e+000 0.000000e+000 1.000000e+000
    outer loop
      vertex   7.825614e+000 -5.574362e+000 1.000000e+000
      vertex   7.521153e+000 -5.668276e+000 1.000000e+000
      vertex   2.000000e+001 -1.500000e+001 1.000000e+000
    endloop
  endfacet
  facet normal 0.000000e+000 0.000000e+000 1.000000e+000
    outer loop
      vertex   2.000000e+001 -1.500000e+001 1.000000e+000
      vertex   8.693517e+000 -4.684546e+000 1.000000e+000
      vertex   8.548160e+000 -4.968074e+000 1.000000e+000
    endloop
  endfacet
  facet normal -0.000000e+000 0.000000e+000 1.000000e+000
    outer loop
      vertex   8.779811e+000 -4.377837e+000 1.000000e+000
      vertex   2.000000e+001 -1.500000e+001 1.000000e+000
      vertex   1.250000e+001 -1.600000e+000 1.000000e+000
    endloop
  endfacet
  facet normal 0.000000e+000 0.000000e+000 1.000000e+000
    outer loop
      vertex   1.031057e+001 1.600000e+000 1.000000e+000
      vertex   9.916643e+000 2.069459e+000 1.000000e+000
      vertex   9.924196e+000 1.896472e+000 1.000000e+000
    endloop
  endfacet
  facet normal 0.000000e+000 0.000000e+000 1.000000e+000
    outer loop
      vertex   -1.250000e+001 -1.600000e+000 1.000000e+000
      vertex   -2.000000e+001 -1.500000e+001 1.000000e+000
      vertex   -8.779811e+000 -4.377837e+000 1.000000e+000
    endloop
  endfacet
  facet normal 0.000000e+000 0.000000e+000 1.000000e+000
    outer loop
      vertex   8.548160e+000 -4.968074e+000 1.000000e+000
      vertex   8.349506e+000 -5.217179e+000 1.000000e+000
      vertex   2.000000e+001 -1.500000e+001 1.000000e+000
    endloop
  endfacet
  facet normal 0.000000e+000 0.000000e+000 1.000000e+000
    outer loop
      vertex   2.000000e+001 -1.500000e+001 1.000000e+000
      vertex   1.283266e+001 -1.565036e+000 1.000000e+000
      vertex   1.250000e+001 -1.600000e+000 1.000000e+000
    endloop
  endfacet
  facet normal 0.000000e+000 0.000000e+000 1.000000e+000
    outer loop
      vertex   1.031057e+001 1.600000e+000 1.000000e+000
      vertex   1.025000e+001 3.817877e+000 1.000000e+000
      vertex   9.916643e+000 2.069459e+000 1.000000e+000
    endloop
  endfacet
  facet normal 0.000000e+000 0.000000e+000 1.000000e+000
    outer loop
      vertex   -2.000000e+001 -1.500000e+001 1.000000e+000
      vertex   -8.548160e+000 -4.968074e+000 1.000000e+000
      vertex   -8.693517e+000 -4.684546e+000 1.000000e+000
    endloop
  endfacet
  facet normal 0.000000e+000 0.000000e+000 1.000000e+000
    outer loop
      vertex   8.779811e+000 -4.377837e+000 1.000000e+000
      vertex   8.693517e+000 -4.684546e+000 1.000000e+000
      vertex   2.000000e+001 -1.500000e+001 1.000000e+000
    endloop
  endfacet
  facet normal -0.000000e+000 -0.000000e+000 1.000000e+000
    outer loop
      vertex   1.014152e+001 1.637477e+000 1.000000e+000
      vertex   1.031057e+001 1.600000e+000 1.000000e+000
      vertex   9.924196e+000 1.896472e+000 1.000000e+000
    endloop
  endfacet
  facet normal 0.000000e+000 -0.000000e+000 1.000000e+000
    outer loop
      vertex   1.283266e+001 1.565036e+000 1.000000e+000
      vertex   2.000000e+001 1.500000e+001 1.000000e+000
      vertex   1.025000e+001 4.100000e+000 1.000000e+000
    endloop
  endfacet
  facet normal 0.000000e+000 0.000000e+000 1.000000e+000
    outer loop
      vertex   -2.000000e+001 1.500000e+001 1.000000e+000
      vertex   -8.650000e+000 5.700000e+000 1.000000e+000
      vertex   8.650000e+000 5.700000e+000 1.000000e+000
    endloop
  endfacet
  facet normal 0.000000e+000 0.000000e+000 1.000000e+000
    outer loop
      vertex   -2.000000e+001 -1.500000e+001 1.000000e+000
      vertex   -8.349506e+000 -5.217179e+000 1.000000e+000
      vertex   -8.548160e+000 -4.968074e+000 1.000000e+000
    endloop
  endfacet
  facet normal 0.000000e+000 0.000000e+000 1.000000e+000
    outer loop
      vertex   -7.204119e+000 -5.700000e+000 1.000000e+000
      vertex   -7.521153e+000 -5.668276e+000 1.000000e+000
      vertex   -2.000000e+001 -1.500000e+001 1.000000e+000
    endloop
  endfacet
  facet normal 0.000000e+000 -0.000000e+000 1.000000e+000
    outer loop
      vertex   1.031057e+001 1.600000e+000 1.000000e+000
      vertex   1.250000e+001 1.600000e+000 1.000000e+000
      vertex   1.025000e+001 3.817877e+000 1.000000e+000
    endloop
  endfacet
  facet normal 0.000000e+000 0.000000e+000 1.000000e+000
    outer loop
      vertex   2.000000e+001 1.500000e+001 1.000000e+000
      vertex   1.021926e+001 4.412145e+000 1.000000e+000
      vertex   1.025000e+001 4.100000e+000 1.000000e+000
    endloop
  endfacet
  facet normal 0.000000e+000 -0.000000e+000 1.000000e+000
    outer loop
      vertex   8.650000e+000 5.700000e+000 1.000000e+000
      vertex   2.000000e+001 1.500000e+001 1.000000e+000
      vertex   -2.000000e+001 1.500000e+001 1.000000e+000
    endloop
  endfacet
  facet normal 0.000000e+000 0.000000e+000 1.000000e+000
    outer loop
      vertex   -2.000000e+001 -1.500000e+001 1.000000e+000
      vertex   -1.409124e+001 -1.672455e-001 1.000000e+000
      vertex   -1.409124e+001 1.672455e-001 1.000000e+000
    endloop
  endfacet
  facet normal 0.000000e+000 0.000000e+000 1.000000e+000
    outer loop
      vertex   -2.000000e+001 -1.500000e+001 1.000000e+000
      vertex   -8.105431e+000 -5.421982e+000 1.000000e+000
      vertex   -8.349506e+000 -5.217179e+000 1.000000e+000
    endloop
  endfacet
  facet normal 0.000000e+000 0.000000e+000 1.000000e+000
    outer loop
      vertex   -7.521153e+000 -5.668276e+000 1.000000e+000
      vertex   -7.825614e+000 -5.574362e+000 1.000000e+000
      vertex   -2.000000e+001 -1.500000e+001 1.000000e+000
    endloop
  endfacet
  facet normal 0.000000e+000 0.000000e+000 1.000000e+000
    outer loop
      vertex   1.025000e+001 4.100000e+000 1.000000e+000
      vertex   1.025000e+001 3.817877e+000 1.000000e+000
      vertex   1.283266e+001 1.565036e+000 1.000000e+000
    endloop
  endfacet
  facet normal 0.000000e+000 0.000000e+000 1.000000e+000
    outer loop
      vertex   2.000000e+001 1.500000e+001 1.000000e+000
      vertex   9.538912e+000 5.430351e+000 1.000000e+000
      vertex   9.781371e+000 5.231371e+000 1.000000e+000
    endloop
  endfacet
  facet normal 0.000000e+000 0.000000e+000 1.000000e+000
    outer loop
      vertex   -2.000000e+001 1.500000e+001 1.000000e+000
      vertex   -8.996303e+000 5.662074e+000 1.000000e+000
      vertex   -8.650000e+000 5.700000e+000 1.000000e+000
    endloop
  endfacet
  facet normal 0.000000e+000 0.000000e+000 1.000000e+000
    outer loop
      vertex   -1.409124e+001 1.672455e-001 1.000000e+000
      vertex   -2.000000e+001 1.500000e+001 1.000000e+000
      vertex   -2.000000e+001 -1.500000e+001 1.000000e+000
    endloop
  endfacet
  facet normal 0.000000e+000 0.000000e+000 1.000000e+000
    outer loop
      vertex   -7.825614e+000 -5.574362e+000 1.000000e+000
      vertex   -8.105431e+000 -5.421982e+000 1.000000e+000
      vertex   -2.000000e+001 -1.500000e+001 1.000000e+000
    endloop
  endfacet
  facet normal 0.000000e+000 0.000000e+000 1.000000e+000
    outer loop
      vertex   2.000000e+001 1.500000e+001 1.000000e+000
      vertex   1.012821e+001 4.712293e+000 1.000000e+000
      vertex   1.021926e+001 4.412145e+000 1.000000e+000
    endloop
  endfacet
  facet normal 0.000000e+000 0.000000e+000 1.000000e+000
    outer loop
      vertex   2.000000e+001 1.500000e+001 1.000000e+000
      vertex   9.262293e+000 5.578207e+000 1.000000e+000
      vertex   9.538912e+000 5.430351e+000 1.000000e+000
    endloop
  endfacet
  facet normal -0.000000e+000 0.000000e+000 1.000000e+000
    outer loop
      vertex   8.650000e+000 5.700000e+000 1.000000e+000
      vertex   8.962145e+000 5.669256e+000 1.000000e+000
      vertex   2.000000e+001 1.500000e+001 1.000000e+000
    endloop
  endfacet
  facet normal 0.000000e+000 0.000000e+000 1.000000e+000
    outer loop
      vertex   -2.000000e+001 -1.500000e+001 1.000000e+000
      vertex   -1.402169e+001 -4.944272e-001 1.000000e+000
      vertex   -1.409124e+001 -1.672455e-001 1.000000e+000
    endloop
  endfacet
  facet normal 0.000000e+000 0.000000e+000 1.000000e+000
    outer loop
      vertex   -2.000000e+001 -1.500000e+001 1.000000e+000
      vertex   -1.368903e+001 -1.070609e+000 1.000000e+000
      vertex   -1.388564e+001 -8.000000e-001 1.000000e+000
    endloop
  endfacet
  facet normal 0.000000e+000 0.000000e+000 1.000000e+000
    outer loop
      vertex   -1.250000e+001 -1.600000e+000 1.000000e+000
      vertex   -1.283266e+001 -1.565036e+000 1.000000e+000
      vertex   -2.000000e+001 -1.500000e+001 1.000000e+000
    endloop
  endfacet
  facet normal 0.000000e+000 0.000000e+000 1.000000e+000
    outer loop
      vertex   2.000000e+001 -1.500000e+001 1.000000e+000
      vertex   1.344046e+001 -1.294427e+000 1.000000e+000
      vertex   1.315078e+001 -1.461673e+000 1.000000e+000
    endloop
  endfacet
  facet normal 0.000000e+000 0.000000e+000 1.000000e+000
    outer loop
      vertex   -1.031057e+001 1.600000e+000 1.000000e+000
      vertex   -1.000415e+001 1.742885e+000 1.000000e+000
      vertex   -9.924196e+000 1.896472e+000 1.000000e+000
    endloop
  endfacet
  facet normal 0.000000e+000 0.000000e+000 1.000000e+000
    outer loop
      vertex   2.000000e+001 1.500000e+001 1.000000e+000
      vertex   9.980351e+000 4.988912e+000 1.000000e+000
      vertex   1.012821e+001 4.712293e+000 1.000000e+000
    endloop
  endfacet
  facet normal -0.000000e+000 0.000000e+000 1.000000e+000
    outer loop
      vertex   8.962145e+000 5.669256e+000 1.000000e+000
      vertex   9.262293e+000 5.578207e+000 1.000000e+000
      vertex   2.000000e+001 1.500000e+001 1.000000e+000
    endloop
  endfacet
  facet normal 0.000000e+000 0.000000e+000 1.000000e+000
    outer loop
      vertex   -2.000000e+001 1.500000e+001 1.000000e+000
      vertex   -1.344046e+001 1.294427e+000 1.000000e+000
      vertex   -1.024848e+001 4.169791e+000 1.000000e+000
    endloop
  endfacet
  facet normal 0.000000e+000 0.000000e+000 1.000000e+000
    outer loop
      vertex   -1.388564e+001 -8.000000e-001 1.000000e+000
      vertex   -1.402169e+001 -4.944272e-001 1.000000e+000
      vertex   -2.000000e+001 -1.500000e+001 1.000000e+000
    endloop
  endfacet
  facet normal 0.000000e+000 0.000000e+000 1.000000e+000
    outer loop
      vertex   -2.000000e+001 -1.500000e+001 1.000000e+000
      vertex   -1.315078e+001 -1.461673e+000 1.000000e+000
      vertex   -1.344046e+001 -1.294427e+000 1.000000e+000
    endloop
  endfacet
  facet normal 0.000000e+000 0.000000e+000 1.000000e+000
    outer loop
      vertex   1.315078e+001 -1.461673e+000 1.000000e+000
      vertex   1.283266e+001 -1.565036e+000 1.000000e+000
      vertex   2.000000e+001 -1.500000e+001 1.000000e+000
    endloop
  endfacet
  facet normal 0.000000e+000 0.000000e+000 1.000000e+000
    outer loop
      vertex   -1.031057e+001 1.600000e+000 1.000000e+000
      vertex   -1.014152e+001 1.637477e+000 1.000000e+000
      vertex   -1.000415e+001 1.742885e+000 1.000000e+000
    endloop
  endfacet
  facet normal 0.000000e+000 0.000000e+000 1.000000e+000
    outer loop
      vertex   2.000000e+001 1.500000e+001 1.000000e+000
      vertex   1.344046e+001 1.294427e+000 1.000000e+000
      vertex   1.368903e+001 1.070609e+000 1.000000e+000
    endloop
  endfacet
  facet normal 0.000000e+000 0.000000e+000 1.000000e+000
    outer loop
      vertex   2.000000e+001 1.500000e+001 1.000000e+000
      vertex   1.283266e+001 1.565036e+000 1.000000e+000
      vertex   1.315078e+001 1.461673e+000 1.000000e+000
    endloop
  endfacet
  facet normal -0.000000e+000 0.000000e+000 1.000000e+000
    outer loop
      vertex   9.781371e+000 5.231371e+000 1.000000e+000
      vertex   9.980351e+000 4.988912e+000 1.000000e+000
      vertex   2.000000e+001 1.500000e+001 1.000000e+000
    endloop
  endfacet
  facet normal 0.000000e+000 0.000000e+000 1.000000e+000
    outer loop
      vertex   -2.000000e+001 1.500000e+001 1.000000e+000
      vertex   -1.368903e+001 1.070609e+000 1.000000e+000
      vertex   -1.344046e+001 1.294427e+000 1.000000e+000
    endloop
  endfacet
  facet normal 0.000000e+000 -0.000000e+000 1.000000e+000
    outer loop
      vertex   -1.409124e+001 1.672455e-001 1.000000e+000
      vertex   -1.402169e+001 4.944272e-001 1.000000e+000
      vertex   -2.000000e+001 1.500000e+001 1.000000e+000
    endloop
  endfacet
  facet normal 0.000000e+000 0.000000e+000 1.000000e+000
    outer loop
      vertex   -1.283266e+001 -1.565036e+000 1.000000e+000
      vertex   -1.315078e+001 -1.461673e+000 1.000000e+000
      vertex   -2.000000e+001 -1.500000e+001 1.000000e+000
    endloop
  endfacet
  facet normal 0.000000e+000 0.000000e+000 1.000000e+000
    outer loop
      vertex   2.000000e+001 -1.500000e+001 1.000000e+000
      vertex   1.388564e+001 -8.000000e-001 1.000000e+000
      vertex   1.368903e+001 -1.070609e+000 1.000000e+000
    endloop
  endfacet
  facet normal 0.000000e+000 -0.000000e+000 1.000000e+000
    outer loop
      vertex   2.000000e+001 -1.500000e+001 1.000000e+000
      vertex   2.000000e+001 1.500000e+001 1.000000e+000
      vertex   1.409124e+001 1.672455e-001 1.000000e+000
    endloop
  endfacet
  facet normal 0.000000e+000 -0.000000e+000 1.000000e+000
    outer loop
      vertex   -9.924196e+000 1.896472e+000 1.000000e+000
      vertex   -9.916643e+000 2.069459e+000 1.000000e+000
      vertex   -1.031057e+001 1.600000e+000 1.000000e+000
    endloop
  endfacet
  facet normal -0.000000e+000 0.000000e+000 1.000000e+000
    outer loop
      vertex   1.368903e+001 1.070609e+000 1.000000e+000
      vertex   1.388564e+001 8.000000e-001 1.000000e+000
      vertex   2.000000e+001 1.500000e+001 1.000000e+000
    endloop
  endfacet
  facet normal -0.000000e+000 -0.000000e+000 1.000000e+000
    outer loop
      vertex   1.250000e+001 1.600000e+000 1.000000e+000
      vertex   1.283266e+001 1.565036e+000 1.000000e+000
      vertex   1.025000e+001 3.817877e+000 1.000000e+000
    endloop
  endfacet
  facet normal 0.000000e+000 0.000000e+000 1.000000e+000
    outer loop
      vertex   -2.000000e+001 1.500000e+001 1.000000e+000
      vertex   -1.388564e+001 8.000000e-001 1.000000e+000
      vertex   -1.368903e+001 1.070609e+000 1.000000e+000
    endloop
  endfacet
  facet normal 0.000000e+000 0.000000e+000 1.000000e+000
    outer loop
      vertex   -1.344046e+001 -1.294427e+000 1.000000e+000
      vertex   -1.368903e+001 -1.070609e+000 1.000000e+000
      vertex   -2.000000e+001 -1.500000e+001 1.000000e+000
    endloop
  endfacet
  facet normal 0.000000e+000 0.000000e+000 1.000000e+000
    outer loop
      vertex   2.000000e+001 -1.500000e+001 1.000000e+000
      vertex   1.402169e+001 -4.944272e-001 1.000000e+000
      vertex   1.388564e+001 -8.000000e-001 1.000000e+000
    endloop
  endfacet
  facet normal 0.000000e+000 0.000000e+000 1.000000e+000
    outer loop
      vertex   1.409124e+001 1.672455e-001 1.000000e+000
      vertex   1.409124e+001 -1.672455e-001 1.000000e+000
      vertex   2.000000e+001 -1.500000e+001 1.000000e+000
    endloop
  endfacet
  facet normal 0.000000e+000 0.000000e+000 1.000000e+000
    outer loop
      vertex   -1.022569e+001 3.822163e+000 1.000000e+000
      vertex   -1.250000e+001 1.600000e+000 1.000000e+000
      vertex   -1.031057e+001 1.600000e+000 1.000000e+000
    endloop
  endfacet
  facet normal -0.000000e+000 0.000000e+000 1.000000e+000
    outer loop
      vertex   1.315078e+001 1.461673e+000 1.000000e+000
      vertex   1.344046e+001 1.294427e+000 1.000000e+000
      vertex   2.000000e+001 1.500000e+001 1.000000e+000
    endloop
  endfacet
  facet normal 0.000000e+000 -0.000000e+000 1.000000e+000
    outer loop
      vertex   -1.402169e+001 4.944272e-001 1.000000e+000
      vertex   -1.388564e+001 8.000000e-001 1.000000e+000
      vertex   -2.000000e+001 1.500000e+001 1.000000e+000
    endloop
  endfacet
  facet normal 0.000000e+000 0.000000e+000 1.000000e+000
    outer loop
      vertex   1.409124e+001 -1.672455e-001 1.000000e+000
      vertex   1.402169e+001 -4.944272e-001 1.000000e+000
      vertex   2.000000e+001 -1.500000e+001 1.000000e+000
    endloop
  endfacet
  facet normal 0.000000e+000 0.000000e+000 1.000000e+000
    outer loop
      vertex   -1.022569e+001 3.822163e+000 1.000000e+000
      vertex   -1.283266e+001 1.565036e+000 1.000000e+000
      vertex   -1.250000e+001 1.600000e+000 1.000000e+000
    endloop
  endfacet
  facet normal -0.000000e+000 0.000000e+000 1.000000e+000
    outer loop
      vertex   1.388564e+001 8.000000e-001 1.000000e+000
      vertex   1.402169e+001 4.944272e-001 1.000000e+000
      vertex   2.000000e+001 1.500000e+001 1.000000e+000
    endloop
  endfacet
  facet normal 0.000000e+000 0.000000e+000 1.000000e+000
    outer loop
      vertex   -2.000000e+001 1.500000e+001 1.000000e+000
      vertex   -1.019548e+001 4.514110e+000 1.000000e+000
      vertex   -1.006922e+001 4.838798e+000 1.000000e+000
    endloop
  endfacet
  facet normal 0.000000e+000 0.000000e+000 1.000000e+000
    outer loop
      vertex   1.368903e+001 -1.070609e+000 1.000000e+000
      vertex   1.344046e+001 -1.294427e+000 1.000000e+000
      vertex   2.000000e+001 -1.500000e+001 1.000000e+000
    endloop
  endfacet
  facet normal 0.000000e+000 0.000000e+000 1.000000e+000
    outer loop
      vertex   -9.916643e+000 2.069459e+000 1.000000e+000
      vertex   -1.022569e+001 3.822163e+000 1.000000e+000
      vertex   -1.031057e+001 1.600000e+000 1.000000e+000
    endloop
  endfacet
  facet normal 0.000000e+000 0.000000e+000 1.000000e+000
    outer loop
      vertex   -1.024848e+001 4.169791e+000 1.000000e+000
      vertex   -1.344046e+001 1.294427e+000 1.000000e+000
      vertex   -1.315078e+001 1.461673e+000 1.000000e+000
    endloop
  endfacet
  facet normal 0.000000e+000 0.000000e+000 1.000000e+000
    outer loop
      vertex   -2.000000e+001 1.500000e+001 1.000000e+000
      vertex   -9.326189e+000 5.550092e+000 1.000000e+000
      vertex   -8.996303e+000 5.662074e+000 1.000000e+000
    endloop
  endfacet
  facet normal 0.000000e+000 0.000000e+000 1.000000e+000
    outer loop
      vertex   -2.000000e+001 1.500000e+001 1.000000e+000
      vertex   -9.875671e+000 5.128460e+000 1.000000e+000
      vertex   -9.624018e+000 5.369365e+000 1.000000e+000
    endloop
  endfacet
  facet normal 0.000000e+000 -0.000000e+000 1.000000e+000
    outer loop
      vertex   -1.024848e+001 4.169791e+000 1.000000e+000
      vertex   -1.019548e+001 4.514110e+000 1.000000e+000
      vertex   -2.000000e+001 1.500000e+001 1.000000e+000
    endloop
  endfacet
  facet normal 0.000000e+000 0.000000e+000 1.000000e+000
    outer loop
      vertex   -1.315078e+001 1.461673e+000 1.000000e+000
      vertex   -1.283266e+001 1.565036e+000 1.000000e+000
      vertex   -1.024848e+001 4.169791e+000 1.000000e+000
    endloop
  endfacet
  facet normal 0.000000e+000 -0.000000e+000 1.000000e+000
    outer loop
      vertex   -9.624018e+000 5.369365e+000 1.000000e+000
      vertex   -9.326189e+000 5.550092e+000 1.000000e+000
      vertex   -2.000000e+001 1.500000e+001 1.000000e+000
    endloop
  endfacet
  facet normal 0.000000e+000 0.000000e+000 1.000000e+000
    outer loop
      vertex   -1.022569e+001 3.822163e+000 1.000000e+000
      vertex   -1.024848e+001 4.169791e+000 1.000000e+000
      vertex   -1.283266e+001 1.565036e+000 1.000000e+000
    endloop
  endfacet
  facet normal 0.000000e+000 -0.000000e+000 1.000000e+000
    outer loop
      vertex   -1.006922e+001 4.838798e+000 1.000000e+000
      vertex   -9.875671e+000 5.128460e+000 1.000000e+000
      vertex   -2.000000e+001 1.500000e+001 1.000000e+000
    endloop
  endfacet
  facet normal -0.000000e+000 0.000000e+000 1.000000e+000
    outer loop
      vertex   1.402169e+001 4.944272e-001 1.000000e+000
      vertex   1.409124e+001 1.672455e-001 1.000000e+000
      vertex   2.000000e+001 1.500000e+001 1.000000e+000
    endloop
  endfacet
  facet normal 0.000000e+000 0.000000e+000 1.000000e+000
    outer loop
      vertex   1.025000e+001 3.817877e+000 1.000000e+000
      vertex   1.022569e+001 3.822163e+000 1.000000e+000
      vertex   9.916643e+000 2.069459e+000 1.000000e+000
    endloop
  endfacet
  facet normal 0.000000e+000 0.000000e+000 -1.000000e+000
    outer loop
      vertex   9.211336e+000 -1.930541e+000 0.000000e+000
      vertex   9.348144e+000 -1.693582e+000 0.000000e+000
      vertex   9.468451e+000 -1.624123e+000 0.000000e+000
    endloop
  endfacet
  facet normal 0.000000e+000 0.000000e+000 -1.000000e+000
    outer loop
      vertex   9.211336e+000 -1.930541e+000 0.000000e+000
      vertex   9.258848e+000 -1.800000e+000 0.000000e+000
      vertex   9.348144e+000 -1.693582e+000 0.000000e+000
    endloop
  endfacet
  facet normal 0.000000e+000 -0.000000e+000 -1.000000e+000
    outer loop
      vertex   9.468451e+000 -1.624123e+000 0.000000e+000
      vertex   9.605259e+000 -1.600000e+000 0.000000e+000
      vertex   9.211336e+000 -1.930541e+000 0.000000e+000
    endloop
  endfacet
  facet normal 0.000000e+000 -0.000000e+000 -1.000000e+000
    outer loop
      vertex   1.250000e+001 -1.600000e+000 0.000000e+000
      vertex   2.000000e+001 -1.500000e+001 0.000000e+000
      vertex   8.779811e+000 -4.377837e+000 0.000000e+000
    endloop
  endfacet
  facet normal 0.000000e+000 0.000000e+000 -1.000000e+000
    outer loop
      vertex   -9.605259e+000 -1.600000e+000 0.000000e+000
      vertex   -9.348144e+000 -1.693582e+000 0.000000e+000
      vertex   -9.258848e+000 -1.800000e+000 0.000000e+000
    endloop
  endfacet
  facet normal 0.000000e+000 0.000000e+000 -1.000000e+000
    outer loop
      vertex   8.779811e+000 -4.377837e+000 0.000000e+000
      vertex   9.211336e+000 -1.930541e+000 0.000000e+000
      vertex   1.250000e+001 -1.600000e+000 0.000000e+000
    endloop
  endfacet
  facet normal 0.000000e+000 0.000000e+000 -1.000000e+000
    outer loop
      vertex   -2.000000e+001 -1.500000e+001 0.000000e+000
      vertex   -7.204119e+000 -5.700000e+000 0.000000e+000
      vertex   7.204119e+000 -5.700000e+000 0.000000e+000
    endloop
  endfacet
  facet normal 0.000000e+000 0.000000e+000 -1.000000e+000
    outer loop
      vertex   -9.605259e+000 -1.600000e+000 0.000000e+000
      vertex   -9.468451e+000 -1.624123e+000 0.000000e+000
      vertex   -9.348144e+000 -1.693582e+000 0.000000e+000
    endloop
  endfacet
  facet normal 0.000000e+000 0.000000e+000 -1.000000e+000
    outer loop
      vertex   2.000000e+001 -1.500000e+001 0.000000e+000
      vertex   8.693517e+000 -4.684546e+000 0.000000e+000
      vertex   8.779811e+000 -4.377837e+000 0.000000e+000
    endloop
  endfacet
  facet normal 0.000000e+000 0.000000e+000 -1.000000e+000
    outer loop
      vertex   2.000000e+001 -1.500000e+001 0.000000e+000
      vertex   7.825614e+000 -5.574362e+000 0.000000e+000
      vertex   8.105431e+000 -5.421982e+000 0.000000e+000
    endloop
  endfacet
  facet normal 0.000000e+000 -0.000000e+000 -1.000000e+000
    outer loop
      vertex   7.204119e+000 -5.700000e+000 0.000000e+000
      vertex   2.000000e+001 -1.500000e+001 0.000000e+000
      vertex   -2.000000e+001 -1.500000e+001 0.000000e+000
    endloop
  endfacet
  facet normal -0.000000e+000 -0.000000e+000 -1.000000e+000
    outer loop
      vertex   -9.258848e+000 -1.800000e+000 0.000000e+000
      vertex   -9.211336e+000 -1.930541e+000 0.000000e+000
      vertex   -9.605259e+000 -1.600000e+000 0.000000e+000
    endloop
  endfacet
  facet normal -0.000000e+000 0.000000e+000 -1.000000e+000
    outer loop
      vertex   -8.779811e+000 -4.377837e+000 0.000000e+000
      vertex   -2.000000e+001 -1.500000e+001 0.000000e+000
      vertex   -1.250000e+001 -1.600000e+000 0.000000e+000
    endloop
  endfacet
  facet normal 0.000000e+000 0.000000e+000 -1.000000e+000
    outer loop
      vertex   -2.000000e+001 1.500000e+001 0.000000e+000
      vertex   2.000000e+001 1.500000e+001 0.000000e+000
      vertex   8.650000e+000 5.700000e+000 0.000000e+000
    endloop
  endfacet
  facet normal 0.000000e+000 -0.000000e+000 -1.000000e+000
    outer loop
      vertex   9.605259e+000 -1.600000e+000 0.000000e+000
      vertex   1.250000e+001 -1.600000e+000 0.000000e+000
      vertex   9.211336e+000 -1.930541e+000 0.000000e+000
    endloop
  endfacet
  facet normal 0.000000e+000 0.000000e+000 -1.000000e+000
    outer loop
      vertex   2.000000e+001 -1.500000e+001 0.000000e+000
      vertex   8.349506e+000 -5.217179e+000 0.000000e+000
      vertex   8.548160e+000 -4.968074e+000 0.000000e+000
    endloop
  endfacet
  facet normal 0.000000e+000 0.000000e+000 -1.000000e+000
    outer loop
      vertex   2.000000e+001 -1.500000e+001 0.000000e+000
      vertex   7.521153e+000 -5.668276e+000 0.000000e+000
      vertex   7.825614e+000 -5.574362e+000 0.000000e+000
    endloop
  endfacet
  facet normal 0.000000e+000 0.000000e+000 -1.000000e+000
    outer loop
      vertex   -2.000000e+001 -1.500000e+001 0.000000e+000
      vertex   -7.521153e+000 -5.668276e+000 0.000000e+000
      vertex   -7.204119e+000 -5.700000e+000 0.000000e+000
    endloop
  endfacet
  facet normal 0.000000e+000 0.000000e+000 -1.000000e+000
    outer loop
      vertex   -1.250000e+001 -1.600000e+000 0.000000e+000
      vertex   -9.605259e+000 -1.600000e+000 0.000000e+000
      vertex   -8.779811e+000 -4.377837e+000 0.000000e+000
    endloop
  endfacet
  facet normal 0.000000e+000 0.000000e+000 -1.000000e+000
    outer loop
      vertex   2.000000e+001 1.500000e+001 0.000000e+000
      vertex   8.962145e+000 5.669256e+000 0.000000e+000
      vertex   8.650000e+000 5.700000e+000 0.000000e+000
    endloop
  endfacet
  facet normal 0.000000e+000 0.000000e+000 -1.000000e+000
    outer loop
      vertex   2.000000e+001 1.500000e+001 0.000000e+000
      vertex   1.344046e+001 1.294427e+000 0.000000e+000
      vertex   1.025000e+001 4.100000e+000 0.000000e+000
    endloop
  endfacet
  facet normal 0.000000e+000 0.000000e+000 -1.000000e+000
    outer loop
      vertex   8.548160e+000 -4.968074e+000 0.000000e+000
      vertex   8.693517e+000 -4.684546e+000 0.000000e+000
      vertex   2.000000e+001 -1.500000e+001 0.000000e+000
    endloop
  endfacet
  facet normal 0.000000e+000 0.000000e+000 -1.000000e+000
    outer loop
      vertex   7.204119e+000 -5.700000e+000 0.000000e+000
      vertex   7.521153e+000 -5.668276e+000 0.000000e+000
      vertex   2.000000e+001 -1.500000e+001 0.000000e+000
    endloop
  endfacet
  facet normal -0.000000e+000 -0.000000e+000 -1.000000e+000
    outer loop
      vertex   -9.211336e+000 -1.930541e+000 0.000000e+000
      vertex   -8.779811e+000 -4.377837e+000 0.000000e+000
      vertex   -9.605259e+000 -1.600000e+000 0.000000e+000
    endloop
  endfacet
  facet normal 0.000000e+000 0.000000e+000 -1.000000e+000
    outer loop
      vertex   8.650000e+000 5.700000e+000 0.000000e+000
      vertex   -8.650000e+000 5.700000e+000 0.000000e+000
      vertex   -2.000000e+001 1.500000e+001 0.000000e+000
    endloop
  endfacet
  facet normal 0.000000e+000 0.000000e+000 -1.000000e+000
    outer loop
      vertex   2.000000e+001 1.500000e+001 0.000000e+000
      vertex   9.980351e+000 4.988912e+000 0.000000e+000
      vertex   9.781371e+000 5.231371e+000 0.000000e+000
    endloop
  endfacet
  facet normal 0.000000e+000 0.000000e+000 -1.000000e+000
    outer loop
      vertex   2.000000e+001 1.500000e+001 0.000000e+000
      vertex   1.368903e+001 1.070609e+000 0.000000e+000
      vertex   1.344046e+001 1.294427e+000 0.000000e+000
    endloop
  endfacet
  facet normal 0.000000e+000 0.000000e+000 -1.000000e+000
    outer loop
      vertex   8.105431e+000 -5.421982e+000 0.000000e+000
      vertex   8.349506e+000 -5.217179e+000 0.000000e+000
      vertex   2.000000e+001 -1.500000e+001 0.000000e+000
    endloop
  endfacet
  facet normal 0.000000e+000 0.000000e+000 -1.000000e+000
    outer loop
      vertex   -2.000000e+001 -1.500000e+001 0.000000e+000
      vertex   -8.693517e+000 -4.684546e+000 0.000000e+000
      vertex   -8.548160e+000 -4.968074e+000 0.000000e+000
    endloop
  endfacet
  facet normal 0.000000e+000 0.000000e+000 -1.000000e+000
    outer loop
      vertex   -2.000000e+001 -1.500000e+001 0.000000e+000
      vertex   -1.283266e+001 -1.565036e+000 0.000000e+000
      vertex   -1.250000e+001 -1.600000e+000 0.000000e+000
    endloop
  endfacet
  facet normal 0.000000e+000 0.000000e+000 -1.000000e+000
    outer loop
      vertex   2.000000e+001 1.500000e+001 0.000000e+000
      vertex   9.262293e+000 5.578207e+000 0.000000e+000
      vertex   8.962145e+000 5.669256e+000 0.000000e+000
    endloop
  endfacet
  facet normal 0.000000e+000 0.000000e+000 -1.000000e+000
    outer loop
      vertex   9.781371e+000 5.231371e+000 0.000000e+000
      vertex   9.538912e+000 5.430351e+000 0.000000e+000
      vertex   2.000000e+001 1.500000e+001 0.000000e+000
    endloop
  endfacet
  facet normal 0.000000e+000 0.000000e+000 -1.000000e+000
    outer loop
      vertex   2.000000e+001 1.500000e+001 0.000000e+000
      vertex   1.021926e+001 4.412145e+000 0.000000e+000
      vertex   1.012821e+001 4.712293e+000 0.000000e+000
    endloop
  endfacet
  facet normal 0.000000e+000 0.000000e+000 -1.000000e+000
    outer loop
      vertex   1.344046e+001 1.294427e+000 0.000000e+000
      vertex   1.025000e+001 3.817877e+000 0.000000e+000
      vertex   1.025000e+001 4.100000e+000 0.000000e+000
    endloop
  endfacet
  facet normal 0.000000e+000 0.000000e+000 -1.000000e+000
    outer loop
      vertex   -2.000000e+001 -1.500000e+001 0.000000e+000
      vertex   -7.825614e+000 -5.574362e+000 0.000000e+000
      vertex   -7.521153e+000 -5.668276e+000 0.000000e+000
    endloop
  endfacet
  facet normal 0.000000e+000 -0.000000e+000 -1.000000e+000
    outer loop
      vertex   -8.779811e+000 -4.377837e+000 0.000000e+000
      vertex   -8.693517e+000 -4.684546e+000 0.000000e+000
      vertex   -2.000000e+001 -1.500000e+001 0.000000e+000
    endloop
  endfacet
  facet normal 0.000000e+000 0.000000e+000 -1.000000e+000
    outer loop
      vertex   -1.031057e+001 1.600000e+000 0.000000e+000
      vertex   -9.916643e+000 2.069459e+000 0.000000e+000
      vertex   -9.924196e+000 1.896472e+000 0.000000e+000
    endloop
  endfacet
  facet normal 0.000000e+000 0.000000e+000 -1.000000e+000
    outer loop
      vertex   9.538912e+000 5.430351e+000 0.000000e+000
      vertex   9.262293e+000 5.578207e+000 0.000000e+000
      vertex   2.000000e+001 1.500000e+001 0.000000e+000
    endloop
  endfacet
  facet normal 0.000000e+000 0.000000e+000 -1.000000e+000
    outer loop
      vertex   1.025000e+001 4.100000e+000 0.000000e+000
      vertex   1.021926e+001 4.412145e+000 0.000000e+000
      vertex   2.000000e+001 1.500000e+001 0.000000e+000
    endloop
  endfacet
  facet normal 0.000000e+000 0.000000e+000 -1.000000e+000
    outer loop
      vertex   -2.000000e+001 -1.500000e+001 0.000000e+000
      vertex   -8.105431e+000 -5.421982e+000 0.000000e+000
      vertex   -7.825614e+000 -5.574362e+000 0.000000e+000
    endloop
  endfacet
  facet normal 0.000000e+000 -0.000000e+000 -1.000000e+000
    outer loop
      vertex   -8.548160e+000 -4.968074e+000 0.000000e+000
      vertex   -8.349506e+000 -5.217179e+000 0.000000e+000
      vertex   -2.000000e+001 -1.500000e+001 0.000000e+000
    endloop
  endfacet
  facet normal 0.000000e+000 0.000000e+000 -1.000000e+000
    outer loop
      vertex   -9.924196e+000 1.896472e+000 0.000000e+000
      vertex   -1.000415e+001 1.742885e+000 0.000000e+000
      vertex   -1.031057e+001 1.600000e+000 0.000000e+000
    endloop
  endfacet
  facet normal 0.000000e+000 0.000000e+000 -1.000000e+000
    outer loop
      vertex   1.012821e+001 4.712293e+000 0.000000e+000
      vertex   9.980351e+000 4.988912e+000 0.000000e+000
      vertex   2.000000e+001 1.500000e+001 0.000000e+000
    endloop
  endfacet
  facet normal 0.000000e+000 0.000000e+000 -1.000000e+000
    outer loop
      vertex   2.000000e+001 1.500000e+001 0.000000e+000
      vertex   2.000000e+001 -1.500000e+001 0.000000e+000
      vertex   1.409124e+001 -1.672455e-001 0.000000e+000
    endloop
  endfacet
  facet normal 0.000000e+000 -0.000000e+000 -1.000000e+000
    outer loop
      vertex   -8.349506e+000 -5.217179e+000 0.000000e+000
      vertex   -8.105431e+000 -5.421982e+000 0.000000e+000
      vertex   -2.000000e+001 -1.500000e+001 0.000000e+000
    endloop
  endfacet
  facet normal 0.000000e+000 0.000000e+000 -1.000000e+000
    outer loop
      vertex   -1.031057e+001 1.600000e+000 0.000000e+000
      vertex   -1.022569e+001 3.822163e+000 0.000000e+000
      vertex   -9.916643e+000 2.069459e+000 0.000000e+000
    endloop
  endfacet
  facet normal 0.000000e+000 0.000000e+000 -1.000000e+000
    outer loop
      vertex   2.000000e+001 1.500000e+001 0.000000e+000
      vertex   1.388564e+001 8.000000e-001 0.000000e+000
      vertex   1.368903e+001 1.070609e+000 0.000000e+000
    endloop
  endfacet
  facet normal 0.000000e+000 0.000000e+000 -1.000000e+000
    outer loop
      vertex   1.409124e+001 -1.672455e-001 0.000000e+000
      vertex   1.409124e+001 1.672455e-001 0.000000e+000
      vertex   2.000000e+001 1.500000e+001 0.000000e+000
    endloop
  endfacet
  facet normal 0.000000e+000 0.000000e+000 -1.000000e+000
    outer loop
      vertex   2.000000e+001 -1.500000e+001 0.000000e+000
      vertex   1.283266e+001 -1.565036e+000 0.000000e+000
      vertex   1.315078e+001 -1.461673e+000 0.000000e+000
    endloop
  endfacet
  facet normal 0.000000e+000 0.000000e+000 -1.000000e+000
    outer loop
      vertex   -2.000000e+001 -1.500000e+001 0.000000e+000
      vertex   -1.315078e+001 -1.461673e+000 0.000000e+000
      vertex   -1.283266e+001 -1.565036e+000 0.000000e+000
    endloop
  endfacet
  facet normal 0.000000e+000 0.000000e+000 -1.000000e+000
    outer loop
      vertex   -2.000000e+001 -1.500000e+001 0.000000e+000
      vertex   -2.000000e+001 1.500000e+001 0.000000e+000
      vertex   -1.409124e+001 1.672455e-001 0.000000e+000
    endloop
  endfacet
  facet normal 0.000000e+000 0.000000e+000 -1.000000e+000
    outer loop
      vertex   -1.000415e+001 1.742885e+000 0.000000e+000
      vertex   -1.014152e+001 1.637477e+000 0.000000e+000
      vertex   -1.031057e+001 1.600000e+000 0.000000e+000
    endloop
  endfacet
  facet normal 0.000000e+000 0.000000e+000 -1.000000e+000
    outer loop
      vertex   2.000000e+001 1.500000e+001 0.000000e+000
      vertex   1.402169e+001 4.944272e-001 0.000000e+000
      vertex   1.388564e+001 8.000000e-001 0.000000e+000
    endloop
  endfacet
  facet normal 0.000000e+000 0.000000e+000 -1.000000e+000
    outer loop
      vertex   2.000000e+001 -1.500000e+001 0.000000e+000
      vertex   1.402169e+001 -4.944272e-001 0.000000e+000
      vertex   1.409124e+001 -1.672455e-001 0.000000e+000
    endloop
  endfacet
  facet normal 0.000000e+000 0.000000e+000 -1.000000e+000
    outer loop
      vertex   2.000000e+001 -1.500000e+001 0.000000e+000
      vertex   1.344046e+001 -1.294427e+000 0.000000e+000
      vertex   1.368903e+001 -1.070609e+000 0.000000e+000
    endloop
  endfacet
  facet normal 0.000000e+000 0.000000e+000 -1.000000e+000
    outer loop
      vertex   1.250000e+001 -1.600000e+000 0.000000e+000
      vertex   1.283266e+001 -1.565036e+000 0.000000e+000
      vertex   2.000000e+001 -1.500000e+001 0.000000e+000
    endloop
  endfacet
  facet normal 0.000000e+000 0.000000e+000 -1.000000e+000
    outer loop
      vertex   -2.000000e+001 -1.500000e+001 0.000000e+000
      vertex   -1.368903e+001 -1.070609e+000 0.000000e+000
      vertex   -1.344046e+001 -1.294427e+000 0.000000e+000
    endloop
  endfacet
  facet normal 0.000000e+000 0.000000e+000 -1.000000e+000
    outer loop
      vertex   -2.000000e+001 -1.500000e+001 0.000000e+000
      vertex   -1.402169e+001 -4.944272e-001 0.000000e+000
      vertex   -1.388564e+001 -8.000000e-001 0.000000e+000
    endloop
  endfacet
  facet normal 0.000000e+000 -0.000000e+000 -1.000000e+000
    outer loop
      vertex   -1.409124e+001 1.672455e-001 0.000000e+000
      vertex   -1.409124e+001 -1.672455e-001 0.000000e+000
      vertex   -2.000000e+001 -1.500000e+001 0.000000e+000
    endloop
  endfacet
  facet normal 0.000000e+000 0.000000e+000 -1.000000e+000
    outer loop
      vertex   -1.031057e+001 1.600000e+000 0.000000e+000
      vertex   -1.250000e+001 1.600000e+000 0.000000e+000
      vertex   -1.022569e+001 3.822163e+000 0.000000e+000
    endloop
  endfacet
  facet normal 0.000000e+000 0.000000e+000 -1.000000e+000
    outer loop
      vertex   -2.000000e+001 1.500000e+001 0.000000e+000
      vertex   -1.019548e+001 4.514110e+000 0.000000e+000
      vertex   -1.024848e+001 4.169791e+000 0.000000e+000
    endloop
  endfacet
  facet normal 0.000000e+000 0.000000e+000 -1.000000e+000
    outer loop
      vertex   1.409124e+001 1.672455e-001 0.000000e+000
      vertex   1.402169e+001 4.944272e-001 0.000000e+000
      vertex   2.000000e+001 1.500000e+001 0.000000e+000
    endloop
  endfacet
  facet normal 0.000000e+000 0.000000e+000 -1.000000e+000
    outer loop
      vertex   1.368903e+001 -1.070609e+000 0.000000e+000
      vertex   1.388564e+001 -8.000000e-001 0.000000e+000
      vertex   2.000000e+001 -1.500000e+001 0.000000e+000
    endloop
  endfacet
  facet normal 0.000000e+000 -0.000000e+000 -1.000000e+000
    outer loop
      vertex   -1.344046e+001 -1.294427e+000 0.000000e+000
      vertex   -1.315078e+001 -1.461673e+000 0.000000e+000
      vertex   -2.000000e+001 -1.500000e+001 0.000000e+000
    endloop
  endfacet
  facet normal 0.000000e+000 -0.000000e+000 -1.000000e+000
    outer loop
      vertex   -1.409124e+001 -1.672455e-001 0.000000e+000
      vertex   -1.402169e+001 -4.944272e-001 0.000000e+000
      vertex   -2.000000e+001 -1.500000e+001 0.000000e+000
    endloop
  endfacet
  facet normal 0.000000e+000 0.000000e+000 -1.000000e+000
    outer loop
      vertex   9.924196e+000 1.896472e+000 0.000000e+000
      vertex   1.031057e+001 1.600000e+000 0.000000e+000
      vertex   1.014152e+001 1.637477e+000 0.000000e+000
    endloop
  endfacet
  facet normal 0.000000e+000 0.000000e+000 -1.000000e+000
    outer loop
      vertex   -1.024848e+001 4.169791e+000 0.000000e+000
      vertex   -1.283266e+001 1.565036e+000 0.000000e+000
      vertex   -1.315078e+001 1.461673e+000 0.000000e+000
    endloop
  endfacet
  facet normal 0.000000e+000 0.000000e+000 -1.000000e+000
    outer loop
      vertex   -1.283266e+001 1.565036e+000 0.000000e+000
      vertex   -1.024848e+001 4.169791e+000 0.000000e+000
      vertex   -1.022569e+001 3.822163e+000 0.000000e+000
    endloop
  endfacet
  facet normal 0.000000e+000 0.000000e+000 -1.000000e+000
    outer loop
      vertex   -2.000000e+001 1.500000e+001 0.000000e+000
      vertex   -1.388564e+001 8.000000e-001 0.000000e+000
      vertex   -1.402169e+001 4.944272e-001 0.000000e+000
    endloop
  endfacet
  facet normal -0.000000e+000 0.000000e+000 -1.000000e+000
    outer loop
      vertex   -1.024848e+001 4.169791e+000 0.000000e+000
      vertex   -1.368903e+001 1.070609e+000 0.000000e+000
      vertex   -2.000000e+001 1.500000e+001 0.000000e+000
    endloop
  endfacet
  facet normal 0.000000e+000 0.000000e+000 -1.000000e+000
    outer loop
      vertex   1.388564e+001 -8.000000e-001 0.000000e+000
      vertex   1.402169e+001 -4.944272e-001 0.000000e+000
      vertex   2.000000e+001 -1.500000e+001 0.000000e+000
    endloop
  endfacet
  facet normal 0.000000e+000 -0.000000e+000 -1.000000e+000
    outer loop
      vertex   -1.388564e+001 -8.000000e-001 0.000000e+000
      vertex   -1.368903e+001 -1.070609e+000 0.000000e+000
      vertex   -2.000000e+001 -1.500000e+001 0.000000e+000
    endloop
  endfacet
  facet normal 0.000000e+000 0.000000e+000 -1.000000e+000
    outer loop
      vertex   1.014152e+001 1.637477e+000 0.000000e+000
      vertex   1.000415e+001 1.742885e+000 0.000000e+000
      vertex   9.924196e+000 1.896472e+000 0.000000e+000
    endloop
  endfacet
  facet normal -0.000000e+000 0.000000e+000 -1.000000e+000
    outer loop
      vertex   -1.250000e+001 1.600000e+000 0.000000e+000
      vertex   -1.283266e+001 1.565036e+000 0.000000e+000
      vertex   -1.022569e+001 3.822163e+000 0.000000e+000
    endloop
  endfacet
  facet normal -0.000000e+000 0.000000e+000 -1.000000e+000
    outer loop
      vertex   -1.368903e+001 1.070609e+000 0.000000e+000
      vertex   -1.388564e+001 8.000000e-001 0.000000e+000
      vertex   -2.000000e+001 1.500000e+001 0.000000e+000
    endloop
  endfacet
  facet normal 0.000000e+000 0.000000e+000 -1.000000e+000
    outer loop
      vertex   -2.000000e+001 1.500000e+001 0.000000e+000
      vertex   -9.875671e+000 5.128460e+000 0.000000e+000
      vertex   -1.006922e+001 4.838798e+000 0.000000e+000
    endloop
  endfacet
  facet normal 0.000000e+000 0.000000e+000 -1.000000e+000
    outer loop
      vertex   1.315078e+001 -1.461673e+000 0.000000e+000
      vertex   1.344046e+001 -1.294427e+000 0.000000e+000
      vertex   2.000000e+001 -1.500000e+001 0.000000e+000
    endloop
  endfacet
  facet normal 0.000000e+000 0.000000e+000 -1.000000e+000
    outer loop
      vertex   9.916643e+000 2.069459e+000 0.000000e+000
      vertex   1.022569e+001 3.822163e+000 0.000000e+000
      vertex   1.025000e+001 3.817877e+000 0.000000e+000
    endloop
  endfacet
  facet normal 0.000000e+000 0.000000e+000 -1.000000e+000
    outer loop
      vertex   9.916643e+000 2.069459e+000 0.000000e+000
      vertex   1.250000e+001 1.600000e+000 0.000000e+000
      vertex   1.031057e+001 1.600000e+000 0.000000e+000
    endloop
  endfacet
  facet normal -0.000000e+000 0.000000e+000 -1.000000e+000
    outer loop
      vertex   -1.315078e+001 1.461673e+000 0.000000e+000
      vertex   -1.344046e+001 1.294427e+000 0.000000e+000
      vertex   -1.024848e+001 4.169791e+000 0.000000e+000
    endloop
  endfacet
  facet normal -0.000000e+000 0.000000e+000 -1.000000e+000
    outer loop
      vertex   -1.006922e+001 4.838798e+000 0.000000e+000
      vertex   -1.019548e+001 4.514110e+000 0.000000e+000
      vertex   -2.000000e+001 1.500000e+001 0.000000e+000
    endloop
  endfacet
  facet normal 0.000000e+000 0.000000e+000 -1.000000e+000
    outer loop
      vertex   -2.000000e+001 1.500000e+001 0.000000e+000
      vertex   -9.326189e+000 5.550092e+000 0.000000e+000
      vertex   -9.624018e+000 5.369365e+000 0.000000e+000
    endloop
  endfacet
  facet normal -0.000000e+000 0.000000e+000 -1.000000e+000
    outer loop
      vertex   -8.650000e+000 5.700000e+000 0.000000e+000
      vertex   -8.996303e+000 5.662074e+000 0.000000e+000
      vertex   -2.000000e+001 1.500000e+001 0.000000e+000
    endloop
  endfacet
  facet normal 0.000000e+000 0.000000e+000 -1.000000e+000
    outer loop
      vertex   9.924196e+000 1.896472e+000 0.000000e+000
      vertex   9.916643e+000 2.069459e+000 0.000000e+000
      vertex   1.031057e+001 1.600000e+000 0.000000e+000
    endloop
  endfacet
  facet normal -0.000000e+000 0.000000e+000 -1.000000e+000
    outer loop
      vertex   -1.402169e+001 4.944272e-001 0.000000e+000
      vertex   -1.409124e+001 1.672455e-001 0.000000e+000
      vertex   -2.000000e+001 1.500000e+001 0.000000e+000
    endloop
  endfacet
  facet normal -0.000000e+000 0.000000e+000 -1.000000e+000
    outer loop
      vertex   -8.996303e+000 5.662074e+000 0.000000e+000
      vertex   -9.326189e+000 5.550092e+000 0.000000e+000
      vertex   -2.000000e+001 1.500000e+001 0.000000e+000
    endloop
  endfacet
  facet normal 0.000000e+000 0.000000e+000 -1.000000e+000
    outer loop
      vertex   1.025000e+001 3.817877e+000 0.000000e+000
      vertex   1.283266e+001 1.565036e+000 0.000000e+000
      vertex   1.250000e+001 1.600000e+000 0.000000e+000
    endloop
  endfacet
  facet normal 0.000000e+000 0.000000e+000 -1.000000e+000
    outer loop
      vertex   1.025000e+001 3.817877e+000 0.000000e+000
      vertex   1.344046e+001 1.294427e+000 0.000000e+000
      vertex   1.315078e+001 1.461673e+000 0.000000e+000
    endloop
  endfacet
  facet normal -0.000000e+000 0.000000e+000 -1.000000e+000
    outer loop
      vertex   -9.624018e+000 5.369365e+000 0.000000e+000
      vertex   -9.875671e+000 5.128460e+000 0.000000e+000
      vertex   -2.000000e+001 1.500000e+001 0.000000e+000
    endloop
  endfacet
  facet normal 0.000000e+000 0.000000e+000 -1.000000e+000
    outer loop
      vertex   1.315078e+001 1.461673e+000 0.000000e+000
      vertex   1.283266e+001 1.565036e+000 0.000000e+000
      vertex   1.025000e+001 3.817877e+000 0.000000e+000
    endloop
  endfacet
  facet normal 0.000000e+000 -0.000000e+000 -1.000000e+000
    outer loop
      vertex   1.025000e+001 3.817877e+000 0.000000e+000
      vertex   1.250000e+001 1.600000e+000 0.000000e+000
      vertex   9.916643e+000 2.069459e+000 0.000000e+000
    endloop
  endfacet
  facet normal -0.000000e+000 0.000000e+000 -1.000000e+000
    outer loop
      vertex   -1.344046e+001 1.294427e+000 0.000000e+000
      vertex   -1.368903e+001 1.070609e+000 0.000000e+000
      vertex   -1.024848e+001 4.169791e+000 0.000000e+000
    endloop
  endfacet
  facet normal -9.951847e-001 -9.801714e-002 0.000000e+000
    outer loop
      vertex   1.021926e+001 4.412145e+000 0.000000e+000
      vertex   1.025000e+001 4.100000e+000 0.000000e+000
      vertex   1.025000e+001 4.100000e+000 1.000000e+000
    endloop
  endfacet
  facet normal -9.569403e-001 -2.902847e-001 0.000000e+000
    outer loop
      vertex   1.012821e+001 4.712293e+000 0.000000e+000
      vertex   1.021926e+001 4.412145e+000 0.000000e+000
      vertex   1.021926e+001 4.412145e+000 1.000000e+000
    endloop
  endfacet
  facet normal -8.819213e-001 -4.713967e-001 0.000000e+000
    outer loop
      vertex   9.980351e+000 4.988912e+000 0.000000e+000
      vertex   1.012821e+001 4.712293e+000 0.000000e+000
      vertex   1.012821e+001 4.712293e+000 1.000000e+000
    endloop
  endfacet
  facet normal -7.730105e-001 -6.343933e-001 0.000000e+000
    outer loop
      vertex   9.781371e+000 5.231371e+000 0.000000e+000
      vertex   9.980351e+000 4.988912e+000 0.000000e+000
      vertex   9.980351e+000 4.988912e+000 1.000000e+000
    endloop
  endfacet
  facet normal -6.343933e-001 -7.730105e-001 0.000000e+000
    outer loop
      vertex   9.538912e+000 5.430351e+000 0.000000e+000
      vertex   9.781371e+000 5.231371e+000 0.000000e+000
      vertex   9.781371e+000 5.231371e+000 1.000000e+000
    endloop
  endfacet
  facet normal -4.713967e-001 -8.819213e-001 0.000000e+000
    outer loop
      vertex   9.262293e+000 5.578207e+000 0.000000e+000
      vertex   9.538912e+000 5.430351e+000 0.000000e+000
      vertex   9.538912e+000 5.430351e+000 1.000000e+000
    endloop
  endfacet
  facet normal -2.902847e-001 -9.569403e-001 0.000000e+000
    outer loop
      vertex   8.962145e+000 5.669256e+000 0.000000e+000
      vertex   9.262293e+000 5.578207e+000 0.000000e+000
      vertex   9.262293e+000 5.578207e+000 1.000000e+000
    endloop
  endfacet
  facet normal -9.801714e-002 -9.951847e-001 0.000000e+000
    outer loop
      vertex   8.650000e+000 5.700000e+000 0.000000e+000
      vertex   8.962145e+000 5.669256e+000 0.000000e+000
      vertex   8.962145e+000 5.669256e+000 1.000000e+000
    endloop
  endfacet
  facet normal -9.801714e-002 -9.951847e-001 0.000000e+000
    outer loop
      vertex   8.962145e+000 5.669256e+000 1.000000e+000
      vertex   8.650000e+000 5.700000e+000 1.000000e+000
      vertex   8.650000e+000 5.700000e+000 0.000000e+000
    endloop
  endfacet
  facet normal -2.902847e-001 -9.569403e-001 0.000000e+000
    outer loop
      vertex   9.262293e+000 5.578207e+000 1.000000e+000
      vertex   8.962145e+000 5.669256e+000 1.000000e+000
      vertex   8.962145e+000 5.669256e+000 0.000000e+000
    endloop
  endfacet
  facet normal -4.713967e-001 -8.819213e-001 0.000000e+000
    outer loop
      vertex   9.538912e+000 5.430351e+000 1.000000e+000
      vertex   9.262293e+000 5.578207e+000 1.000000e+000
      vertex   9.262293e+000 5.578207e+000 0.000000e+000
    endloop
  endfacet
  facet normal -6.343933e-001 -7.730105e-001 0.000000e+000
    outer loop
      vertex   9.781371e+000 5.231371e+000 1.000000e+000
      vertex   9.538912e+000 5.430351e+000 1.000000e+000
      vertex   9.538912e+000 5.430351e+000 0.000000e+000
    endloop
  endfacet
  facet normal -7.730105e-001 -6.343933e-001 0.000000e+000
    outer loop
      vertex   9.980351e+000 4.988912e+000 1.000000e+000
      vertex   9.781371e+000 5.231371e+000 1.000000e+000
      vertex   9.781371e+000 5.231371e+000 0.000000e+000
    endloop
  endfacet
  facet normal -8.819213e-001 -4.713967e-001 0.000000e+000
    outer loop
      vertex   1.012821e+001 4.712293e+000 1.000000e+000
      vertex   9.980351e+000 4.988912e+000 1.000000e+000
      vertex   9.980351e+000 4.988912e+000 0.000000e+000
    endloop
  endfacet
  facet normal -9.569403e-001 -2.902847e-001 0.000000e+000
    outer loop
      vertex   1.021926e+001 4.412145e+000 1.000000e+000
      vertex   1.012821e+001 4.712293e+000 1.000000e+000
      vertex   1.012821e+001 4.712293e+000 0.000000e+000
    endloop
  endfacet
  facet normal -9.951847e-001 -9.801714e-002 0.000000e+000
    outer loop
      vertex   1.025000e+001 4.100000e+000 1.000000e+000
      vertex   1.021926e+001 4.412145e+000 1.000000e+000
      vertex   1.021926e+001 4.412145e+000 0.000000e+000
    endloop
  endfacet
  facet normal -1.000000e+000 0.000000e+000 -0.000000e+000
    outer loop
      vertex   1.025000e+001 4.100000e+000 1.000000e+000
      vertex   1.025000e+001 4.100000e+000 0.000000e+000
      vertex   1.025000e+001 3.817877e+000 0.000000e+000
    endloop
  endfacet
  facet normal -1.000000e+000 0.000000e+000 0.000000e+000
    outer loop
      vertex   1.025000e+001 3.817877e+000 0.000000e+000
      vertex   1.025000e+001 3.817877e+000 1.000000e+000
      vertex   1.025000e+001 4.100000e+000 1.000000e+000
    endloop
  endfacet
  facet normal 1.736482e-001 9.848078e-001 0.000000e+000
    outer loop
      vertex   1.025000e+001 3.817877e+000 1.000000e+000
      vertex   1.025000e+001 3.817877e+000 0.000000e+000
      vertex   1.022569e+001 3.822163e+000 0.000000e+000
    endloop
  endfacet
  facet normal 1.736482e-001 9.848078e-001 -0.000000e+000
    outer loop
      vertex   1.022569e+001 3.822163e+000 0.000000e+000
      vertex   1.022569e+001 3.822163e+000 1.000000e+000
      vertex   1.025000e+001 3.817877e+000 1.000000e+000
    endloop
  endfacet
  facet normal -9.848078e-001 1.736482e-001 0.000000e+000
    outer loop
      vertex   1.022569e+001 3.822163e+000 1.000000e+000
      vertex   1.022569e+001 3.822163e+000 0.000000e+000
      vertex   9.916643e+000 2.069459e+000 0.000000e+000
    endloop
  endfacet
  facet normal -9.848078e-001 1.736482e-001 0.000000e+000
    outer loop
      vertex   9.916643e+000 2.069459e+000 0.000000e+000
      vertex   9.916643e+000 2.069459e+000 1.000000e+000
      vertex   1.022569e+001 3.822163e+000 1.000000e+000
    endloop
  endfacet
  facet normal -2.164396e-001 -9.762960e-001 0.000000e+000
    outer loop
      vertex   1.031057e+001 1.600000e+000 0.000000e+000
      vertex   1.031057e+001 1.600000e+000 1.000000e+000
      vertex   1.014152e+001 1.637477e+000 1.000000e+000
    endloop
  endfacet
  facet normal -6.087614e-001 -7.933533e-001 0.000000e+000
    outer loop
      vertex   1.014152e+001 1.637477e+000 0.000000e+000
      vertex   1.014152e+001 1.637477e+000 1.000000e+000
      vertex   1.000415e+001 1.742885e+000 1.000000e+000
    endloop
  endfacet
  facet normal -8.870108e-001 -4.617486e-001 0.000000e+000
    outer loop
      vertex   1.000415e+001 1.742885e+000 0.000000e+000
      vertex   1.000415e+001 1.742885e+000 1.000000e+000
      vertex   9.924196e+000 1.896472e+000 1.000000e+000
    endloop
  endfacet
  facet normal -9.990482e-001 -4.361939e-002 0.000000e+000
    outer loop
      vertex   9.924196e+000 1.896472e+000 0.000000e+000
      vertex   9.924196e+000 1.896472e+000 1.000000e+000
      vertex   9.916643e+000 2.069459e+000 1.000000e+000
    endloop
  endfacet
  facet normal -9.990482e-001 -4.361939e-002 -0.000000e+000
    outer loop
      vertex   9.916643e+000 2.069459e+000 1.000000e+000
      vertex   9.916643e+000 2.069459e+000 0.000000e+000
      vertex   9.924196e+000 1.896472e+000 0.000000e+000
    endloop
  endfacet
  facet normal -8.870108e-001 -4.617486e-001 -0.000000e+000
    outer loop
      vertex   9.924196e+000 1.896472e+000 1.000000e+000
      vertex   9.924196e+000 1.896472e+000 0.000000e+000
      vertex   1.000415e+001 1.742885e+000 0.000000e+000
    endloop
  endfacet
  facet normal -6.087614e-001 -7.933533e-001 -0.000000e+000
    outer loop
      vertex   1.000415e+001 1.742885e+000 1.000000e+000
      vertex   1.000415e+001 1.742885e+000 0.000000e+000
      vertex   1.014152e+001 1.637477e+000 0.000000e+000
    endloop
  endfacet
  facet normal -2.164396e-001 -9.762960e-001 -0.000000e+000
    outer loop
      vertex   1.014152e+001 1.637477e+000 1.000000e+000
      vertex   1.014152e+001 1.637477e+000 0.000000e+000
      vertex   1.031057e+001 1.600000e+000 0.000000e+000
    endloop
  endfacet
  facet normal 0.000000e+000 -1.000000e+000 0.000000e+000
    outer loop
      vertex   1.031057e+001 1.600000e+000 1.000000e+000
      vertex   1.031057e+001 1.600000e+000 0.000000e+000
      vertex   1.250000e+001 1.600000e+000 0.000000e+000
    endloop
  endfacet
  facet normal 0.000000e+000 -1.000000e+000 0.000000e+000
    outer loop
      vertex   1.250000e+001 1.600000e+000 0.000000e+000
      vertex   1.250000e+001 1.600000e+000 1.000000e+000
      vertex   1.031057e+001 1.600000e+000 1.000000e+000
    endloop
  endfacet
  facet normal -1.045285e-001 9.945219e-001 0.000000e+000
    outer loop
      vertex   1.283266e+001 -1.565036e+000 0.000000e+000
      vertex   1.250000e+001 -1.600000e+000 0.000000e+000
      vertex   1.250000e+001 -1.600000e+000 1.000000e+000
    endloop
  endfacet
  facet normal -3.090170e-001 9.510565e-001 0.000000e+000
    outer loop
      vertex   1.315078e+001 -1.461673e+000 0.000000e+000
      vertex   1.283266e+001 -1.565036e+000 0.000000e+000
      vertex   1.283266e+001 -1.565036e+000 1.000000e+000
    endloop
  endfacet
  facet normal -5.000000e-001 8.660254e-001 0.000000e+000
    outer loop
      vertex   1.344046e+001 -1.294427e+000 0.000000e+000
      vertex   1.315078e+001 -1.461673e+000 0.000000e+000
      vertex   1.315078e+001 -1.461673e+000 1.000000e+000
    endloop
  endfacet
  facet normal -6.691306e-001 7.431448e-001 0.000000e+000
    outer loop
      vertex   1.368903e+001 -1.070609e+000 0.000000e+000
      vertex   1.344046e+001 -1.294427e+000 0.000000e+000
      vertex   1.344046e+001 -1.294427e+000 1.000000e+000
    endloop
  endfacet
  facet normal -8.090170e-001 5.877853e-001 0.000000e+000
    outer loop
      vertex   1.388564e+001 -8.000000e-001 0.000000e+000
      vertex   1.368903e+001 -1.070609e+000 0.000000e+000
      vertex   1.368903e+001 -1.070609e+000 1.000000e+000
    endloop
  endfacet
  facet normal -9.135455e-001 4.067366e-001 0.000000e+000
    outer loop
      vertex   1.402169e+001 -4.944272e-001 0.000000e+000
      vertex   1.388564e+001 -8.000000e-001 0.000000e+000
      vertex   1.388564e+001 -8.000000e-001 1.000000e+000
    endloop
  endfacet
  facet normal -9.781476e-001 2.079117e-001 0.000000e+000
    outer loop
      vertex   1.409124e+001 -1.672455e-001 0.000000e+000
      vertex   1.402169e+001 -4.944272e-001 0.000000e+000
      vertex   1.402169e+001 -4.944272e-001 1.000000e+000
    endloop
  endfacet
  facet normal -1.000000e+000 0.000000e+000 0.000000e+000
    outer loop
      vertex   1.409124e+001 1.672455e-001 0.000000e+000
      vertex   1.409124e+001 -1.672455e-001 0.000000e+000
      vertex   1.409124e+001 -1.672455e-001 1.000000e+000
    endloop
  endfacet
  facet normal -9.781476e-001 -2.079117e-001 0.000000e+000
    outer loop
      vertex   1.402169e+001 4.944272e-001 0.000000e+000
      vertex   1.409124e+001 1.672455e-001 0.000000e+000
      vertex   1.409124e+001 1.672455e-001 1.000000e+000
    endloop
  endfacet
  facet normal -9.135455e-001 -4.067366e-001 0.000000e+000
    outer loop
      vertex   1.388564e+001 8.000000e-001 0.000000e+000
      vertex   1.402169e+001 4.944272e-001 0.000000e+000
      vertex   1.402169e+001 4.944272e-001 1.000000e+000
    endloop
  endfacet
  facet normal -8.090170e-001 -5.877853e-001 0.000000e+000
    outer loop
      vertex   1.368903e+001 1.070609e+000 0.000000e+000
      vertex   1.388564e+001 8.000000e-001 0.000000e+000
      vertex   1.388564e+001 8.000000e-001 1.000000e+000
    endloop
  endfacet
  facet normal -6.691306e-001 -7.431448e-001 0.000000e+000
    outer loop
      vertex   1.344046e+001 1.294427e+000 0.000000e+000
      vertex   1.368903e+001 1.070609e+000 0.000000e+000
      vertex   1.368903e+001 1.070609e+000 1.000000e+000
    endloop
  endfacet
  facet normal -5.000000e-001 -8.660254e-001 0.000000e+000
    outer loop
      vertex   1.315078e+001 1.461673e+000 0.000000e+000
      vertex   1.344046e+001 1.294427e+000 0.000000e+000
      vertex   1.344046e+001 1.294427e+000 1.000000e+000
    endloop
  endfacet
  facet normal -3.090170e-001 -9.510565e-001 0.000000e+000
    outer loop
      vertex   1.283266e+001 1.565036e+000 0.000000e+000
      vertex   1.315078e+001 1.461673e+000 0.000000e+000
      vertex   1.315078e+001 1.461673e+000 1.000000e+000
    endloop
  endfacet
  facet normal -1.045285e-001 -9.945219e-001 0.000000e+000
    outer loop
      vertex   1.250000e+001 1.600000e+000 0.000000e+000
      vertex   1.283266e+001 1.565036e+000 0.000000e+000
      vertex   1.283266e+001 1.565036e+000 1.000000e+000
    endloop
  endfacet
  facet normal -1.045285e-001 -9.945219e-001 0.000000e+000
    outer loop
      vertex   1.283266e+001 1.565036e+000 1.000000e+000
      vertex   1.250000e+001 1.600000e+000 1.000000e+000
      vertex   1.250000e+001 1.600000e+000 0.000000e+000
    endloop
  endfacet
  facet normal -3.090170e-001 -9.510565e-001 0.000000e+000
    outer loop
      vertex   1.315078e+001 1.461673e+000 1.000000e+000
      vertex   1.283266e+001 1.565036e+000 1.000000e+000
      vertex   1.283266e+001 1.565036e+000 0.000000e+000
    endloop
  endfacet
  facet normal -5.000000e-001 -8.660254e-001 0.000000e+000
    outer loop
      vertex   1.344046e+001 1.294427e+000 1.000000e+000
      vertex   1.315078e+001 1.461673e+000 1.000000e+000
      vertex   1.315078e+001 1.461673e+000 0.000000e+000
    endloop
  endfacet
  facet normal -6.691306e-001 -7.431448e-001 0.000000e+000
    outer loop
      vertex   1.368903e+001 1.070609e+000 1.000000e+000
      vertex   1.344046e+001 1.294427e+000 1.000000e+000
      vertex   1.344046e+001 1.294427e+000 0.000000e+000
    endloop
  endfacet
  facet normal -8.090170e-001 -5.877853e-001 0.000000e+000
    outer loop
      vertex   1.388564e+001 8.000000e-001 1.000000e+000
      vertex   1.368903e+001 1.070609e+000 1.000000e+000
      vertex   1.368903e+001 1.070609e+000 0.000000e+000
    endloop
  endfacet
  facet normal -9.135455e-001 -4.067366e-001 0.000000e+000
    outer loop
      vertex   1.402169e+001 4.944272e-001 1.000000e+000
      vertex   1.388564e+001 8.000000e-001 1.000000e+000
      vertex   1.388564e+001 8.000000e-001 0.000000e+000
    endloop
  endfacet
  facet normal -9.781476e-001 -2.079117e-001 0.000000e+000
    outer loop
      vertex   1.409124e+001 1.672455e-001 1.000000e+000
      vertex   1.402169e+001 4.944272e-001 1.000000e+000
      vertex   1.402169e+001 4.944272e-001 0.000000e+000
    endloop
  endfacet
  facet normal -1.000000e+000 0.000000e+000 0.000000e+000
    outer loop
      vertex   1.409124e+001 -1.672455e-001 1.000000e+000
      vertex   1.409124e+001 1.672455e-001 1.000000e+000
      vertex   1.409124e+001 1.672455e-001 0.000000e+000
    endloop
  endfacet
  facet normal -9.781476e-001 2.079117e-001 0.000000e+000
    outer loop
      vertex   1.402169e+001 -4.944272e-001 1.000000e+000
      vertex   1.409124e+001 -1.672455e-001 1.000000e+000
      vertex   1.409124e+001 -1.672455e-001 0.000000e+000
    endloop
  endfacet
  facet normal -9.135455e-001 4.067366e-001 0.000000e+000
    outer loop
      vertex   1.388564e+001 -8.000000e-001 1.000000e+000
      vertex   1.402169e+001 -4.944272e-001 1.000000e+000
      vertex   1.402169e+001 -4.944272e-001 0.000000e+000
    endloop
  endfacet
  facet normal -8.090170e-001 5.877853e-001 0.000000e+000
    outer loop
      vertex   1.368903e+001 -1.070609e+000 1.000000e+000
      vertex   1.388564e+001 -8.000000e-001 1.000000e+000
      vertex   1.388564e+001 -8.000000e-001 0.000000e+000
    endloop
  endfacet
  facet normal -6.691306e-001 7.431448e-001 0.000000e+000
    outer loop
      vertex   1.344046e+001 -1.294427e+000 1.000000e+000
      vertex   1.368903e+001 -1.070609e+000 1.000000e+000
      vertex   1.368903e+001 -1.070609e+000 0.000000e+000
    endloop
  endfacet
  facet normal -5.000000e-001 8.660254e-001 0.000000e+000
    outer loop
      vertex   1.315078e+001 -1.461673e+000 1.000000e+000
      vertex   1.344046e+001 -1.294427e+000 1.000000e+000
      vertex   1.344046e+001 -1.294427e+000 0.000000e+000
    endloop
  endfacet
  facet normal -3.090170e-001 9.510565e-001 0.000000e+000
    outer loop
      vertex   1.283266e+001 -1.565036e+000 1.000000e+000
      vertex   1.315078e+001 -1.461673e+000 1.000000e+000
      vertex   1.315078e+001 -1.461673e+000 0.000000e+000
    endloop
  endfacet
  facet normal -1.045285e-001 9.945219e-001 0.000000e+000
    outer loop
      vertex   1.250000e+001 -1.600000e+000 1.000000e+000
      vertex   1.283266e+001 -1.565036e+000 1.000000e+000
      vertex   1.283266e+001 -1.565036e+000 0.000000e+000
    endloop
  endfacet
  facet normal 0.000000e+000 1.000000e+000 0.000000e+000
    outer loop
      vertex   1.250000e+001 -1.600000e+000 1.000000e+000
      vertex   1.250000e+001 -1.600000e+000 0.000000e+000
      vertex   9.605259e+000 -1.600000e+000 0.000000e+000
    endloop
  endfacet
  facet normal 0.000000e+000 1.000000e+000 0.000000e+000
    outer loop
      vertex   9.605259e+000 -1.600000e+000 0.000000e+000
      vertex   9.605259e+000 -1.600000e+000 1.000000e+000
      vertex   1.250000e+001 -1.600000e+000 1.000000e+000
    endloop
  endfacet
  facet normal -9.396926e-001 3.420201e-001 0.000000e+000
    outer loop
      vertex   9.211336e+000 -1.930541e+000 0.000000e+000
      vertex   9.211336e+000 -1.930541e+000 1.000000e+000
      vertex   9.258848e+000 -1.800000e+000 1.000000e+000
    endloop
  endfacet
  facet normal -7.660444e-001 6.427876e-001 0.000000e+000
    outer loop
      vertex   9.258848e+000 -1.800000e+000 0.000000e+000
      vertex   9.258848e+000 -1.800000e+000 1.000000e+000
      vertex   9.348144e+000 -1.693582e+000 1.000000e+000
    endloop
  endfacet
  facet normal -5.000000e-001 8.660254e-001 0.000000e+000
    outer loop
      vertex   9.348144e+000 -1.693582e+000 0.000000e+000
      vertex   9.348144e+000 -1.693582e+000 1.000000e+000
      vertex   9.468451e+000 -1.624123e+000 1.000000e+000
    endloop
  endfacet
  facet normal -1.736482e-001 9.848078e-001 0.000000e+000
    outer loop
      vertex   9.468451e+000 -1.624123e+000 0.000000e+000
      vertex   9.468451e+000 -1.624123e+000 1.000000e+000
      vertex   9.605259e+000 -1.600000e+000 1.000000e+000
    endloop
  endfacet
  facet normal -1.736482e-001 9.848078e-001 0.000000e+000
    outer loop
      vertex   9.605259e+000 -1.600000e+000 1.000000e+000
      vertex   9.605259e+000 -1.600000e+000 0.000000e+000
      vertex   9.468451e+000 -1.624123e+000 0.000000e+000
    endloop
  endfacet
  facet normal -5.000000e-001 8.660254e-001 0.000000e+000
    outer loop
      vertex   9.468451e+000 -1.624123e+000 1.000000e+000
      vertex   9.468451e+000 -1.624123e+000 0.000000e+000
      vertex   9.348144e+000 -1.693582e+000 0.000000e+000
    endloop
  endfacet
  facet normal -7.660444e-001 6.427876e-001 0.000000e+000
    outer loop
      vertex   9.348144e+000 -1.693582e+000 1.000000e+000
      vertex   9.348144e+000 -1.693582e+000 0.000000e+000
      vertex   9.258848e+000 -1.800000e+000 0.000000e+000
    endloop
  endfacet
  facet normal -9.396926e-001 3.420201e-001 0.000000e+000
    outer loop
      vertex   9.258848e+000 -1.800000e+000 1.000000e+000
      vertex   9.258848e+000 -1.800000e+000 0.000000e+000
      vertex   9.211336e+000 -1.930541e+000 0.000000e+000
    endloop
  endfacet
  facet normal -9.848078e-001 1.736482e-001 0.000000e+000
    outer loop
      vertex   9.211336e+000 -1.930541e+000 1.000000e+000
      vertex   9.211336e+000 -1.930541e+000 0.000000e+000
      vertex   8.779811e+000 -4.377837e+000 0.000000e+000
    endloop
  endfacet
  facet normal -9.848078e-001 1.736482e-001 0.000000e+000
    outer loop
      vertex   8.779811e+000 -4.377837e+000 0.000000e+000
      vertex   8.779811e+000 -4.377837e+000 1.000000e+000
      vertex   9.211336e+000 -1.930541e+000 1.000000e+000
    endloop
  endfacet
  facet normal -9.956785e-002 9.950308e-001 0.000000e+000
    outer loop
      vertex   7.521153e+000 -5.668276e+000 0.000000e+000
      vertex   7.204119e+000 -5.700000e+000 0.000000e+000
      vertex   7.204119e+000 -5.700000e+000 1.000000e+000
    endloop
  endfacet
  facet normal -2.947552e-001 9.555728e-001 0.000000e+000
    outer loop
      vertex   7.825614e+000 -5.574362e+000 0.000000e+000
      vertex   7.521153e+000 -5.668276e+000 0.000000e+000
      vertex   7.521153e+000 -5.668276e+000 1.000000e+000
    endloop
  endfacet
  facet normal -4.782540e-001 8.782216e-001 0.000000e+000
    outer loop
      vertex   8.105431e+000 -5.421982e+000 0.000000e+000
      vertex   7.825614e+000 -5.574362e+000 0.000000e+000
      vertex   7.825614e+000 -5.574362e+000 1.000000e+000
    endloop
  endfacet
  facet normal -6.427876e-001 7.660444e-001 0.000000e+000
    outer loop
      vertex   8.349506e+000 -5.217179e+000 0.000000e+000
      vertex   8.105431e+000 -5.421982e+000 0.000000e+000
      vertex   8.105431e+000 -5.421982e+000 1.000000e+000
    endloop
  endfacet
  facet normal -7.818315e-001 6.234898e-001 0.000000e+000
    outer loop
      vertex   8.548160e+000 -4.968074e+000 0.000000e+000
      vertex   8.349506e+000 -5.217179e+000 0.000000e+000
      vertex   8.349506e+000 -5.217179e+000 1.000000e+000
    endloop
  endfacet
  facet normal -8.898718e-001 4.562107e-001 0.000000e+000
    outer loop
      vertex   8.693517e+000 -4.684546e+000 0.000000e+000
      vertex   8.548160e+000 -4.968074e+000 0.000000e+000
      vertex   8.548160e+000 -4.968074e+000 1.000000e+000
    endloop
  endfacet
  facet normal -9.626242e-001 2.708405e-001 0.000000e+000
    outer loop
      vertex   8.779811e+000 -4.377837e+000 0.000000e+000
      vertex   8.693517e+000 -4.684546e+000 0.000000e+000
      vertex   8.693517e+000 -4.684546e+000 1.000000e+000
    endloop
  endfacet
  facet normal -9.626242e-001 2.708405e-001 0.000000e+000
    outer loop
      vertex   8.693517e+000 -4.684546e+000 1.000000e+000
      vertex   8.779811e+000 -4.377837e+000 1.000000e+000
      vertex   8.779811e+000 -4.377837e+000 0.000000e+000
    endloop
  endfacet
  facet normal -8.898718e-001 4.562107e-001 0.000000e+000
    outer loop
      vertex   8.548160e+000 -4.968074e+000 1.000000e+000
      vertex   8.693517e+000 -4.684546e+000 1.000000e+000
      vertex   8.693517e+000 -4.684546e+000 0.000000e+000
    endloop
  endfacet
  facet normal -7.818315e-001 6.234898e-001 0.000000e+000
    outer loop
      vertex   8.349506e+000 -5.217179e+000 1.000000e+000
      vertex   8.548160e+000 -4.968074e+000 1.000000e+000
      vertex   8.548160e+000 -4.968074e+000 0.000000e+000
    endloop
  endfacet
  facet normal -6.427876e-001 7.660444e-001 0.000000e+000
    outer loop
      vertex   8.105431e+000 -5.421982e+000 1.000000e+000
      vertex   8.349506e+000 -5.217179e+000 1.000000e+000
      vertex   8.349506e+000 -5.217179e+000 0.000000e+000
    endloop
  endfacet
  facet normal -4.782540e-001 8.782216e-001 0.000000e+000
    outer loop
      vertex   7.825614e+000 -5.574362e+000 1.000000e+000
      vertex   8.105431e+000 -5.421982e+000 1.000000e+000
      vertex   8.105431e+000 -5.421982e+000 0.000000e+000
    endloop
  endfacet
  facet normal -2.947552e-001 9.555728e-001 0.000000e+000
    outer loop
      vertex   7.521153e+000 -5.668276e+000 1.000000e+000
      vertex   7.825614e+000 -5.574362e+000 1.000000e+000
      vertex   7.825614e+000 -5.574362e+000 0.000000e+000
    endloop
  endfacet
  facet normal -9.956785e-002 9.950308e-001 0.000000e+000
    outer loop
      vertex   7.204119e+000 -5.700000e+000 1.000000e+000
      vertex   7.521153e+000 -5.668276e+000 1.000000e+000
      vertex   7.521153e+000 -5.668276e+000 0.000000e+000
    endloop
  endfacet
  facet normal 0.000000e+000 1.000000e+000 0.000000e+000
    outer loop
      vertex   7.204119e+000 -5.700000e+000 1.000000e+000
      vertex   7.204119e+000 -5.700000e+000 0.000000e+000
      vertex   -7.204119e+000 -5.700000e+000 0.000000e+000
    endloop
  endfacet
  facet normal 0.000000e+000 1.000000e+000 0.000000e+000
    outer loop
      vertex   -7.204119e+000 -5.700000e+000 0.000000e+000
      vertex   -7.204119e+000 -5.700000e+000 1.000000e+000
      vertex   7.204119e+000 -5.700000e+000 1.000000e+000
    endloop
  endfacet
  facet normal 9.626242e-001 2.708405e-001 0.000000e+000
    outer loop
      vertex   -8.693517e+000 -4.684546e+000 0.000000e+000
      vertex   -8.779811e+000 -4.377837e+000 0.000000e+000
      vertex   -8.779811e+000 -4.377837e+000 1.000000e+000
    endloop
  endfacet
  facet normal 8.898718e-001 4.562107e-001 0.000000e+000
    outer loop
      vertex   -8.548160e+000 -4.968074e+000 0.000000e+000
      vertex   -8.693517e+000 -4.684546e+000 0.000000e+000
      vertex   -8.693517e+000 -4.684546e+000 1.000000e+000
    endloop
  endfacet
  facet normal 7.818315e-001 6.234898e-001 0.000000e+000
    outer loop
      vertex   -8.349506e+000 -5.217179e+000 0.000000e+000
      vertex   -8.548160e+000 -4.968074e+000 0.000000e+000
      vertex   -8.548160e+000 -4.968074e+000 1.000000e+000
    endloop
  endfacet
  facet normal 6.427876e-001 7.660444e-001 0.000000e+000
    outer loop
      vertex   -8.105431e+000 -5.421982e+000 0.000000e+000
      vertex   -8.349506e+000 -5.217179e+000 0.000000e+000
      vertex   -8.349506e+000 -5.217179e+000 1.000000e+000
    endloop
  endfacet
  facet normal 4.782540e-001 8.782216e-001 0.000000e+000
    outer loop
      vertex   -7.825614e+000 -5.574362e+000 0.000000e+000
      vertex   -8.105431e+000 -5.421982e+000 0.000000e+000
      vertex   -8.105431e+000 -5.421982e+000 1.000000e+000
    endloop
  endfacet
  facet normal 2.947552e-001 9.555728e-001 0.000000e+000
    outer loop
      vertex   -7.521153e+000 -5.668276e+000 0.000000e+000
      vertex   -7.825614e+000 -5.574362e+000 0.000000e+000
      vertex   -7.825614e+000 -5.574362e+000 1.000000e+000
    endloop
  endfacet
  facet normal 9.956785e-002 9.950308e-001 0.000000e+000
    outer loop
      vertex   -7.204119e+000 -5.700000e+000 0.000000e+000
      vertex   -7.521153e+000 -5.668276e+000 0.000000e+000
      vertex   -7.521153e+000 -5.668276e+000 1.000000e+000
    endloop
  endfacet
  facet normal 9.956785e-002 9.950308e-001 0.000000e+000
    outer loop
      vertex   -7.521153e+000 -5.668276e+000 1.000000e+000
      vertex   -7.204119e+000 -5.700000e+000 1.000000e+000
      vertex   -7.204119e+000 -5.700000e+000 0.000000e+000
    endloop
  endfacet
  facet normal 2.947552e-001 9.555728e-001 0.000000e+000
    outer loop
      vertex   -7.825614e+000 -5.574362e+000 1.000000e+000
      vertex   -7.521153e+000 -5.668276e+000 1.000000e+000
      vertex   -7.521153e+000 -5.668276e+000 0.000000e+000
    endloop
  endfacet
  facet normal 4.782540e-001 8.782216e-001 0.000000e+000
    outer loop
      vertex   -8.105431e+000 -5.421982e+000 1.000000e+000
      vertex   -7.825614e+000 -5.574362e+000 1.000000e+000
      vertex   -7.825614e+000 -5.574362e+000 0.000000e+000
    endloop
  endfacet
  facet normal 6.427876e-001 7.660444e-001 0.000000e+000
    outer loop
      vertex   -8.349506e+000 -5.217179e+000 1.000000e+000
      vertex   -8.105431e+000 -5.421982e+000 1.000000e+000
      vertex   -8.105431e+000 -5.421982e+000 0.000000e+000
    endloop
  endfacet
  facet normal 7.818315e-001 6.234898e-001 0.000000e+000
    outer loop
      vertex   -8.548160e+000 -4.968074e+000 1.000000e+000
      vertex   -8.349506e+000 -5.217179e+000 1.000000e+000
      vertex   -8.349506e+000 -5.217179e+000 0.000000e+000
    endloop
  endfacet
  facet normal 8.898718e-001 4.562107e-001 0.000000e+000
    outer loop
      vertex   -8.693517e+000 -4.684546e+000 1.000000e+000
      vertex   -8.548160e+000 -4.968074e+000 1.000000e+000
      vertex   -8.548160e+000 -4.968074e+000 0.000000e+000
    endloop
  endfacet
  facet normal 9.626242e-001 2.708405e-001 0.000000e+000
    outer loop
      vertex   -8.779811e+000 -4.377837e+000 1.000000e+000
      vertex   -8.693517e+000 -4.684546e+000 1.000000e+000
      vertex   -8.693517e+000 -4.684546e+000 0.000000e+000
    endloop
  endfacet
  facet normal 9.848078e-001 1.736482e-001 0.000000e+000
    outer loop
      vertex   -8.779811e+000 -4.377837e+000 1.000000e+000
      vertex   -8.779811e+000 -4.377837e+000 0.000000e+000
      vertex   -9.211336e+000 -1.930541e+000 0.000000e+000
    endloop
  endfacet
  facet normal 9.848078e-001 1.736482e-001 -0.000000e+000
    outer loop
      vertex   -9.211336e+000 -1.930541e+000 0.000000e+000
      vertex   -9.211336e+000 -1.930541e+000 1.000000e+000
      vertex   -8.779811e+000 -4.377837e+000 1.000000e+000
    endloop
  endfacet
  facet normal 1.736482e-001 9.848078e-001 -0.000000e+000
    outer loop
      vertex   -9.605259e+000 -1.600000e+000 0.000000e+000
      vertex   -9.605259e+000 -1.600000e+000 1.000000e+000
      vertex   -9.468451e+000 -1.624123e+000 1.000000e+000
    endloop
  endfacet
  facet normal 5.000000e-001 8.660254e-001 -0.000000e+000
    outer loop
      vertex   -9.468451e+000 -1.624123e+000 0.000000e+000
      vertex   -9.468451e+000 -1.624123e+000 1.000000e+000
      vertex   -9.348144e+000 -1.693582e+000 1.000000e+000
    endloop
  endfacet
  facet normal 7.660444e-001 6.427876e-001 -0.000000e+000
    outer loop
      vertex   -9.348144e+000 -1.693582e+000 0.000000e+000
      vertex   -9.348144e+000 -1.693582e+000 1.000000e+000
      vertex   -9.258848e+000 -1.800000e+000 1.000000e+000
    endloop
  endfacet
  facet normal 9.396926e-001 3.420201e-001 -0.000000e+000
    outer loop
      vertex   -9.258848e+000 -1.800000e+000 0.000000e+000
      vertex   -9.258848e+000 -1.800000e+000 1.000000e+000
      vertex   -9.211336e+000 -1.930541e+000 1.000000e+000
    endloop
  endfacet
  facet normal 9.396926e-001 3.420201e-001 0.000000e+000
    outer loop
      vertex   -9.211336e+000 -1.930541e+000 1.000000e+000
      vertex   -9.211336e+000 -1.930541e+000 0.000000e+000
      vertex   -9.258848e+000 -1.800000e+000 0.000000e+000
    endloop
  endfacet
  facet normal 7.660444e-001 6.427876e-001 0.000000e+000
    outer loop
      vertex   -9.258848e+000 -1.800000e+000 1.000000e+000
      vertex   -9.258848e+000 -1.800000e+000 0.000000e+000
      vertex   -9.348144e+000 -1.693582e+000 0.000000e+000
    endloop
  endfacet
  facet normal 5.000000e-001 8.660254e-001 0.000000e+000
    outer loop
      vertex   -9.348144e+000 -1.693582e+000 1.000000e+000
      vertex   -9.348144e+000 -1.693582e+000 0.000000e+000
      vertex   -9.468451e+000 -1.624123e+000 0.000000e+000
    endloop
  endfacet
  facet normal 1.736482e-001 9.848078e-001 0.000000e+000
    outer loop
      vertex   -9.468451e+000 -1.624123e+000 1.000000e+000
      vertex   -9.468451e+000 -1.624123e+000 0.000000e+000
      vertex   -9.605259e+000 -1.600000e+000 0.000000e+000
    endloop
  endfacet
  facet normal 0.000000e+000 1.000000e+000 0.000000e+000
    outer loop
      vertex   -9.605259e+000 -1.600000e+000 1.000000e+000
      vertex   -9.605259e+000 -1.600000e+000 0.000000e+000
      vertex   -1.250000e+001 -1.600000e+000 0.000000e+000
    endloop
  endfacet
  facet normal 0.000000e+000 1.000000e+000 0.000000e+000
    outer loop
      vertex   -1.250000e+001 -1.600000e+000 0.000000e+000
      vertex   -1.250000e+001 -1.600000e+000 1.000000e+000
      vertex   -9.605259e+000 -1.600000e+000 1.000000e+000
    endloop
  endfacet
  facet normal 1.045285e-001 -9.945219e-001 0.000000e+000
    outer loop
      vertex   -1.283266e+001 1.565036e+000 0.000000e+000
      vertex   -1.250000e+001 1.600000e+000 0.000000e+000
      vertex   -1.250000e+001 1.600000e+000 1.000000e+000
    endloop
  endfacet
  facet normal 3.090170e-001 -9.510565e-001 0.000000e+000
    outer loop
      vertex   -1.315078e+001 1.461673e+000 0.000000e+000
      vertex   -1.283266e+001 1.565036e+000 0.000000e+000
      vertex   -1.283266e+001 1.565036e+000 1.000000e+000
    endloop
  endfacet
  facet normal 5.000000e-001 -8.660254e-001 0.000000e+000
    outer loop
      vertex   -1.344046e+001 1.294427e+000 0.000000e+000
      vertex   -1.315078e+001 1.461673e+000 0.000000e+000
      vertex   -1.315078e+001 1.461673e+000 1.000000e+000
    endloop
  endfacet
  facet normal 6.691306e-001 -7.431448e-001 0.000000e+000
    outer loop
      vertex   -1.368903e+001 1.070609e+000 0.000000e+000
      vertex   -1.344046e+001 1.294427e+000 0.000000e+000
      vertex   -1.344046e+001 1.294427e+000 1.000000e+000
    endloop
  endfacet
  facet normal 8.090170e-001 -5.877853e-001 0.000000e+000
    outer loop
      vertex   -1.388564e+001 8.000000e-001 0.000000e+000
      vertex   -1.368903e+001 1.070609e+000 0.000000e+000
      vertex   -1.368903e+001 1.070609e+000 1.000000e+000
    endloop
  endfacet
  facet normal 9.135455e-001 -4.067366e-001 0.000000e+000
    outer loop
      vertex   -1.402169e+001 4.944272e-001 0.000000e+000
      vertex   -1.388564e+001 8.000000e-001 0.000000e+000
      vertex   -1.388564e+001 8.000000e-001 1.000000e+000
    endloop
  endfacet
  facet normal 9.781476e-001 -2.079117e-001 0.000000e+000
    outer loop
      vertex   -1.409124e+001 1.672455e-001 0.000000e+000
      vertex   -1.402169e+001 4.944272e-001 0.000000e+000
      vertex   -1.402169e+001 4.944272e-001 1.000000e+000
    endloop
  endfacet
  facet normal 1.000000e+000 0.000000e+000 0.000000e+000
    outer loop
      vertex   -1.409124e+001 -1.672455e-001 0.000000e+000
      vertex   -1.409124e+001 1.672455e-001 0.000000e+000
      vertex   -1.409124e+001 1.672455e-001 1.000000e+000
    endloop
  endfacet
  facet normal 9.781476e-001 2.079117e-001 0.000000e+000
    outer loop
      vertex   -1.402169e+001 -4.944272e-001 0.000000e+000
      vertex   -1.409124e+001 -1.672455e-001 0.000000e+000
      vertex   -1.409124e+001 -1.672455e-001 1.000000e+000
    endloop
  endfacet
  facet normal 9.135455e-001 4.067366e-001 0.000000e+000
    outer loop
      vertex   -1.388564e+001 -8.000000e-001 0.000000e+000
      vertex   -1.402169e+001 -4.944272e-001 0.000000e+000
      vertex   -1.402169e+001 -4.944272e-001 1.000000e+000
    endloop
  endfacet
  facet normal 8.090170e-001 5.877853e-001 0.000000e+000
    outer loop
      vertex   -1.368903e+001 -1.070609e+000 0.000000e+000
      vertex   -1.388564e+001 -8.000000e-001 0.000000e+000
      vertex   -1.388564e+001 -8.000000e-001 1.000000e+000
    endloop
  endfacet
  facet normal 6.691306e-001 7.431448e-001 0.000000e+000
    outer loop
      vertex   -1.344046e+001 -1.294427e+000 0.000000e+000
      vertex   -1.368903e+001 -1.070609e+000 0.000000e+000
      vertex   -1.368903e+001 -1.070609e+000 1.000000e+000
    endloop
  endfacet
  facet normal 5.000000e-001 8.660254e-001 0.000000e+000
    outer loop
      vertex   -1.315078e+001 -1.461673e+000 0.000000e+000
      vertex   -1.344046e+001 -1.294427e+000 0.000000e+000
      vertex   -1.344046e+001 -1.294427e+000 1.000000e+000
    endloop
  endfacet
  facet normal 3.090170e-001 9.510565e-001 0.000000e+000
    outer loop
      vertex   -1.283266e+001 -1.565036e+000 0.000000e+000
      vertex   -1.315078e+001 -1.461673e+000 0.000000e+000
      vertex   -1.315078e+001 -1.461673e+000 1.000000e+000
    endloop
  endfacet
  facet normal 1.045285e-001 9.945219e-001 0.000000e+000
    outer loop
      vertex   -1.250000e+001 -1.600000e+000 0.000000e+000
      vertex   -1.283266e+001 -1.565036e+000 0.000000e+000
      vertex   -1.283266e+001 -1.565036e+000 1.000000e+000
    endloop
  endfacet
  facet normal 1.045285e-001 9.945219e-001 0.000000e+000
    outer loop
      vertex   -1.283266e+001 -1.565036e+000 1.000000e+000
      vertex   -1.250000e+001 -1.600000e+000 1.000000e+000
      vertex   -1.250000e+001 -1.600000e+000 0.000000e+000
    endloop
  endfacet
  facet normal 3.090170e-001 9.510565e-001 0.000000e+000
    outer loop
      vertex   -1.315078e+001 -1.461673e+000 1.000000e+000
      vertex   -1.283266e+001 -1.565036e+000 1.000000e+000
      vertex   -1.283266e+001 -1.565036e+000 0.000000e+000
    endloop
  endfacet
  facet normal 5.000000e-001 8.660254e-001 0.000000e+000
    outer loop
      vertex   -1.344046e+001 -1.294427e+000 1.000000e+000
      vertex   -1.315078e+001 -1.461673e+000 1.000000e+000
      vertex   -1.315078e+001 -1.461673e+000 0.000000e+000
    endloop
  endfacet
  facet normal 6.691306e-001 7.431448e-001 0.000000e+000
    outer loop
      vertex   -1.368903e+001 -1.070609e+000 1.000000e+000
      vertex   -1.344046e+001 -1.294427e+000 1.000000e+000
      vertex   -1.344046e+001 -1.294427e+000 0.000000e+000
    endloop
  endfacet
  facet normal 8.090170e-001 5.877853e-001 0.000000e+000
    outer loop
      vertex   -1.388564e+001 -8.000000e-001 1.000000e+000
      vertex   -1.368903e+001 -1.070609e+000 1.000000e+000
      vertex   -1.368903e+001 -1.070609e+000 0.000000e+000
    endloop
  endfacet
  facet normal 9.135455e-001 4.067366e-001 0.000000e+000
    outer loop
      vertex   -1.402169e+001 -4.944272e-001 1.000000e+000
      vertex   -1.388564e+001 -8.000000e-001 1.000000e+000
      vertex   -1.388564e+001 -8.000000e-001 0.000000e+000
    endloop
  endfacet
  facet normal 9.781476e-001 2.079117e-001 0.000000e+000
    outer loop
      vertex   -1.409124e+001 -1.672455e-001 1.000000e+000
      vertex   -1.402169e+001 -4.944272e-001 1.000000e+000
      vertex   -1.402169e+001 -4.944272e-001 0.000000e+000
    endloop
  endfacet
  facet normal 1.000000e+000 0.000000e+000 0.000000e+000
    outer loop
      vertex   -1.409124e+001 1.672455e-001 1.000000e+000
      vertex   -1.409124e+001 -1.672455e-001 1.000000e+000
      vertex   -1.409124e+001 -1.672455e-001 0.000000e+000
    endloop
  endfacet
  facet normal 9.781476e-001 -2.079117e-001 0.000000e+000
    outer loop
      vertex   -1.402169e+001 4.944272e-001 1.000000e+000
      vertex   -1.409124e+001 1.672455e-001 1.000000e+000
      vertex   -1.409124e+001 1.672455e-001 0.000000e+000
    endloop
  endfacet
  facet normal 9.135455e-001 -4.067366e-001 0.000000e+000
    outer loop
      vertex   -1.388564e+001 8.000000e-001 1.000000e+000
      vertex   -1.402169e+001 4.944272e-001 1.000000e+000
      vertex   -1.402169e+001 4.944272e-001 0.000000e+000
    endloop
  endfacet
  facet normal 8.090170e-001 -5.877853e-001 0.000000e+000
    outer loop
      vertex   -1.368903e+001 1.070609e+000 1.000000e+000
      vertex   -1.388564e+001 8.000000e-001 1.000000e+000
      vertex   -1.388564e+001 8.000000e-001 0.000000e+000
    endloop
  endfacet
  facet normal 6.691306e-001 -7.431448e-001 0.000000e+000
    outer loop
      vertex   -1.344046e+001 1.294427e+000 1.000000e+000
      vertex   -1.368903e+001 1.070609e+000 1.000000e+000
      vertex   -1.368903e+001 1.070609e+000 0.000000e+000
    endloop
  endfacet
  facet normal 5.000000e-001 -8.660254e-001 0.000000e+000
    outer loop
      vertex   -1.315078e+001 1.461673e+000 1.000000e+000
      vertex   -1.344046e+001 1.294427e+000 1.000000e+000
      vertex   -1.344046e+001 1.294427e+000 0.000000e+000
    endloop
  endfacet
  facet normal 3.090170e-001 -9.510565e-001 0.000000e+000
    outer loop
      vertex   -1.283266e+001 1.565036e+000 1.000000e+000
      vertex   -1.315078e+001 1.461673e+000 1.000000e+000
      vertex   -1.315078e+001 1.461673e+000 0.000000e+000
    endloop
  endfacet
  facet normal 1.045285e-001 -9.945219e-001 0.000000e+000
    outer loop
      vertex   -1.250000e+001 1.600000e+000 1.000000e+000
      vertex   -1.283266e+001 1.565036e+000 1.000000e+000
      vertex   -1.283266e+001 1.565036e+000 0.000000e+000
    endloop
  endfacet
  facet normal 0.000000e+000 -1.000000e+000 0.000000e+000
    outer loop
      vertex   -1.250000e+001 1.600000e+000 1.000000e+000
      vertex   -1.250000e+001 1.600000e+000 0.000000e+000
      vertex   -1.031057e+001 1.600000e+000 0.000000e+000
    endloop
  endfacet
  facet normal 0.000000e+000 -1.000000e+000 0.000000e+000
    outer loop
      vertex   -1.031057e+001 1.600000e+000 0.000000e+000
      vertex   -1.031057e+001 1.600000e+000 1.000000e+000
      vertex   -1.250000e+001 1.600000e+000 1.000000e+000
    endloop
  endfacet
  facet normal 9.990482e-001 -4.361939e-002 0.000000e+000
    outer loop
      vertex   -9.916643e+000 2.069459e+000 0.000000e+000
      vertex   -9.916643e+000 2.069459e+000 1.000000e+000
      vertex   -9.924196e+000 1.896472e+000 1.000000e+000
    endloop
  endfacet
  facet normal 8.870108e-001 -4.617486e-001 0.000000e+000
    outer loop
      vertex   -9.924196e+000 1.896472e+000 0.000000e+000
      vertex   -9.924196e+000 1.896472e+000 1.000000e+000
      vertex   -1.000415e+001 1.742885e+000 1.000000e+000
    endloop
  endfacet
  facet normal 6.087614e-001 -7.933533e-001 0.000000e+000
    outer loop
      vertex   -1.000415e+001 1.742885e+000 0.000000e+000
      vertex   -1.000415e+001 1.742885e+000 1.000000e+000
      vertex   -1.014152e+001 1.637477e+000 1.000000e+000
    endloop
  endfacet
  facet normal 2.164396e-001 -9.762960e-001 0.000000e+000
    outer loop
      vertex   -1.014152e+001 1.637477e+000 0.000000e+000
      vertex   -1.014152e+001 1.637477e+000 1.000000e+000
      vertex   -1.031057e+001 1.600000e+000 1.000000e+000
    endloop
  endfacet
  facet normal 2.164396e-001 -9.762960e-001 0.000000e+000
    outer loop
      vertex   -1.031057e+001 1.600000e+000 1.000000e+000
      vertex   -1.031057e+001 1.600000e+000 0.000000e+000
      vertex   -1.014152e+001 1.637477e+000 0.000000e+000
    endloop
  endfacet
  facet normal 6.087614e-001 -7.933533e-001 0.000000e+000
    outer loop
      vertex   -1.014152e+001 1.637477e+000 1.000000e+000
      vertex   -1.014152e+001 1.637477e+000 0.000000e+000
      vertex   -1.000415e+001 1.742885e+000 0.000000e+000
    endloop
  endfacet
  facet normal 8.870108e-001 -4.617486e-001 0.000000e+000
    outer loop
      vertex   -1.000415e+001 1.742885e+000 1.000000e+000
      vertex   -1.000415e+001 1.742885e+000 0.000000e+000
      vertex   -9.924196e+000 1.896472e+000 0.000000e+000
    endloop
  endfacet
  facet normal 9.990482e-001 -4.361939e-002 0.000000e+000
    outer loop
      vertex   -9.924196e+000 1.896472e+000 1.000000e+000
      vertex   -9.924196e+000 1.896472e+000 0.000000e+000
      vertex   -9.916643e+000 2.069459e+000 0.000000e+000
    endloop
  endfacet
  facet normal 9.848078e-001 1.736482e-001 0.000000e+000
    outer loop
      vertex   -9.916643e+000 2.069459e+000 1.000000e+000
      vertex   -9.916643e+000 2.069459e+000 0.000000e+000
      vertex   -1.022569e+001 3.822163e+000 0.000000e+000
    endloop
  endfacet
  facet normal 9.848078e-001 1.736482e-001 -0.000000e+000
    outer loop
      vertex   -1.022569e+001 3.822163e+000 0.000000e+000
      vertex   -1.022569e+001 3.822163e+000 1.000000e+000
      vertex   -9.916643e+000 2.069459e+000 1.000000e+000
    endloop
  endfacet
  facet normal 1.088669e-001 -9.940563e-001 0.000000e+000
    outer loop
      vertex   -8.996303e+000 5.662074e+000 0.000000e+000
      vertex   -8.650000e+000 5.700000e+000 0.000000e+000
      vertex   -8.650000e+000 5.700000e+000 1.000000e+000
    endloop
  endfacet
  facet normal 3.214395e-001 -9.469301e-001 0.000000e+000
    outer loop
      vertex   -9.326189e+000 5.550092e+000 0.000000e+000
      vertex   -8.996303e+000 5.662074e+000 0.000000e+000
      vertex   -8.996303e+000 5.662074e+000 1.000000e+000
    endloop
  endfacet
  facet normal 5.187733e-001 -8.549119e-001 0.000000e+000
    outer loop
      vertex   -9.624018e+000 5.369365e+000 0.000000e+000
      vertex   -9.326189e+000 5.550092e+000 0.000000e+000
      vertex   -9.326189e+000 5.550092e+000 1.000000e+000
    endloop
  endfacet
  facet normal 6.915131e-001 -7.223640e-001 0.000000e+000
    outer loop
      vertex   -9.875671e+000 5.128460e+000 0.000000e+000
      vertex   -9.624018e+000 5.369365e+000 0.000000e+000
      vertex   -9.624018e+000 5.369365e+000 1.000000e+000
    endloop
  endfacet
  facet normal 8.314696e-001 -5.555702e-001 0.000000e+000
    outer loop
      vertex   -1.006922e+001 4.838798e+000 0.000000e+000
      vertex   -9.875671e+000 5.128460e+000 0.000000e+000
      vertex   -9.875671e+000 5.128460e+000 1.000000e+000
    endloop
  endfacet
  facet normal 9.320079e-001 -3.624380e-001 0.000000e+000
    outer loop
      vertex   -1.019548e+001 4.514110e+000 0.000000e+000
      vertex   -1.006922e+001 4.838798e+000 0.000000e+000
      vertex   -1.006922e+001 4.838798e+000 1.000000e+000
    endloop
  endfacet
  facet normal 9.883615e-001 -1.521234e-001 0.000000e+000
    outer loop
      vertex   -1.024848e+001 4.169791e+000 0.000000e+000
      vertex   -1.019548e+001 4.514110e+000 0.000000e+000
      vertex   -1.019548e+001 4.514110e+000 1.000000e+000
    endloop
  endfacet
  facet normal 9.978589e-001 6.540313e-002 0.000000e+000
    outer loop
      vertex   -1.022569e+001 3.822163e+000 0.000000e+000
      vertex   -1.024848e+001 4.169791e+000 0.000000e+000
      vertex   -1.024848e+001 4.169791e+000 1.000000e+000
    endloop
  endfacet
  facet normal 9.978589e-001 6.540313e-002 0.000000e+000
    outer loop
      vertex   -1.024848e+001 4.169791e+000 1.000000e+000
      vertex   -1.022569e+001 3.822163e+000 1.000000e+000
      vertex   -1.022569e+001 3.822163e+000 0.000000e+000
    endloop
  endfacet
  facet normal 9.883615e-001 -1.521234e-001 0.000000e+000
    outer loop
      vertex   -1.019548e+001 4.514110e+000 1.000000e+000
      vertex   -1.024848e+001 4.169791e+000 1.000000e+000
      vertex   -1.024848e+001 4.169791e+000 0.000000e+000
    endloop
  endfacet
  facet normal 9.320079e-001 -3.624380e-001 0.000000e+000
    outer loop
      vertex   -1.006922e+001 4.838798e+000 1.000000e+000
      vertex   -1.019548e+001 4.514110e+000 1.000000e+000
      vertex   -1.019548e+001 4.514110e+000 0.000000e+000
    endloop
  endfacet
  facet normal 8.314696e-001 -5.555702e-001 0.000000e+000
    outer loop
      vertex   -9.875671e+000 5.128460e+000 1.000000e+000
      vertex   -1.006922e+001 4.838798e+000 1.000000e+000
      vertex   -1.006922e+001 4.838798e+000 0.000000e+000
    endloop
  endfacet
  facet normal 6.915131e-001 -7.223640e-001 0.000000e+000
    outer loop
      vertex   -9.624018e+000 5.369365e+000 1.000000e+000
      vertex   -9.875671e+000 5.128460e+000 1.000000e+000
      vertex   -9.875671e+000 5.128460e+000 0.000000e+000
    endloop
  endfacet
  facet normal 5.187733e-001 -8.549119e-001 0.000000e+000
    outer loop
      vertex   -9.326189e+000 5.550092e+000 1.000000e+000
      vertex   -9.624018e+000 5.369365e+000 1.000000e+000
      vertex   -9.624018e+000 5.369365e+000 0.000000e+000
    endloop
  endfacet
  facet normal 3.214395e-001 -9.469301e-001 0.000000e+000
    outer loop
      vertex   -8.996303e+000 5.662074e+000 1.000000e+000
      vertex   -9.326189e+000 5.550092e+000 1.000000e+000
      vertex   -9.326189e+000 5.550092e+000 0.000000e+000
    endloop
  endfacet
  facet normal 1.088669e-001 -9.940563e-001 0.000000e+000
    outer loop
      vertex   -8.650000e+000 5.700000e+000 1.000000e+000
      vertex   -8.996303e+000 5.662074e+000 1.000000e+000
      vertex   -8.996303e+000 5.662074e+000 0.000000e+000
    endloop
  endfacet
  facet normal 0.000000e+000 -1.000000e+000 0.000000e+000
    outer loop
      vertex   -8.650000e+000 5.700000e+000 1.000000e+000
      vertex   -8.650000e+000 5.700000e+000 0.000000e+000
      vertex   8.650000e+000 5.700000e+000 0.000000e+000
    endloop
  endfacet
  facet normal 0.000000e+000 -1.000000e+000 0.000000e+000
    outer loop
      vertex   8.650000e+000 5.700000e+000 0.000000e+000
      vertex   8.650000e+000 5.700000e+000 1.000000e+000
      vertex   -8.650000e+000 5.700000e+000 1.000000e+000
    endloop
  endfacet
endsolid
